{
	"asset":{
		"generator":"Khronos glTF Blender I/O v4.4.56",
		"version":"2.0"
	},
	"scene":0,
	"scenes":[
		{
			"name":"Scene",
			"nodes":[
				0
			]
		}
	],
	"nodes":[
		{
			"mesh":0,
			"name":"Cube_cell.023",
			"translation":[
				-13.584397315979004,
				4.043630599975586,
				6.346837043762207
			]
		}
	],
	"materials":[
		{
			"doubleSided":true,
			"name":"Material.001",
			"normalTexture":{
				"index":0,
				"scale":1.1999999284744263
			},
			"pbrMetallicRoughness":{
				"baseColorTexture":{
					"index":1
				},
				"metallicFactor":0,
				"metallicRoughnessTexture":{
					"index":2
				}
			}
		}
	],
	"meshes":[
		{
			"name":"Cube_cell.022",
			"primitives":[
				{
					"attributes":{
						"POSITION":0,
						"NORMAL":1,
						"TEXCOORD_0":2
					},
					"indices":3,
					"material":0
				}
			]
		}
	],
	"textures":[
		{
			"sampler":0,
			"source":0
		},
		{
			"sampler":0,
			"source":1
		},
		{
			"sampler":0,
			"source":2
		}
	],
	"images":[
		{
			"mimeType":"image/png",
			"name":"PavingStones084_1K-PNG_NormalDX",
			"uri":"PavingStones084_1K-PNG_NormalDX.png"
		},
		{
			"mimeType":"image/png",
			"name":"Plaster007_1K-PNG_Color",
			"uri":"Plaster007_1K-PNG_Color.png"
		},
		{
			"mimeType":"image/png",
			"name":"Tiles086_1K-PNG_Roughness",
			"uri":"Tiles086_1K-PNG_Roughness.png"
		}
	],
	"accessors":[
		{
			"bufferView":0,
			"componentType":5126,
			"count":2566,
			"max":[
				45.607688903808594,
				4.195497512817383,
				21.071510314941406
			],
			"min":[
				-12.53223991394043,
				-1.3013757467269897,
				-39.32181930541992
			],
			"type":"VEC3"
		},
		{
			"bufferView":1,
			"componentType":5126,
			"count":2566,
			"type":"VEC3"
		},
		{
			"bufferView":2,
			"componentType":5126,
			"count":2566,
			"type":"VEC2"
		},
		{
			"bufferView":3,
			"componentType":5123,
			"count":3738,
			"type":"SCALAR"
		}
	],
	"bufferViews":[
		{
			"buffer":0,
			"byteLength":30792,
			"byteOffset":0,
			"target":34962
		},
		{
			"buffer":0,
			"byteLength":30792,
			"byteOffset":30792,
			"target":34962
		},
		{
			"buffer":0,
			"byteLength":20528,
			"byteOffset":61584,
			"target":34962
		},
		{
			"buffer":0,
			"byteLength":7476,
			"byteOffset":82112,
			"target":34963
		}
	],
	"samplers":[
		{
			"magFilter":9729,
			"minFilter":9987
		}
	],
	"buffers":[
		{
			"byteLength":89588,
			"uri":"Rubble.bin"
		}
	]
}
