{
	"asset":{
		"generator":"Khronos glTF Blender I/O v4.4.56",
		"version":"2.0"
	},
	"scene":0,
	"scenes":[
		{
			"name":"Scene",
			"nodes":[
				0,
				1,
				2,
				3,
				4,
				5,
				6,
				7,
				8,
				9,
				10
			]
		}
	],
	"nodes":[
		{
			"mesh":0,
			"name":"\u7acb\u65b9\u4f53",
			"rotation":[
				1,
				0,
				0,
				0
			],
			"scale":[
				-0.3712104558944702,
				-0.6186295747756958,
				-1
			]
		},
		{
			"name":"SP",
			"translation":[
				0,
				1.250527024269104,
				-11.705740928649902
			]
		},
		{
			"mesh":1,
			"name":"\u7acb\u65b9\u4f53.001",
			"rotation":[
				1,
				0,
				0,
				0
			],
			"scale":[
				-0.3712104558944702,
				-0.6186295747756958,
				-1
			]
		},
		{
			"mesh":2,
			"name":"\u7acb\u65b9\u4f53.002",
			"rotation":[
				1,
				0,
				0,
				0
			],
			"scale":[
				-0.3712104558944702,
				-0.6186295747756958,
				-1
			]
		},
		{
			"mesh":3,
			"name":"\u7acb\u65b9\u4f53.003",
			"rotation":[
				1,
				0,
				0,
				0
			],
			"scale":[
				-0.3712104558944702,
				-0.6186295747756958,
				-1
			]
		},
		{
			"mesh":4,
			"name":"\u7acb\u65b9\u4f53.004",
			"rotation":[
				1,
				0,
				0,
				0
			],
			"scale":[
				-0.3712104558944702,
				-0.6186295747756958,
				-1
			]
		},
		{
			"mesh":5,
			"name":"\u7acb\u65b9\u4f53.005",
			"rotation":[
				1,
				0,
				0,
				0
			],
			"scale":[
				-0.3712104558944702,
				-0.6186295747756958,
				-1
			]
		},
		{
			"mesh":6,
			"name":"\u7acb\u65b9\u4f53.006",
			"rotation":[
				1,
				0,
				0,
				0
			],
			"scale":[
				-0.3712104558944702,
				-0.6186295747756958,
				-1
			]
		},
		{
			"mesh":7,
			"name":"\u7acb\u65b9\u4f53.007",
			"rotation":[
				1,
				0,
				0,
				0
			],
			"scale":[
				-0.3712104558944702,
				-0.6186295747756958,
				-1
			]
		},
		{
			"mesh":8,
			"name":"\u7acb\u65b9\u4f53.008",
			"rotation":[
				1,
				0,
				0,
				0
			],
			"scale":[
				-0.3712104558944702,
				-0.6186295747756958,
				-1
			]
		},
		{
			"mesh":9,
			"name":"\u7acb\u65b9\u4f53.009",
			"rotation":[
				1,
				0,
				0,
				0
			],
			"scale":[
				-0.3712104558944702,
				-0.6186295747756958,
				-1
			]
		}
	],
	"materials":[
		{
			"doubleSided":true,
			"name":"Material",
			"normalTexture":{
				"index":0,
				"scale":10
			},
			"pbrMetallicRoughness":{
				"baseColorFactor":[
					0.12440706044435501,
					0.12440706044435501,
					0.12440706044435501,
					1
				],
				"metallicFactor":0.906732439994812,
				"roughnessFactor":0.23413898050785065
			}
		},
		{
			"doubleSided":true,
			"name":"\u30de\u30c6\u30ea\u30a2\u30eb",
			"normalTexture":{
				"index":1,
				"scale":0.3000001907348633
			},
			"pbrMetallicRoughness":{
				"baseColorFactor":[
					0.00934496521949768,
					0.00934496521949768,
					0.00934496521949768,
					1
				],
				"metallicFactor":0.8580060601234436,
				"roughnessFactor":0.17975831031799316
			}
		}
	],
	"meshes":[
		{
			"name":"\u7acb\u65b9\u4f53",
			"primitives":[
				{
					"attributes":{
						"POSITION":0,
						"NORMAL":1,
						"TEXCOORD_0":2
					},
					"indices":3,
					"material":0
				}
			]
		},
		{
			"name":"\u7acb\u65b9\u4f53.014",
			"primitives":[
				{
					"attributes":{
						"POSITION":4,
						"NORMAL":5,
						"TEXCOORD_0":6
					},
					"indices":7,
					"material":0
				}
			]
		},
		{
			"name":"\u7acb\u65b9\u4f53.027",
			"primitives":[
				{
					"attributes":{
						"POSITION":8,
						"NORMAL":9,
						"TEXCOORD_0":10
					},
					"indices":11,
					"material":0
				}
			]
		},
		{
			"name":"\u7acb\u65b9\u4f53.044",
			"primitives":[
				{
					"attributes":{
						"POSITION":12,
						"NORMAL":13,
						"TEXCOORD_0":14
					},
					"indices":15,
					"material":0
				}
			]
		},
		{
			"name":"\u7acb\u65b9\u4f53.045",
			"primitives":[
				{
					"attributes":{
						"POSITION":16,
						"NORMAL":17,
						"TEXCOORD_0":18
					},
					"indices":19,
					"material":0
				}
			]
		},
		{
			"name":"\u7acb\u65b9\u4f53.046",
			"primitives":[
				{
					"attributes":{
						"POSITION":20,
						"NORMAL":21,
						"TEXCOORD_0":22
					},
					"indices":23,
					"material":1
				}
			]
		},
		{
			"name":"\u7acb\u65b9\u4f53.047",
			"primitives":[
				{
					"attributes":{
						"POSITION":24,
						"NORMAL":25,
						"TEXCOORD_0":26
					},
					"indices":23,
					"material":1
				}
			]
		},
		{
			"name":"\u7acb\u65b9\u4f53.048",
			"primitives":[
				{
					"attributes":{
						"POSITION":27,
						"NORMAL":28,
						"TEXCOORD_0":29
					},
					"indices":23,
					"material":1
				}
			]
		},
		{
			"name":"\u7acb\u65b9\u4f53.049",
			"primitives":[
				{
					"attributes":{
						"POSITION":30,
						"NORMAL":31,
						"TEXCOORD_0":32
					},
					"indices":23,
					"material":1
				}
			]
		},
		{
			"name":"\u7acb\u65b9\u4f53.050",
			"primitives":[
				{
					"attributes":{
						"POSITION":33,
						"NORMAL":34,
						"TEXCOORD_0":35
					},
					"indices":23,
					"material":1
				}
			]
		}
	],
	"textures":[
		{
			"sampler":0,
			"source":0
		},
		{
			"sampler":0,
			"source":1
		}
	],
	"images":[
		{
			"mimeType":"image/png",
			"name":"rubber_tiles_nor_gl_4k",
			"uri":"rubber_tiles_nor_gl_4k.png"
		},
		{
			"mimeType":"image/png",
			"name":"miniaNol",
			"uri":"miniaNol.png"
		}
	],
	"accessors":[
		{
			"bufferView":0,
			"componentType":5126,
			"count":4420,
			"max":[
				0.9388622641563416,
				4.376008033752441,
				0.9376120567321777
			],
			"min":[
				-0.9388048052787781,
				-1.6623653173446655,
				-11.707460403442383
			],
			"type":"VEC3"
		},
		{
			"bufferView":1,
			"componentType":5126,
			"count":4420,
			"type":"VEC3"
		},
		{
			"bufferView":2,
			"componentType":5126,
			"count":4420,
			"type":"VEC2"
		},
		{
			"bufferView":3,
			"componentType":5123,
			"count":8160,
			"type":"SCALAR"
		},
		{
			"bufferView":4,
			"componentType":5126,
			"count":132,
			"max":[
				0.7034200429916382,
				3.4613142013549805,
				-2.864981174468994
			],
			"min":[
				-0.67045658826828,
				2.4857747554779053,
				-2.9700427055358887
			],
			"type":"VEC3"
		},
		{
			"bufferView":5,
			"componentType":5126,
			"count":132,
			"type":"VEC3"
		},
		{
			"bufferView":6,
			"componentType":5126,
			"count":132,
			"type":"VEC2"
		},
		{
			"bufferView":7,
			"componentType":5123,
			"count":264,
			"type":"SCALAR"
		},
		{
			"bufferView":8,
			"componentType":5126,
			"count":132,
			"max":[
				0.7034200429916382,
				3.4613142013549805,
				-4.455781936645508
			],
			"min":[
				-0.67045658826828,
				2.4857752323150635,
				-4.560842990875244
			],
			"type":"VEC3"
		},
		{
			"bufferView":9,
			"componentType":5126,
			"count":132,
			"type":"VEC3"
		},
		{
			"bufferView":10,
			"componentType":5126,
			"count":132,
			"type":"VEC2"
		},
		{
			"bufferView":11,
			"componentType":5123,
			"count":264,
			"type":"SCALAR"
		},
		{
			"bufferView":12,
			"componentType":5126,
			"count":192,
			"max":[
				0.2155398726463318,
				3.278738498687744,
				-2.65220308303833
			],
			"min":[
				-0.2154824435710907,
				3.020102024078369,
				-4.612203121185303
			],
			"type":"VEC3"
		},
		{
			"bufferView":13,
			"componentType":5126,
			"count":192,
			"type":"VEC3"
		},
		{
			"bufferView":14,
			"componentType":5126,
			"count":192,
			"type":"VEC2"
		},
		{
			"bufferView":15,
			"componentType":5123,
			"count":372,
			"type":"SCALAR"
		},
		{
			"bufferView":16,
			"componentType":5126,
			"count":192,
			"max":[
				1.1945065259933472,
				2.443671226501465,
				-1.1400871276855469
			],
			"min":[
				-1.1944491863250732,
				1.0101714134216309,
				-3.2738914489746094
			],
			"type":"VEC3"
		},
		{
			"bufferView":17,
			"componentType":5126,
			"count":192,
			"type":"VEC3"
		},
		{
			"bufferView":18,
			"componentType":5126,
			"count":192,
			"type":"VEC2"
		},
		{
			"bufferView":19,
			"componentType":5123,
			"count":372,
			"type":"SCALAR"
		},
		{
			"bufferView":20,
			"componentType":5126,
			"count":992,
			"max":[
				1.0775846242904663,
				2.373511791229248,
				-8.375329971313477
			],
			"min":[
				-1.0775271654129028,
				1.0803308486938477,
				-9.637638092041016
			],
			"type":"VEC3"
		},
		{
			"bufferView":21,
			"componentType":5126,
			"count":992,
			"type":"VEC3"
		},
		{
			"bufferView":22,
			"componentType":5126,
			"count":992,
			"type":"VEC2"
		},
		{
			"bufferView":23,
			"componentType":5123,
			"count":1716,
			"type":"SCALAR"
		},
		{
			"bufferView":24,
			"componentType":5126,
			"count":992,
			"max":[
				1.0775846242904663,
				2.373511791229248,
				-7.113021373748779
			],
			"min":[
				-1.0775271654129028,
				1.0803306102752686,
				-8.375329971313477
			],
			"type":"VEC3"
		},
		{
			"bufferView":25,
			"componentType":5126,
			"count":992,
			"type":"VEC3"
		},
		{
			"bufferView":26,
			"componentType":5126,
			"count":992,
			"type":"VEC2"
		},
		{
			"bufferView":27,
			"componentType":5126,
			"count":992,
			"max":[
				1.0775846242904663,
				2.373511791229248,
				-5.850712776184082
			],
			"min":[
				-1.0775271654129028,
				1.0803306102752686,
				-7.113021373748779
			],
			"type":"VEC3"
		},
		{
			"bufferView":28,
			"componentType":5126,
			"count":992,
			"type":"VEC3"
		},
		{
			"bufferView":29,
			"componentType":5126,
			"count":992,
			"type":"VEC2"
		},
		{
			"bufferView":30,
			"componentType":5126,
			"count":992,
			"max":[
				1.0775846242904663,
				2.37351131439209,
				-4.588404178619385
			],
			"min":[
				-1.0775271654129028,
				1.0803306102752686,
				-5.850712776184082
			],
			"type":"VEC3"
		},
		{
			"bufferView":31,
			"componentType":5126,
			"count":992,
			"type":"VEC3"
		},
		{
			"bufferView":32,
			"componentType":5126,
			"count":992,
			"type":"VEC2"
		},
		{
			"bufferView":33,
			"componentType":5126,
			"count":992,
			"max":[
				1.0775846242904663,
				2.37351131439209,
				-3.3260960578918457
			],
			"min":[
				-1.0775271654129028,
				1.0803303718566895,
				-4.588404178619385
			],
			"type":"VEC3"
		},
		{
			"bufferView":34,
			"componentType":5126,
			"count":992,
			"type":"VEC3"
		},
		{
			"bufferView":35,
			"componentType":5126,
			"count":992,
			"type":"VEC2"
		}
	],
	"bufferViews":[
		{
			"buffer":0,
			"byteLength":53040,
			"byteOffset":0,
			"target":34962
		},
		{
			"buffer":0,
			"byteLength":53040,
			"byteOffset":53040,
			"target":34962
		},
		{
			"buffer":0,
			"byteLength":35360,
			"byteOffset":106080,
			"target":34962
		},
		{
			"buffer":0,
			"byteLength":16320,
			"byteOffset":141440,
			"target":34963
		},
		{
			"buffer":0,
			"byteLength":1584,
			"byteOffset":157760,
			"target":34962
		},
		{
			"buffer":0,
			"byteLength":1584,
			"byteOffset":159344,
			"target":34962
		},
		{
			"buffer":0,
			"byteLength":1056,
			"byteOffset":160928,
			"target":34962
		},
		{
			"buffer":0,
			"byteLength":528,
			"byteOffset":161984,
			"target":34963
		},
		{
			"buffer":0,
			"byteLength":1584,
			"byteOffset":162512,
			"target":34962
		},
		{
			"buffer":0,
			"byteLength":1584,
			"byteOffset":164096,
			"target":34962
		},
		{
			"buffer":0,
			"byteLength":1056,
			"byteOffset":165680,
			"target":34962
		},
		{
			"buffer":0,
			"byteLength":528,
			"byteOffset":166736,
			"target":34963
		},
		{
			"buffer":0,
			"byteLength":2304,
			"byteOffset":167264,
			"target":34962
		},
		{
			"buffer":0,
			"byteLength":2304,
			"byteOffset":169568,
			"target":34962
		},
		{
			"buffer":0,
			"byteLength":1536,
			"byteOffset":171872,
			"target":34962
		},
		{
			"buffer":0,
			"byteLength":744,
			"byteOffset":173408,
			"target":34963
		},
		{
			"buffer":0,
			"byteLength":2304,
			"byteOffset":174152,
			"target":34962
		},
		{
			"buffer":0,
			"byteLength":2304,
			"byteOffset":176456,
			"target":34962
		},
		{
			"buffer":0,
			"byteLength":1536,
			"byteOffset":178760,
			"target":34962
		},
		{
			"buffer":0,
			"byteLength":744,
			"byteOffset":180296,
			"target":34963
		},
		{
			"buffer":0,
			"byteLength":11904,
			"byteOffset":181040,
			"target":34962
		},
		{
			"buffer":0,
			"byteLength":11904,
			"byteOffset":192944,
			"target":34962
		},
		{
			"buffer":0,
			"byteLength":7936,
			"byteOffset":204848,
			"target":34962
		},
		{
			"buffer":0,
			"byteLength":3432,
			"byteOffset":212784,
			"target":34963
		},
		{
			"buffer":0,
			"byteLength":11904,
			"byteOffset":216216,
			"target":34962
		},
		{
			"buffer":0,
			"byteLength":11904,
			"byteOffset":228120,
			"target":34962
		},
		{
			"buffer":0,
			"byteLength":7936,
			"byteOffset":240024,
			"target":34962
		},
		{
			"buffer":0,
			"byteLength":11904,
			"byteOffset":247960,
			"target":34962
		},
		{
			"buffer":0,
			"byteLength":11904,
			"byteOffset":259864,
			"target":34962
		},
		{
			"buffer":0,
			"byteLength":7936,
			"byteOffset":271768,
			"target":34962
		},
		{
			"buffer":0,
			"byteLength":11904,
			"byteOffset":279704,
			"target":34962
		},
		{
			"buffer":0,
			"byteLength":11904,
			"byteOffset":291608,
			"target":34962
		},
		{
			"buffer":0,
			"byteLength":7936,
			"byteOffset":303512,
			"target":34962
		},
		{
			"buffer":0,
			"byteLength":11904,
			"byteOffset":311448,
			"target":34962
		},
		{
			"buffer":0,
			"byteLength":11904,
			"byteOffset":323352,
			"target":34962
		},
		{
			"buffer":0,
			"byteLength":7936,
			"byteOffset":335256,
			"target":34962
		}
	],
	"samplers":[
		{
			"magFilter":9729,
			"minFilter":9987
		}
	],
	"buffers":[
		{
			"byteLength":343192,
			"uri":"Rifle.bin"
		}
	]
}
