{
	"asset":{
		"generator":"Khronos glTF Blender I/O v5.0.21",
		"version":"2.0"
	},
	"scene":0,
	"scenes":[
		{
			"name":"Scene",
			"nodes":[
				0,
				1
			]
		}
	],
	"nodes":[
		{
			"mesh":0,
			"name":"building_003"
		},
		{
			"mesh":1,
			"name":"COL",
			"translation":[
				0,
				75.04999542236328,
				0
			]
		}
	],
	"materials":[
		{
			"doubleSided":true,
			"name":"Material.001",
			"pbrMetallicRoughness":{
				"baseColorTexture":{
					"index":0
				},
				"metallicFactor":0,
				"metallicRoughnessTexture":{
					"index":1
				}
			}
		}
	],
	"meshes":[
		{
			"name":"building_003_mesh",
			"primitives":[
				{
					"attributes":{
						"POSITION":0,
						"NORMAL":1,
						"TEXCOORD_0":2
					},
					"indices":3,
					"material":0
				}
			]
		},
		{
			"name":"\u5186\u67f1",
			"primitives":[
				{
					"attributes":{
						"POSITION":4,
						"NORMAL":5,
						"TEXCOORD_0":6
					},
					"indices":7
				}
			]
		}
	],
	"textures":[
		{
			"sampler":0,
			"source":0
		},
		{
			"sampler":0,
			"source":1
		}
	],
	"images":[
		{
			"mimeType":"image/png",
			"name":"Plaster007_1K-PNG_Color",
			"uri":"Plaster007_1K-PNG_Color.png"
		},
		{
			"mimeType":"image/png",
			"name":"Tiles086_1K-PNG_Roughness",
			"uri":"Tiles086_1K-PNG_Roughness.png"
		}
	],
	"accessors":[
		{
			"bufferView":0,
			"componentType":5126,
			"count":4110,
			"max":[
				6.131958961486816,
				164.39996337890625,
				6.131958961486816
			],
			"min":[
				-6.131958961486816,
				0,
				-6.131958961486816
			],
			"type":"VEC3"
		},
		{
			"bufferView":1,
			"componentType":5126,
			"count":4110,
			"type":"VEC3"
		},
		{
			"bufferView":2,
			"componentType":5126,
			"count":4110,
			"type":"VEC2"
		},
		{
			"bufferView":3,
			"componentType":5123,
			"count":7764,
			"type":"SCALAR"
		},
		{
			"bufferView":4,
			"componentType":5126,
			"count":48,
			"max":[
				6.549999713897705,
				89.49952697753906,
				6.549999713897705
			],
			"min":[
				-6.549999713897705,
				-75,
				-6.549999713897705
			],
			"type":"VEC3"
		},
		{
			"bufferView":5,
			"componentType":5126,
			"count":48,
			"type":"VEC3"
		},
		{
			"bufferView":6,
			"componentType":5126,
			"count":48,
			"type":"VEC2"
		},
		{
			"bufferView":7,
			"componentType":5123,
			"count":84,
			"type":"SCALAR"
		}
	],
	"bufferViews":[
		{
			"buffer":0,
			"byteLength":49320,
			"byteOffset":0,
			"target":34962
		},
		{
			"buffer":0,
			"byteLength":49320,
			"byteOffset":49320,
			"target":34962
		},
		{
			"buffer":0,
			"byteLength":32880,
			"byteOffset":98640,
			"target":34962
		},
		{
			"buffer":0,
			"byteLength":15528,
			"byteOffset":131520,
			"target":34963
		},
		{
			"buffer":0,
			"byteLength":576,
			"byteOffset":147048,
			"target":34962
		},
		{
			"buffer":0,
			"byteLength":576,
			"byteOffset":147624,
			"target":34962
		},
		{
			"buffer":0,
			"byteLength":384,
			"byteOffset":148200,
			"target":34962
		},
		{
			"buffer":0,
			"byteLength":168,
			"byteOffset":148584,
			"target":34963
		}
	],
	"samplers":[
		{
			"magFilter":9729,
			"minFilter":9987
		}
	],
	"buffers":[
		{
			"byteLength":148752,
			"uri":"Tower.bin"
		}
	]
}
