{
	"asset":{
		"generator":"Khronos glTF Blender I/O v4.4.56",
		"version":"2.0"
	},
	"scene":0,
	"scenes":[
		{
			"name":"Scene",
			"nodes":[
				0,
				1,
				2
			]
		}
	],
	"nodes":[
		{
			"mesh":0,
			"name":"building_003"
		},
		{
			"mesh":1,
			"name":"building_004",
			"scale":[
				0.9344556927680969,
				1,
				0.9344556927680969
			],
			"translation":[
				0,
				114.51283264160156,
				0
			]
		},
		{
			"mesh":2,
			"name":"COL",
			"scale":[
				0.7535279989242554,
				1.6594971418380737,
				0.7535279989242554
			],
			"translation":[
				0,
				59.63795471191406,
				0
			]
		}
	],
	"materials":[
		{
			"doubleSided":true,
			"name":"Material.001",
			"normalTexture":{
				"index":0,
				"scale":1.1999999284744263
			},
			"pbrMetallicRoughness":{
				"baseColorTexture":{
					"index":1
				},
				"metallicFactor":0,
				"metallicRoughnessTexture":{
					"index":2
				}
			}
		},
		{
			"doubleSided":true,
			"name":"\u30de\u30c6\u30ea\u30a2\u30eb",
			"pbrMetallicRoughness":{
				"baseColorFactor":[
					0.8006381988525391,
					0.05683179944753647,
					0.05996174365282059,
					1
				],
				"metallicFactor":0.7405063509941101
			}
		}
	],
	"meshes":[
		{
			"name":"building_003_mesh",
			"primitives":[
				{
					"attributes":{
						"POSITION":0,
						"NORMAL":1,
						"TEXCOORD_0":2
					},
					"indices":3,
					"material":0
				}
			]
		},
		{
			"name":"building_004_mesh",
			"primitives":[
				{
					"attributes":{
						"POSITION":4,
						"NORMAL":5,
						"TEXCOORD_0":6
					},
					"indices":7,
					"material":1
				}
			]
		},
		{
			"name":"\u7acb\u65b9\u4f53",
			"primitives":[
				{
					"attributes":{
						"POSITION":8,
						"NORMAL":9,
						"TEXCOORD_0":10
					},
					"indices":11
				}
			]
		}
	],
	"textures":[
		{
			"sampler":0,
			"source":0
		},
		{
			"sampler":0,
			"source":1
		},
		{
			"sampler":0,
			"source":2
		}
	],
	"images":[
		{
			"mimeType":"image/png",
			"name":"PavingStones084_1K-PNG_NormalDX",
			"uri":"PavingStones084_1K-PNG_NormalDX.png"
		},
		{
			"mimeType":"image/png",
			"name":"Plaster007_1K-PNG_Color",
			"uri":"Plaster007_1K-PNG_Color.png"
		},
		{
			"mimeType":"image/png",
			"name":"Tiles086_1K-PNG_Roughness",
			"uri":"Tiles086_1K-PNG_Roughness.png"
		}
	],
	"accessors":[
		{
			"bufferView":0,
			"componentType":5126,
			"count":1308,
			"max":[
				37.040000915527344,
				114,
				37.040000915527344
			],
			"min":[
				-37.040000915527344,
				0,
				-37.040000915527344
			],
			"type":"VEC3"
		},
		{
			"bufferView":1,
			"componentType":5126,
			"count":1308,
			"type":"VEC3"
		},
		{
			"bufferView":2,
			"componentType":5126,
			"count":1308,
			"type":"VEC2"
		},
		{
			"bufferView":3,
			"componentType":5123,
			"count":2640,
			"type":"SCALAR"
		},
		{
			"bufferView":4,
			"componentType":5126,
			"count":4704,
			"max":[
				37.040000915527344,
				36,
				37.040000915527344
			],
			"min":[
				-37.040000915527344,
				0,
				-37.040000915527344
			],
			"type":"VEC3"
		},
		{
			"bufferView":5,
			"componentType":5126,
			"count":4704,
			"type":"VEC3"
		},
		{
			"bufferView":6,
			"componentType":5126,
			"count":4704,
			"type":"VEC2"
		},
		{
			"bufferView":7,
			"componentType":5123,
			"count":7056,
			"type":"SCALAR"
		},
		{
			"bufferView":8,
			"componentType":5126,
			"count":120,
			"max":[
				49.63825225830078,
				54.88380432128906,
				49.25071716308594
			],
			"min":[
				-49.488948822021484,
				-36.4949951171875,
				-49.38546371459961
			],
			"type":"VEC3"
		},
		{
			"bufferView":9,
			"componentType":5126,
			"count":120,
			"type":"VEC3"
		},
		{
			"bufferView":10,
			"componentType":5126,
			"count":120,
			"type":"VEC2"
		},
		{
			"bufferView":11,
			"componentType":5123,
			"count":228,
			"type":"SCALAR"
		}
	],
	"bufferViews":[
		{
			"buffer":0,
			"byteLength":15696,
			"byteOffset":0,
			"target":34962
		},
		{
			"buffer":0,
			"byteLength":15696,
			"byteOffset":15696,
			"target":34962
		},
		{
			"buffer":0,
			"byteLength":10464,
			"byteOffset":31392,
			"target":34962
		},
		{
			"buffer":0,
			"byteLength":5280,
			"byteOffset":41856,
			"target":34963
		},
		{
			"buffer":0,
			"byteLength":56448,
			"byteOffset":47136,
			"target":34962
		},
		{
			"buffer":0,
			"byteLength":56448,
			"byteOffset":103584,
			"target":34962
		},
		{
			"buffer":0,
			"byteLength":37632,
			"byteOffset":160032,
			"target":34962
		},
		{
			"buffer":0,
			"byteLength":14112,
			"byteOffset":197664,
			"target":34963
		},
		{
			"buffer":0,
			"byteLength":1440,
			"byteOffset":211776,
			"target":34962
		},
		{
			"buffer":0,
			"byteLength":1440,
			"byteOffset":213216,
			"target":34962
		},
		{
			"buffer":0,
			"byteLength":960,
			"byteOffset":214656,
			"target":34962
		},
		{
			"buffer":0,
			"byteLength":456,
			"byteOffset":215616,
			"target":34963
		}
	],
	"samplers":[
		{
			"magFilter":9729,
			"minFilter":9987
		}
	],
	"buffers":[
		{
			"byteLength":216072,
			"uri":"Mantion.bin"
		}
	]
}
