{
	"asset":{
		"generator":"Khronos glTF Blender I/O v4.4.56",
		"version":"2.0"
	},
	"scene":0,
	"scenes":[
		{
			"name":"Scene",
			"nodes":[
				0,
				1
			]
		}
	],
	"nodes":[
		{
			"mesh":0,
			"name":"building_003"
		},
		{
			"mesh":1,
			"name":"building_004",
			"scale":[
				0.9344556927680969,
				1,
				0.9344556927680969
			],
			"translation":[
				0,
				114.51283264160156,
				0
			]
		}
	],
	"meshes":[
		{
			"name":"building_003_mesh",
			"primitives":[
				{
					"attributes":{
						"POSITION":0,
						"NORMAL":1,
						"TEXCOORD_0":2
					},
					"indices":3
				}
			]
		},
		{
			"name":"building_004_mesh",
			"primitives":[
				{
					"attributes":{
						"POSITION":4,
						"NORMAL":5,
						"TEXCOORD_0":6
					},
					"indices":7
				}
			]
		}
	],
	"accessors":[
		{
			"bufferView":0,
			"componentType":5126,
			"count":1308,
			"max":[
				37.040000915527344,
				114,
				37.040000915527344
			],
			"min":[
				-37.040000915527344,
				0,
				-37.040000915527344
			],
			"type":"VEC3"
		},
		{
			"bufferView":1,
			"componentType":5126,
			"count":1308,
			"type":"VEC3"
		},
		{
			"bufferView":2,
			"componentType":5126,
			"count":1308,
			"type":"VEC2"
		},
		{
			"bufferView":3,
			"componentType":5123,
			"count":2622,
			"type":"SCALAR"
		},
		{
			"bufferView":4,
			"componentType":5126,
			"count":4704,
			"max":[
				37.040000915527344,
				36,
				37.040000915527344
			],
			"min":[
				-37.040000915527344,
				0,
				-37.040000915527344
			],
			"type":"VEC3"
		},
		{
			"bufferView":5,
			"componentType":5126,
			"count":4704,
			"type":"VEC3"
		},
		{
			"bufferView":6,
			"componentType":5126,
			"count":4704,
			"type":"VEC2"
		},
		{
			"bufferView":7,
			"componentType":5123,
			"count":7056,
			"type":"SCALAR"
		}
	],
	"bufferViews":[
		{
			"buffer":0,
			"byteLength":15696,
			"byteOffset":0,
			"target":34962
		},
		{
			"buffer":0,
			"byteLength":15696,
			"byteOffset":15696,
			"target":34962
		},
		{
			"buffer":0,
			"byteLength":10464,
			"byteOffset":31392,
			"target":34962
		},
		{
			"buffer":0,
			"byteLength":5244,
			"byteOffset":41856,
			"target":34963
		},
		{
			"buffer":0,
			"byteLength":56448,
			"byteOffset":47100,
			"target":34962
		},
		{
			"buffer":0,
			"byteLength":56448,
			"byteOffset":103548,
			"target":34962
		},
		{
			"buffer":0,
			"byteLength":37632,
			"byteOffset":159996,
			"target":34962
		},
		{
			"buffer":0,
			"byteLength":14112,
			"byteOffset":197628,
			"target":34963
		}
	],
	"buffers":[
		{
			"byteLength":211740,
			"uri":"Mantion.bin"
		}
	]
}
