{
	"asset":{
		"generator":"Khronos glTF Blender I/O v4.4.56",
		"version":"2.0"
	},
	"scene":0,
	"scenes":[
		{
			"name":"Scene",
			"nodes":[
				0,
				1,
				4
			]
		}
	],
	"nodes":[
		{
			"mesh":0,
			"name":"\u7acb\u65b9\u4f53"
		},
		{
			"name":"RightWeapon",
			"translation":[
				0,
				0.4702533483505249,
				0
			]
		},
		{
			"name":"\u30dc\u30fc\u30f3.001",
			"rotation":[
				-0.0019409393426030874,
				0,
				0,
				0.9999980926513672
			],
			"translation":[
				0,
				-0.1636388748884201,
				-1.2393184900283813
			]
		},
		{
			"children":[
				2
			],
			"name":"\u30dc\u30fc\u30f3",
			"rotation":[
				-0.7057330012321472,
				0,
				0,
				0.7084779143333435
			],
			"translation":[
				0,
				0,
				0.8008206486701965
			]
		},
		{
			"children":[
				3
			],
			"name":"\u30a2\u30fc\u30de\u30c1\u30e5\u30a2",
			"translation":[
				0,
				1.1227307319641113,
				0
			]
		}
	],
	"materials":[
		{
			"doubleSided":true,
			"name":"\u30de\u30c6\u30ea\u30a2\u30eb",
			"normalTexture":{
				"index":0
			},
			"pbrMetallicRoughness":{
				"baseColorTexture":{
					"index":1
				},
				"metallicFactor":0,
				"metallicRoughnessTexture":{
					"index":2
				}
			}
		}
	],
	"meshes":[
		{
			"name":"\u7acb\u65b9\u4f53",
			"primitives":[
				{
					"attributes":{
						"POSITION":0,
						"NORMAL":1,
						"TEXCOORD_0":2
					},
					"indices":3,
					"material":0
				}
			]
		}
	],
	"textures":[
		{
			"sampler":0,
			"source":0
		},
		{
			"sampler":0,
			"source":1
		},
		{
			"sampler":0,
			"source":2
		}
	],
	"images":[
		{
			"mimeType":"image/png",
			"name":"miniaNol",
			"uri":"miniaNol.png"
		},
		{
			"mimeType":"image/png",
			"name":"miniature",
			"uri":"miniature.png"
		},
		{
			"mimeType":"image/png",
			"name":"rubber_tiles_rough_4k",
			"uri":"rubber_tiles_rough_4k.png"
		}
	],
	"skins":[
		{
			"inverseBindMatrices":4,
			"joints":[
				3,
				2
			],
			"name":"\u30a2\u30fc\u30de\u30c1\u30e5\u30a2"
		}
	],
	"accessors":[
		{
			"bufferView":0,
			"componentType":5126,
			"count":782,
			"max":[
				5.2903666496276855,
				1.5,
				1.50239896774292
			],
			"min":[
				-5.290367126464844,
				-0.48948997259140015,
				-2
			],
			"type":"VEC3"
		},
		{
			"bufferView":1,
			"componentType":5126,
			"count":782,
			"type":"VEC3"
		},
		{
			"bufferView":2,
			"componentType":5126,
			"count":782,
			"type":"VEC2"
		},
		{
			"bufferView":3,
			"componentType":5123,
			"count":1368,
			"type":"SCALAR"
		},
		{
			"bufferView":4,
			"componentType":5126,
			"count":2,
			"type":"MAT4"
		}
	],
	"bufferViews":[
		{
			"buffer":0,
			"byteLength":9384,
			"byteOffset":0,
			"target":34962
		},
		{
			"buffer":0,
			"byteLength":9384,
			"byteOffset":9384,
			"target":34962
		},
		{
			"buffer":0,
			"byteLength":6256,
			"byteOffset":18768,
			"target":34962
		},
		{
			"buffer":0,
			"byteLength":2736,
			"byteOffset":25024,
			"target":34963
		},
		{
			"buffer":0,
			"byteLength":128,
			"byteOffset":27760
		}
	],
	"samplers":[
		{
			"magFilter":9729,
			"minFilter":9987
		}
	],
	"buffers":[
		{
			"byteLength":27888,
			"uri":"Drone.bin"
		}
	]
}
