{
	"asset":{
		"generator":"Khronos glTF Blender I/O v4.4.56",
		"version":"2.0"
	},
	"scene":0,
	"scenes":[
		{
			"name":"Scene",
			"nodes":[
				0
			]
		}
	],
	"nodes":[
		{
			"mesh":0,
			"name":"building_003"
		}
	],
	"materials":[
		{
			"doubleSided":true,
			"name":"mat_balcony",
			"normalTexture":{
				"index":0
			},
			"pbrMetallicRoughness":{
				"baseColorTexture":{
					"index":1
				},
				"metallicFactor":0,
				"metallicRoughnessTexture":{
					"index":2
				}
			}
		},
		{
			"doubleSided":true,
			"name":"mat_railing_posts",
			"normalTexture":{
				"index":3
			},
			"pbrMetallicRoughness":{
				"baseColorTexture":{
					"index":4
				},
				"metallicFactor":0,
				"metallicRoughnessTexture":{
					"index":5
				}
			}
		},
		{
			"doubleSided":true,
			"name":"mat_railing_rails",
			"normalTexture":{
				"index":6
			},
			"pbrMetallicRoughness":{
				"baseColorTexture":{
					"index":7
				},
				"metallicFactor":0,
				"metallicRoughnessTexture":{
					"index":8
				}
			}
		}
	],
	"meshes":[
		{
			"name":"building_003_mesh",
			"primitives":[
				{
					"attributes":{
						"POSITION":0,
						"NORMAL":1,
						"TEXCOORD_0":2
					},
					"indices":3,
					"material":0
				},
				{
					"attributes":{
						"POSITION":4,
						"NORMAL":5,
						"TEXCOORD_0":6
					},
					"indices":7,
					"material":1
				},
				{
					"attributes":{
						"POSITION":8,
						"NORMAL":9,
						"TEXCOORD_0":10
					},
					"indices":11,
					"material":2
				}
			]
		}
	],
	"textures":[
		{
			"sampler":0,
			"source":0
		},
		{
			"sampler":0,
			"source":1
		},
		{
			"sampler":0,
			"source":2
		},
		{
			"sampler":0,
			"source":3
		},
		{
			"sampler":0,
			"source":4
		},
		{
			"sampler":0,
			"source":5
		},
		{
			"sampler":0,
			"source":3
		},
		{
			"sampler":0,
			"source":6
		},
		{
			"sampler":0,
			"source":7
		}
	],
	"images":[
		{
			"mimeType":"image/png",
			"name":"PavingStones084_1K-PNG_NormalDX",
			"uri":"PavingStones084_1K-PNG_NormalDX.png"
		},
		{
			"mimeType":"image/png",
			"name":"Rock046L_1K-PNG_Color",
			"uri":"Rock046L_1K-PNG_Color.png"
		},
		{
			"mimeType":"image/png",
			"name":"PavingStones084_1K-PNG_Roughness",
			"uri":"PavingStones084_1K-PNG_Roughness.png"
		},
		{
			"mimeType":"image/png",
			"name":"2846Nol",
			"uri":"2846Nol.png"
		},
		{
			"mimeType":"image/png",
			"name":"28464617_s",
			"uri":"28464617_s.png"
		},
		{
			"mimeType":"image/png",
			"name":"Rock046L_1K-PNG_Roughness",
			"uri":"Rock046L_1K-PNG_Roughness.png"
		},
		{
			"mimeType":"image/png",
			"name":"Plaster007_1K-PNG_Color",
			"uri":"Plaster007_1K-PNG_Color.png"
		},
		{
			"mimeType":"image/png",
			"name":"Plaster007_1K-PNG_Roughness",
			"uri":"Plaster007_1K-PNG_Roughness.png"
		}
	],
	"accessors":[
		{
			"bufferView":0,
			"componentType":5126,
			"count":1392,
			"max":[
				93.86304473876953,
				78,
				51
			],
			"min":[
				-68.21244812011719,
				0.20000000298023224,
				-68.43130493164062
			],
			"type":"VEC3"
		},
		{
			"bufferView":1,
			"componentType":5126,
			"count":1392,
			"type":"VEC3"
		},
		{
			"bufferView":2,
			"componentType":5126,
			"count":1392,
			"type":"VEC2"
		},
		{
			"bufferView":3,
			"componentType":5123,
			"count":2100,
			"type":"SCALAR"
		},
		{
			"bufferView":4,
			"componentType":5126,
			"count":8448,
			"max":[
				69.4315185546875,
				69.5,
				51
			],
			"min":[
				-56.606224060058594,
				16.799999237060547,
				-0.7458057403564453
			],
			"type":"VEC3"
		},
		{
			"bufferView":5,
			"componentType":5126,
			"count":8448,
			"type":"VEC3"
		},
		{
			"bufferView":6,
			"componentType":5126,
			"count":8448,
			"type":"VEC2"
		},
		{
			"bufferView":7,
			"componentType":5123,
			"count":12672,
			"type":"SCALAR"
		},
		{
			"bufferView":8,
			"componentType":5126,
			"count":3032,
			"max":[
				93.96304321289062,
				73,
				51
			],
			"min":[
				-68.31244659423828,
				0,
				-68.53130340576172
			],
			"type":"VEC3"
		},
		{
			"bufferView":9,
			"componentType":5126,
			"count":3032,
			"type":"VEC3"
		},
		{
			"bufferView":10,
			"componentType":5126,
			"count":3032,
			"type":"VEC2"
		},
		{
			"bufferView":11,
			"componentType":5123,
			"count":5616,
			"type":"SCALAR"
		}
	],
	"bufferViews":[
		{
			"buffer":0,
			"byteLength":16704,
			"byteOffset":0,
			"target":34962
		},
		{
			"buffer":0,
			"byteLength":16704,
			"byteOffset":16704,
			"target":34962
		},
		{
			"buffer":0,
			"byteLength":11136,
			"byteOffset":33408,
			"target":34962
		},
		{
			"buffer":0,
			"byteLength":4200,
			"byteOffset":44544,
			"target":34963
		},
		{
			"buffer":0,
			"byteLength":101376,
			"byteOffset":48744,
			"target":34962
		},
		{
			"buffer":0,
			"byteLength":101376,
			"byteOffset":150120,
			"target":34962
		},
		{
			"buffer":0,
			"byteLength":67584,
			"byteOffset":251496,
			"target":34962
		},
		{
			"buffer":0,
			"byteLength":25344,
			"byteOffset":319080,
			"target":34963
		},
		{
			"buffer":0,
			"byteLength":36384,
			"byteOffset":344424,
			"target":34962
		},
		{
			"buffer":0,
			"byteLength":36384,
			"byteOffset":380808,
			"target":34962
		},
		{
			"buffer":0,
			"byteLength":24256,
			"byteOffset":417192,
			"target":34962
		},
		{
			"buffer":0,
			"byteLength":11232,
			"byteOffset":441448,
			"target":34963
		}
	],
	"samplers":[
		{
			"magFilter":9729,
			"minFilter":9987
		}
	],
	"buffers":[
		{
			"byteLength":452680,
			"uri":"BalconyApartment.bin"
		}
	]
}
