{
	"asset":{
		"generator":"Khronos glTF Blender I/O v4.4.56",
		"version":"2.0"
	},
	"scene":0,
	"scenes":[
		{
			"name":"Scene",
			"nodes":[
				0,
				1
			]
		}
	],
	"nodes":[
		{
			"name":"SP",
			"translation":[
				-0.003203153610229492,
				0.4777975082397461,
				-3.406160593032837
			]
		},
		{
			"mesh":0,
			"name":"mp5"
		}
	],
	"materials":[
		{
			"doubleSided":true,
			"name":"metal_dark",
			"pbrMetallicRoughness":{
				"baseColorFactor":[
					0.11999999731779099,
					0.14412850141525269,
					0.16202940046787262,
					1
				],
				"metallicFactor":0,
				"roughnessFactor":0.5
			}
		},
		{
			"doubleSided":true,
			"name":"metal_light",
			"pbrMetallicRoughness":{
				"baseColorFactor":[
					0.503000020980835,
					0.6239604353904724,
					0.6724432706832886,
					1
				],
				"metallicFactor":0,
				"roughnessFactor":0.5
			}
		},
		{
			"doubleSided":true,
			"name":"metal",
			"pbrMetallicRoughness":{
				"baseColorFactor":[
					0.22322800755500793,
					0.2746773064136505,
					0.30054378509521484,
					1
				],
				"metallicFactor":0,
				"roughnessFactor":0.5
			}
		}
	],
	"meshes":[
		{
			"name":"Cube.001",
			"primitives":[
				{
					"attributes":{
						"POSITION":0,
						"NORMAL":1
					},
					"indices":2,
					"material":0
				},
				{
					"attributes":{
						"POSITION":3,
						"NORMAL":4
					},
					"indices":5,
					"material":1
				},
				{
					"attributes":{
						"POSITION":6,
						"NORMAL":7
					},
					"indices":8,
					"material":2
				}
			]
		}
	],
	"accessors":[
		{
			"bufferView":0,
			"componentType":5126,
			"count":324,
			"max":[
				0.17017076909542084,
				1.9873125553131104,
				1.3649097681045532
			],
			"min":[
				-0.16800568997859955,
				0.21638065576553345,
				-3.406160593032837
			],
			"type":"VEC3"
		},
		{
			"bufferView":1,
			"componentType":5126,
			"count":324,
			"type":"VEC3"
		},
		{
			"bufferView":2,
			"componentType":5123,
			"count":528,
			"type":"SCALAR"
		},
		{
			"bufferView":3,
			"componentType":5126,
			"count":88,
			"max":[
				0.14847685396671295,
				0.9262868762016296,
				-0.015593767166137695
			],
			"min":[
				-0.15746784210205078,
				0.3393518328666687,
				-3.406160593032837
			],
			"type":"VEC3"
		},
		{
			"bufferView":4,
			"componentType":5126,
			"count":88,
			"type":"VEC3"
		},
		{
			"bufferView":5,
			"componentType":5123,
			"count":168,
			"type":"SCALAR"
		},
		{
			"bufferView":6,
			"componentType":5126,
			"count":264,
			"max":[
				0.20257316529750824,
				0.6505805850028992,
				0.40740883350372314
			],
			"min":[
				-0.20040884613990784,
				-0.4921042323112488,
				-2.7217869758605957
			],
			"type":"VEC3"
		},
		{
			"bufferView":7,
			"componentType":5126,
			"count":264,
			"type":"VEC3"
		},
		{
			"bufferView":8,
			"componentType":5123,
			"count":474,
			"type":"SCALAR"
		}
	],
	"bufferViews":[
		{
			"buffer":0,
			"byteLength":3888,
			"byteOffset":0,
			"target":34962
		},
		{
			"buffer":0,
			"byteLength":3888,
			"byteOffset":3888,
			"target":34962
		},
		{
			"buffer":0,
			"byteLength":1056,
			"byteOffset":7776,
			"target":34963
		},
		{
			"buffer":0,
			"byteLength":1056,
			"byteOffset":8832,
			"target":34962
		},
		{
			"buffer":0,
			"byteLength":1056,
			"byteOffset":9888,
			"target":34962
		},
		{
			"buffer":0,
			"byteLength":336,
			"byteOffset":10944,
			"target":34963
		},
		{
			"buffer":0,
			"byteLength":3168,
			"byteOffset":11280,
			"target":34962
		},
		{
			"buffer":0,
			"byteLength":3168,
			"byteOffset":14448,
			"target":34962
		},
		{
			"buffer":0,
			"byteLength":948,
			"byteOffset":17616,
			"target":34963
		}
	],
	"buffers":[
		{
			"byteLength":18564,
			"uri":"MP5.bin"
		}
	]
}
