{
	"asset":{
		"generator":"Khronos glTF Blender I/O v4.4.56",
		"version":"2.0"
	},
	"scene":0,
	"scenes":[
		{
			"name":"Scene",
			"nodes":[
				0
			]
		}
	],
	"nodes":[
		{
			"mesh":0,
			"name":"Cube.001"
		}
	],
	"materials":[
		{
			"doubleSided":true,
			"name":"Material",
			"normalTexture":{
				"index":0,
				"scale":1.1999999284744263
			},
			"pbrMetallicRoughness":{
				"baseColorTexture":{
					"index":1
				},
				"metallicFactor":0,
				"metallicRoughnessTexture":{
					"index":2
				}
			}
		},
		{
			"doubleSided":true,
			"name":"\u30de\u30c6\u30ea\u30a2\u30eb",
			"normalTexture":{
				"index":3,
				"scale":2.4000000953674316
			},
			"pbrMetallicRoughness":{
				"baseColorFactor":[
					0.2880912721157074,
					0.7893706560134888,
					0.800481915473938,
					1
				],
				"metallicFactor":0.16012084484100342,
				"metallicRoughnessTexture":{
					"index":4
				}
			}
		},
		{
			"doubleSided":true,
			"name":"\u30de\u30c6\u30ea\u30a2\u30eb.001",
			"normalTexture":{
				"index":5,
				"scale":1.499999761581421
			},
			"pbrMetallicRoughness":{
				"baseColorTexture":{
					"index":6
				},
				"metallicFactor":0,
				"metallicRoughnessTexture":{
					"index":7
				}
			}
		}
	],
	"meshes":[
		{
			"name":"Cube.001",
			"primitives":[
				{
					"attributes":{
						"POSITION":0,
						"NORMAL":1,
						"TEXCOORD_0":2
					},
					"indices":3,
					"material":0
				},
				{
					"attributes":{
						"POSITION":4,
						"NORMAL":5,
						"TEXCOORD_0":6
					},
					"indices":7,
					"material":1
				},
				{
					"attributes":{
						"POSITION":8,
						"NORMAL":9,
						"TEXCOORD_0":10
					},
					"indices":11,
					"material":2
				}
			]
		}
	],
	"textures":[
		{
			"sampler":0,
			"source":0
		},
		{
			"sampler":0,
			"source":1
		},
		{
			"sampler":0,
			"source":2
		},
		{
			"sampler":0,
			"source":3
		},
		{
			"sampler":0,
			"source":4
		},
		{
			"sampler":0,
			"source":5
		},
		{
			"sampler":0,
			"source":1
		},
		{
			"sampler":0,
			"source":2
		}
	],
	"images":[
		{
			"mimeType":"image/png",
			"name":"Plaster007_1K-PNG_NormalGL",
			"uri":"Plaster007_1K-PNG_NormalGL.png"
		},
		{
			"mimeType":"image/png",
			"name":"Plaster007_1K-PNG_Color",
			"uri":"Plaster007_1K-PNG_Color.png"
		},
		{
			"mimeType":"image/png",
			"name":"Rock046L_1K-PNG_Roughness",
			"uri":"Rock046L_1K-PNG_Roughness.png"
		},
		{
			"mimeType":"image/png",
			"name":"Ice003_1K-PNG_NormalGL",
			"uri":"Ice003_1K-PNG_NormalGL.png"
		},
		{
			"mimeType":"image/png",
			"name":"Ice003_1K-PNG_Roughness",
			"uri":"Ice003_1K-PNG_Roughness.png"
		},
		{
			"mimeType":"image/png",
			"name":"PavingStones084_1K-PNG_NormalGL",
			"uri":"PavingStones084_1K-PNG_NormalGL.png"
		}
	],
	"accessors":[
		{
			"bufferView":0,
			"componentType":5126,
			"count":764,
			"max":[
				116.9560546875,
				82.36538696289062,
				53.01835632324219
			],
			"min":[
				-116.9560546875,
				2.365386962890625,
				-53.01835632324219
			],
			"type":"VEC3"
		},
		{
			"bufferView":1,
			"componentType":5126,
			"count":764,
			"type":"VEC3"
		},
		{
			"bufferView":2,
			"componentType":5126,
			"count":764,
			"type":"VEC2"
		},
		{
			"bufferView":3,
			"componentType":5123,
			"count":1578,
			"type":"SCALAR"
		},
		{
			"bufferView":4,
			"componentType":5126,
			"count":144,
			"max":[
				116.9560546875,
				78.55586242675781,
				53.01835632324219
			],
			"min":[
				-116.9560546875,
				21.413005828857422,
				-53.01835632324219
			],
			"type":"VEC3"
		},
		{
			"bufferView":5,
			"componentType":5126,
			"count":144,
			"type":"VEC3"
		},
		{
			"bufferView":6,
			"componentType":5126,
			"count":144,
			"type":"VEC2"
		},
		{
			"bufferView":7,
			"componentType":5123,
			"count":228,
			"type":"SCALAR"
		},
		{
			"bufferView":8,
			"componentType":5126,
			"count":50,
			"max":[
				116.9560546875,
				82.36538696289062,
				53.01835632324219
			],
			"min":[
				-49.391849517822266,
				9.222160339355469,
				-53.01835632324219
			],
			"type":"VEC3"
		},
		{
			"bufferView":9,
			"componentType":5126,
			"count":50,
			"type":"VEC3"
		},
		{
			"bufferView":10,
			"componentType":5126,
			"count":50,
			"type":"VEC2"
		},
		{
			"bufferView":11,
			"componentType":5123,
			"count":102,
			"type":"SCALAR"
		}
	],
	"bufferViews":[
		{
			"buffer":0,
			"byteLength":9168,
			"byteOffset":0,
			"target":34962
		},
		{
			"buffer":0,
			"byteLength":9168,
			"byteOffset":9168,
			"target":34962
		},
		{
			"buffer":0,
			"byteLength":6112,
			"byteOffset":18336,
			"target":34962
		},
		{
			"buffer":0,
			"byteLength":3156,
			"byteOffset":24448,
			"target":34963
		},
		{
			"buffer":0,
			"byteLength":1728,
			"byteOffset":27604,
			"target":34962
		},
		{
			"buffer":0,
			"byteLength":1728,
			"byteOffset":29332,
			"target":34962
		},
		{
			"buffer":0,
			"byteLength":1152,
			"byteOffset":31060,
			"target":34962
		},
		{
			"buffer":0,
			"byteLength":456,
			"byteOffset":32212,
			"target":34963
		},
		{
			"buffer":0,
			"byteLength":600,
			"byteOffset":32668,
			"target":34962
		},
		{
			"buffer":0,
			"byteLength":600,
			"byteOffset":33268,
			"target":34962
		},
		{
			"buffer":0,
			"byteLength":400,
			"byteOffset":33868,
			"target":34962
		},
		{
			"buffer":0,
			"byteLength":204,
			"byteOffset":34268,
			"target":34963
		}
	],
	"samplers":[
		{
			"magFilter":9729,
			"minFilter":9987
		}
	],
	"buffers":[
		{
			"byteLength":34472,
			"uri":"Bill.bin"
		}
	]
}
