{
	"asset":{
		"generator":"Khronos glTF Blender I/O v4.4.56",
		"version":"2.0"
	},
	"scene":0,
	"scenes":[
		{
			"name":"Scene",
			"nodes":[
				0,
				1,
				2,
				3,
				4
			]
		}
	],
	"nodes":[
		{
			"mesh":0,
			"name":"\u7acb\u65b9\u4f53"
		},
		{
			"mesh":1,
			"name":"\u7acb\u65b9\u4f53.001",
			"translation":[
				0,
				-0.49937349557876587,
				0
			]
		},
		{
			"mesh":2,
			"name":"\u7acb\u65b9\u4f53.002",
			"translation":[
				2.001394033432007,
				1.3041869401931763,
				0
			]
		},
		{
			"mesh":3,
			"name":"\u7acb\u65b9\u4f53.003",
			"scale":[
				1,
				1,
				0.6239772439002991
			],
			"translation":[
				3.6607484817504883,
				1.3041869401931763,
				-0.01977824792265892
			]
		},
		{
			"name":"Weapon",
			"translation":[
				0,
				0.4702533483505249,
				0
			]
		}
	],
	"materials":[
		{
			"doubleSided":true,
			"name":"\u30de\u30c6\u30ea\u30a2\u30eb",
			"normalTexture":{
				"index":0
			},
			"pbrMetallicRoughness":{
				"baseColorTexture":{
					"index":1
				},
				"metallicFactor":0,
				"metallicRoughnessTexture":{
					"index":2
				}
			}
		}
	],
	"meshes":[
		{
			"name":"\u7acb\u65b9\u4f53",
			"primitives":[
				{
					"attributes":{
						"POSITION":0,
						"NORMAL":1,
						"TEXCOORD_0":2
					},
					"indices":3,
					"material":0
				}
			]
		},
		{
			"name":"\u7acb\u65b9\u4f53.001",
			"primitives":[
				{
					"attributes":{
						"POSITION":4,
						"NORMAL":5,
						"TEXCOORD_0":6
					},
					"indices":7,
					"material":0
				}
			]
		},
		{
			"name":"\u7acb\u65b9\u4f53.002",
			"primitives":[
				{
					"attributes":{
						"POSITION":8,
						"NORMAL":9,
						"TEXCOORD_0":10
					},
					"indices":11,
					"material":0
				}
			]
		},
		{
			"name":"\u7acb\u65b9\u4f53.004",
			"primitives":[
				{
					"attributes":{
						"POSITION":12,
						"NORMAL":13,
						"TEXCOORD_0":14
					},
					"indices":11,
					"material":0
				}
			]
		}
	],
	"textures":[
		{
			"sampler":0,
			"source":0
		},
		{
			"sampler":0,
			"source":1
		},
		{
			"sampler":0,
			"source":2
		}
	],
	"images":[
		{
			"mimeType":"image/png",
			"name":"miniaNol",
			"uri":"miniaNol.png"
		},
		{
			"mimeType":"image/png",
			"name":"miniature",
			"uri":"miniature.png"
		},
		{
			"mimeType":"image/png",
			"name":"rubber_tiles_rough_4k",
			"uri":"rubber_tiles_rough_4k.png"
		}
	],
	"accessors":[
		{
			"bufferView":0,
			"componentType":5126,
			"count":154,
			"max":[
				1,
				1.5,
				1.50239896774292
			],
			"min":[
				-1,
				0.7424662709236145,
				-2
			],
			"type":"VEC3"
		},
		{
			"bufferView":1,
			"componentType":5126,
			"count":154,
			"type":"VEC3"
		},
		{
			"bufferView":2,
			"componentType":5126,
			"count":154,
			"type":"VEC2"
		},
		{
			"bufferView":3,
			"componentType":5123,
			"count":252,
			"type":"SCALAR"
		},
		{
			"bufferView":4,
			"componentType":5126,
			"count":84,
			"max":[
				1,
				0.7549417614936829,
				1.50239896774292
			],
			"min":[
				-1,
				0.009883522987365723,
				-2
			],
			"type":"VEC3"
		},
		{
			"bufferView":5,
			"componentType":5126,
			"count":84,
			"type":"VEC3"
		},
		{
			"bufferView":6,
			"componentType":5126,
			"count":84,
			"type":"VEC2"
		},
		{
			"bufferView":7,
			"componentType":5123,
			"count":132,
			"type":"SCALAR"
		},
		{
			"bufferView":8,
			"componentType":5126,
			"count":248,
			"max":[
				0.4426862597465515,
				0.18387532234191895,
				0.3014259934425354
			],
			"min":[
				-4.445474147796631,
				0.02118551731109619,
				-0.343805193901062
			],
			"type":"VEC3"
		},
		{
			"bufferView":9,
			"componentType":5126,
			"count":248,
			"type":"VEC3"
		},
		{
			"bufferView":10,
			"componentType":5126,
			"count":248,
			"type":"VEC2"
		},
		{
			"bufferView":11,
			"componentType":5123,
			"count":456,
			"type":"SCALAR"
		},
		{
			"bufferView":12,
			"componentType":5126,
			"count":248,
			"max":[
				1.6296182870864868,
				0.18387532234191895,
				0.314104825258255
			],
			"min":[
				-8.951115608215332,
				0.02118551731109619,
				-0.3828517198562622
			],
			"type":"VEC3"
		},
		{
			"bufferView":13,
			"componentType":5126,
			"count":248,
			"type":"VEC3"
		},
		{
			"bufferView":14,
			"componentType":5126,
			"count":248,
			"type":"VEC2"
		}
	],
	"bufferViews":[
		{
			"buffer":0,
			"byteLength":1848,
			"byteOffset":0,
			"target":34962
		},
		{
			"buffer":0,
			"byteLength":1848,
			"byteOffset":1848,
			"target":34962
		},
		{
			"buffer":0,
			"byteLength":1232,
			"byteOffset":3696,
			"target":34962
		},
		{
			"buffer":0,
			"byteLength":504,
			"byteOffset":4928,
			"target":34963
		},
		{
			"buffer":0,
			"byteLength":1008,
			"byteOffset":5432,
			"target":34962
		},
		{
			"buffer":0,
			"byteLength":1008,
			"byteOffset":6440,
			"target":34962
		},
		{
			"buffer":0,
			"byteLength":672,
			"byteOffset":7448,
			"target":34962
		},
		{
			"buffer":0,
			"byteLength":264,
			"byteOffset":8120,
			"target":34963
		},
		{
			"buffer":0,
			"byteLength":2976,
			"byteOffset":8384,
			"target":34962
		},
		{
			"buffer":0,
			"byteLength":2976,
			"byteOffset":11360,
			"target":34962
		},
		{
			"buffer":0,
			"byteLength":1984,
			"byteOffset":14336,
			"target":34962
		},
		{
			"buffer":0,
			"byteLength":912,
			"byteOffset":16320,
			"target":34963
		},
		{
			"buffer":0,
			"byteLength":2976,
			"byteOffset":17232,
			"target":34962
		},
		{
			"buffer":0,
			"byteLength":2976,
			"byteOffset":20208,
			"target":34962
		},
		{
			"buffer":0,
			"byteLength":1984,
			"byteOffset":23184,
			"target":34962
		}
	],
	"samplers":[
		{
			"magFilter":9729,
			"minFilter":9987
		}
	],
	"buffers":[
		{
			"byteLength":25168,
			"uri":"Drone.bin"
		}
	]
}
