{
	"asset":{
		"generator":"Khronos glTF Blender I/O v4.4.56",
		"version":"2.0"
	},
	"scene":0,
	"scenes":[
		{
			"name":"Scene",
			"nodes":[
				0,
				1
			]
		}
	],
	"nodes":[
		{
			"mesh":0,
			"name":"Riner"
		},
		{
			"name":"SP",
			"translation":[
				0,
				0.3814142644405365,
				-2.9772205352783203
			]
		}
	],
	"materials":[
		{
			"doubleSided":true,
			"name":"\u30de\u30c6\u30ea\u30a2\u30eb.001",
			"normalTexture":{
				"index":0,
				"scale":10
			},
			"pbrMetallicRoughness":{
				"baseColorTexture":{
					"index":1
				},
				"metallicFactor":0,
				"metallicRoughnessTexture":{
					"index":2
				}
			}
		}
	],
	"meshes":[
		{
			"name":"\u5186\u67f1.004",
			"primitives":[
				{
					"attributes":{
						"POSITION":0,
						"NORMAL":1,
						"TEXCOORD_0":2
					},
					"indices":3,
					"material":0
				}
			]
		}
	],
	"textures":[
		{
			"sampler":0,
			"source":0
		},
		{
			"sampler":0,
			"source":1
		},
		{
			"sampler":0,
			"source":2
		}
	],
	"images":[
		{
			"mimeType":"image/png",
			"name":"blue_metal_plate_rough_4k",
			"uri":"blue_metal_plate_rough_4k.png"
		},
		{
			"mimeType":"image/jpeg",
			"name":"miniature-game-mat-space-hulk-theme-4 (1)",
			"uri":"miniature-game-mat-space-hulk-theme-4%201.jpg"
		},
		{
			"mimeType":"image/png",
			"name":"blue_metal_plate_rough_4k",
			"uri":"blue_metal_plate_rough_4k-1.png"
		}
	],
	"accessors":[
		{
			"bufferView":0,
			"componentType":5126,
			"count":316,
			"max":[
				0.184658020734787,
				1.018113136291504,
				0.6850708723068237
			],
			"min":[
				-0.18187394738197327,
				-0.15024030208587646,
				-3.1578712463378906
			],
			"type":"VEC3"
		},
		{
			"bufferView":1,
			"componentType":5126,
			"count":316,
			"type":"VEC3"
		},
		{
			"bufferView":2,
			"componentType":5126,
			"count":316,
			"type":"VEC2"
		},
		{
			"bufferView":3,
			"componentType":5123,
			"count":582,
			"type":"SCALAR"
		}
	],
	"bufferViews":[
		{
			"buffer":0,
			"byteLength":3792,
			"byteOffset":0,
			"target":34962
		},
		{
			"buffer":0,
			"byteLength":3792,
			"byteOffset":3792,
			"target":34962
		},
		{
			"buffer":0,
			"byteLength":2528,
			"byteOffset":7584,
			"target":34962
		},
		{
			"buffer":0,
			"byteLength":1164,
			"byteOffset":10112,
			"target":34963
		}
	],
	"samplers":[
		{
			"magFilter":9729,
			"minFilter":9987
		}
	],
	"buffers":[
		{
			"byteLength":11276,
			"uri":"LinearRifle.bin"
		}
	]
}
