{
	"asset":{
		"generator":"Khronos glTF Blender I/O v4.4.56",
		"version":"2.0"
	},
	"scene":0,
	"scenes":[
		{
			"name":"Scene",
			"nodes":[
				0,
				1,
				2,
				3,
				4,
				5,
				6,
				7,
				8
			]
		}
	],
	"nodes":[
		{
			"mesh":0,
			"name":"Cube"
		},
		{
			"mesh":1,
			"name":"\u7acb\u65b9\u4f53",
			"translation":[
				0,
				0.9266206622123718,
				-1.7935712337493896
			]
		},
		{
			"mesh":2,
			"name":"\u7acb\u65b9\u4f53.002"
		},
		{
			"mesh":3,
			"name":"\u7acb\u65b9\u4f53.001",
			"scale":[
				0.8306866884231567,
				1,
				1
			],
			"translation":[
				0,
				2.1215622425079346,
				-4.04290771484375
			]
		},
		{
			"mesh":4,
			"name":"\u5186\u67f1",
			"rotation":[
				0.6935199499130249,
				-0.13794969022274017,
				-0.13794967532157898,
				0.6935198903083801
			],
			"translation":[
				0,
				1.459999918937683,
				-5.340000152587891
			]
		},
		{
			"mesh":5,
			"name":"\u5186\u67f1.001",
			"rotation":[
				0.7071068286895752,
				0,
				0,
				0.7071068286895752
			],
			"translation":[
				0.4099999666213989,
				1.1299999952316284,
				0
			]
		},
		{
			"mesh":6,
			"name":"\u5186\u67f1.002",
			"rotation":[
				0.6532815098762512,
				-0.27059805393218994,
				-0.27059805393218994,
				0.6532815098762512
			],
			"translation":[
				0.4057142734527588,
				1.1299999952316284,
				-0.5980219841003418
			]
		},
		{
			"mesh":7,
			"name":"\u7acb\u65b9\u4f53.003",
			"translation":[
				0,
				-0.20254701375961304,
				-7.415551662445068
			]
		},
		{
			"name":"SP",
			"translation":[
				0,
				1.2631808519363403,
				-10.8275146484375
			]
		}
	],
	"materials":[
		{
			"doubleSided":true,
			"name":"Material.001",
			"normalTexture":{
				"index":0,
				"scale":10
			},
			"pbrMetallicRoughness":{
				"baseColorFactor":[
					0.12440706044435501,
					0.12440706044435501,
					0.12440706044435501,
					1
				],
				"metallicFactor":0.906732439994812,
				"roughnessFactor":0.23413898050785065
			}
		},
		{
			"doubleSided":true,
			"name":"\u30de\u30c6\u30ea\u30a2\u30eb.003",
			"normalTexture":{
				"index":1,
				"scale":0.3000001907348633
			},
			"pbrMetallicRoughness":{
				"baseColorFactor":[
					0.00934496521949768,
					0.00934496521949768,
					0.00934496521949768,
					1
				],
				"metallicFactor":0.8580060601234436,
				"roughnessFactor":0.17975831031799316
			}
		},
		{
			"doubleSided":true,
			"name":"\u30de\u30c6\u30ea\u30a2\u30eb",
			"pbrMetallicRoughness":{
				"baseColorFactor":[
					0,
					0,
					0,
					1
				],
				"metallicFactor":0,
				"roughnessFactor":0.5
			}
		}
	],
	"meshes":[
		{
			"name":"Cube",
			"primitives":[
				{
					"attributes":{
						"POSITION":0,
						"NORMAL":1,
						"TEXCOORD_0":2
					},
					"indices":3,
					"material":0
				}
			]
		},
		{
			"name":"\u7acb\u65b9\u4f53",
			"primitives":[
				{
					"attributes":{
						"POSITION":4,
						"NORMAL":5,
						"TEXCOORD_0":6
					},
					"indices":7,
					"material":1
				}
			]
		},
		{
			"name":"\u7acb\u65b9\u4f53.002",
			"primitives":[
				{
					"attributes":{
						"POSITION":8,
						"NORMAL":9,
						"TEXCOORD_0":10
					},
					"indices":11,
					"material":0
				}
			]
		},
		{
			"name":"\u7acb\u65b9\u4f53.003",
			"primitives":[
				{
					"attributes":{
						"POSITION":12,
						"NORMAL":13,
						"TEXCOORD_0":14
					},
					"indices":15,
					"material":0
				}
			]
		},
		{
			"name":"\u5186\u67f1",
			"primitives":[
				{
					"attributes":{
						"POSITION":16,
						"NORMAL":17,
						"TEXCOORD_0":18
					},
					"indices":19,
					"material":0
				}
			]
		},
		{
			"name":"\u5186\u67f1.001",
			"primitives":[
				{
					"attributes":{
						"POSITION":20,
						"NORMAL":21,
						"TEXCOORD_0":22
					},
					"indices":23,
					"material":1
				}
			]
		},
		{
			"name":"\u5186\u67f1.002",
			"primitives":[
				{
					"attributes":{
						"POSITION":24,
						"NORMAL":25,
						"TEXCOORD_0":26
					},
					"indices":27,
					"material":0
				}
			]
		},
		{
			"name":"\u7acb\u65b9\u4f53.001",
			"primitives":[
				{
					"attributes":{
						"POSITION":28,
						"NORMAL":29,
						"TEXCOORD_0":30
					},
					"indices":31,
					"material":2
				}
			]
		}
	],
	"textures":[
		{
			"sampler":0,
			"source":0
		},
		{
			"sampler":0,
			"source":1
		}
	],
	"images":[
		{
			"mimeType":"image/png",
			"name":"rubber_tiles_nor_gl_4k",
			"uri":"rubber_tiles_nor_gl_4k.png"
		},
		{
			"mimeType":"image/png",
			"name":"miniaNol",
			"uri":"miniaNol.png"
		}
	],
	"accessors":[
		{
			"bufferView":0,
			"componentType":5126,
			"count":751,
			"max":[
				0.6191773414611816,
				2.028157949447632,
				3.7987442016601562
			],
			"min":[
				-0.5969183444976807,
				-1.0228906869888306,
				-1.1919111013412476
			],
			"type":"VEC3"
		},
		{
			"bufferView":1,
			"componentType":5126,
			"count":751,
			"type":"VEC3"
		},
		{
			"bufferView":2,
			"componentType":5126,
			"count":751,
			"type":"VEC2"
		},
		{
			"bufferView":3,
			"componentType":5123,
			"count":1353,
			"type":"SCALAR"
		},
		{
			"bufferView":4,
			"componentType":5126,
			"count":132,
			"max":[
				0.08596724271774292,
				0.9771093130111694,
				0.7539501786231995
			],
			"min":[
				-0.09921413660049438,
				-1.5235146284103394,
				-1.2289066314697266
			],
			"type":"VEC3"
		},
		{
			"bufferView":5,
			"componentType":5126,
			"count":132,
			"type":"VEC3"
		},
		{
			"bufferView":6,
			"componentType":5126,
			"count":132,
			"type":"VEC2"
		},
		{
			"bufferView":7,
			"componentType":5123,
			"count":252,
			"type":"SCALAR"
		},
		{
			"bufferView":8,
			"componentType":5126,
			"count":72,
			"max":[
				0.12224245071411133,
				1.900577187538147,
				-2.829547166824341
			],
			"min":[
				-0.12990844249725342,
				-0.4056912660598755,
				-5.472725868225098
			],
			"type":"VEC3"
		},
		{
			"bufferView":9,
			"componentType":5126,
			"count":72,
			"type":"VEC3"
		},
		{
			"bufferView":10,
			"componentType":5126,
			"count":72,
			"type":"VEC2"
		},
		{
			"bufferView":11,
			"componentType":5123,
			"count":132,
			"type":"SCALAR"
		},
		{
			"bufferView":12,
			"componentType":5126,
			"count":70,
			"max":[
				0.16570940613746643,
				0.2882944643497467,
				0.8019072413444519
			],
			"min":[
				-0.17901845276355743,
				-0.2728906571865082,
				-0.47890669107437134
			],
			"type":"VEC3"
		},
		{
			"bufferView":13,
			"componentType":5126,
			"count":70,
			"type":"VEC3"
		},
		{
			"bufferView":14,
			"componentType":5126,
			"count":70,
			"type":"VEC2"
		},
		{
			"bufferView":15,
			"componentType":5123,
			"count":120,
			"type":"SCALAR"
		},
		{
			"bufferView":16,
			"componentType":5126,
			"count":326,
			"max":[
				0.6104976534843445,
				0.8977048993110657,
				1.2243684530258179
			],
			"min":[
				-0.32354602217674255,
				-5.676907062530518,
				-0.4594895839691162
			],
			"type":"VEC3"
		},
		{
			"bufferView":17,
			"componentType":5126,
			"count":326,
			"type":"VEC3"
		},
		{
			"bufferView":18,
			"componentType":5126,
			"count":326,
			"type":"VEC2"
		},
		{
			"bufferView":19,
			"componentType":5123,
			"count":564,
			"type":"SCALAR"
		},
		{
			"bufferView":20,
			"componentType":5126,
			"count":96,
			"max":[
				0.10000002384185791,
				2.621093273162842,
				0.12289070338010788
			],
			"min":[
				-0.9199999570846558,
				-1.1349555253982544,
				-0.0771094262599945
			],
			"type":"VEC3"
		},
		{
			"bufferView":21,
			"componentType":5126,
			"count":96,
			"type":"VEC3"
		},
		{
			"bufferView":22,
			"componentType":5126,
			"count":96,
			"type":"VEC2"
		},
		{
			"bufferView":23,
			"componentType":5123,
			"count":168,
			"type":"SCALAR"
		},
		{
			"bufferView":24,
			"componentType":5126,
			"count":372,
			"max":[
				0.5739649534225464,
				0.48109322786331177,
				1.1477315425872803
			],
			"min":[
				-1.1153593063354492,
				-3.3167686462402344,
				-0.5415926575660706
			],
			"type":"VEC3"
		},
		{
			"bufferView":25,
			"componentType":5126,
			"count":372,
			"type":"VEC3"
		},
		{
			"bufferView":26,
			"componentType":5126,
			"count":372,
			"type":"VEC2"
		},
		{
			"bufferView":27,
			"componentType":5123,
			"count":648,
			"type":"SCALAR"
		},
		{
			"bufferView":28,
			"componentType":5126,
			"count":48,
			"max":[
				0.09391152858734131,
				1.3622492551803589,
				1.8249568939208984
			],
			"min":[
				-0.024774610996246338,
				0.010386776179075241,
				-1.2289066314697266
			],
			"type":"VEC3"
		},
		{
			"bufferView":29,
			"componentType":5126,
			"count":48,
			"type":"VEC3"
		},
		{
			"bufferView":30,
			"componentType":5126,
			"count":48,
			"type":"VEC2"
		},
		{
			"bufferView":31,
			"componentType":5123,
			"count":84,
			"type":"SCALAR"
		}
	],
	"bufferViews":[
		{
			"buffer":0,
			"byteLength":9012,
			"byteOffset":0,
			"target":34962
		},
		{
			"buffer":0,
			"byteLength":9012,
			"byteOffset":9012,
			"target":34962
		},
		{
			"buffer":0,
			"byteLength":6008,
			"byteOffset":18024,
			"target":34962
		},
		{
			"buffer":0,
			"byteLength":2706,
			"byteOffset":24032,
			"target":34963
		},
		{
			"buffer":0,
			"byteLength":1584,
			"byteOffset":26740,
			"target":34962
		},
		{
			"buffer":0,
			"byteLength":1584,
			"byteOffset":28324,
			"target":34962
		},
		{
			"buffer":0,
			"byteLength":1056,
			"byteOffset":29908,
			"target":34962
		},
		{
			"buffer":0,
			"byteLength":504,
			"byteOffset":30964,
			"target":34963
		},
		{
			"buffer":0,
			"byteLength":864,
			"byteOffset":31468,
			"target":34962
		},
		{
			"buffer":0,
			"byteLength":864,
			"byteOffset":32332,
			"target":34962
		},
		{
			"buffer":0,
			"byteLength":576,
			"byteOffset":33196,
			"target":34962
		},
		{
			"buffer":0,
			"byteLength":264,
			"byteOffset":33772,
			"target":34963
		},
		{
			"buffer":0,
			"byteLength":840,
			"byteOffset":34036,
			"target":34962
		},
		{
			"buffer":0,
			"byteLength":840,
			"byteOffset":34876,
			"target":34962
		},
		{
			"buffer":0,
			"byteLength":560,
			"byteOffset":35716,
			"target":34962
		},
		{
			"buffer":0,
			"byteLength":240,
			"byteOffset":36276,
			"target":34963
		},
		{
			"buffer":0,
			"byteLength":3912,
			"byteOffset":36516,
			"target":34962
		},
		{
			"buffer":0,
			"byteLength":3912,
			"byteOffset":40428,
			"target":34962
		},
		{
			"buffer":0,
			"byteLength":2608,
			"byteOffset":44340,
			"target":34962
		},
		{
			"buffer":0,
			"byteLength":1128,
			"byteOffset":46948,
			"target":34963
		},
		{
			"buffer":0,
			"byteLength":1152,
			"byteOffset":48076,
			"target":34962
		},
		{
			"buffer":0,
			"byteLength":1152,
			"byteOffset":49228,
			"target":34962
		},
		{
			"buffer":0,
			"byteLength":768,
			"byteOffset":50380,
			"target":34962
		},
		{
			"buffer":0,
			"byteLength":336,
			"byteOffset":51148,
			"target":34963
		},
		{
			"buffer":0,
			"byteLength":4464,
			"byteOffset":51484,
			"target":34962
		},
		{
			"buffer":0,
			"byteLength":4464,
			"byteOffset":55948,
			"target":34962
		},
		{
			"buffer":0,
			"byteLength":2976,
			"byteOffset":60412,
			"target":34962
		},
		{
			"buffer":0,
			"byteLength":1296,
			"byteOffset":63388,
			"target":34963
		},
		{
			"buffer":0,
			"byteLength":576,
			"byteOffset":64684,
			"target":34962
		},
		{
			"buffer":0,
			"byteLength":576,
			"byteOffset":65260,
			"target":34962
		},
		{
			"buffer":0,
			"byteLength":384,
			"byteOffset":65836,
			"target":34962
		},
		{
			"buffer":0,
			"byteLength":168,
			"byteOffset":66220,
			"target":34963
		}
	],
	"samplers":[
		{
			"magFilter":9729,
			"minFilter":9987
		}
	],
	"buffers":[
		{
			"byteLength":66388,
			"uri":"RaserRifle.bin"
		}
	]
}
