{
	"asset":{
		"generator":"Khronos glTF Blender I/O v4.4.56",
		"version":"2.0"
	},
	"scene":0,
	"scenes":[
		{
			"name":"Scene",
			"nodes":[
				0,
				1,
				2,
				3,
				4,
				5,
				6,
				7
			]
		}
	],
	"nodes":[
		{
			"mesh":0,
			"name":"Cube"
		},
		{
			"mesh":1,
			"name":"\u5e73\u9762",
			"rotation":[
				0.7071068286895752,
				0,
				0,
				0.7071068286895752
			],
			"translation":[
				-0.7520977854728699,
				0,
				0
			]
		},
		{
			"name":"SP1",
			"translation":[
				-0.1503780335187912,
				0.26814866065979004,
				-1.5449458360671997
			]
		},
		{
			"name":"SP2",
			"translation":[
				-0.8168261647224426,
				0.26814866065979004,
				-1.5449458360671997
			]
		},
		{
			"name":"SP3",
			"translation":[
				-1.5174510478973389,
				0.26814866065979004,
				-1.5449458360671997
			]
		},
		{
			"name":"SP4",
			"translation":[
				-1.5174510478973389,
				-0.17956778407096863,
				-1.5449458360671997
			]
		},
		{
			"name":"SP5",
			"translation":[
				-0.8168261647224426,
				-0.17956778407096863,
				-1.5449458360671997
			]
		},
		{
			"name":"SP6",
			"translation":[
				-0.1503780335187912,
				-0.17956778407096863,
				-1.5449458360671997
			]
		}
	],
	"materials":[
		{
			"doubleSided":true,
			"name":"Material",
			"pbrMetallicRoughness":{
				"baseColorFactor":[
					0.800000011920929,
					0.800000011920929,
					0.800000011920929,
					1
				],
				"metallicFactor":0,
				"roughnessFactor":0.5
			}
		}
	],
	"meshes":[
		{
			"name":"Cube",
			"primitives":[
				{
					"attributes":{
						"POSITION":0,
						"NORMAL":1,
						"TEXCOORD_0":2
					},
					"indices":3,
					"material":0
				}
			]
		},
		{
			"name":"\u5e73\u9762",
			"primitives":[
				{
					"attributes":{
						"POSITION":4,
						"NORMAL":5,
						"TEXCOORD_0":6
					},
					"indices":7
				}
			]
		}
	],
	"accessors":[
		{
			"bufferView":0,
			"componentType":5126,
			"count":786,
			"max":[
				0.18959945440292358,
				1,
				3.018076181411743
			],
			"min":[
				-1.882399082183838,
				-1,
				-1.4954952001571655
			],
			"type":"VEC3"
		},
		{
			"bufferView":1,
			"componentType":5126,
			"count":786,
			"type":"VEC3"
		},
		{
			"bufferView":2,
			"componentType":5126,
			"count":786,
			"type":"VEC2"
		},
		{
			"bufferView":3,
			"componentType":5123,
			"count":1440,
			"type":"SCALAR"
		},
		{
			"bufferView":4,
			"componentType":5126,
			"count":321,
			"max":[
				1.2884718179702759,
				1.2127004861831665,
				1.1675829887390137
			],
			"min":[
				-1.398131012916565,
				-0.9695981740951538,
				-1.6868013143539429
			],
			"type":"VEC3"
		},
		{
			"bufferView":5,
			"componentType":5126,
			"count":321,
			"type":"VEC3"
		},
		{
			"bufferView":6,
			"componentType":5126,
			"count":321,
			"type":"VEC2"
		},
		{
			"bufferView":7,
			"componentType":5123,
			"count":576,
			"type":"SCALAR"
		}
	],
	"bufferViews":[
		{
			"buffer":0,
			"byteLength":9432,
			"byteOffset":0,
			"target":34962
		},
		{
			"buffer":0,
			"byteLength":9432,
			"byteOffset":9432,
			"target":34962
		},
		{
			"buffer":0,
			"byteLength":6288,
			"byteOffset":18864,
			"target":34962
		},
		{
			"buffer":0,
			"byteLength":2880,
			"byteOffset":25152,
			"target":34963
		},
		{
			"buffer":0,
			"byteLength":3852,
			"byteOffset":28032,
			"target":34962
		},
		{
			"buffer":0,
			"byteLength":3852,
			"byteOffset":31884,
			"target":34962
		},
		{
			"buffer":0,
			"byteLength":2568,
			"byteOffset":35736,
			"target":34962
		},
		{
			"buffer":0,
			"byteLength":1152,
			"byteOffset":38304,
			"target":34963
		}
	],
	"buffers":[
		{
			"byteLength":39456,
			"uri":"6LineMissile.bin"
		}
	]
}
