{
	"asset":{
		"generator":"Khronos glTF Blender I/O v4.4.56",
		"version":"2.0"
	},
	"scene":0,
	"scenes":[
		{
			"name":"Scene",
			"nodes":[
				0,
				1,
				2
			]
		}
	],
	"nodes":[
		{
			"mesh":0,
			"name":"building_003"
		},
		{
			"mesh":1,
			"name":"building_003.001"
		},
		{
			"mesh":2,
			"name":"COL",
			"translation":[
				0,
				3.930800676345825,
				0
			]
		}
	],
	"materials":[
		{
			"doubleSided":true,
			"name":"mat_walls",
			"normalTexture":{
				"index":0,
				"scale":1.2000000476837158
			},
			"pbrMetallicRoughness":{
				"baseColorTexture":{
					"index":1
				},
				"metallicFactor":0,
				"roughnessFactor":0.5
			}
		},
		{
			"doubleSided":true,
			"name":"mat_slabs",
			"normalTexture":{
				"index":2,
				"scale":2.299999952316284
			},
			"pbrMetallicRoughness":{
				"baseColorTexture":{
					"index":3
				},
				"metallicFactor":0,
				"roughnessFactor":0.5
			}
		},
		{
			"doubleSided":true,
			"name":"mat_window",
			"normalTexture":{
				"index":4
			},
			"pbrMetallicRoughness":{
				"baseColorTexture":{
					"index":5
				},
				"metallicFactor":0.9113923907279968,
				"roughnessFactor":0.3807793855667114
			}
		}
	],
	"meshes":[
		{
			"name":"building_003_mesh",
			"primitives":[
				{
					"attributes":{
						"POSITION":0,
						"NORMAL":1,
						"TEXCOORD_0":2
					},
					"indices":3,
					"material":0
				},
				{
					"attributes":{
						"POSITION":4,
						"NORMAL":5,
						"TEXCOORD_0":6
					},
					"indices":7,
					"material":1
				},
				{
					"attributes":{
						"POSITION":8,
						"NORMAL":9,
						"TEXCOORD_0":10
					},
					"indices":11,
					"material":2
				}
			]
		},
		{
			"name":"building_003_mesh.001",
			"primitives":[
				{
					"attributes":{
						"POSITION":12,
						"NORMAL":13,
						"TEXCOORD_0":14
					},
					"indices":15,
					"material":0
				},
				{
					"attributes":{
						"POSITION":16,
						"NORMAL":17,
						"TEXCOORD_0":18
					},
					"indices":19,
					"material":1
				},
				{
					"attributes":{
						"POSITION":20,
						"NORMAL":21,
						"TEXCOORD_0":22
					},
					"indices":23,
					"material":2
				}
			]
		},
		{
			"name":"\u7acb\u65b9\u4f53",
			"primitives":[
				{
					"attributes":{
						"POSITION":24,
						"NORMAL":25,
						"TEXCOORD_0":26
					},
					"indices":27
				}
			]
		}
	],
	"textures":[
		{
			"sampler":0,
			"source":0
		},
		{
			"sampler":0,
			"source":1
		},
		{
			"sampler":0,
			"source":2
		},
		{
			"sampler":0,
			"source":3
		},
		{
			"sampler":0,
			"source":4
		},
		{
			"sampler":0,
			"source":5
		}
	],
	"images":[
		{
			"mimeType":"image/png",
			"name":"Rock046L_1K-PNG_NormalDX",
			"uri":"Rock046L_1K-PNG_NormalDX.png"
		},
		{
			"mimeType":"image/png",
			"name":"Rock046L_1K-PNG_Color",
			"uri":"Rock046L_1K-PNG_Color.png"
		},
		{
			"mimeType":"image/png",
			"name":"2846Nol",
			"uri":"2846Nol.png"
		},
		{
			"mimeType":"image/png",
			"name":"28464617_s",
			"uri":"28464617_s.png"
		},
		{
			"mimeType":"image/png",
			"name":"Ice003_1K-PNG_NormalDX",
			"uri":"Ice003_1K-PNG_NormalDX.png"
		},
		{
			"mimeType":"image/png",
			"name":"Ice003_1K-PNG_Color",
			"uri":"Ice003_1K-PNG_Color.png"
		}
	],
	"accessors":[
		{
			"bufferView":0,
			"componentType":5126,
			"count":18902,
			"max":[
				38.47640609741211,
				13.55048942565918,
				17.72418975830078
			],
			"min":[
				-30.835176467895508,
				-13.747020721435547,
				-47.40406036376953
			],
			"type":"VEC3"
		},
		{
			"bufferView":1,
			"componentType":5126,
			"count":18902,
			"type":"VEC3"
		},
		{
			"bufferView":2,
			"componentType":5126,
			"count":18902,
			"type":"VEC2"
		},
		{
			"bufferView":3,
			"componentType":5123,
			"count":34086,
			"type":"SCALAR"
		},
		{
			"bufferView":4,
			"componentType":5126,
			"count":5626,
			"max":[
				24.323591232299805,
				13.5,
				17.67371940612793
			],
			"min":[
				-30.423648834228516,
				-10.127875328063965,
				-47.40406036376953
			],
			"type":"VEC3"
		},
		{
			"bufferView":5,
			"componentType":5126,
			"count":5626,
			"type":"VEC3"
		},
		{
			"bufferView":6,
			"componentType":5126,
			"count":5626,
			"type":"VEC2"
		},
		{
			"bufferView":7,
			"componentType":5123,
			"count":11139,
			"type":"SCALAR"
		},
		{
			"bufferView":8,
			"componentType":5126,
			"count":1154,
			"max":[
				22.803592681884766,
				13.069999694824219,
				16.352006912231445
			],
			"min":[
				-26.103130340576172,
				-10.944734573364258,
				-45.884063720703125
			],
			"type":"VEC3"
		},
		{
			"bufferView":9,
			"componentType":5126,
			"count":1154,
			"type":"VEC3"
		},
		{
			"bufferView":10,
			"componentType":5126,
			"count":1154,
			"type":"VEC2"
		},
		{
			"bufferView":11,
			"componentType":5123,
			"count":1818,
			"type":"SCALAR"
		},
		{
			"bufferView":12,
			"componentType":5126,
			"count":4227,
			"max":[
				23.523591995239258,
				13.5,
				17.67371940612793
			],
			"min":[
				-13.661255836486816,
				0.20000000298023224,
				-21.889432907104492
			],
			"type":"VEC3"
		},
		{
			"bufferView":13,
			"componentType":5126,
			"count":4227,
			"type":"VEC3"
		},
		{
			"bufferView":14,
			"componentType":5126,
			"count":4227,
			"type":"VEC2"
		},
		{
			"bufferView":15,
			"componentType":5123,
			"count":7536,
			"type":"SCALAR"
		},
		{
			"bufferView":16,
			"componentType":5126,
			"count":1161,
			"max":[
				24.323591232299805,
				13.5,
				17.67371940612793
			],
			"min":[
				-13.661255836486816,
				0,
				-21.889432907104492
			],
			"type":"VEC3"
		},
		{
			"bufferView":17,
			"componentType":5126,
			"count":1161,
			"type":"VEC3"
		},
		{
			"bufferView":18,
			"componentType":5126,
			"count":1161,
			"type":"VEC2"
		},
		{
			"bufferView":19,
			"componentType":5123,
			"count":2451,
			"type":"SCALAR"
		},
		{
			"bufferView":20,
			"componentType":5126,
			"count":264,
			"max":[
				22.803592681884766,
				13.069998741149902,
				16.352006912231445
			],
			"min":[
				-11.779999732971191,
				0.47000008821487427,
				-20.369434356689453
			],
			"type":"VEC3"
		},
		{
			"bufferView":21,
			"componentType":5126,
			"count":264,
			"type":"VEC3"
		},
		{
			"bufferView":22,
			"componentType":5126,
			"count":264,
			"type":"VEC2"
		},
		{
			"bufferView":23,
			"componentType":5123,
			"count":396,
			"type":"SCALAR"
		},
		{
			"bufferView":24,
			"componentType":5126,
			"count":24,
			"max":[
				39.614593505859375,
				10,
				18.563514709472656
			],
			"min":[
				-32.48416519165039,
				-10,
				-47.5488395690918
			],
			"type":"VEC3"
		},
		{
			"bufferView":25,
			"componentType":5126,
			"count":24,
			"type":"VEC3"
		},
		{
			"bufferView":26,
			"componentType":5126,
			"count":24,
			"type":"VEC2"
		},
		{
			"bufferView":27,
			"componentType":5123,
			"count":36,
			"type":"SCALAR"
		}
	],
	"bufferViews":[
		{
			"buffer":0,
			"byteLength":226824,
			"byteOffset":0,
			"target":34962
		},
		{
			"buffer":0,
			"byteLength":226824,
			"byteOffset":226824,
			"target":34962
		},
		{
			"buffer":0,
			"byteLength":151216,
			"byteOffset":453648,
			"target":34962
		},
		{
			"buffer":0,
			"byteLength":68172,
			"byteOffset":604864,
			"target":34963
		},
		{
			"buffer":0,
			"byteLength":67512,
			"byteOffset":673036,
			"target":34962
		},
		{
			"buffer":0,
			"byteLength":67512,
			"byteOffset":740548,
			"target":34962
		},
		{
			"buffer":0,
			"byteLength":45008,
			"byteOffset":808060,
			"target":34962
		},
		{
			"buffer":0,
			"byteLength":22278,
			"byteOffset":853068,
			"target":34963
		},
		{
			"buffer":0,
			"byteLength":13848,
			"byteOffset":875348,
			"target":34962
		},
		{
			"buffer":0,
			"byteLength":13848,
			"byteOffset":889196,
			"target":34962
		},
		{
			"buffer":0,
			"byteLength":9232,
			"byteOffset":903044,
			"target":34962
		},
		{
			"buffer":0,
			"byteLength":3636,
			"byteOffset":912276,
			"target":34963
		},
		{
			"buffer":0,
			"byteLength":50724,
			"byteOffset":915912,
			"target":34962
		},
		{
			"buffer":0,
			"byteLength":50724,
			"byteOffset":966636,
			"target":34962
		},
		{
			"buffer":0,
			"byteLength":33816,
			"byteOffset":1017360,
			"target":34962
		},
		{
			"buffer":0,
			"byteLength":15072,
			"byteOffset":1051176,
			"target":34963
		},
		{
			"buffer":0,
			"byteLength":13932,
			"byteOffset":1066248,
			"target":34962
		},
		{
			"buffer":0,
			"byteLength":13932,
			"byteOffset":1080180,
			"target":34962
		},
		{
			"buffer":0,
			"byteLength":9288,
			"byteOffset":1094112,
			"target":34962
		},
		{
			"buffer":0,
			"byteLength":4902,
			"byteOffset":1103400,
			"target":34963
		},
		{
			"buffer":0,
			"byteLength":3168,
			"byteOffset":1108304,
			"target":34962
		},
		{
			"buffer":0,
			"byteLength":3168,
			"byteOffset":1111472,
			"target":34962
		},
		{
			"buffer":0,
			"byteLength":2112,
			"byteOffset":1114640,
			"target":34962
		},
		{
			"buffer":0,
			"byteLength":792,
			"byteOffset":1116752,
			"target":34963
		},
		{
			"buffer":0,
			"byteLength":288,
			"byteOffset":1117544,
			"target":34962
		},
		{
			"buffer":0,
			"byteLength":288,
			"byteOffset":1117832,
			"target":34962
		},
		{
			"buffer":0,
			"byteLength":192,
			"byteOffset":1118120,
			"target":34962
		},
		{
			"buffer":0,
			"byteLength":72,
			"byteOffset":1118312,
			"target":34963
		}
	],
	"samplers":[
		{
			"magFilter":9729,
			"minFilter":9987
		}
	],
	"buffers":[
		{
			"byteLength":1118384,
			"uri":"BreakBuilding.bin"
		}
	]
}
