{
	"asset":{
		"generator":"Khronos glTF Blender I/O v4.4.56",
		"version":"2.0"
	},
	"scene":0,
	"scenes":[
		{
			"name":"Scene",
			"nodes":[
				0,
				1,
				2,
				3,
				4,
				5,
				6,
				7,
				8,
				9,
				10,
				11,
				12,
				13,
				14,
				15,
				16,
				17,
				18,
				19,
				20,
				21,
				22,
				23,
				24,
				25,
				26,
				27,
				28,
				29,
				30,
				31,
				32,
				33,
				34,
				35,
				36,
				37,
				38,
				39,
				40,
				41,
				42,
				43,
				44,
				45,
				46,
				47,
				48,
				49,
				50,
				51,
				52,
				53,
				54,
				55
			]
		}
	],
	"nodes":[
		{
			"mesh":0,
			"name":"\u5186\u67f1.007",
			"scale":[
				0.622714638710022,
				0.622714638710022,
				0.622714638710022
			],
			"translation":[
				1.1763285398483276,
				0.6425243020057678,
				4.7377519607543945
			]
		},
		{
			"mesh":1,
			"name":"\u5186\u67f1.006",
			"scale":[
				0.622714638710022,
				0.622714638710022,
				0.622714638710022
			],
			"translation":[
				1.1763285398483276,
				0.6425243020057678,
				4.7377519607543945
			]
		},
		{
			"mesh":2,
			"name":"\u5186\u67f1.005",
			"scale":[
				0.622714638710022,
				0.622714638710022,
				0.622714638710022
			],
			"translation":[
				1.1763285398483276,
				0.6425243020057678,
				4.7377519607543945
			]
		},
		{
			"mesh":3,
			"name":"\u5186\u67f1.004",
			"scale":[
				0.622714638710022,
				0.622714638710022,
				0.622714638710022
			],
			"translation":[
				1.1763285398483276,
				0.6425243020057678,
				4.7377519607543945
			]
		},
		{
			"mesh":4,
			"name":"\u5186\u67f1.001",
			"scale":[
				0.622714638710022,
				0.622714638710022,
				0.622714638710022
			],
			"translation":[
				1.1763285398483276,
				0.6425243020057678,
				4.25911808013916
			]
		},
		{
			"name":"SP4",
			"translation":[
				1.3985670804977417,
				-0.24838536977767944,
				-3.11171817779541
			]
		},
		{
			"name":"SP3",
			"translation":[
				0.9968999624252319,
				-0.26935189962387085,
				-3.11171817779541
			]
		},
		{
			"name":"SP2",
			"translation":[
				0.980796754360199,
				0.1407705545425415,
				-3.11171817779541
			]
		},
		{
			"name":"SP1",
			"translation":[
				1.407151460647583,
				0.1407705545425415,
				-3.11171817779541
			]
		},
		{
			"mesh":5,
			"name":"\u5e73\u9762.001",
			"translation":[
				-0.8774394989013672,
				0,
				0
			]
		},
		{
			"mesh":6,
			"name":"\u5186\u67f1.002",
			"rotation":[
				0,
				0,
				0.3826834261417389,
				0.9238795638084412
			],
			"scale":[
				0.622714638710022,
				0.622714638710022,
				0.622714638710022
			],
			"translation":[
				0.8991446495056152,
				-0.05514630675315857,
				-2.238492965698242
			]
		},
		{
			"mesh":7,
			"name":"\u5186\u67f1.003",
			"rotation":[
				0,
				0,
				0.3826834261417389,
				0.9238795638084412
			],
			"scale":[
				0.622714638710022,
				0.622714638710022,
				0.622714638710022
			],
			"translation":[
				1.1954389810562134,
				0.2411477267742157,
				-2.237339496612549
			]
		},
		{
			"mesh":8,
			"name":"\u5186\u67f1.008",
			"rotation":[
				0,
				0,
				0.3826834261417389,
				0.9238795638084412
			],
			"scale":[
				0.622714638710022,
				0.622714638710022,
				0.622714638710022
			],
			"translation":[
				1.198590874671936,
				-0.3388325273990631,
				-2.2419238090515137
			]
		},
		{
			"mesh":9,
			"name":"\u5186\u67f1.009",
			"rotation":[
				0,
				0,
				0.3826834261417389,
				0.9238795638084412
			],
			"scale":[
				0.622714638710022,
				0.622714638710022,
				0.622714638710022
			],
			"translation":[
				1.47124445438385,
				-0.03780969977378845,
				-2.243654251098633
			]
		},
		{
			"mesh":10,
			"name":"\u5186\u67f1",
			"rotation":[
				0.7071068286895752,
				0,
				0,
				0.7071068286895752
			],
			"translation":[
				1.1778066158294678,
				-0.044313836842775345,
				-2.5176873207092285
			]
		},
		{
			"name":"SP8",
			"translation":[
				1.4730746746063232,
				-0.049590110778808594,
				-3.11171817779541
			]
		},
		{
			"name":"SP7",
			"translation":[
				1.2038787603378296,
				-0.34843721985816956,
				-3.11171817779541
			]
		},
		{
			"name":"SP6",
			"translation":[
				0.9024916887283325,
				-0.06982351839542389,
				-3.11171817779541
			]
		},
		{
			"name":"SP5",
			"translation":[
				1.203969955444336,
				0.23165473341941833,
				-3.11171817779541
			]
		},
		{
			"mesh":11,
			"name":"\u5186\u67f1.010",
			"rotation":[
				0,
				0,
				0.3826834261417389,
				0.9238795638084412
			],
			"scale":[
				0.622714638710022,
				0.622714638710022,
				0.622714638710022
			],
			"translation":[
				2.071244478225708,
				-0.9378097057342529,
				-2.243654251098633
			]
		},
		{
			"mesh":12,
			"name":"\u5186\u67f1.011",
			"rotation":[
				0,
				0,
				0.3826834261417389,
				0.9238795638084412
			],
			"scale":[
				0.622714638710022,
				0.622714638710022,
				0.622714638710022
			],
			"translation":[
				1.798590898513794,
				-1.2388324737548828,
				-2.2419238090515137
			]
		},
		{
			"mesh":13,
			"name":"\u5186\u67f1.012",
			"scale":[
				0.622714638710022,
				0.622714638710022,
				0.622714638710022
			],
			"translation":[
				1.7763285636901855,
				-0.25747570395469666,
				4.7377519607543945
			]
		},
		{
			"mesh":14,
			"name":"\u5186\u67f1.013",
			"scale":[
				0.622714638710022,
				0.622714638710022,
				0.622714638710022
			],
			"translation":[
				1.7763285636901855,
				-0.25747570395469666,
				4.7377519607543945
			]
		},
		{
			"mesh":15,
			"name":"\u5186\u67f1.014",
			"scale":[
				0.622714638710022,
				0.622714638710022,
				0.622714638710022
			],
			"translation":[
				1.7763285636901855,
				-0.25747570395469666,
				4.7377519607543945
			]
		},
		{
			"mesh":16,
			"name":"\u5186\u67f1.015",
			"scale":[
				0.622714638710022,
				0.622714638710022,
				0.622714638710022
			],
			"translation":[
				1.7763285636901855,
				-0.25747570395469666,
				4.7377519607543945
			]
		},
		{
			"mesh":17,
			"name":"\u5186\u67f1.016",
			"rotation":[
				0,
				0,
				0.3826834261417389,
				0.9238795638084412
			],
			"scale":[
				0.622714638710022,
				0.622714638710022,
				0.622714638710022
			],
			"translation":[
				1.7954390048980713,
				-0.658852219581604,
				-2.237339496612549
			]
		},
		{
			"mesh":18,
			"name":"\u5186\u67f1.017",
			"rotation":[
				0,
				0,
				0.3826834261417389,
				0.9238795638084412
			],
			"scale":[
				0.622714638710022,
				0.622714638710022,
				0.622714638710022
			],
			"translation":[
				1.4991446733474731,
				-0.955146312713623,
				-2.238492965698242
			]
		},
		{
			"mesh":19,
			"name":"\u5186\u67f1.018",
			"scale":[
				0.622714638710022,
				0.622714638710022,
				0.622714638710022
			],
			"translation":[
				1.7763285636901855,
				-0.25747570395469666,
				4.25911808013916
			]
		},
		{
			"mesh":20,
			"name":"\u5186\u67f1.019",
			"rotation":[
				0.7071068286895752,
				0,
				0,
				0.7071068286895752
			],
			"translation":[
				1.7778066396713257,
				-0.9443137645721436,
				-2.5176873207092285
			]
		},
		{
			"name":"SP16",
			"translation":[
				2.0730748176574707,
				-0.9495900869369507,
				-3.11171817779541
			]
		},
		{
			"name":"SP15",
			"translation":[
				1.8038787841796875,
				-1.2484371662139893,
				-3.11171817779541
			]
		},
		{
			"name":"SP14",
			"translation":[
				1.5024917125701904,
				-0.9698234796524048,
				-3.11171817779541
			]
		},
		{
			"name":"SP13",
			"translation":[
				1.8039699792861938,
				-0.6683452129364014,
				-3.11171817779541
			]
		},
		{
			"name":"SP12",
			"translation":[
				1.9985671043395996,
				-1.1483854055404663,
				-3.11171817779541
			]
		},
		{
			"name":"SP11",
			"translation":[
				1.5968999862670898,
				-1.1693519353866577,
				-3.11171817779541
			]
		},
		{
			"name":"SP10",
			"translation":[
				1.580796718597412,
				-0.7592294216156006,
				-3.11171817779541
			]
		},
		{
			"name":"SP9",
			"translation":[
				2.0071513652801514,
				-0.7592294216156006,
				-3.11171817779541
			]
		},
		{
			"mesh":21,
			"name":"\u5186\u67f1.020",
			"rotation":[
				0.7071068286895752,
				0,
				0,
				0.7071068286895752
			],
			"translation":[
				0.5778065919876099,
				-0.9443137645721436,
				-2.5176873207092285
			]
		},
		{
			"mesh":22,
			"name":"\u5186\u67f1.021",
			"scale":[
				0.622714638710022,
				0.622714638710022,
				0.622714638710022
			],
			"translation":[
				0.5763285160064697,
				-0.25747570395469666,
				4.25911808013916
			]
		},
		{
			"mesh":23,
			"name":"\u5186\u67f1.022",
			"rotation":[
				0,
				0,
				0.3826834261417389,
				0.9238795638084412
			],
			"scale":[
				0.622714638710022,
				0.622714638710022,
				0.622714638710022
			],
			"translation":[
				0.2991446554660797,
				-0.955146312713623,
				-2.238492965698242
			]
		},
		{
			"mesh":24,
			"name":"\u5186\u67f1.023",
			"rotation":[
				0,
				0,
				0.3826834261417389,
				0.9238795638084412
			],
			"scale":[
				0.622714638710022,
				0.622714638710022,
				0.622714638710022
			],
			"translation":[
				0.5954389572143555,
				-0.658852219581604,
				-2.237339496612549
			]
		},
		{
			"mesh":25,
			"name":"\u5186\u67f1.024",
			"scale":[
				0.622714638710022,
				0.622714638710022,
				0.622714638710022
			],
			"translation":[
				0.5763285160064697,
				-0.25747570395469666,
				4.7377519607543945
			]
		},
		{
			"mesh":26,
			"name":"\u5186\u67f1.025",
			"scale":[
				0.622714638710022,
				0.622714638710022,
				0.622714638710022
			],
			"translation":[
				0.5763285160064697,
				-0.25747570395469666,
				4.7377519607543945
			]
		},
		{
			"mesh":27,
			"name":"\u5186\u67f1.026",
			"scale":[
				0.622714638710022,
				0.622714638710022,
				0.622714638710022
			],
			"translation":[
				0.5763285160064697,
				-0.25747570395469666,
				4.7377519607543945
			]
		},
		{
			"mesh":28,
			"name":"\u5186\u67f1.027",
			"scale":[
				0.622714638710022,
				0.622714638710022,
				0.622714638710022
			],
			"translation":[
				0.5763285160064697,
				-0.25747570395469666,
				4.7377519607543945
			]
		},
		{
			"mesh":29,
			"name":"\u5186\u67f1.028",
			"rotation":[
				0,
				0,
				0.3826834261417389,
				0.9238795638084412
			],
			"scale":[
				0.622714638710022,
				0.622714638710022,
				0.622714638710022
			],
			"translation":[
				0.5985908508300781,
				-1.2388324737548828,
				-2.2419238090515137
			]
		},
		{
			"mesh":30,
			"name":"\u5186\u67f1.029",
			"rotation":[
				0,
				0,
				0.3826834261417389,
				0.9238795638084412
			],
			"scale":[
				0.622714638710022,
				0.622714638710022,
				0.622714638710022
			],
			"translation":[
				0.8712444305419922,
				-0.9378097057342529,
				-2.243654251098633
			]
		},
		{
			"name":"SP24",
			"translation":[
				0.8730747699737549,
				-0.9495900869369507,
				-3.11171817779541
			]
		},
		{
			"name":"SP23",
			"translation":[
				0.6038787364959717,
				-1.2484371662139893,
				-3.11171817779541
			]
		},
		{
			"name":"SP22",
			"translation":[
				0.302491694688797,
				-0.9698234796524048,
				-3.11171817779541
			]
		},
		{
			"name":"SP21",
			"translation":[
				0.603969931602478,
				-0.6683452129364014,
				-3.11171817779541
			]
		},
		{
			"name":"SP20",
			"translation":[
				0.7985670566558838,
				-1.1483854055404663,
				-3.11171817779541
			]
		},
		{
			"name":"SP19",
			"translation":[
				0.3968999683856964,
				-1.1693519353866577,
				-3.11171817779541
			]
		},
		{
			"name":"SP18",
			"translation":[
				0.3807967007160187,
				-0.7592294216156006,
				-3.11171817779541
			]
		},
		{
			"name":"SP17",
			"translation":[
				0.8071513175964355,
				-0.7592294216156006,
				-3.11171817779541
			]
		},
		{
			"mesh":31,
			"name":"\u7acb\u65b9\u4f53",
			"translation":[
				1.0400385856628418,
				-0.4842927157878876,
				0.7939225435256958
			]
		}
	],
	"materials":[
		{
			"doubleSided":true,
			"name":"\u30de\u30c6\u30ea\u30a2\u30eb.003",
			"normalTexture":{
				"index":0
			},
			"pbrMetallicRoughness":{
				"baseColorFactor":[
					0.029629647731781006,
					0.029629647731781006,
					0.029629647731781006,
					1
				],
				"metallicFactor":0.9778576493263245,
				"roughnessFactor":0.18698608875274658
			}
		},
		{
			"doubleSided":true,
			"name":"\u30de\u30c6\u30ea\u30a2\u30eb.001",
			"normalTexture":{
				"index":1
			},
			"pbrMetallicRoughness":{
				"baseColorFactor":[
					0.029629647731781006,
					0.029629647731781006,
					0.029629647731781006,
					1
				],
				"metallicFactor":0.9778576493263245,
				"roughnessFactor":0.18698608875274658
			}
		},
		{
			"doubleSided":true,
			"name":"Material",
			"normalTexture":{
				"index":2
			},
			"pbrMetallicRoughness":{
				"baseColorFactor":[
					0.029629647731781006,
					0.029629647731781006,
					0.029629647731781006,
					1
				],
				"metallicFactor":0.9778576493263245,
				"roughnessFactor":0.18698608875274658
			}
		},
		{
			"doubleSided":true,
			"name":"\u30de\u30c6\u30ea\u30a2\u30eb.002",
			"normalTexture":{
				"index":3
			},
			"pbrMetallicRoughness":{
				"baseColorFactor":[
					0.029629647731781006,
					0.029629647731781006,
					0.029629647731781006,
					1
				],
				"metallicFactor":0.9778576493263245,
				"roughnessFactor":0.18698608875274658
			}
		},
		{
			"doubleSided":true,
			"name":"\u30de\u30c6\u30ea\u30a2\u30eb.004",
			"normalTexture":{
				"index":4
			},
			"pbrMetallicRoughness":{
				"baseColorFactor":[
					0.029629647731781006,
					0.029629647731781006,
					0.029629647731781006,
					1
				],
				"metallicFactor":0.9778576493263245,
				"roughnessFactor":0.18698608875274658
			}
		},
		{
			"doubleSided":true,
			"name":"Material.001",
			"normalTexture":{
				"index":5
			},
			"pbrMetallicRoughness":{
				"baseColorFactor":[
					0.029629647731781006,
					0.029629647731781006,
					0.029629647731781006,
					1
				],
				"metallicFactor":0.9778576493263245,
				"roughnessFactor":0.18698608875274658
			}
		},
		{
			"doubleSided":true,
			"name":"Material.002",
			"normalTexture":{
				"index":6
			},
			"pbrMetallicRoughness":{
				"baseColorFactor":[
					0.029629647731781006,
					0.029629647731781006,
					0.029629647731781006,
					1
				],
				"metallicFactor":0.9778576493263245,
				"roughnessFactor":0.18698608875274658
			}
		},
		{
			"doubleSided":true,
			"name":"\u30de\u30c6\u30ea\u30a2\u30eb.005",
			"normalTexture":{
				"index":7
			},
			"pbrMetallicRoughness":{
				"baseColorFactor":[
					0.029629647731781006,
					0.029629647731781006,
					0.029629647731781006,
					1
				],
				"metallicFactor":0.9778576493263245,
				"roughnessFactor":0.18698608875274658
			}
		},
		{
			"doubleSided":true,
			"name":"\u30de\u30c6\u30ea\u30a2\u30eb.006",
			"normalTexture":{
				"index":8
			},
			"pbrMetallicRoughness":{
				"baseColorFactor":[
					0.029629647731781006,
					0.029629647731781006,
					0.029629647731781006,
					1
				],
				"metallicFactor":0.9778576493263245,
				"roughnessFactor":0.18698608875274658
			}
		}
	],
	"meshes":[
		{
			"name":"\u5186\u67f1.006",
			"primitives":[
				{
					"attributes":{
						"POSITION":0,
						"NORMAL":1,
						"TEXCOORD_0":2
					},
					"indices":3,
					"material":0
				}
			]
		},
		{
			"name":"\u5186\u67f1.005",
			"primitives":[
				{
					"attributes":{
						"POSITION":4,
						"NORMAL":5,
						"TEXCOORD_0":6
					},
					"indices":7,
					"material":0
				}
			]
		},
		{
			"name":"\u5186\u67f1.004",
			"primitives":[
				{
					"attributes":{
						"POSITION":8,
						"NORMAL":9,
						"TEXCOORD_0":10
					},
					"indices":11,
					"material":0
				}
			]
		},
		{
			"name":"\u5186\u67f1.003",
			"primitives":[
				{
					"attributes":{
						"POSITION":12,
						"NORMAL":13,
						"TEXCOORD_0":14
					},
					"indices":15,
					"material":0
				}
			]
		},
		{
			"name":"\u5186\u67f1.001",
			"primitives":[
				{
					"attributes":{
						"POSITION":16,
						"NORMAL":17,
						"TEXCOORD_0":18
					},
					"indices":19,
					"material":0
				}
			]
		},
		{
			"name":"\u5e73\u9762.001",
			"primitives":[
				{
					"attributes":{
						"POSITION":20,
						"NORMAL":21,
						"TEXCOORD_0":22
					},
					"indices":23,
					"material":0
				}
			]
		},
		{
			"name":"\u5186\u67f1.007",
			"primitives":[
				{
					"attributes":{
						"POSITION":24,
						"NORMAL":25,
						"TEXCOORD_0":26
					},
					"indices":3,
					"material":1
				}
			]
		},
		{
			"name":"\u5186\u67f1.008",
			"primitives":[
				{
					"attributes":{
						"POSITION":27,
						"NORMAL":28,
						"TEXCOORD_0":29
					},
					"indices":7,
					"material":1
				}
			]
		},
		{
			"name":"\u5186\u67f1.009",
			"primitives":[
				{
					"attributes":{
						"POSITION":30,
						"NORMAL":31,
						"TEXCOORD_0":32
					},
					"indices":11,
					"material":1
				}
			]
		},
		{
			"name":"\u5186\u67f1.010",
			"primitives":[
				{
					"attributes":{
						"POSITION":33,
						"NORMAL":34,
						"TEXCOORD_0":35
					},
					"indices":15,
					"material":1
				}
			]
		},
		{
			"name":"\u5186\u67f1",
			"primitives":[
				{
					"attributes":{
						"POSITION":36,
						"NORMAL":37,
						"TEXCOORD_0":38
					},
					"indices":39,
					"material":2
				}
			]
		},
		{
			"name":"\u5186\u67f1.011",
			"primitives":[
				{
					"attributes":{
						"POSITION":40,
						"NORMAL":41,
						"TEXCOORD_0":42
					},
					"indices":15,
					"material":3
				}
			]
		},
		{
			"name":"\u5186\u67f1.012",
			"primitives":[
				{
					"attributes":{
						"POSITION":43,
						"NORMAL":44,
						"TEXCOORD_0":45
					},
					"indices":11,
					"material":3
				}
			]
		},
		{
			"name":"\u5186\u67f1.013",
			"primitives":[
				{
					"attributes":{
						"POSITION":46,
						"NORMAL":47,
						"TEXCOORD_0":48
					},
					"indices":3,
					"material":4
				}
			]
		},
		{
			"name":"\u5186\u67f1.014",
			"primitives":[
				{
					"attributes":{
						"POSITION":49,
						"NORMAL":50,
						"TEXCOORD_0":51
					},
					"indices":7,
					"material":4
				}
			]
		},
		{
			"name":"\u5186\u67f1.015",
			"primitives":[
				{
					"attributes":{
						"POSITION":52,
						"NORMAL":53,
						"TEXCOORD_0":54
					},
					"indices":11,
					"material":4
				}
			]
		},
		{
			"name":"\u5186\u67f1.016",
			"primitives":[
				{
					"attributes":{
						"POSITION":55,
						"NORMAL":56,
						"TEXCOORD_0":57
					},
					"indices":15,
					"material":4
				}
			]
		},
		{
			"name":"\u5186\u67f1.017",
			"primitives":[
				{
					"attributes":{
						"POSITION":58,
						"NORMAL":59,
						"TEXCOORD_0":60
					},
					"indices":7,
					"material":3
				}
			]
		},
		{
			"name":"\u5186\u67f1.018",
			"primitives":[
				{
					"attributes":{
						"POSITION":61,
						"NORMAL":62,
						"TEXCOORD_0":63
					},
					"indices":3,
					"material":3
				}
			]
		},
		{
			"name":"\u5186\u67f1.019",
			"primitives":[
				{
					"attributes":{
						"POSITION":64,
						"NORMAL":65,
						"TEXCOORD_0":66
					},
					"indices":19,
					"material":4
				}
			]
		},
		{
			"name":"\u5186\u67f1.020",
			"primitives":[
				{
					"attributes":{
						"POSITION":67,
						"NORMAL":68,
						"TEXCOORD_0":69
					},
					"indices":39,
					"material":5
				}
			]
		},
		{
			"name":"\u5186\u67f1.021",
			"primitives":[
				{
					"attributes":{
						"POSITION":70,
						"NORMAL":71,
						"TEXCOORD_0":72
					},
					"indices":39,
					"material":6
				}
			]
		},
		{
			"name":"\u5186\u67f1.022",
			"primitives":[
				{
					"attributes":{
						"POSITION":73,
						"NORMAL":74,
						"TEXCOORD_0":75
					},
					"indices":19,
					"material":7
				}
			]
		},
		{
			"name":"\u5186\u67f1.023",
			"primitives":[
				{
					"attributes":{
						"POSITION":76,
						"NORMAL":77,
						"TEXCOORD_0":78
					},
					"indices":3,
					"material":8
				}
			]
		},
		{
			"name":"\u5186\u67f1.024",
			"primitives":[
				{
					"attributes":{
						"POSITION":79,
						"NORMAL":80,
						"TEXCOORD_0":81
					},
					"indices":7,
					"material":8
				}
			]
		},
		{
			"name":"\u5186\u67f1.025",
			"primitives":[
				{
					"attributes":{
						"POSITION":82,
						"NORMAL":83,
						"TEXCOORD_0":84
					},
					"indices":15,
					"material":7
				}
			]
		},
		{
			"name":"\u5186\u67f1.026",
			"primitives":[
				{
					"attributes":{
						"POSITION":85,
						"NORMAL":86,
						"TEXCOORD_0":87
					},
					"indices":11,
					"material":7
				}
			]
		},
		{
			"name":"\u5186\u67f1.027",
			"primitives":[
				{
					"attributes":{
						"POSITION":88,
						"NORMAL":89,
						"TEXCOORD_0":90
					},
					"indices":7,
					"material":7
				}
			]
		},
		{
			"name":"\u5186\u67f1.028",
			"primitives":[
				{
					"attributes":{
						"POSITION":91,
						"NORMAL":92,
						"TEXCOORD_0":93
					},
					"indices":3,
					"material":7
				}
			]
		},
		{
			"name":"\u5186\u67f1.029",
			"primitives":[
				{
					"attributes":{
						"POSITION":94,
						"NORMAL":95,
						"TEXCOORD_0":96
					},
					"indices":11,
					"material":8
				}
			]
		},
		{
			"name":"\u5186\u67f1.030",
			"primitives":[
				{
					"attributes":{
						"POSITION":97,
						"NORMAL":98,
						"TEXCOORD_0":99
					},
					"indices":15,
					"material":8
				}
			]
		},
		{
			"name":"\u7acb\u65b9\u4f53",
			"primitives":[
				{
					"attributes":{
						"POSITION":100,
						"NORMAL":101,
						"TEXCOORD_0":102
					},
					"indices":103,
					"material":2
				}
			]
		}
	],
	"textures":[
		{
			"sampler":0,
			"source":0
		},
		{
			"sampler":0,
			"source":0
		},
		{
			"sampler":0,
			"source":1
		},
		{
			"sampler":0,
			"source":0
		},
		{
			"sampler":0,
			"source":0
		},
		{
			"sampler":0,
			"source":2
		},
		{
			"sampler":0,
			"source":2
		},
		{
			"sampler":0,
			"source":0
		},
		{
			"sampler":0,
			"source":0
		}
	],
	"images":[
		{
			"mimeType":"image/png",
			"name":"Mecha2",
			"uri":"Mecha2.png"
		},
		{
			"mimeType":"image/png",
			"name":"rubber_tiles_nor_gl_4k",
			"uri":"rubber_tiles_nor_gl_4k.png"
		},
		{
			"mimeType":"image/png",
			"name":"rubber_tiles_nor_gl_4k.exr",
			"uri":"rubber_tiles_nor_gl_4k_exr.png"
		}
	],
	"accessors":[
		{
			"bufferView":0,
			"componentType":5126,
			"count":234,
			"max":[
				-0.1708446741104126,
				-0.6398661732673645,
				-10.431341171264648
			],
			"min":[
				-0.4617539644241333,
				-0.9307754635810852,
				-12.665262222290039
			],
			"type":"VEC3"
		},
		{
			"bufferView":1,
			"componentType":5126,
			"count":234,
			"type":"VEC3"
		},
		{
			"bufferView":2,
			"componentType":5126,
			"count":234,
			"type":"VEC2"
		},
		{
			"bufferView":3,
			"componentType":5123,
			"count":1140,
			"type":"SCALAR"
		},
		{
			"bufferView":4,
			"componentType":5126,
			"count":234,
			"max":[
				0.5020531415939331,
				-0.6398661732673645,
				-10.431341171264648
			],
			"min":[
				0.2111438512802124,
				-0.9307754635810852,
				-12.665262222290039
			],
			"type":"VEC3"
		},
		{
			"bufferView":5,
			"componentType":5126,
			"count":234,
			"type":"VEC3"
		},
		{
			"bufferView":6,
			"componentType":5126,
			"count":234,
			"type":"VEC2"
		},
		{
			"bufferView":7,
			"componentType":5123,
			"count":1140,
			"type":"SCALAR"
		},
		{
			"bufferView":8,
			"componentType":5126,
			"count":234,
			"max":[
				-0.1529484987258911,
				-1.302026391029358,
				-10.431341171264648
			],
			"min":[
				-0.4438577890396118,
				-1.5929356813430786,
				-12.665262222290039
			],
			"type":"VEC3"
		},
		{
			"bufferView":9,
			"componentType":5126,
			"count":234,
			"type":"VEC3"
		},
		{
			"bufferView":10,
			"componentType":5126,
			"count":234,
			"type":"VEC2"
		},
		{
			"bufferView":11,
			"componentType":5123,
			"count":1140,
			"type":"SCALAR"
		},
		{
			"bufferView":12,
			"componentType":5126,
			"count":234,
			"max":[
				0.49847376346588135,
				-1.2698131799697876,
				-10.431341171264648
			],
			"min":[
				0.2075645923614502,
				-1.5607224702835083,
				-12.665262222290039
			],
			"type":"VEC3"
		},
		{
			"bufferView":13,
			"componentType":5126,
			"count":234,
			"type":"VEC3"
		},
		{
			"bufferView":14,
			"componentType":5126,
			"count":234,
			"type":"VEC2"
		},
		{
			"bufferView":15,
			"componentType":5123,
			"count":1140,
			"type":"SCALAR"
		},
		{
			"bufferView":16,
			"componentType":5126,
			"count":350,
			"max":[
				0.9036544561386108,
				-0.2512904107570648,
				-7.195979118347168
			],
			"min":[
				-0.8345381021499634,
				-1.9881505966186523,
				-9.778800964355469
			],
			"type":"VEC3"
		},
		{
			"bufferView":17,
			"componentType":5126,
			"count":350,
			"type":"VEC3"
		},
		{
			"bufferView":18,
			"componentType":5126,
			"count":350,
			"type":"VEC2"
		},
		{
			"bufferView":19,
			"componentType":5123,
			"count":648,
			"type":"SCALAR"
		},
		{
			"bufferView":20,
			"componentType":5126,
			"count":192,
			"max":[
				1.1645526885986328,
				0.265929639339447,
				0.6334658861160278
			],
			"min":[
				0.7432588338851929,
				-0.3622896075248718,
				-0.5374832153320312
			],
			"type":"VEC3"
		},
		{
			"bufferView":21,
			"componentType":5126,
			"count":192,
			"type":"VEC3"
		},
		{
			"bufferView":22,
			"componentType":5126,
			"count":192,
			"type":"VEC2"
		},
		{
			"bufferView":23,
			"componentType":5123,
			"count":288,
			"type":"SCALAR"
		},
		{
			"bufferView":24,
			"componentType":5126,
			"count":234,
			"max":[
				0.14545467495918274,
				0.14545506238937378,
				0.7716150283813477
			],
			"min":[
				-0.14545461535453796,
				-0.14545422792434692,
				-1.462306022644043
			],
			"type":"VEC3"
		},
		{
			"bufferView":25,
			"componentType":5126,
			"count":234,
			"type":"VEC3"
		},
		{
			"bufferView":26,
			"componentType":5126,
			"count":234,
			"type":"VEC2"
		},
		{
			"bufferView":27,
			"componentType":5126,
			"count":234,
			"max":[
				0.14545482397079468,
				0.14545536041259766,
				0.7697629928588867
			],
			"min":[
				-0.14545446634292603,
				-0.14545392990112305,
				-1.464158058166504
			],
			"type":"VEC3"
		},
		{
			"bufferView":28,
			"componentType":5126,
			"count":234,
			"type":"VEC3"
		},
		{
			"bufferView":29,
			"componentType":5126,
			"count":234,
			"type":"VEC2"
		},
		{
			"bufferView":30,
			"componentType":5126,
			"count":234,
			"max":[
				0.145455002784729,
				0.14545512199401855,
				0.7771244049072266
			],
			"min":[
				-0.1454542875289917,
				-0.14545416831970215,
				-1.456796646118164
			],
			"type":"VEC3"
		},
		{
			"bufferView":31,
			"componentType":5126,
			"count":234,
			"type":"VEC3"
		},
		{
			"bufferView":32,
			"componentType":5126,
			"count":234,
			"type":"VEC2"
		},
		{
			"bufferView":33,
			"componentType":5126,
			"count":234,
			"max":[
				0.14545443654060364,
				0.14545440673828125,
				0.7799034118652344
			],
			"min":[
				-0.14545473456382751,
				-0.14545488357543945,
				-1.4540176391601562
			],
			"type":"VEC3"
		},
		{
			"bufferView":34,
			"componentType":5126,
			"count":234,
			"type":"VEC3"
		},
		{
			"bufferView":35,
			"componentType":5126,
			"count":234,
			"type":"VEC2"
		},
		{
			"bufferView":36,
			"componentType":5126,
			"count":704,
			"max":[
				0.5619199275970459,
				0.6902557015419006,
				0.5619199275970459
			],
			"min":[
				-0.5619198679924011,
				-0.40000003576278687,
				-0.5619199275970459
			],
			"type":"VEC3"
		},
		{
			"bufferView":37,
			"componentType":5126,
			"count":704,
			"type":"VEC3"
		},
		{
			"bufferView":38,
			"componentType":5126,
			"count":704,
			"type":"VEC2"
		},
		{
			"bufferView":39,
			"componentType":5123,
			"count":1140,
			"type":"SCALAR"
		},
		{
			"bufferView":40,
			"componentType":5126,
			"count":234,
			"max":[
				0.14545443654060364,
				0.14545440673828125,
				0.7799034118652344
			],
			"min":[
				-0.14545473456382751,
				-0.14545488357543945,
				-1.4540176391601562
			],
			"type":"VEC3"
		},
		{
			"bufferView":41,
			"componentType":5126,
			"count":234,
			"type":"VEC3"
		},
		{
			"bufferView":42,
			"componentType":5126,
			"count":234,
			"type":"VEC2"
		},
		{
			"bufferView":43,
			"componentType":5126,
			"count":234,
			"max":[
				0.145455002784729,
				0.14545512199401855,
				0.7771244049072266
			],
			"min":[
				-0.1454542875289917,
				-0.14545416831970215,
				-1.456796646118164
			],
			"type":"VEC3"
		},
		{
			"bufferView":44,
			"componentType":5126,
			"count":234,
			"type":"VEC3"
		},
		{
			"bufferView":45,
			"componentType":5126,
			"count":234,
			"type":"VEC2"
		},
		{
			"bufferView":46,
			"componentType":5126,
			"count":234,
			"max":[
				-0.1708446741104126,
				-0.6398661732673645,
				-10.431341171264648
			],
			"min":[
				-0.4617539644241333,
				-0.9307754635810852,
				-12.665262222290039
			],
			"type":"VEC3"
		},
		{
			"bufferView":47,
			"componentType":5126,
			"count":234,
			"type":"VEC3"
		},
		{
			"bufferView":48,
			"componentType":5126,
			"count":234,
			"type":"VEC2"
		},
		{
			"bufferView":49,
			"componentType":5126,
			"count":234,
			"max":[
				0.5020531415939331,
				-0.6398661732673645,
				-10.431341171264648
			],
			"min":[
				0.2111438512802124,
				-0.9307754635810852,
				-12.665262222290039
			],
			"type":"VEC3"
		},
		{
			"bufferView":50,
			"componentType":5126,
			"count":234,
			"type":"VEC3"
		},
		{
			"bufferView":51,
			"componentType":5126,
			"count":234,
			"type":"VEC2"
		},
		{
			"bufferView":52,
			"componentType":5126,
			"count":234,
			"max":[
				-0.1529484987258911,
				-1.302026391029358,
				-10.431341171264648
			],
			"min":[
				-0.4438577890396118,
				-1.5929356813430786,
				-12.665262222290039
			],
			"type":"VEC3"
		},
		{
			"bufferView":53,
			"componentType":5126,
			"count":234,
			"type":"VEC3"
		},
		{
			"bufferView":54,
			"componentType":5126,
			"count":234,
			"type":"VEC2"
		},
		{
			"bufferView":55,
			"componentType":5126,
			"count":234,
			"max":[
				0.49847376346588135,
				-1.2698131799697876,
				-10.431341171264648
			],
			"min":[
				0.2075645923614502,
				-1.5607224702835083,
				-12.665262222290039
			],
			"type":"VEC3"
		},
		{
			"bufferView":56,
			"componentType":5126,
			"count":234,
			"type":"VEC3"
		},
		{
			"bufferView":57,
			"componentType":5126,
			"count":234,
			"type":"VEC2"
		},
		{
			"bufferView":58,
			"componentType":5126,
			"count":234,
			"max":[
				0.14545482397079468,
				0.14545536041259766,
				0.7697629928588867
			],
			"min":[
				-0.14545446634292603,
				-0.14545392990112305,
				-1.464158058166504
			],
			"type":"VEC3"
		},
		{
			"bufferView":59,
			"componentType":5126,
			"count":234,
			"type":"VEC3"
		},
		{
			"bufferView":60,
			"componentType":5126,
			"count":234,
			"type":"VEC2"
		},
		{
			"bufferView":61,
			"componentType":5126,
			"count":234,
			"max":[
				0.14545467495918274,
				0.14545506238937378,
				0.7716150283813477
			],
			"min":[
				-0.14545461535453796,
				-0.14545422792434692,
				-1.462306022644043
			],
			"type":"VEC3"
		},
		{
			"bufferView":62,
			"componentType":5126,
			"count":234,
			"type":"VEC3"
		},
		{
			"bufferView":63,
			"componentType":5126,
			"count":234,
			"type":"VEC2"
		},
		{
			"bufferView":64,
			"componentType":5126,
			"count":350,
			"max":[
				0.9036544561386108,
				-0.2512904107570648,
				-7.195979118347168
			],
			"min":[
				-0.8345381021499634,
				-1.9881505966186523,
				-9.778800964355469
			],
			"type":"VEC3"
		},
		{
			"bufferView":65,
			"componentType":5126,
			"count":350,
			"type":"VEC3"
		},
		{
			"bufferView":66,
			"componentType":5126,
			"count":350,
			"type":"VEC2"
		},
		{
			"bufferView":67,
			"componentType":5126,
			"count":704,
			"max":[
				0.5619199275970459,
				0.6902557015419006,
				0.5619199275970459
			],
			"min":[
				-0.5619198679924011,
				-0.40000003576278687,
				-0.5619199275970459
			],
			"type":"VEC3"
		},
		{
			"bufferView":68,
			"componentType":5126,
			"count":704,
			"type":"VEC3"
		},
		{
			"bufferView":69,
			"componentType":5126,
			"count":704,
			"type":"VEC2"
		},
		{
			"bufferView":70,
			"componentType":5126,
			"count":704,
			"max":[
				0.5619199275970459,
				0.6902557015419006,
				0.5619199275970459
			],
			"min":[
				-0.5619198679924011,
				-0.40000003576278687,
				-0.5619199275970459
			],
			"type":"VEC3"
		},
		{
			"bufferView":71,
			"componentType":5126,
			"count":704,
			"type":"VEC3"
		},
		{
			"bufferView":72,
			"componentType":5126,
			"count":704,
			"type":"VEC2"
		},
		{
			"bufferView":73,
			"componentType":5126,
			"count":350,
			"max":[
				0.9036544561386108,
				-0.2512904107570648,
				-7.195979118347168
			],
			"min":[
				-0.8345381021499634,
				-1.9881505966186523,
				-9.778800964355469
			],
			"type":"VEC3"
		},
		{
			"bufferView":74,
			"componentType":5126,
			"count":350,
			"type":"VEC3"
		},
		{
			"bufferView":75,
			"componentType":5126,
			"count":350,
			"type":"VEC2"
		},
		{
			"bufferView":76,
			"componentType":5126,
			"count":234,
			"max":[
				0.14545467495918274,
				0.14545506238937378,
				0.7716150283813477
			],
			"min":[
				-0.14545461535453796,
				-0.14545422792434692,
				-1.462306022644043
			],
			"type":"VEC3"
		},
		{
			"bufferView":77,
			"componentType":5126,
			"count":234,
			"type":"VEC3"
		},
		{
			"bufferView":78,
			"componentType":5126,
			"count":234,
			"type":"VEC2"
		},
		{
			"bufferView":79,
			"componentType":5126,
			"count":234,
			"max":[
				0.14545482397079468,
				0.14545536041259766,
				0.7697629928588867
			],
			"min":[
				-0.14545446634292603,
				-0.14545392990112305,
				-1.464158058166504
			],
			"type":"VEC3"
		},
		{
			"bufferView":80,
			"componentType":5126,
			"count":234,
			"type":"VEC3"
		},
		{
			"bufferView":81,
			"componentType":5126,
			"count":234,
			"type":"VEC2"
		},
		{
			"bufferView":82,
			"componentType":5126,
			"count":234,
			"max":[
				0.49847376346588135,
				-1.2698131799697876,
				-10.431341171264648
			],
			"min":[
				0.2075645923614502,
				-1.5607224702835083,
				-12.665262222290039
			],
			"type":"VEC3"
		},
		{
			"bufferView":83,
			"componentType":5126,
			"count":234,
			"type":"VEC3"
		},
		{
			"bufferView":84,
			"componentType":5126,
			"count":234,
			"type":"VEC2"
		},
		{
			"bufferView":85,
			"componentType":5126,
			"count":234,
			"max":[
				-0.1529484987258911,
				-1.302026391029358,
				-10.431341171264648
			],
			"min":[
				-0.4438577890396118,
				-1.5929356813430786,
				-12.665262222290039
			],
			"type":"VEC3"
		},
		{
			"bufferView":86,
			"componentType":5126,
			"count":234,
			"type":"VEC3"
		},
		{
			"bufferView":87,
			"componentType":5126,
			"count":234,
			"type":"VEC2"
		},
		{
			"bufferView":88,
			"componentType":5126,
			"count":234,
			"max":[
				0.5020531415939331,
				-0.6398661732673645,
				-10.431341171264648
			],
			"min":[
				0.2111438512802124,
				-0.9307754635810852,
				-12.665262222290039
			],
			"type":"VEC3"
		},
		{
			"bufferView":89,
			"componentType":5126,
			"count":234,
			"type":"VEC3"
		},
		{
			"bufferView":90,
			"componentType":5126,
			"count":234,
			"type":"VEC2"
		},
		{
			"bufferView":91,
			"componentType":5126,
			"count":234,
			"max":[
				-0.1708446741104126,
				-0.6398661732673645,
				-10.431341171264648
			],
			"min":[
				-0.4617539644241333,
				-0.9307754635810852,
				-12.665262222290039
			],
			"type":"VEC3"
		},
		{
			"bufferView":92,
			"componentType":5126,
			"count":234,
			"type":"VEC3"
		},
		{
			"bufferView":93,
			"componentType":5126,
			"count":234,
			"type":"VEC2"
		},
		{
			"bufferView":94,
			"componentType":5126,
			"count":234,
			"max":[
				0.145455002784729,
				0.14545512199401855,
				0.7771244049072266
			],
			"min":[
				-0.1454542875289917,
				-0.14545416831970215,
				-1.456796646118164
			],
			"type":"VEC3"
		},
		{
			"bufferView":95,
			"componentType":5126,
			"count":234,
			"type":"VEC3"
		},
		{
			"bufferView":96,
			"componentType":5126,
			"count":234,
			"type":"VEC2"
		},
		{
			"bufferView":97,
			"componentType":5126,
			"count":234,
			"max":[
				0.14545443654060364,
				0.14545440673828125,
				0.7799034118652344
			],
			"min":[
				-0.14545473456382751,
				-0.14545488357543945,
				-1.4540176391601562
			],
			"type":"VEC3"
		},
		{
			"bufferView":98,
			"componentType":5126,
			"count":234,
			"type":"VEC3"
		},
		{
			"bufferView":99,
			"componentType":5126,
			"count":234,
			"type":"VEC2"
		},
		{
			"bufferView":100,
			"componentType":5126,
			"count":56,
			"max":[
				1.5035626888275146,
				1.0863022804260254,
				0.9542567133903503
			],
			"min":[
				-1.1035627126693726,
				-1.0863022804260254,
				-1
			],
			"type":"VEC3"
		},
		{
			"bufferView":101,
			"componentType":5126,
			"count":56,
			"type":"VEC3"
		},
		{
			"bufferView":102,
			"componentType":5126,
			"count":56,
			"type":"VEC2"
		},
		{
			"bufferView":103,
			"componentType":5123,
			"count":84,
			"type":"SCALAR"
		}
	],
	"bufferViews":[
		{
			"buffer":0,
			"byteLength":2808,
			"byteOffset":0,
			"target":34962
		},
		{
			"buffer":0,
			"byteLength":2808,
			"byteOffset":2808,
			"target":34962
		},
		{
			"buffer":0,
			"byteLength":1872,
			"byteOffset":5616,
			"target":34962
		},
		{
			"buffer":0,
			"byteLength":2280,
			"byteOffset":7488,
			"target":34963
		},
		{
			"buffer":0,
			"byteLength":2808,
			"byteOffset":9768,
			"target":34962
		},
		{
			"buffer":0,
			"byteLength":2808,
			"byteOffset":12576,
			"target":34962
		},
		{
			"buffer":0,
			"byteLength":1872,
			"byteOffset":15384,
			"target":34962
		},
		{
			"buffer":0,
			"byteLength":2280,
			"byteOffset":17256,
			"target":34963
		},
		{
			"buffer":0,
			"byteLength":2808,
			"byteOffset":19536,
			"target":34962
		},
		{
			"buffer":0,
			"byteLength":2808,
			"byteOffset":22344,
			"target":34962
		},
		{
			"buffer":0,
			"byteLength":1872,
			"byteOffset":25152,
			"target":34962
		},
		{
			"buffer":0,
			"byteLength":2280,
			"byteOffset":27024,
			"target":34963
		},
		{
			"buffer":0,
			"byteLength":2808,
			"byteOffset":29304,
			"target":34962
		},
		{
			"buffer":0,
			"byteLength":2808,
			"byteOffset":32112,
			"target":34962
		},
		{
			"buffer":0,
			"byteLength":1872,
			"byteOffset":34920,
			"target":34962
		},
		{
			"buffer":0,
			"byteLength":2280,
			"byteOffset":36792,
			"target":34963
		},
		{
			"buffer":0,
			"byteLength":4200,
			"byteOffset":39072,
			"target":34962
		},
		{
			"buffer":0,
			"byteLength":4200,
			"byteOffset":43272,
			"target":34962
		},
		{
			"buffer":0,
			"byteLength":2800,
			"byteOffset":47472,
			"target":34962
		},
		{
			"buffer":0,
			"byteLength":1296,
			"byteOffset":50272,
			"target":34963
		},
		{
			"buffer":0,
			"byteLength":2304,
			"byteOffset":51568,
			"target":34962
		},
		{
			"buffer":0,
			"byteLength":2304,
			"byteOffset":53872,
			"target":34962
		},
		{
			"buffer":0,
			"byteLength":1536,
			"byteOffset":56176,
			"target":34962
		},
		{
			"buffer":0,
			"byteLength":576,
			"byteOffset":57712,
			"target":34963
		},
		{
			"buffer":0,
			"byteLength":2808,
			"byteOffset":58288,
			"target":34962
		},
		{
			"buffer":0,
			"byteLength":2808,
			"byteOffset":61096,
			"target":34962
		},
		{
			"buffer":0,
			"byteLength":1872,
			"byteOffset":63904,
			"target":34962
		},
		{
			"buffer":0,
			"byteLength":2808,
			"byteOffset":65776,
			"target":34962
		},
		{
			"buffer":0,
			"byteLength":2808,
			"byteOffset":68584,
			"target":34962
		},
		{
			"buffer":0,
			"byteLength":1872,
			"byteOffset":71392,
			"target":34962
		},
		{
			"buffer":0,
			"byteLength":2808,
			"byteOffset":73264,
			"target":34962
		},
		{
			"buffer":0,
			"byteLength":2808,
			"byteOffset":76072,
			"target":34962
		},
		{
			"buffer":0,
			"byteLength":1872,
			"byteOffset":78880,
			"target":34962
		},
		{
			"buffer":0,
			"byteLength":2808,
			"byteOffset":80752,
			"target":34962
		},
		{
			"buffer":0,
			"byteLength":2808,
			"byteOffset":83560,
			"target":34962
		},
		{
			"buffer":0,
			"byteLength":1872,
			"byteOffset":86368,
			"target":34962
		},
		{
			"buffer":0,
			"byteLength":8448,
			"byteOffset":88240,
			"target":34962
		},
		{
			"buffer":0,
			"byteLength":8448,
			"byteOffset":96688,
			"target":34962
		},
		{
			"buffer":0,
			"byteLength":5632,
			"byteOffset":105136,
			"target":34962
		},
		{
			"buffer":0,
			"byteLength":2280,
			"byteOffset":110768,
			"target":34963
		},
		{
			"buffer":0,
			"byteLength":2808,
			"byteOffset":113048,
			"target":34962
		},
		{
			"buffer":0,
			"byteLength":2808,
			"byteOffset":115856,
			"target":34962
		},
		{
			"buffer":0,
			"byteLength":1872,
			"byteOffset":118664,
			"target":34962
		},
		{
			"buffer":0,
			"byteLength":2808,
			"byteOffset":120536,
			"target":34962
		},
		{
			"buffer":0,
			"byteLength":2808,
			"byteOffset":123344,
			"target":34962
		},
		{
			"buffer":0,
			"byteLength":1872,
			"byteOffset":126152,
			"target":34962
		},
		{
			"buffer":0,
			"byteLength":2808,
			"byteOffset":128024,
			"target":34962
		},
		{
			"buffer":0,
			"byteLength":2808,
			"byteOffset":130832,
			"target":34962
		},
		{
			"buffer":0,
			"byteLength":1872,
			"byteOffset":133640,
			"target":34962
		},
		{
			"buffer":0,
			"byteLength":2808,
			"byteOffset":135512,
			"target":34962
		},
		{
			"buffer":0,
			"byteLength":2808,
			"byteOffset":138320,
			"target":34962
		},
		{
			"buffer":0,
			"byteLength":1872,
			"byteOffset":141128,
			"target":34962
		},
		{
			"buffer":0,
			"byteLength":2808,
			"byteOffset":143000,
			"target":34962
		},
		{
			"buffer":0,
			"byteLength":2808,
			"byteOffset":145808,
			"target":34962
		},
		{
			"buffer":0,
			"byteLength":1872,
			"byteOffset":148616,
			"target":34962
		},
		{
			"buffer":0,
			"byteLength":2808,
			"byteOffset":150488,
			"target":34962
		},
		{
			"buffer":0,
			"byteLength":2808,
			"byteOffset":153296,
			"target":34962
		},
		{
			"buffer":0,
			"byteLength":1872,
			"byteOffset":156104,
			"target":34962
		},
		{
			"buffer":0,
			"byteLength":2808,
			"byteOffset":157976,
			"target":34962
		},
		{
			"buffer":0,
			"byteLength":2808,
			"byteOffset":160784,
			"target":34962
		},
		{
			"buffer":0,
			"byteLength":1872,
			"byteOffset":163592,
			"target":34962
		},
		{
			"buffer":0,
			"byteLength":2808,
			"byteOffset":165464,
			"target":34962
		},
		{
			"buffer":0,
			"byteLength":2808,
			"byteOffset":168272,
			"target":34962
		},
		{
			"buffer":0,
			"byteLength":1872,
			"byteOffset":171080,
			"target":34962
		},
		{
			"buffer":0,
			"byteLength":4200,
			"byteOffset":172952,
			"target":34962
		},
		{
			"buffer":0,
			"byteLength":4200,
			"byteOffset":177152,
			"target":34962
		},
		{
			"buffer":0,
			"byteLength":2800,
			"byteOffset":181352,
			"target":34962
		},
		{
			"buffer":0,
			"byteLength":8448,
			"byteOffset":184152,
			"target":34962
		},
		{
			"buffer":0,
			"byteLength":8448,
			"byteOffset":192600,
			"target":34962
		},
		{
			"buffer":0,
			"byteLength":5632,
			"byteOffset":201048,
			"target":34962
		},
		{
			"buffer":0,
			"byteLength":8448,
			"byteOffset":206680,
			"target":34962
		},
		{
			"buffer":0,
			"byteLength":8448,
			"byteOffset":215128,
			"target":34962
		},
		{
			"buffer":0,
			"byteLength":5632,
			"byteOffset":223576,
			"target":34962
		},
		{
			"buffer":0,
			"byteLength":4200,
			"byteOffset":229208,
			"target":34962
		},
		{
			"buffer":0,
			"byteLength":4200,
			"byteOffset":233408,
			"target":34962
		},
		{
			"buffer":0,
			"byteLength":2800,
			"byteOffset":237608,
			"target":34962
		},
		{
			"buffer":0,
			"byteLength":2808,
			"byteOffset":240408,
			"target":34962
		},
		{
			"buffer":0,
			"byteLength":2808,
			"byteOffset":243216,
			"target":34962
		},
		{
			"buffer":0,
			"byteLength":1872,
			"byteOffset":246024,
			"target":34962
		},
		{
			"buffer":0,
			"byteLength":2808,
			"byteOffset":247896,
			"target":34962
		},
		{
			"buffer":0,
			"byteLength":2808,
			"byteOffset":250704,
			"target":34962
		},
		{
			"buffer":0,
			"byteLength":1872,
			"byteOffset":253512,
			"target":34962
		},
		{
			"buffer":0,
			"byteLength":2808,
			"byteOffset":255384,
			"target":34962
		},
		{
			"buffer":0,
			"byteLength":2808,
			"byteOffset":258192,
			"target":34962
		},
		{
			"buffer":0,
			"byteLength":1872,
			"byteOffset":261000,
			"target":34962
		},
		{
			"buffer":0,
			"byteLength":2808,
			"byteOffset":262872,
			"target":34962
		},
		{
			"buffer":0,
			"byteLength":2808,
			"byteOffset":265680,
			"target":34962
		},
		{
			"buffer":0,
			"byteLength":1872,
			"byteOffset":268488,
			"target":34962
		},
		{
			"buffer":0,
			"byteLength":2808,
			"byteOffset":270360,
			"target":34962
		},
		{
			"buffer":0,
			"byteLength":2808,
			"byteOffset":273168,
			"target":34962
		},
		{
			"buffer":0,
			"byteLength":1872,
			"byteOffset":275976,
			"target":34962
		},
		{
			"buffer":0,
			"byteLength":2808,
			"byteOffset":277848,
			"target":34962
		},
		{
			"buffer":0,
			"byteLength":2808,
			"byteOffset":280656,
			"target":34962
		},
		{
			"buffer":0,
			"byteLength":1872,
			"byteOffset":283464,
			"target":34962
		},
		{
			"buffer":0,
			"byteLength":2808,
			"byteOffset":285336,
			"target":34962
		},
		{
			"buffer":0,
			"byteLength":2808,
			"byteOffset":288144,
			"target":34962
		},
		{
			"buffer":0,
			"byteLength":1872,
			"byteOffset":290952,
			"target":34962
		},
		{
			"buffer":0,
			"byteLength":2808,
			"byteOffset":292824,
			"target":34962
		},
		{
			"buffer":0,
			"byteLength":2808,
			"byteOffset":295632,
			"target":34962
		},
		{
			"buffer":0,
			"byteLength":1872,
			"byteOffset":298440,
			"target":34962
		},
		{
			"buffer":0,
			"byteLength":672,
			"byteOffset":300312,
			"target":34962
		},
		{
			"buffer":0,
			"byteLength":672,
			"byteOffset":300984,
			"target":34962
		},
		{
			"buffer":0,
			"byteLength":448,
			"byteOffset":301656,
			"target":34962
		},
		{
			"buffer":0,
			"byteLength":168,
			"byteOffset":302104,
			"target":34963
		}
	],
	"samplers":[
		{
			"magFilter":9729,
			"minFilter":9987
		}
	],
	"buffers":[
		{
			"byteLength":302272,
			"uri":"ChainGatring.bin"
		}
	]
}
