{
	"asset":{
		"generator":"Khronos glTF Blender I/O v4.4.56",
		"version":"2.0"
	},
	"scene":0,
	"scenes":[
		{
			"name":"Scene",
			"nodes":[
				0
			]
		}
	],
	"nodes":[
		{
			"mesh":0,
			"name":"\u5186\u67f1.002",
			"scale":[
				0.622714638710022,
				0.622714638710022,
				0.622714638710022
			]
		}
	],
	"materials":[
		{
			"doubleSided":true,
			"name":"\u30de\u30c6\u30ea\u30a2\u30eb.002",
			"pbrMetallicRoughness":{
				"baseColorFactor":[
					0.027448702603578568,
					0.8001489639282227,
					0,
					1
				],
				"metallicFactor":0,
				"roughnessFactor":0.5
			}
		},
		{
			"doubleSided":true,
			"name":"\u30de\u30c6\u30ea\u30a2\u30eb",
			"pbrMetallicRoughness":{
				"baseColorFactor":[
					0.021696096286177635,
					0,
					0.8001965880393982,
					1
				],
				"metallicFactor":0,
				"roughnessFactor":0.5
			}
		},
		{
			"doubleSided":true,
			"name":"\u30de\u30c6\u30ea\u30a2\u30eb.001",
			"pbrMetallicRoughness":{
				"baseColorFactor":[
					0.8001416921615601,
					0,
					0.0007973079918883741,
					1
				],
				"metallicFactor":0,
				"roughnessFactor":0.5
			}
		}
	],
	"meshes":[
		{
			"name":"\u5186\u67f1",
			"primitives":[
				{
					"attributes":{
						"POSITION":0,
						"NORMAL":1,
						"TEXCOORD_0":2
					},
					"indices":3
				},
				{
					"attributes":{
						"POSITION":4,
						"NORMAL":5,
						"TEXCOORD_0":6
					},
					"indices":7,
					"material":0
				},
				{
					"attributes":{
						"POSITION":8,
						"NORMAL":9,
						"TEXCOORD_0":10
					},
					"indices":11,
					"material":1
				},
				{
					"attributes":{
						"POSITION":12,
						"NORMAL":13,
						"TEXCOORD_0":14
					},
					"indices":15,
					"material":2
				}
			]
		}
	],
	"accessors":[
		{
			"bufferView":0,
			"componentType":5126,
			"count":904,
			"max":[
				1.206804633140564,
				0.8555997610092163,
				1.3954540491104126
			],
			"min":[
				-1.825147032737732,
				-2.6933584213256836,
				-10.25718879699707
			],
			"type":"VEC3"
		},
		{
			"bufferView":1,
			"componentType":5126,
			"count":904,
			"type":"VEC3"
		},
		{
			"bufferView":2,
			"componentType":5126,
			"count":904,
			"type":"VEC2"
		},
		{
			"bufferView":3,
			"componentType":5123,
			"count":1392,
			"type":"SCALAR"
		},
		{
			"bufferView":4,
			"componentType":5126,
			"count":350,
			"max":[
				0.9036544561386108,
				-0.2512904107570648,
				-2.47939395904541
			],
			"min":[
				-0.8345381021499634,
				-1.9881505966186523,
				-9.778800964355469
			],
			"type":"VEC3"
		},
		{
			"bufferView":5,
			"componentType":5126,
			"count":350,
			"type":"VEC3"
		},
		{
			"bufferView":6,
			"componentType":5126,
			"count":350,
			"type":"VEC2"
		},
		{
			"bufferView":7,
			"componentType":5123,
			"count":648,
			"type":"SCALAR"
		},
		{
			"bufferView":8,
			"componentType":5126,
			"count":725,
			"max":[
				1.3767825365066528,
				0.286830335855484,
				2.7537457942962646
			],
			"min":[
				-1.3334672451019287,
				-2.7254509925842285,
				-10.732295989990234
			],
			"type":"VEC3"
		},
		{
			"bufferView":9,
			"componentType":5126,
			"count":725,
			"type":"VEC3"
		},
		{
			"bufferView":10,
			"componentType":5126,
			"count":725,
			"type":"VEC2"
		},
		{
			"bufferView":11,
			"componentType":5123,
			"count":1362,
			"type":"SCALAR"
		},
		{
			"bufferView":12,
			"componentType":5126,
			"count":1824,
			"max":[
				0.5020531415939331,
				-0.6398661732673645,
				-10.431341171264648
			],
			"min":[
				-0.4617539644241333,
				-1.5929356813430786,
				-12.665262222290039
			],
			"type":"VEC3"
		},
		{
			"bufferView":13,
			"componentType":5126,
			"count":1824,
			"type":"VEC3"
		},
		{
			"bufferView":14,
			"componentType":5126,
			"count":1824,
			"type":"VEC2"
		},
		{
			"bufferView":15,
			"componentType":5123,
			"count":4560,
			"type":"SCALAR"
		}
	],
	"bufferViews":[
		{
			"buffer":0,
			"byteLength":10848,
			"byteOffset":0,
			"target":34962
		},
		{
			"buffer":0,
			"byteLength":10848,
			"byteOffset":10848,
			"target":34962
		},
		{
			"buffer":0,
			"byteLength":7232,
			"byteOffset":21696,
			"target":34962
		},
		{
			"buffer":0,
			"byteLength":2784,
			"byteOffset":28928,
			"target":34963
		},
		{
			"buffer":0,
			"byteLength":4200,
			"byteOffset":31712,
			"target":34962
		},
		{
			"buffer":0,
			"byteLength":4200,
			"byteOffset":35912,
			"target":34962
		},
		{
			"buffer":0,
			"byteLength":2800,
			"byteOffset":40112,
			"target":34962
		},
		{
			"buffer":0,
			"byteLength":1296,
			"byteOffset":42912,
			"target":34963
		},
		{
			"buffer":0,
			"byteLength":8700,
			"byteOffset":44208,
			"target":34962
		},
		{
			"buffer":0,
			"byteLength":8700,
			"byteOffset":52908,
			"target":34962
		},
		{
			"buffer":0,
			"byteLength":5800,
			"byteOffset":61608,
			"target":34962
		},
		{
			"buffer":0,
			"byteLength":2724,
			"byteOffset":67408,
			"target":34963
		},
		{
			"buffer":0,
			"byteLength":21888,
			"byteOffset":70132,
			"target":34962
		},
		{
			"buffer":0,
			"byteLength":21888,
			"byteOffset":92020,
			"target":34962
		},
		{
			"buffer":0,
			"byteLength":14592,
			"byteOffset":113908,
			"target":34962
		},
		{
			"buffer":0,
			"byteLength":9120,
			"byteOffset":128500,
			"target":34963
		}
	],
	"buffers":[
		{
			"byteLength":137620,
			"uri":"Gatring.bin"
		}
	]
}
