{
	"asset":{
		"generator":"Khronos glTF Blender I/O v4.4.56",
		"version":"2.0"
	},
	"scene":0,
	"scenes":[
		{
			"name":"Scene",
			"nodes":[
				0
			]
		}
	],
	"nodes":[
		{
			"mesh":0,
			"name":"building_003"
		}
	],
	"meshes":[
		{
			"name":"building_003_mesh",
			"primitives":[
				{
					"attributes":{
						"POSITION":0,
						"NORMAL":1,
						"TEXCOORD_0":2
					},
					"indices":3
				}
			]
		}
	],
	"accessors":[
		{
			"bufferView":0,
			"componentType":5126,
			"count":4096,
			"max":[
				6.131958961486816,
				164.39996337890625,
				6.131958961486816
			],
			"min":[
				-6.131958961486816,
				0,
				-6.131958961486816
			],
			"type":"VEC3"
		},
		{
			"bufferView":1,
			"componentType":5126,
			"count":4096,
			"type":"VEC3"
		},
		{
			"bufferView":2,
			"componentType":5126,
			"count":4096,
			"type":"VEC2"
		},
		{
			"bufferView":3,
			"componentType":5123,
			"count":7722,
			"type":"SCALAR"
		}
	],
	"bufferViews":[
		{
			"buffer":0,
			"byteLength":49152,
			"byteOffset":0,
			"target":34962
		},
		{
			"buffer":0,
			"byteLength":49152,
			"byteOffset":49152,
			"target":34962
		},
		{
			"buffer":0,
			"byteLength":32768,
			"byteOffset":98304,
			"target":34962
		},
		{
			"buffer":0,
			"byteLength":15444,
			"byteOffset":131072,
			"target":34963
		}
	],
	"buffers":[
		{
			"byteLength":146516,
			"uri":"Tower.bin"
		}
	]
}
