{
	"asset":{
		"generator":"Khronos glTF Blender I/O v4.4.56",
		"version":"2.0"
	},
	"extensionsUsed":[
		"KHR_texture_transform"
	],
	"extensionsRequired":[
		"KHR_texture_transform"
	],
	"scene":0,
	"scenes":[
		{
			"name":"Scene",
			"nodes":[
				1
			]
		}
	],
	"nodes":[
		{
			"name":"SP",
			"scale":[
				0.2500000596046448,
				1.2500001192092896,
				6.25
			],
			"translation":[
				-0.17330977320671082,
				-1.5456565618515015,
				-8.39470100402832
			]
		},
		{
			"children":[
				0
			],
			"mesh":0,
			"name":"Gun"
		}
	],
	"materials":[
		{
			"doubleSided":true,
			"name":"\u30de\u30c6\u30ea\u30a2\u30eb.002",
			"normalTexture":{
				"extensions":{
					"KHR_texture_transform":{
						"offset":[
							0,
							-1.0000007152557373
						],
						"scale":[
							1.5000001192092896,
							2.0000007152557373
						]
					}
				},
				"index":0,
				"scale":8.69999885559082
			},
			"pbrMetallicRoughness":{
				"baseColorTexture":{
					"extensions":{
						"KHR_texture_transform":{
							"offset":[
								0,
								-1.0000007152557373
							],
							"scale":[
								1.5000001192092896,
								2.0000007152557373
							]
						}
					},
					"index":1
				},
				"metallicFactor":0.15396162867546082,
				"metallicRoughnessTexture":{
					"extensions":{
						"KHR_texture_transform":{
							"offset":[
								0,
								-1.0000007152557373
							],
							"scale":[
								1.5000001192092896,
								2.0000007152557373
							]
						}
					},
					"index":2
				}
			}
		}
	],
	"meshes":[
		{
			"name":"\u7acb\u65b9\u4f53.003",
			"primitives":[
				{
					"attributes":{
						"POSITION":0,
						"NORMAL":1,
						"TEXCOORD_0":2
					},
					"indices":3,
					"material":0
				}
			]
		}
	],
	"textures":[
		{
			"sampler":0,
			"source":0
		},
		{
			"sampler":0,
			"source":1
		},
		{
			"sampler":0,
			"source":2
		}
	],
	"images":[
		{
			"mimeType":"image/png",
			"name":"blue_metal_plate_nor_gl_4k.exr",
			"uri":"blue_metal_plate_nor_gl_4k_exr.png"
		},
		{
			"mimeType":"image/jpeg",
			"name":"rubber_tiles_diff_short",
			"uri":"rubber_tiles_diff_short.jpg"
		},
		{
			"mimeType":"image/png",
			"name":"blue_metal_plate_rough_4k.exr",
			"uri":"blue_metal_plate_rough_4k_exr.png"
		}
	],
	"accessors":[
		{
			"bufferView":0,
			"componentType":5126,
			"count":577,
			"max":[
				0.9363450407981873,
				0.669726550579071,
				7.100307941436768
			],
			"min":[
				-0.7934615015983582,
				-3.411547899246216,
				-9.089950561523438
			],
			"type":"VEC3"
		},
		{
			"bufferView":1,
			"componentType":5126,
			"count":577,
			"type":"VEC3"
		},
		{
			"bufferView":2,
			"componentType":5126,
			"count":577,
			"type":"VEC2"
		},
		{
			"bufferView":3,
			"componentType":5123,
			"count":1074,
			"type":"SCALAR"
		}
	],
	"bufferViews":[
		{
			"buffer":0,
			"byteLength":6924,
			"byteOffset":0,
			"target":34962
		},
		{
			"buffer":0,
			"byteLength":6924,
			"byteOffset":6924,
			"target":34962
		},
		{
			"buffer":0,
			"byteLength":4616,
			"byteOffset":13848,
			"target":34962
		},
		{
			"buffer":0,
			"byteLength":2148,
			"byteOffset":18464,
			"target":34963
		}
	],
	"samplers":[
		{
			"magFilter":9729,
			"minFilter":9987
		}
	],
	"buffers":[
		{
			"byteLength":20612,
			"uri":"RailGun.bin"
		}
	]
}
