{
	"asset":{
		"generator":"Khronos glTF Blender I/O v4.4.56",
		"version":"2.0"
	},
	"scene":0,
	"scenes":[
		{
			"name":"Scene",
			"nodes":[
				0
			]
		}
	],
	"nodes":[
		{
			"mesh":0,
			"name":"building_003"
		}
	],
	"materials":[
		{
			"doubleSided":true,
			"name":"mat_slabs",
			"pbrMetallicRoughness":{
				"baseColorFactor":[
					0.5386430621147156,
					0.5193077921867371,
					0.8009624481201172,
					1
				],
				"metallicFactor":0,
				"roughnessFactor":0.4000000059604645
			}
		},
		{
			"doubleSided":true,
			"name":"mat_walls",
			"pbrMetallicRoughness":{
				"baseColorFactor":[
					0.49305060505867004,
					0.4341508448123932,
					0.40941303968429565,
					1
				],
				"metallicFactor":0,
				"roughnessFactor":0.7723404169082642
			}
		}
	],
	"meshes":[
		{
			"name":"building_003_mesh.001",
			"primitives":[
				{
					"attributes":{
						"POSITION":0,
						"NORMAL":1,
						"TEXCOORD_0":2
					},
					"indices":3,
					"material":0
				},
				{
					"attributes":{
						"POSITION":4,
						"NORMAL":5,
						"TEXCOORD_0":6
					},
					"indices":7,
					"material":1
				}
			]
		}
	],
	"accessors":[
		{
			"bufferView":0,
			"componentType":5126,
			"count":964,
			"max":[
				35.04499816894531,
				164.8000030517578,
				50.099998474121094
			],
			"min":[
				-35.04499816894531,
				0,
				-50.099998474121094
			],
			"type":"VEC3"
		},
		{
			"bufferView":1,
			"componentType":5126,
			"count":964,
			"type":"VEC3"
		},
		{
			"bufferView":2,
			"componentType":5126,
			"count":964,
			"type":"VEC2"
		},
		{
			"bufferView":3,
			"componentType":5123,
			"count":2166,
			"type":"SCALAR"
		},
		{
			"bufferView":4,
			"componentType":5126,
			"count":480,
			"max":[
				34.94499969482422,
				164.8000030517578,
				50
			],
			"min":[
				-34.94499969482422,
				0.20000000298023224,
				-50
			],
			"type":"VEC3"
		},
		{
			"bufferView":5,
			"componentType":5126,
			"count":480,
			"type":"VEC3"
		},
		{
			"bufferView":6,
			"componentType":5126,
			"count":480,
			"type":"VEC2"
		},
		{
			"bufferView":7,
			"componentType":5123,
			"count":720,
			"type":"SCALAR"
		}
	],
	"bufferViews":[
		{
			"buffer":0,
			"byteLength":11568,
			"byteOffset":0,
			"target":34962
		},
		{
			"buffer":0,
			"byteLength":11568,
			"byteOffset":11568,
			"target":34962
		},
		{
			"buffer":0,
			"byteLength":7712,
			"byteOffset":23136,
			"target":34962
		},
		{
			"buffer":0,
			"byteLength":4332,
			"byteOffset":30848,
			"target":34963
		},
		{
			"buffer":0,
			"byteLength":5760,
			"byteOffset":35180,
			"target":34962
		},
		{
			"buffer":0,
			"byteLength":5760,
			"byteOffset":40940,
			"target":34962
		},
		{
			"buffer":0,
			"byteLength":3840,
			"byteOffset":46700,
			"target":34962
		},
		{
			"buffer":0,
			"byteLength":1440,
			"byteOffset":50540,
			"target":34963
		}
	],
	"buffers":[
		{
			"byteLength":51980,
			"uri":"Apartment.bin"
		}
	]
}
