{
	"asset":{
		"generator":"Khronos glTF Blender I/O v5.0.21",
		"version":"2.0"
	},
	"scene":0,
	"scenes":[
		{
			"name":"Scene",
			"nodes":[
				0
			]
		}
	],
	"nodes":[
		{
			"mesh":0,
			"name":"\u7403.001",
			"scale":[
				0.800000011920929,
				0.800000011920929,
				0.800000011920929
			]
		}
	],
	"materials":[
		{
			"doubleSided":true,
			"name":"\u30de\u30c6\u30ea\u30a2\u30eb.001",
			"pbrMetallicRoughness":{
				"baseColorTexture":{
					"index":0
				},
				"metallicFactor":0,
				"roughnessFactor":0.4554139971733093
			}
		}
	],
	"meshes":[
		{
			"name":"\u7403.001",
			"primitives":[
				{
					"attributes":{
						"POSITION":0,
						"NORMAL":1,
						"TEXCOORD_0":2
					},
					"indices":3,
					"material":0
				}
			]
		}
	],
	"textures":[
		{
			"sampler":0,
			"source":0
		}
	],
	"images":[
		{
			"mimeType":"image/png",
			"name":"sky_00023",
			"uri":"sky_00023.png"
		}
	],
	"accessors":[
		{
			"bufferView":0,
			"componentType":5126,
			"count":2146,
			"max":[
				1499.99951171875,
				1500,
				1499.9990234375
			],
			"min":[
				-1499.9986572265625,
				-1500,
				-1500
			],
			"type":"VEC3"
		},
		{
			"bufferView":1,
			"componentType":5126,
			"count":2146,
			"type":"VEC3"
		},
		{
			"bufferView":2,
			"componentType":5126,
			"count":2146,
			"type":"VEC2"
		},
		{
			"bufferView":3,
			"componentType":5123,
			"count":11520,
			"type":"SCALAR"
		}
	],
	"bufferViews":[
		{
			"buffer":0,
			"byteLength":25752,
			"byteOffset":0,
			"target":34962
		},
		{
			"buffer":0,
			"byteLength":25752,
			"byteOffset":25752,
			"target":34962
		},
		{
			"buffer":0,
			"byteLength":17168,
			"byteOffset":51504,
			"target":34962
		},
		{
			"buffer":0,
			"byteLength":23040,
			"byteOffset":68672,
			"target":34963
		}
	],
	"samplers":[
		{
			"magFilter":9729,
			"minFilter":9987
		}
	],
	"buffers":[
		{
			"byteLength":91712,
			"uri":"Sky.bin"
		}
	]
}
