{
	"asset":{
		"generator":"Khronos glTF Blender I/O v4.4.56",
		"version":"2.0"
	},
	"scene":0,
	"scenes":[
		{
			"name":"Scene",
			"nodes":[
				11
			]
		}
	],
	"nodes":[
		{
			"name":"SP1",
			"rotation":[
				0.7071067690849304,
				0,
				0,
				0.7071067690849304
			],
			"translation":[
				0,
				1.2633086442947388,
				1.1920928955078125e-07
			]
		},
		{
			"children":[
				0
			],
			"name":"\u30dc\u30fc\u30f3.001",
			"rotation":[
				-0.7071067094802856,
				0,
				0,
				0.7071068286895752
			],
			"scale":[
				1,
				0.9999999403953552,
				0.9999999403953552
			],
			"translation":[
				0.11961892247200012,
				0.705303966999054,
				-0.49300044775009155
			]
		},
		{
			"name":"SP2",
			"rotation":[
				0.7071067690849304,
				0,
				0,
				0.7071067690849304
			],
			"translation":[
				0,
				1.2214581966400146,
				0
			]
		},
		{
			"children":[
				2
			],
			"name":"\u30dc\u30fc\u30f3.002",
			"rotation":[
				-0.7071067690849304,
				0,
				0,
				0.7071067690849304
			],
			"translation":[
				0,
				0.9386874437332153,
				-1.1024872064590454
			]
		},
		{
			"children":[
				1,
				3
			],
			"name":"\u30dc\u30fc\u30f3"
		},
		{
			"name":"SP3",
			"rotation":[
				0.7071067690849304,
				0,
				0,
				0.7071067690849304
			],
			"translation":[
				0,
				1.2372806072235107,
				0
			]
		},
		{
			"children":[
				5
			],
			"name":"\u30dc\u30fc\u30f3.003",
			"rotation":[
				-0.7071067690849304,
				0,
				0,
				0.7071067690849304
			],
			"translation":[
				-0.1503780633211136,
				1.0731004476547241,
				-1.6664049625396729
			]
		},
		{
			"mesh":0,
			"name":"\u7acb\u65b9\u4f53",
			"skin":0
		},
		{
			"mesh":1,
			"name":"\u7acb\u65b9\u4f53.001",
			"skin":0
		},
		{
			"mesh":2,
			"name":"\u7acb\u65b9\u4f53.002",
			"skin":0
		},
		{
			"mesh":3,
			"name":"\u7acb\u65b9\u4f53.003",
			"skin":0
		},
		{
			"children":[
				7,
				8,
				9,
				10,
				4,
				6
			],
			"name":"\u30a2\u30fc\u30de\u30c1\u30e5\u30a2",
			"translation":[
				0,
				0,
				0.5261020064353943
			]
		}
	],
	"animations":[
		{
			"channels":[
				{
					"sampler":0,
					"target":{
						"node":4,
						"path":"translation"
					}
				},
				{
					"sampler":1,
					"target":{
						"node":4,
						"path":"rotation"
					}
				},
				{
					"sampler":2,
					"target":{
						"node":4,
						"path":"scale"
					}
				},
				{
					"sampler":3,
					"target":{
						"node":1,
						"path":"translation"
					}
				},
				{
					"sampler":4,
					"target":{
						"node":1,
						"path":"rotation"
					}
				},
				{
					"sampler":5,
					"target":{
						"node":1,
						"path":"scale"
					}
				},
				{
					"sampler":6,
					"target":{
						"node":3,
						"path":"translation"
					}
				},
				{
					"sampler":7,
					"target":{
						"node":3,
						"path":"rotation"
					}
				},
				{
					"sampler":8,
					"target":{
						"node":3,
						"path":"scale"
					}
				},
				{
					"sampler":9,
					"target":{
						"node":6,
						"path":"translation"
					}
				},
				{
					"sampler":10,
					"target":{
						"node":6,
						"path":"rotation"
					}
				},
				{
					"sampler":11,
					"target":{
						"node":6,
						"path":"scale"
					}
				}
			],
			"name":"Close",
			"samplers":[
				{
					"input":28,
					"interpolation":"STEP",
					"output":29
				},
				{
					"input":28,
					"interpolation":"STEP",
					"output":30
				},
				{
					"input":28,
					"interpolation":"STEP",
					"output":31
				},
				{
					"input":32,
					"interpolation":"LINEAR",
					"output":33
				},
				{
					"input":28,
					"interpolation":"STEP",
					"output":34
				},
				{
					"input":28,
					"interpolation":"STEP",
					"output":35
				},
				{
					"input":32,
					"interpolation":"LINEAR",
					"output":36
				},
				{
					"input":28,
					"interpolation":"STEP",
					"output":37
				},
				{
					"input":28,
					"interpolation":"STEP",
					"output":38
				},
				{
					"input":32,
					"interpolation":"LINEAR",
					"output":39
				},
				{
					"input":28,
					"interpolation":"STEP",
					"output":40
				},
				{
					"input":28,
					"interpolation":"STEP",
					"output":41
				}
			]
		},
		{
			"channels":[
				{
					"sampler":0,
					"target":{
						"node":4,
						"path":"translation"
					}
				},
				{
					"sampler":1,
					"target":{
						"node":4,
						"path":"rotation"
					}
				},
				{
					"sampler":2,
					"target":{
						"node":4,
						"path":"scale"
					}
				},
				{
					"sampler":3,
					"target":{
						"node":1,
						"path":"translation"
					}
				},
				{
					"sampler":4,
					"target":{
						"node":1,
						"path":"rotation"
					}
				},
				{
					"sampler":5,
					"target":{
						"node":1,
						"path":"scale"
					}
				},
				{
					"sampler":6,
					"target":{
						"node":3,
						"path":"translation"
					}
				},
				{
					"sampler":7,
					"target":{
						"node":3,
						"path":"rotation"
					}
				},
				{
					"sampler":8,
					"target":{
						"node":3,
						"path":"scale"
					}
				},
				{
					"sampler":9,
					"target":{
						"node":6,
						"path":"translation"
					}
				},
				{
					"sampler":10,
					"target":{
						"node":6,
						"path":"rotation"
					}
				},
				{
					"sampler":11,
					"target":{
						"node":6,
						"path":"scale"
					}
				}
			],
			"name":"Open",
			"samplers":[
				{
					"input":28,
					"interpolation":"STEP",
					"output":42
				},
				{
					"input":28,
					"interpolation":"STEP",
					"output":43
				},
				{
					"input":28,
					"interpolation":"STEP",
					"output":44
				},
				{
					"input":32,
					"interpolation":"LINEAR",
					"output":45
				},
				{
					"input":28,
					"interpolation":"STEP",
					"output":46
				},
				{
					"input":28,
					"interpolation":"STEP",
					"output":47
				},
				{
					"input":32,
					"interpolation":"LINEAR",
					"output":48
				},
				{
					"input":28,
					"interpolation":"STEP",
					"output":49
				},
				{
					"input":28,
					"interpolation":"STEP",
					"output":50
				},
				{
					"input":32,
					"interpolation":"LINEAR",
					"output":51
				},
				{
					"input":28,
					"interpolation":"STEP",
					"output":52
				},
				{
					"input":28,
					"interpolation":"STEP",
					"output":53
				}
			]
		}
	],
	"materials":[
		{
			"doubleSided":true,
			"name":"Material.001",
			"normalTexture":{
				"index":0,
				"scale":10
			},
			"pbrMetallicRoughness":{
				"baseColorFactor":[
					0.06941187381744385,
					0.06941187381744385,
					0.06941187381744385,
					1
				],
				"metallicFactor":0.906732439994812,
				"roughnessFactor":0.23413898050785065
			}
		}
	],
	"meshes":[
		{
			"name":"\u7acb\u65b9\u4f53",
			"primitives":[
				{
					"attributes":{
						"POSITION":0,
						"NORMAL":1,
						"TEXCOORD_0":2,
						"TEXCOORD_1":3,
						"JOINTS_0":4,
						"WEIGHTS_0":5
					},
					"indices":6,
					"material":0
				}
			]
		},
		{
			"name":"\u7acb\u65b9\u4f53.001",
			"primitives":[
				{
					"attributes":{
						"POSITION":8,
						"NORMAL":9,
						"TEXCOORD_0":10,
						"TEXCOORD_1":11,
						"JOINTS_0":12,
						"WEIGHTS_0":13
					},
					"indices":14,
					"material":0
				}
			]
		},
		{
			"name":"\u7acb\u65b9\u4f53.002",
			"primitives":[
				{
					"attributes":{
						"POSITION":15,
						"NORMAL":16,
						"TEXCOORD_0":17,
						"TEXCOORD_1":18,
						"JOINTS_0":19,
						"WEIGHTS_0":20
					},
					"indices":14,
					"material":0
				}
			]
		},
		{
			"name":"\u7acb\u65b9\u4f53.003",
			"primitives":[
				{
					"attributes":{
						"POSITION":21,
						"NORMAL":22,
						"TEXCOORD_0":23,
						"TEXCOORD_1":24,
						"JOINTS_0":25,
						"WEIGHTS_0":26
					},
					"indices":27,
					"material":0
				}
			]
		}
	],
	"textures":[
		{
			"sampler":0,
			"source":0
		}
	],
	"images":[
		{
			"mimeType":"image/png",
			"name":"rubber_tiles_nor_gl_4k",
			"uri":"rubber_tiles_nor_gl_4k.png"
		}
	],
	"skins":[
		{
			"inverseBindMatrices":7,
			"joints":[
				4,
				1,
				3,
				6
			],
			"name":"\u30a2\u30fc\u30de\u30c1\u30e5\u30a2"
		}
	],
	"accessors":[
		{
			"bufferView":0,
			"componentType":5126,
			"count":112,
			"max":[
				0.20896151661872864,
				0.9394416809082031,
				1.3914999961853027
			],
			"min":[
				0.07104366272687912,
				0.5187825560569763,
				-1.4582273960113525
			],
			"type":"VEC3"
		},
		{
			"bufferView":1,
			"componentType":5126,
			"count":112,
			"type":"VEC3"
		},
		{
			"bufferView":2,
			"componentType":5126,
			"count":112,
			"type":"VEC2"
		},
		{
			"bufferView":3,
			"componentType":5126,
			"count":112,
			"type":"VEC2"
		},
		{
			"bufferView":4,
			"componentType":5121,
			"count":112,
			"type":"VEC4"
		},
		{
			"bufferView":5,
			"componentType":5126,
			"count":112,
			"type":"VEC4"
		},
		{
			"bufferView":6,
			"componentType":5123,
			"count":180,
			"type":"SCALAR"
		},
		{
			"bufferView":7,
			"componentType":5126,
			"count":4,
			"type":"MAT4"
		},
		{
			"bufferView":8,
			"componentType":5126,
			"count":112,
			"max":[
				0.07104366272687912,
				1.107704997062683,
				0.8215545415878296
			],
			"min":[
				-0.066874198615551,
				0.6870459318161011,
				-2.028172731399536
			],
			"type":"VEC3"
		},
		{
			"bufferView":9,
			"componentType":5126,
			"count":112,
			"type":"VEC3"
		},
		{
			"bufferView":10,
			"componentType":5126,
			"count":112,
			"type":"VEC2"
		},
		{
			"bufferView":11,
			"componentType":5126,
			"count":112,
			"type":"VEC2"
		},
		{
			"bufferView":12,
			"componentType":5121,
			"count":112,
			"type":"VEC4"
		},
		{
			"bufferView":13,
			"componentType":5126,
			"count":112,
			"type":"VEC4"
		},
		{
			"bufferView":14,
			"componentType":5123,
			"count":180,
			"type":"SCALAR"
		},
		{
			"bufferView":15,
			"componentType":5126,
			"count":112,
			"max":[
				-0.06687398254871368,
				1.2759684324264526,
				0.25160908699035645
			],
			"min":[
				-0.2047918438911438,
				0.8553093075752258,
				-2.598118305206299
			],
			"type":"VEC3"
		},
		{
			"bufferView":16,
			"componentType":5126,
			"count":112,
			"type":"VEC3"
		},
		{
			"bufferView":17,
			"componentType":5126,
			"count":112,
			"type":"VEC2"
		},
		{
			"bufferView":18,
			"componentType":5126,
			"count":112,
			"type":"VEC2"
		},
		{
			"bufferView":19,
			"componentType":5121,
			"count":112,
			"type":"VEC4"
		},
		{
			"bufferView":20,
			"componentType":5126,
			"count":112,
			"type":"VEC4"
		},
		{
			"bufferView":21,
			"componentType":5126,
			"count":60,
			"max":[
				0.18079213798046112,
				0.538360595703125,
				1.1682015657424927
			],
			"min":[
				-0.198978990316391,
				-0.14922890067100525,
				-0.032292842864990234
			],
			"type":"VEC3"
		},
		{
			"bufferView":22,
			"componentType":5126,
			"count":60,
			"type":"VEC3"
		},
		{
			"bufferView":23,
			"componentType":5126,
			"count":60,
			"type":"VEC2"
		},
		{
			"bufferView":24,
			"componentType":5126,
			"count":60,
			"type":"VEC2"
		},
		{
			"bufferView":25,
			"componentType":5121,
			"count":60,
			"type":"VEC4"
		},
		{
			"bufferView":26,
			"componentType":5126,
			"count":60,
			"type":"VEC4"
		},
		{
			"bufferView":27,
			"componentType":5123,
			"count":114,
			"type":"SCALAR"
		},
		{
			"bufferView":28,
			"componentType":5126,
			"count":2,
			"max":[
				0.5
			],
			"min":[
				0
			],
			"type":"SCALAR"
		},
		{
			"bufferView":29,
			"componentType":5126,
			"count":2,
			"type":"VEC3"
		},
		{
			"bufferView":30,
			"componentType":5126,
			"count":2,
			"type":"VEC4"
		},
		{
			"bufferView":31,
			"componentType":5126,
			"count":2,
			"type":"VEC3"
		},
		{
			"bufferView":32,
			"componentType":5126,
			"count":13,
			"max":[
				0.5
			],
			"min":[
				0
			],
			"type":"SCALAR"
		},
		{
			"bufferView":33,
			"componentType":5126,
			"count":13,
			"type":"VEC3"
		},
		{
			"bufferView":34,
			"componentType":5126,
			"count":2,
			"type":"VEC4"
		},
		{
			"bufferView":35,
			"componentType":5126,
			"count":2,
			"type":"VEC3"
		},
		{
			"bufferView":36,
			"componentType":5126,
			"count":13,
			"type":"VEC3"
		},
		{
			"bufferView":37,
			"componentType":5126,
			"count":2,
			"type":"VEC4"
		},
		{
			"bufferView":38,
			"componentType":5126,
			"count":2,
			"type":"VEC3"
		},
		{
			"bufferView":39,
			"componentType":5126,
			"count":13,
			"type":"VEC3"
		},
		{
			"bufferView":40,
			"componentType":5126,
			"count":2,
			"type":"VEC4"
		},
		{
			"bufferView":41,
			"componentType":5126,
			"count":2,
			"type":"VEC3"
		},
		{
			"bufferView":42,
			"componentType":5126,
			"count":2,
			"type":"VEC3"
		},
		{
			"bufferView":43,
			"componentType":5126,
			"count":2,
			"type":"VEC4"
		},
		{
			"bufferView":44,
			"componentType":5126,
			"count":2,
			"type":"VEC3"
		},
		{
			"bufferView":45,
			"componentType":5126,
			"count":13,
			"type":"VEC3"
		},
		{
			"bufferView":46,
			"componentType":5126,
			"count":2,
			"type":"VEC4"
		},
		{
			"bufferView":47,
			"componentType":5126,
			"count":2,
			"type":"VEC3"
		},
		{
			"bufferView":48,
			"componentType":5126,
			"count":13,
			"type":"VEC3"
		},
		{
			"bufferView":49,
			"componentType":5126,
			"count":2,
			"type":"VEC4"
		},
		{
			"bufferView":50,
			"componentType":5126,
			"count":2,
			"type":"VEC3"
		},
		{
			"bufferView":51,
			"componentType":5126,
			"count":13,
			"type":"VEC3"
		},
		{
			"bufferView":52,
			"componentType":5126,
			"count":2,
			"type":"VEC4"
		},
		{
			"bufferView":53,
			"componentType":5126,
			"count":2,
			"type":"VEC3"
		}
	],
	"bufferViews":[
		{
			"buffer":0,
			"byteLength":1344,
			"byteOffset":0,
			"target":34962
		},
		{
			"buffer":0,
			"byteLength":1344,
			"byteOffset":1344,
			"target":34962
		},
		{
			"buffer":0,
			"byteLength":896,
			"byteOffset":2688,
			"target":34962
		},
		{
			"buffer":0,
			"byteLength":896,
			"byteOffset":3584,
			"target":34962
		},
		{
			"buffer":0,
			"byteLength":448,
			"byteOffset":4480,
			"target":34962
		},
		{
			"buffer":0,
			"byteLength":1792,
			"byteOffset":4928,
			"target":34962
		},
		{
			"buffer":0,
			"byteLength":360,
			"byteOffset":6720,
			"target":34963
		},
		{
			"buffer":0,
			"byteLength":256,
			"byteOffset":7080
		},
		{
			"buffer":0,
			"byteLength":1344,
			"byteOffset":7336,
			"target":34962
		},
		{
			"buffer":0,
			"byteLength":1344,
			"byteOffset":8680,
			"target":34962
		},
		{
			"buffer":0,
			"byteLength":896,
			"byteOffset":10024,
			"target":34962
		},
		{
			"buffer":0,
			"byteLength":896,
			"byteOffset":10920,
			"target":34962
		},
		{
			"buffer":0,
			"byteLength":448,
			"byteOffset":11816,
			"target":34962
		},
		{
			"buffer":0,
			"byteLength":1792,
			"byteOffset":12264,
			"target":34962
		},
		{
			"buffer":0,
			"byteLength":360,
			"byteOffset":14056,
			"target":34963
		},
		{
			"buffer":0,
			"byteLength":1344,
			"byteOffset":14416,
			"target":34962
		},
		{
			"buffer":0,
			"byteLength":1344,
			"byteOffset":15760,
			"target":34962
		},
		{
			"buffer":0,
			"byteLength":896,
			"byteOffset":17104,
			"target":34962
		},
		{
			"buffer":0,
			"byteLength":896,
			"byteOffset":18000,
			"target":34962
		},
		{
			"buffer":0,
			"byteLength":448,
			"byteOffset":18896,
			"target":34962
		},
		{
			"buffer":0,
			"byteLength":1792,
			"byteOffset":19344,
			"target":34962
		},
		{
			"buffer":0,
			"byteLength":720,
			"byteOffset":21136,
			"target":34962
		},
		{
			"buffer":0,
			"byteLength":720,
			"byteOffset":21856,
			"target":34962
		},
		{
			"buffer":0,
			"byteLength":480,
			"byteOffset":22576,
			"target":34962
		},
		{
			"buffer":0,
			"byteLength":480,
			"byteOffset":23056,
			"target":34962
		},
		{
			"buffer":0,
			"byteLength":240,
			"byteOffset":23536,
			"target":34962
		},
		{
			"buffer":0,
			"byteLength":960,
			"byteOffset":23776,
			"target":34962
		},
		{
			"buffer":0,
			"byteLength":228,
			"byteOffset":24736,
			"target":34963
		},
		{
			"buffer":0,
			"byteLength":8,
			"byteOffset":24964
		},
		{
			"buffer":0,
			"byteLength":24,
			"byteOffset":24972
		},
		{
			"buffer":0,
			"byteLength":32,
			"byteOffset":24996
		},
		{
			"buffer":0,
			"byteLength":24,
			"byteOffset":25028
		},
		{
			"buffer":0,
			"byteLength":52,
			"byteOffset":25052
		},
		{
			"buffer":0,
			"byteLength":156,
			"byteOffset":25104
		},
		{
			"buffer":0,
			"byteLength":32,
			"byteOffset":25260
		},
		{
			"buffer":0,
			"byteLength":24,
			"byteOffset":25292
		},
		{
			"buffer":0,
			"byteLength":156,
			"byteOffset":25316
		},
		{
			"buffer":0,
			"byteLength":32,
			"byteOffset":25472
		},
		{
			"buffer":0,
			"byteLength":24,
			"byteOffset":25504
		},
		{
			"buffer":0,
			"byteLength":156,
			"byteOffset":25528
		},
		{
			"buffer":0,
			"byteLength":32,
			"byteOffset":25684
		},
		{
			"buffer":0,
			"byteLength":24,
			"byteOffset":25716
		},
		{
			"buffer":0,
			"byteLength":24,
			"byteOffset":25740
		},
		{
			"buffer":0,
			"byteLength":32,
			"byteOffset":25764
		},
		{
			"buffer":0,
			"byteLength":24,
			"byteOffset":25796
		},
		{
			"buffer":0,
			"byteLength":156,
			"byteOffset":25820
		},
		{
			"buffer":0,
			"byteLength":32,
			"byteOffset":25976
		},
		{
			"buffer":0,
			"byteLength":24,
			"byteOffset":26008
		},
		{
			"buffer":0,
			"byteLength":156,
			"byteOffset":26032
		},
		{
			"buffer":0,
			"byteLength":32,
			"byteOffset":26188
		},
		{
			"buffer":0,
			"byteLength":24,
			"byteOffset":26220
		},
		{
			"buffer":0,
			"byteLength":156,
			"byteOffset":26244
		},
		{
			"buffer":0,
			"byteLength":32,
			"byteOffset":26400
		},
		{
			"buffer":0,
			"byteLength":24,
			"byteOffset":26432
		}
	],
	"samplers":[
		{
			"magFilter":9729,
			"minFilter":9987
		}
	],
	"buffers":[
		{
			"byteLength":26456,
			"uri":"LineMissile.bin"
		}
	]
}
