{
	"asset":{
		"generator":"Khronos glTF Blender I/O v4.4.56",
		"version":"2.0"
	},
	"scene":0,
	"scenes":[
		{
			"name":"Scene",
			"nodes":[
				0
			]
		}
	],
	"nodes":[
		{
			"mesh":0,
			"name":"bullet-9mm",
			"rotation":[
				0,
				0.7071068286895752,
				0,
				0.7071068286895752
			],
			"scale":[
				10,
				10,
				10
			]
		}
	],
	"materials":[
		{
			"doubleSided":true,
			"name":"metal_gold",
			"pbrMetallicRoughness":{
				"baseColorFactor":[
					0.799102783203125,
					0.5271152257919312,
					0.20863689482212067,
					1
				],
				"metallicFactor":0,
				"roughnessFactor":0.5
			}
		},
		{
			"doubleSided":true,
			"name":"metal_copper",
			"pbrMetallicRoughness":{
				"baseColorFactor":[
					0.5583405494689941,
					0.23074007034301758,
					0.1384316384792328,
					1
				],
				"metallicFactor":0,
				"roughnessFactor":0.5
			}
		}
	],
	"meshes":[
		{
			"name":"Cube.003",
			"primitives":[
				{
					"attributes":{
						"POSITION":0,
						"NORMAL":1
					},
					"indices":2,
					"material":0
				},
				{
					"attributes":{
						"POSITION":3,
						"NORMAL":4
					},
					"indices":5,
					"material":1
				}
			]
		}
	],
	"accessors":[
		{
			"bufferView":0,
			"componentType":5126,
			"count":76,
			"max":[
				0.004210521001368761,
				0.0048705581575632095,
				0.004723450634628534
			],
			"min":[
				-0.01188185065984726,
				-0.004561699461191893,
				-0.004708798602223396
			],
			"type":"VEC3"
		},
		{
			"bufferView":1,
			"componentType":5126,
			"count":76,
			"type":"VEC3"
		},
		{
			"bufferView":2,
			"componentType":5123,
			"count":150,
			"type":"SCALAR"
		},
		{
			"bufferView":3,
			"componentType":5126,
			"count":36,
			"max":[
				0.011979009956121445,
				0.004160769749432802,
				0.003890318563207984
			],
			"min":[
				0.004210521001368761,
				-0.003677478525787592,
				-0.003947925288230181
			],
			"type":"VEC3"
		},
		{
			"bufferView":4,
			"componentType":5126,
			"count":36,
			"type":"VEC3"
		},
		{
			"bufferView":5,
			"componentType":5123,
			"count":54,
			"type":"SCALAR"
		}
	],
	"bufferViews":[
		{
			"buffer":0,
			"byteLength":912,
			"byteOffset":0,
			"target":34962
		},
		{
			"buffer":0,
			"byteLength":912,
			"byteOffset":912,
			"target":34962
		},
		{
			"buffer":0,
			"byteLength":300,
			"byteOffset":1824,
			"target":34963
		},
		{
			"buffer":0,
			"byteLength":432,
			"byteOffset":2124,
			"target":34962
		},
		{
			"buffer":0,
			"byteLength":432,
			"byteOffset":2556,
			"target":34962
		},
		{
			"buffer":0,
			"byteLength":108,
			"byteOffset":2988,
			"target":34963
		}
	],
	"buffers":[
		{
			"byteLength":3096,
			"uri":"Bullet-Live.bin"
		}
	]
}
