{
	"asset":{
		"generator":"Khronos glTF Blender I/O v4.4.56",
		"version":"2.0"
	},
	"scene":0,
	"scenes":[
		{
			"name":"Scene",
			"nodes":[
				0
			]
		}
	],
	"nodes":[
		{
			"mesh":0,
			"name":"\u5186\u9310",
			"rotation":[
				-0.7071067690849304,
				0,
				0,
				0.7071068286895752
			],
			"scale":[
				0.22463297843933105,
				0.22463297843933105,
				0.22463297843933105
			]
		}
	],
	"materials":[
		{
			"doubleSided":true,
			"name":"\u30de\u30c6\u30ea\u30a2\u30eb.001",
			"pbrMetallicRoughness":{
				"baseColorFactor":[
					0.8002911806106567,
					0.7896568775177002,
					0.010363509878516197,
					1
				],
				"metallicFactor":0.7975829839706421,
				"roughnessFactor":0.8141993880271912
			}
		},
		{
			"doubleSided":true,
			"name":"\u30de\u30c6\u30ea\u30a2\u30eb.002",
			"pbrMetallicRoughness":{
				"baseColorFactor":[
					0.07360967993736267,
					0.07360967993736267,
					0.07360967993736267,
					1
				],
				"metallicFactor":0.5480439066886902,
				"roughnessFactor":0.8801891803741455
			}
		},
		{
			"doubleSided":true,
			"name":"\u30de\u30c6\u30ea\u30a2\u30eb.003",
			"pbrMetallicRoughness":{
				"baseColorFactor":[
					0.350132554769516,
					0.350132554769516,
					0.350132554769516,
					1
				],
				"metallicFactor":0.2054380625486374,
				"roughnessFactor":0.6480362415313721
			}
		}
	],
	"meshes":[
		{
			"name":"\u5186\u9310",
			"primitives":[
				{
					"attributes":{
						"POSITION":0,
						"NORMAL":1,
						"TEXCOORD_0":2
					},
					"indices":3,
					"material":0
				},
				{
					"attributes":{
						"POSITION":4,
						"NORMAL":5,
						"TEXCOORD_0":6
					},
					"indices":7,
					"material":1
				},
				{
					"attributes":{
						"POSITION":8,
						"NORMAL":9,
						"TEXCOORD_0":10
					},
					"indices":11,
					"material":2
				}
			]
		}
	],
	"accessors":[
		{
			"bufferView":0,
			"componentType":5126,
			"count":144,
			"max":[
				1,
				0.17500001192092896,
				1
			],
			"min":[
				-1,
				-0.792727530002594,
				-1
			],
			"type":"VEC3"
		},
		{
			"bufferView":1,
			"componentType":5126,
			"count":144,
			"type":"VEC3"
		},
		{
			"bufferView":2,
			"componentType":5126,
			"count":144,
			"type":"VEC2"
		},
		{
			"bufferView":3,
			"componentType":5123,
			"count":234,
			"type":"SCALAR"
		},
		{
			"bufferView":4,
			"componentType":5126,
			"count":208,
			"max":[
				1.0764153003692627,
				-1.4104549884796143,
				1.0764153003692627
			],
			"min":[
				-1.0764153003692627,
				-2.839324951171875,
				-1.0764153003692627
			],
			"type":"VEC3"
		},
		{
			"bufferView":5,
			"componentType":5126,
			"count":208,
			"type":"VEC3"
		},
		{
			"bufferView":6,
			"componentType":5126,
			"count":208,
			"type":"VEC2"
		},
		{
			"bufferView":7,
			"componentType":5123,
			"count":330,
			"type":"SCALAR"
		},
		{
			"bufferView":8,
			"componentType":5126,
			"count":64,
			"max":[
				1,
				-0.7927274703979492,
				1
			],
			"min":[
				-1,
				-1.4104551076889038,
				-1
			],
			"type":"VEC3"
		},
		{
			"bufferView":9,
			"componentType":5126,
			"count":64,
			"type":"VEC3"
		},
		{
			"bufferView":10,
			"componentType":5126,
			"count":64,
			"type":"VEC2"
		},
		{
			"bufferView":11,
			"componentType":5123,
			"count":96,
			"type":"SCALAR"
		}
	],
	"bufferViews":[
		{
			"buffer":0,
			"byteLength":1728,
			"byteOffset":0,
			"target":34962
		},
		{
			"buffer":0,
			"byteLength":1728,
			"byteOffset":1728,
			"target":34962
		},
		{
			"buffer":0,
			"byteLength":1152,
			"byteOffset":3456,
			"target":34962
		},
		{
			"buffer":0,
			"byteLength":468,
			"byteOffset":4608,
			"target":34963
		},
		{
			"buffer":0,
			"byteLength":2496,
			"byteOffset":5076,
			"target":34962
		},
		{
			"buffer":0,
			"byteLength":2496,
			"byteOffset":7572,
			"target":34962
		},
		{
			"buffer":0,
			"byteLength":1664,
			"byteOffset":10068,
			"target":34962
		},
		{
			"buffer":0,
			"byteLength":660,
			"byteOffset":11732,
			"target":34963
		},
		{
			"buffer":0,
			"byteLength":768,
			"byteOffset":12392,
			"target":34962
		},
		{
			"buffer":0,
			"byteLength":768,
			"byteOffset":13160,
			"target":34962
		},
		{
			"buffer":0,
			"byteLength":512,
			"byteOffset":13928,
			"target":34962
		},
		{
			"buffer":0,
			"byteLength":192,
			"byteOffset":14440,
			"target":34963
		}
	],
	"buffers":[
		{
			"byteLength":14632,
			"uri":"GrenadeBullet.bin"
		}
	]
}
