{
	"asset":{
		"generator":"Khronos glTF Blender I/O v4.4.56",
		"version":"2.0"
	},
	"scene":0,
	"scenes":[
		{
			"name":"Scene",
			"nodes":[
				0,
				1,
				2
			]
		}
	],
	"nodes":[
		{
			"mesh":0,
			"name":"Body"
		},
		{
			"name":"RightWeapon",
			"translation":[
				1.6929115056991577,
				8.499826431274414,
				0
			]
		},
		{
			"name":"LeftWeapon",
			"translation":[
				-1.6929115056991577,
				8.499826431274414,
				0
			]
		}
	],
	"materials":[
		{
			"doubleSided":true,
			"name":"\u30de\u30c6\u30ea\u30a2\u30eb",
			"normalTexture":{
				"index":0,
				"scale":0.7000000476837158
			},
			"pbrMetallicRoughness":{
				"baseColorTexture":{
					"index":1
				},
				"metallicFactor":0.03021148033440113,
				"roughnessFactor":0.6540785431861877
			}
		}
	],
	"meshes":[
		{
			"name":"\u7acb\u65b9\u4f53.006",
			"primitives":[
				{
					"attributes":{
						"POSITION":0,
						"NORMAL":1,
						"TEXCOORD_0":2
					},
					"indices":3,
					"material":0
				}
			]
		}
	],
	"textures":[
		{
			"sampler":0,
			"source":0
		},
		{
			"sampler":0,
			"source":1
		}
	],
	"images":[
		{
			"mimeType":"image/png",
			"name":"mecha_Nol",
			"uri":"mecha_Nol.png"
		},
		{
			"mimeType":"image/png",
			"name":"arm",
			"uri":"arm.png"
		}
	],
	"accessors":[
		{
			"bufferView":0,
			"componentType":5126,
			"count":2436,
			"max":[
				6.4197163581848145,
				10.188850402832031,
				3.999999761581421
			],
			"min":[
				-6.523524761199951,
				-0.01280975341796875,
				-1.3909809589385986
			],
			"type":"VEC3"
		},
		{
			"bufferView":1,
			"componentType":5126,
			"count":2436,
			"type":"VEC3"
		},
		{
			"bufferView":2,
			"componentType":5126,
			"count":2436,
			"type":"VEC2"
		},
		{
			"bufferView":3,
			"componentType":5123,
			"count":4422,
			"type":"SCALAR"
		}
	],
	"bufferViews":[
		{
			"buffer":0,
			"byteLength":29232,
			"byteOffset":0,
			"target":34962
		},
		{
			"buffer":0,
			"byteLength":29232,
			"byteOffset":29232,
			"target":34962
		},
		{
			"buffer":0,
			"byteLength":19488,
			"byteOffset":58464,
			"target":34962
		},
		{
			"buffer":0,
			"byteLength":8844,
			"byteOffset":77952,
			"target":34963
		}
	],
	"samplers":[
		{
			"magFilter":9729,
			"minFilter":9987
		}
	],
	"buffers":[
		{
			"byteLength":86796,
			"uri":"5LegMT.bin"
		}
	]
}
