{
	"asset":{
		"generator":"Khronos glTF Blender I/O v4.4.56",
		"version":"2.0"
	},
	"scene":0,
	"scenes":[
		{
			"name":"Scene",
			"nodes":[
				0,
				1,
				2,
				3,
				4
			]
		}
	],
	"nodes":[
		{
			"mesh":0,
			"name":"Cube",
			"scale":[
				-3.9829530715942383,
				-3.9829530715942383,
				-3.9829530715942383
			],
			"translation":[
				0,
				6.426912784576416,
				0
			]
		},
		{
			"mesh":1,
			"name":"\u5186\u67f1",
			"rotation":[
				0,
				0,
				-0.7071068286895752,
				0.7071068286895752
			],
			"translation":[
				4.333378791809082,
				0.9329671263694763,
				-7.369999885559082
			]
		},
		{
			"mesh":2,
			"name":"\u7acb\u65b9\u4f53",
			"scale":[
				4.047946453094482,
				4.047946453094482,
				4.047946453094482
			],
			"translation":[
				0,
				6.346095561981201,
				-15.730624198913574
			]
		},
		{
			"mesh":3,
			"name":"\u7acb\u65b9\u4f53.001",
			"scale":[
				4.513688087463379,
				27.211265563964844,
				23.77326202392578
			],
			"translation":[
				0,
				8.15412425994873,
				-10.706182479858398
			]
		},
		{
			"mesh":4,
			"name":"\u7acb\u65b9\u4f53.002",
			"scale":[
				4.047946453094482,
				4.047946453094482,
				4.047946453094482
			],
			"translation":[
				0,
				6.346095561981201,
				-15.730624198913574
			]
		}
	],
	"materials":[
		{
			"doubleSided":true,
			"name":"Material",
			"normalTexture":{
				"index":0
			},
			"pbrMetallicRoughness":{
				"baseColorFactor":[
					0,
					0,
					0,
					1
				],
				"metallicFactor":0.12386707216501236,
				"roughnessFactor":0.8504531979560852
			}
		},
		{
			"doubleSided":true,
			"name":"\u30de\u30c6\u30ea\u30a2\u30eb",
			"pbrMetallicRoughness":{
				"baseColorFactor":[
					0,
					0,
					0,
					1
				],
				"metallicFactor":0.9430379867553711,
				"roughnessFactor":0.202531635761261
			}
		},
		{
			"doubleSided":true,
			"name":"\u30de\u30c6\u30ea\u30a2\u30eb.001",
			"normalTexture":{
				"index":1
			},
			"pbrMetallicRoughness":{
				"baseColorFactor":[
					0.3800663650035858,
					0.001850174623541534,
					0,
					1
				],
				"metallicFactor":0.5103063583374023,
				"roughnessFactor":0.5
			}
		},
		{
			"doubleSided":true,
			"name":"\u30de\u30c6\u30ea\u30a2\u30eb.002",
			"pbrMetallicRoughness":{
				"baseColorFactor":[
					0.0026264991611242294,
					0.63387131690979,
					0.6114176511764526,
					1
				],
				"metallicFactor":0.9430379867553711,
				"roughnessFactor":0.202531635761261
			}
		}
	],
	"meshes":[
		{
			"name":"Cube",
			"primitives":[
				{
					"attributes":{
						"POSITION":0,
						"NORMAL":1,
						"TEXCOORD_0":2
					},
					"indices":3,
					"material":0
				}
			]
		},
		{
			"name":"\u5186\u67f1",
			"primitives":[
				{
					"attributes":{
						"POSITION":4,
						"NORMAL":5,
						"TEXCOORD_0":6
					},
					"indices":7,
					"material":1
				}
			]
		},
		{
			"name":"\u7acb\u65b9\u4f53",
			"primitives":[
				{
					"attributes":{
						"POSITION":8,
						"NORMAL":9,
						"TEXCOORD_0":10
					},
					"indices":11,
					"material":2
				},
				{
					"attributes":{
						"POSITION":12,
						"NORMAL":13,
						"TEXCOORD_0":14
					},
					"indices":15,
					"material":3
				}
			]
		},
		{
			"name":"\u7acb\u65b9\u4f53.004",
			"primitives":[
				{
					"attributes":{
						"POSITION":16,
						"NORMAL":17,
						"TEXCOORD_0":18
					},
					"indices":19,
					"material":1
				}
			]
		},
		{
			"name":"\u7acb\u65b9\u4f53.001",
			"primitives":[
				{
					"attributes":{
						"POSITION":20,
						"NORMAL":21,
						"TEXCOORD_0":22
					},
					"indices":19,
					"material":1
				}
			]
		}
	],
	"textures":[
		{
			"sampler":0,
			"source":0
		},
		{
			"sampler":0,
			"source":0
		}
	],
	"images":[
		{
			"mimeType":"image/png",
			"name":"contena_Nol",
			"uri":"contena_Nol.png"
		}
	],
	"accessors":[
		{
			"bufferView":0,
			"componentType":5126,
			"count":24,
			"max":[
				2.078749179840088,
				1,
				2.4759206771850586
			],
			"min":[
				-1.968174934387207,
				-2.6572561264038086,
				-2.3709757328033447
			],
			"type":"VEC3"
		},
		{
			"bufferView":1,
			"componentType":5126,
			"count":24,
			"type":"VEC3"
		},
		{
			"bufferView":2,
			"componentType":5126,
			"count":24,
			"type":"VEC2"
		},
		{
			"bufferView":3,
			"componentType":5123,
			"count":36,
			"type":"SCALAR"
		},
		{
			"bufferView":4,
			"componentType":5126,
			"count":162,
			"max":[
				2.1112372875213623,
				3.623476028442383,
				2.1112375259399414
			],
			"min":[
				-2.1112372875213623,
				-0.017575979232788086,
				-2.111236810684204
			],
			"type":"VEC3"
		},
		{
			"bufferView":5,
			"componentType":5126,
			"count":162,
			"type":"VEC3"
		},
		{
			"bufferView":6,
			"componentType":5126,
			"count":162,
			"type":"VEC2"
		},
		{
			"bufferView":7,
			"componentType":5123,
			"count":324,
			"type":"SCALAR"
		},
		{
			"bufferView":8,
			"componentType":5126,
			"count":256,
			"max":[
				1.2475088834762573,
				1.3467438220977783,
				6.4326090812683105
			],
			"min":[
				-1.3834741115570068,
				-1.192406415939331,
				-0.7108367681503296
			],
			"type":"VEC3"
		},
		{
			"bufferView":9,
			"componentType":5126,
			"count":256,
			"type":"VEC3"
		},
		{
			"bufferView":10,
			"componentType":5126,
			"count":256,
			"type":"VEC2"
		},
		{
			"bufferView":11,
			"componentType":5123,
			"count":450,
			"type":"SCALAR"
		},
		{
			"bufferView":12,
			"componentType":5126,
			"count":28,
			"max":[
				0.880645215511322,
				0.815824031829834,
				0.8629553914070129
			],
			"min":[
				-0.872952401638031,
				0.6715922951698303,
				-0.4939984679222107
			],
			"type":"VEC3"
		},
		{
			"bufferView":13,
			"componentType":5126,
			"count":28,
			"type":"VEC3"
		},
		{
			"bufferView":14,
			"componentType":5126,
			"count":28,
			"type":"VEC2"
		},
		{
			"bufferView":15,
			"componentType":5123,
			"count":42,
			"type":"SCALAR"
		},
		{
			"bufferView":16,
			"componentType":5126,
			"count":25,
			"max":[
				0.8933367729187012,
				0.21852201223373413,
				0.021469950675964355
			],
			"min":[
				-0.8933367729187012,
				-0.21852105855941772,
				-0.02146977186203003
			],
			"type":"VEC3"
		},
		{
			"bufferView":17,
			"componentType":5126,
			"count":25,
			"type":"VEC3"
		},
		{
			"bufferView":18,
			"componentType":5126,
			"count":25,
			"type":"VEC2"
		},
		{
			"bufferView":19,
			"componentType":5123,
			"count":96,
			"type":"SCALAR"
		},
		{
			"bufferView":20,
			"componentType":5126,
			"count":25,
			"max":[
				0.8933367729187012,
				-0.4568048119544983,
				-0.6574675440788269
			],
			"min":[
				-0.8933367729187012,
				-0.8938478827476501,
				-0.7004072666168213
			],
			"type":"VEC3"
		},
		{
			"bufferView":21,
			"componentType":5126,
			"count":25,
			"type":"VEC3"
		},
		{
			"bufferView":22,
			"componentType":5126,
			"count":25,
			"type":"VEC2"
		}
	],
	"bufferViews":[
		{
			"buffer":0,
			"byteLength":288,
			"byteOffset":0,
			"target":34962
		},
		{
			"buffer":0,
			"byteLength":288,
			"byteOffset":288,
			"target":34962
		},
		{
			"buffer":0,
			"byteLength":192,
			"byteOffset":576,
			"target":34962
		},
		{
			"buffer":0,
			"byteLength":72,
			"byteOffset":768,
			"target":34963
		},
		{
			"buffer":0,
			"byteLength":1944,
			"byteOffset":840,
			"target":34962
		},
		{
			"buffer":0,
			"byteLength":1944,
			"byteOffset":2784,
			"target":34962
		},
		{
			"buffer":0,
			"byteLength":1296,
			"byteOffset":4728,
			"target":34962
		},
		{
			"buffer":0,
			"byteLength":648,
			"byteOffset":6024,
			"target":34963
		},
		{
			"buffer":0,
			"byteLength":3072,
			"byteOffset":6672,
			"target":34962
		},
		{
			"buffer":0,
			"byteLength":3072,
			"byteOffset":9744,
			"target":34962
		},
		{
			"buffer":0,
			"byteLength":2048,
			"byteOffset":12816,
			"target":34962
		},
		{
			"buffer":0,
			"byteLength":900,
			"byteOffset":14864,
			"target":34963
		},
		{
			"buffer":0,
			"byteLength":336,
			"byteOffset":15764,
			"target":34962
		},
		{
			"buffer":0,
			"byteLength":336,
			"byteOffset":16100,
			"target":34962
		},
		{
			"buffer":0,
			"byteLength":224,
			"byteOffset":16436,
			"target":34962
		},
		{
			"buffer":0,
			"byteLength":84,
			"byteOffset":16660,
			"target":34963
		},
		{
			"buffer":0,
			"byteLength":300,
			"byteOffset":16744,
			"target":34962
		},
		{
			"buffer":0,
			"byteLength":300,
			"byteOffset":17044,
			"target":34962
		},
		{
			"buffer":0,
			"byteLength":200,
			"byteOffset":17344,
			"target":34962
		},
		{
			"buffer":0,
			"byteLength":192,
			"byteOffset":17544,
			"target":34963
		},
		{
			"buffer":0,
			"byteLength":300,
			"byteOffset":17736,
			"target":34962
		},
		{
			"buffer":0,
			"byteLength":300,
			"byteOffset":18036,
			"target":34962
		},
		{
			"buffer":0,
			"byteLength":200,
			"byteOffset":18336,
			"target":34962
		}
	],
	"samplers":[
		{
			"magFilter":9729,
			"minFilter":9987
		}
	],
	"buffers":[
		{
			"byteLength":18536,
			"uri":"ContenaCar.bin"
		}
	]
}
