{
	"asset":{
		"generator":"Khronos glTF Blender I/O v4.4.56",
		"version":"2.0"
	},
	"scene":0,
	"scenes":[
		{
			"name":"Scene",
			"nodes":[
				0,
				1,
				2,
				3
			]
		}
	],
	"nodes":[
		{
			"mesh":0,
			"name":"\u7acb\u65b9\u4f53"
		},
		{
			"mesh":1,
			"name":"\u5e73\u9762",
			"rotation":[
				0,
				-1,
				0,
				7.549790126404332e-08
			],
			"scale":[
				1,
				1,
				2.772313356399536
			],
			"translation":[
				0,
				0.39160966873168945,
				-2.799999952316284
			]
		},
		{
			"name":"EndPoint",
			"translation":[
				0,
				0.15711715817451477,
				-12.413984298706055
			]
		},
		{
			"name":"StartPoint.001",
			"translation":[
				0,
				0.30000001192092896,
				0
			]
		}
	],
	"materials":[
		{
			"doubleSided":true,
			"name":"blue_metal_plate",
			"normalTexture":{
				"index":0,
				"scale":3.799999237060547
			},
			"pbrMetallicRoughness":{
				"baseColorFactor":[
					0.05368226021528244,
					0.05368226021528244,
					0.05368226021528244,
					1
				],
				"metallicFactor":0.814659595489502,
				"metallicRoughnessTexture":{
					"index":1
				}
			}
		}
	],
	"meshes":[
		{
			"name":"\u7acb\u65b9\u4f53",
			"primitives":[
				{
					"attributes":{
						"POSITION":0,
						"NORMAL":1,
						"TEXCOORD_0":2
					},
					"indices":3,
					"material":0
				}
			]
		},
		{
			"name":"\u5e73\u9762",
			"primitives":[
				{
					"attributes":{
						"POSITION":4,
						"NORMAL":5,
						"TEXCOORD_0":6
					},
					"indices":7,
					"material":0
				}
			]
		}
	],
	"textures":[
		{
			"sampler":0,
			"source":0
		},
		{
			"sampler":0,
			"source":1
		}
	],
	"images":[
		{
			"mimeType":"image/png",
			"name":"blue_metal_plate_nor_gl_4k",
			"uri":"blue_metal_plate_nor_gl_4k.png"
		},
		{
			"mimeType":"image/png",
			"name":"blue_metal_plate_rough_4k",
			"uri":"blue_metal_plate_rough_4k.png"
		}
	],
	"accessors":[
		{
			"bufferView":0,
			"componentType":5126,
			"count":356,
			"max":[
				0.10475167632102966,
				0.42549246549606323,
				0.1999998241662979
			],
			"min":[
				-0.10475214570760727,
				-0.19999998807907104,
				-12.800000190734863
			],
			"type":"VEC3"
		},
		{
			"bufferView":1,
			"componentType":5126,
			"count":356,
			"type":"VEC3"
		},
		{
			"bufferView":2,
			"componentType":5126,
			"count":356,
			"type":"VEC2"
		},
		{
			"bufferView":3,
			"componentType":5123,
			"count":630,
			"type":"SCALAR"
		},
		{
			"bufferView":4,
			"componentType":5126,
			"count":959,
			"max":[
				0.030510425567626953,
				0.03835918754339218,
				3.618229866027832
			],
			"min":[
				-0.04071665555238724,
				-0.5431591868400574,
				-1.0845181941986084
			],
			"type":"VEC3"
		},
		{
			"bufferView":5,
			"componentType":5126,
			"count":959,
			"type":"VEC3"
		},
		{
			"bufferView":6,
			"componentType":5126,
			"count":959,
			"type":"VEC2"
		},
		{
			"bufferView":7,
			"componentType":5123,
			"count":1536,
			"type":"SCALAR"
		}
	],
	"bufferViews":[
		{
			"buffer":0,
			"byteLength":4272,
			"byteOffset":0,
			"target":34962
		},
		{
			"buffer":0,
			"byteLength":4272,
			"byteOffset":4272,
			"target":34962
		},
		{
			"buffer":0,
			"byteLength":2848,
			"byteOffset":8544,
			"target":34962
		},
		{
			"buffer":0,
			"byteLength":1260,
			"byteOffset":11392,
			"target":34963
		},
		{
			"buffer":0,
			"byteLength":11508,
			"byteOffset":12652,
			"target":34962
		},
		{
			"buffer":0,
			"byteLength":11508,
			"byteOffset":24160,
			"target":34962
		},
		{
			"buffer":0,
			"byteLength":7672,
			"byteOffset":35668,
			"target":34962
		},
		{
			"buffer":0,
			"byteLength":3072,
			"byteOffset":43340,
			"target":34963
		}
	],
	"samplers":[
		{
			"magFilter":9729,
			"minFilter":9987
		}
	],
	"buffers":[
		{
			"byteLength":46412,
			"uri":"ChainBlade.bin"
		}
	]
}
