{
	"asset":{
		"generator":"Khronos glTF Blender I/O v4.4.56",
		"version":"2.0"
	},
	"scene":0,
	"scenes":[
		{
			"name":"Scene",
			"nodes":[
				0,
				1,
				2
			]
		}
	],
	"nodes":[
		{
			"mesh":0,
			"name":"\u5186\u67f1",
			"rotation":[
				-0.5,
				0.5,
				-0.5,
				0.5
			],
			"scale":[
				0.338574081659317,
				0.6937685012817383,
				0.3499999940395355
			],
			"translation":[
				0,
				0,
				-1.137090802192688
			]
		},
		{
			"mesh":1,
			"name":"\u7acb\u65b9\u4f53.001",
			"scale":[
				0.4445270597934723,
				0.5170032978057861,
				0.4981648325920105
			],
			"translation":[
				-0.01595529168844223,
				0.02566438913345337,
				-0.6858301162719727
			]
		},
		{
			"name":"SP",
			"translation":[
				0,
				0.008504293859004974,
				-6.507424354553223
			]
		}
	],
	"materials":[
		{
			"doubleSided":true,
			"name":"\u30de\u30c6\u30ea\u30a2\u30eb",
			"normalTexture":{
				"index":0,
				"scale":9.499999046325684
			},
			"pbrMetallicRoughness":{
				"baseColorFactor":[
					0,
					0,
					0,
					1
				],
				"metallicFactor":0.9154078364372253,
				"metallicRoughnessTexture":{
					"index":1
				}
			}
		},
		{
			"doubleSided":true,
			"name":"Material",
			"normalTexture":{
				"index":2,
				"scale":5.59999942779541
			},
			"pbrMetallicRoughness":{
				"baseColorTexture":{
					"index":3
				},
				"metallicFactor":0.9154078364372253,
				"metallicRoughnessTexture":{
					"index":4
				}
			}
		}
	],
	"meshes":[
		{
			"name":"\u5186\u67f1",
			"primitives":[
				{
					"attributes":{
						"POSITION":0,
						"NORMAL":1,
						"TEXCOORD_0":2
					},
					"indices":3,
					"material":0
				}
			]
		},
		{
			"name":"\u7acb\u65b9\u4f53.003",
			"primitives":[
				{
					"attributes":{
						"POSITION":4,
						"NORMAL":5,
						"TEXCOORD_0":6
					},
					"indices":7,
					"material":1
				}
			]
		}
	],
	"textures":[
		{
			"sampler":0,
			"source":0
		},
		{
			"sampler":1,
			"source":1
		},
		{
			"sampler":0,
			"source":2
		},
		{
			"sampler":0,
			"source":3
		},
		{
			"sampler":1,
			"source":1
		}
	],
	"images":[
		{
			"mimeType":"image/png",
			"name":"blue_metal_plate_nor_gl_4k",
			"uri":"blue_metal_plate_nor_gl_4k.png"
		},
		{
			"mimeType":"image/png",
			"name":"blue_metal_plate_rough_4k",
			"uri":"blue_metal_plate_rough_4k.png"
		},
		{
			"mimeType":"image/png",
			"name":"rubber_tiles_nor_gl_4k",
			"uri":"rubber_tiles_nor_gl_4k.png"
		},
		{
			"mimeType":"image/jpeg",
			"name":"blue_metal_plate_diff_4k",
			"uri":"blue_metal_plate_diff_4k.jpg"
		}
	],
	"accessors":[
		{
			"bufferView":0,
			"componentType":5126,
			"count":827,
			"max":[
				1,
				8.369119644165039,
				1
			],
			"min":[
				-1.067494511604309,
				-1,
				-1
			],
			"type":"VEC3"
		},
		{
			"bufferView":1,
			"componentType":5126,
			"count":827,
			"type":"VEC3"
		},
		{
			"bufferView":2,
			"componentType":5126,
			"count":827,
			"type":"VEC2"
		},
		{
			"bufferView":3,
			"componentType":5123,
			"count":1428,
			"type":"SCALAR"
		},
		{
			"bufferView":4,
			"componentType":5126,
			"count":466,
			"max":[
				1.1646833419799805,
				1.4492851495742798,
				3.014233112335205
			],
			"min":[
				-1.0848983526229858,
				-1.4492851495742798,
				-2.0041861534118652
			],
			"type":"VEC3"
		},
		{
			"bufferView":5,
			"componentType":5126,
			"count":466,
			"type":"VEC3"
		},
		{
			"bufferView":6,
			"componentType":5126,
			"count":466,
			"type":"VEC2"
		},
		{
			"bufferView":7,
			"componentType":5123,
			"count":840,
			"type":"SCALAR"
		}
	],
	"bufferViews":[
		{
			"buffer":0,
			"byteLength":9924,
			"byteOffset":0,
			"target":34962
		},
		{
			"buffer":0,
			"byteLength":9924,
			"byteOffset":9924,
			"target":34962
		},
		{
			"buffer":0,
			"byteLength":6616,
			"byteOffset":19848,
			"target":34962
		},
		{
			"buffer":0,
			"byteLength":2856,
			"byteOffset":26464,
			"target":34963
		},
		{
			"buffer":0,
			"byteLength":5592,
			"byteOffset":29320,
			"target":34962
		},
		{
			"buffer":0,
			"byteLength":5592,
			"byteOffset":34912,
			"target":34962
		},
		{
			"buffer":0,
			"byteLength":3728,
			"byteOffset":40504,
			"target":34962
		},
		{
			"buffer":0,
			"byteLength":1680,
			"byteOffset":44232,
			"target":34963
		}
	],
	"samplers":[
		{
			"magFilter":9729,
			"minFilter":9987
		},
		{
			"magFilter":9728,
			"minFilter":9984
		}
	],
	"buffers":[
		{
			"byteLength":45912,
			"uri":"GrenadeLauncher.bin"
		}
	]
}
