{
	"asset":{
		"generator":"Khronos glTF Blender I/O v5.0.21",
		"version":"2.0"
	},
	"scene":0,
	"scenes":[
		{
			"name":"Scene",
			"nodes":[
				0,
				1
			]
		}
	],
	"nodes":[
		{
			"mesh":0,
			"name":"Cube"
		},
		{
			"mesh":1,
			"name":"COL",
			"scale":[
				26.099998474121094,
				13.049999237060547,
				42.04999923706055
			],
			"translation":[
				0,
				11.377083778381348,
				0
			]
		}
	],
	"materials":[
		{
			"doubleSided":true,
			"name":"Material.001",
			"normalTexture":{
				"index":0,
				"scale":1.1999999284744263
			},
			"pbrMetallicRoughness":{
				"baseColorTexture":{
					"index":1
				},
				"metallicFactor":0,
				"metallicRoughnessTexture":{
					"index":2
				}
			}
		},
		{
			"doubleSided":true,
			"name":"\u30de\u30c6\u30ea\u30a2\u30eb",
			"pbrMetallicRoughness":{
				"baseColorFactor":[
					0.2880912721157074,
					0.7893706560134888,
					0.800481915473938,
					1
				],
				"metallicFactor":0.15407857298851013,
				"metallicRoughnessTexture":{
					"index":3
				}
			}
		},
		{
			"doubleSided":true,
			"name":"\u30de\u30c6\u30ea\u30a2\u30eb.001",
			"pbrMetallicRoughness":{
				"metallicFactor":0.11178247630596161,
				"metallicRoughnessTexture":{
					"index":4
				}
			}
		},
		{
			"doubleSided":true,
			"name":"\u30de\u30c6\u30ea\u30a2\u30eb.002",
			"pbrMetallicRoughness":{
				"baseColorFactor":[
					0.0016719342675060034,
					0.004581121262162924,
					0.004645586013793945,
					1
				],
				"metallicFactor":0,
				"metallicRoughnessTexture":{
					"index":5
				}
			}
		}
	],
	"meshes":[
		{
			"name":"Cube",
			"primitives":[
				{
					"attributes":{
						"POSITION":0,
						"NORMAL":1,
						"TEXCOORD_0":2
					},
					"indices":3,
					"material":0
				},
				{
					"attributes":{
						"POSITION":4,
						"NORMAL":5,
						"TEXCOORD_0":6
					},
					"indices":7,
					"material":1
				},
				{
					"attributes":{
						"POSITION":8,
						"NORMAL":9,
						"TEXCOORD_0":10
					},
					"indices":11,
					"material":2
				},
				{
					"attributes":{
						"POSITION":12,
						"NORMAL":13,
						"TEXCOORD_0":14
					},
					"indices":15,
					"material":3
				}
			]
		},
		{
			"name":"\u7acb\u65b9\u4f53",
			"primitives":[
				{
					"attributes":{
						"POSITION":16,
						"NORMAL":17,
						"TEXCOORD_0":18
					},
					"indices":19
				}
			]
		}
	],
	"textures":[
		{
			"sampler":0,
			"source":0
		},
		{
			"sampler":0,
			"source":1
		},
		{
			"sampler":0,
			"source":2
		},
		{
			"sampler":0,
			"source":3
		},
		{
			"sampler":0,
			"source":2
		},
		{
			"sampler":0,
			"source":3
		}
	],
	"images":[
		{
			"mimeType":"image/png",
			"name":"Plaster007_1K-PNG_NormalGL",
			"uri":"Plaster007_1K-PNG_NormalGL.png"
		},
		{
			"mimeType":"image/png",
			"name":"Plaster007_1K-PNG_Color",
			"uri":"Plaster007_1K-PNG_Color.png"
		},
		{
			"mimeType":"image/png",
			"name":"Rock046L_1K-PNG_Roughness",
			"uri":"Rock046L_1K-PNG_Roughness.png"
		},
		{
			"mimeType":"image/png",
			"name":"Ice003_1K-PNG_Roughness",
			"uri":"Ice003_1K-PNG_Roughness.png"
		}
	],
	"accessors":[
		{
			"bufferView":0,
			"componentType":5126,
			"count":1347,
			"max":[
				24.012968063354492,
				33.494415283203125,
				43.187225341796875
			],
			"min":[
				-26.919710159301758,
				-1,
				-42.81309509277344
			],
			"type":"VEC3"
		},
		{
			"bufferView":1,
			"componentType":5126,
			"count":1347,
			"type":"VEC3"
		},
		{
			"bufferView":2,
			"componentType":5126,
			"count":1347,
			"type":"VEC2"
		},
		{
			"bufferView":3,
			"componentType":5123,
			"count":3726,
			"type":"SCALAR"
		},
		{
			"bufferView":4,
			"componentType":5126,
			"count":48,
			"max":[
				24.012968063354492,
				18,
				39.98445510864258
			],
			"min":[
				-26.919710159301758,
				2,
				-41.00232696533203
			],
			"type":"VEC3"
		},
		{
			"bufferView":5,
			"componentType":5126,
			"count":48,
			"type":"VEC3"
		},
		{
			"bufferView":6,
			"componentType":5126,
			"count":48,
			"type":"VEC2"
		},
		{
			"bufferView":7,
			"componentType":5123,
			"count":72,
			"type":"SCALAR"
		},
		{
			"bufferView":8,
			"componentType":5126,
			"count":50,
			"max":[
				19.647911071777344,
				19,
				43.187225341796875
			],
			"min":[
				-19.637611389160156,
				2,
				37.099151611328125
			],
			"type":"VEC3"
		},
		{
			"bufferView":9,
			"componentType":5126,
			"count":50,
			"type":"VEC3"
		},
		{
			"bufferView":10,
			"componentType":5126,
			"count":50,
			"type":"VEC2"
		},
		{
			"bufferView":11,
			"componentType":5123,
			"count":84,
			"type":"SCALAR"
		},
		{
			"bufferView":12,
			"componentType":5126,
			"count":35,
			"max":[
				15.282853126525879,
				15,
				43.187225341796875
			],
			"min":[
				-19.637611389160156,
				2,
				37.099151611328125
			],
			"type":"VEC3"
		},
		{
			"bufferView":13,
			"componentType":5126,
			"count":35,
			"type":"VEC3"
		},
		{
			"bufferView":14,
			"componentType":5126,
			"count":35,
			"type":"VEC2"
		},
		{
			"bufferView":15,
			"componentType":5123,
			"count":54,
			"type":"SCALAR"
		},
		{
			"bufferView":16,
			"componentType":5126,
			"count":96,
			"max":[
				1,
				1.7170851230621338,
				1.0367238521575928
			],
			"min":[
				-1.034783124923706,
				-1,
				-1.0223093032836914
			],
			"type":"VEC3"
		},
		{
			"bufferView":17,
			"componentType":5126,
			"count":96,
			"type":"VEC3"
		},
		{
			"bufferView":18,
			"componentType":5126,
			"count":96,
			"type":"VEC2"
		},
		{
			"bufferView":19,
			"componentType":5123,
			"count":144,
			"type":"SCALAR"
		}
	],
	"bufferViews":[
		{
			"buffer":0,
			"byteLength":16164,
			"byteOffset":0,
			"target":34962
		},
		{
			"buffer":0,
			"byteLength":16164,
			"byteOffset":16164,
			"target":34962
		},
		{
			"buffer":0,
			"byteLength":10776,
			"byteOffset":32328,
			"target":34962
		},
		{
			"buffer":0,
			"byteLength":7452,
			"byteOffset":43104,
			"target":34963
		},
		{
			"buffer":0,
			"byteLength":576,
			"byteOffset":50556,
			"target":34962
		},
		{
			"buffer":0,
			"byteLength":576,
			"byteOffset":51132,
			"target":34962
		},
		{
			"buffer":0,
			"byteLength":384,
			"byteOffset":51708,
			"target":34962
		},
		{
			"buffer":0,
			"byteLength":144,
			"byteOffset":52092,
			"target":34963
		},
		{
			"buffer":0,
			"byteLength":600,
			"byteOffset":52236,
			"target":34962
		},
		{
			"buffer":0,
			"byteLength":600,
			"byteOffset":52836,
			"target":34962
		},
		{
			"buffer":0,
			"byteLength":400,
			"byteOffset":53436,
			"target":34962
		},
		{
			"buffer":0,
			"byteLength":168,
			"byteOffset":53836,
			"target":34963
		},
		{
			"buffer":0,
			"byteLength":420,
			"byteOffset":54004,
			"target":34962
		},
		{
			"buffer":0,
			"byteLength":420,
			"byteOffset":54424,
			"target":34962
		},
		{
			"buffer":0,
			"byteLength":280,
			"byteOffset":54844,
			"target":34962
		},
		{
			"buffer":0,
			"byteLength":108,
			"byteOffset":55124,
			"target":34963
		},
		{
			"buffer":0,
			"byteLength":1152,
			"byteOffset":55232,
			"target":34962
		},
		{
			"buffer":0,
			"byteLength":1152,
			"byteOffset":56384,
			"target":34962
		},
		{
			"buffer":0,
			"byteLength":768,
			"byteOffset":57536,
			"target":34962
		},
		{
			"buffer":0,
			"byteLength":288,
			"byteOffset":58304,
			"target":34963
		}
	],
	"samplers":[
		{
			"magFilter":9729,
			"minFilter":9987
		}
	],
	"buffers":[
		{
			"byteLength":58592,
			"uri":"LowApartment.bin"
		}
	]
}
