{
	"asset":{
		"generator":"Khronos glTF Blender I/O v4.4.56",
		"version":"2.0"
	},
	"scene":0,
	"scenes":[
		{
			"name":"Scene",
			"nodes":[
				7,
				8,
				9
			]
		}
	],
	"nodes":[
		{
			"name":"\u30dc\u30fc\u30f3"
		},
		{
			"name":"\u30dc\u30fc\u30f3.001",
			"rotation":[
				-0.4806046187877655,
				0.5190006494522095,
				0.48558372259140015,
				0.513679027557373
			],
			"scale":[
				0.9999999403953552,
				0.9999999403953552,
				0.9999999403953552
			]
		},
		{
			"name":"\u30dc\u30fc\u30f3.002",
			"rotation":[
				-0.5093749761581421,
				-0.49044594168663025,
				-0.49044692516326904,
				0.5093739032745361
			]
		},
		{
			"mesh":0,
			"name":"COL2",
			"skin":0
		},
		{
			"mesh":1,
			"name":"\u7acb\u65b9\u4f53",
			"skin":0
		},
		{
			"mesh":2,
			"name":"\u7acb\u65b9\u4f53.001",
			"skin":0
		},
		{
			"mesh":3,
			"name":"\u7acb\u65b9\u4f53.002",
			"skin":0
		},
		{
			"children":[
				3,
				4,
				5,
				6,
				0,
				1,
				2
			],
			"name":"\u30a2\u30fc\u30de\u30c1\u30e5\u30a2",
			"translation":[
				-0.01588335633277893,
				3.275324821472168,
				0
			]
		},
		{
			"mesh":4,
			"name":"COL",
			"rotation":[
				0,
				0.7071068286895752,
				0,
				0.7071068286895752
			],
			"translation":[
				-19.890714645385742,
				0,
				0
			]
		},
		{
			"mesh":5,
			"name":"COL1",
			"rotation":[
				0,
				0.7071068286895752,
				0,
				0.7071068286895752
			],
			"translation":[
				27.98933982849121,
				0,
				0
			]
		}
	],
	"animations":[
		{
			"channels":[
				{
					"sampler":0,
					"target":{
						"node":0,
						"path":"translation"
					}
				},
				{
					"sampler":1,
					"target":{
						"node":0,
						"path":"rotation"
					}
				},
				{
					"sampler":2,
					"target":{
						"node":0,
						"path":"scale"
					}
				},
				{
					"sampler":3,
					"target":{
						"node":1,
						"path":"translation"
					}
				},
				{
					"sampler":4,
					"target":{
						"node":1,
						"path":"rotation"
					}
				},
				{
					"sampler":5,
					"target":{
						"node":1,
						"path":"scale"
					}
				},
				{
					"sampler":6,
					"target":{
						"node":2,
						"path":"translation"
					}
				},
				{
					"sampler":7,
					"target":{
						"node":2,
						"path":"rotation"
					}
				},
				{
					"sampler":8,
					"target":{
						"node":2,
						"path":"scale"
					}
				}
			],
			"name":"Close",
			"samplers":[
				{
					"input":30,
					"interpolation":"STEP",
					"output":31
				},
				{
					"input":32,
					"interpolation":"LINEAR",
					"output":33
				},
				{
					"input":30,
					"interpolation":"STEP",
					"output":34
				},
				{
					"input":30,
					"interpolation":"STEP",
					"output":35
				},
				{
					"input":30,
					"interpolation":"STEP",
					"output":36
				},
				{
					"input":30,
					"interpolation":"STEP",
					"output":37
				},
				{
					"input":30,
					"interpolation":"STEP",
					"output":38
				},
				{
					"input":30,
					"interpolation":"STEP",
					"output":39
				},
				{
					"input":30,
					"interpolation":"STEP",
					"output":40
				}
			]
		},
		{
			"channels":[
				{
					"sampler":0,
					"target":{
						"node":0,
						"path":"translation"
					}
				},
				{
					"sampler":1,
					"target":{
						"node":0,
						"path":"rotation"
					}
				},
				{
					"sampler":2,
					"target":{
						"node":0,
						"path":"scale"
					}
				},
				{
					"sampler":3,
					"target":{
						"node":1,
						"path":"translation"
					}
				},
				{
					"sampler":4,
					"target":{
						"node":1,
						"path":"rotation"
					}
				},
				{
					"sampler":5,
					"target":{
						"node":1,
						"path":"scale"
					}
				},
				{
					"sampler":6,
					"target":{
						"node":2,
						"path":"translation"
					}
				},
				{
					"sampler":7,
					"target":{
						"node":2,
						"path":"rotation"
					}
				},
				{
					"sampler":8,
					"target":{
						"node":2,
						"path":"scale"
					}
				}
			],
			"name":"Close.001",
			"samplers":[
				{
					"input":30,
					"interpolation":"STEP",
					"output":41
				},
				{
					"input":32,
					"interpolation":"LINEAR",
					"output":42
				},
				{
					"input":30,
					"interpolation":"STEP",
					"output":43
				},
				{
					"input":30,
					"interpolation":"STEP",
					"output":44
				},
				{
					"input":30,
					"interpolation":"STEP",
					"output":45
				},
				{
					"input":30,
					"interpolation":"STEP",
					"output":46
				},
				{
					"input":30,
					"interpolation":"STEP",
					"output":47
				},
				{
					"input":30,
					"interpolation":"STEP",
					"output":48
				},
				{
					"input":30,
					"interpolation":"STEP",
					"output":49
				}
			]
		},
		{
			"channels":[
				{
					"sampler":0,
					"target":{
						"node":0,
						"path":"translation"
					}
				},
				{
					"sampler":1,
					"target":{
						"node":0,
						"path":"rotation"
					}
				},
				{
					"sampler":2,
					"target":{
						"node":0,
						"path":"scale"
					}
				},
				{
					"sampler":3,
					"target":{
						"node":1,
						"path":"translation"
					}
				},
				{
					"sampler":4,
					"target":{
						"node":1,
						"path":"rotation"
					}
				},
				{
					"sampler":5,
					"target":{
						"node":1,
						"path":"scale"
					}
				},
				{
					"sampler":6,
					"target":{
						"node":2,
						"path":"translation"
					}
				},
				{
					"sampler":7,
					"target":{
						"node":2,
						"path":"rotation"
					}
				},
				{
					"sampler":8,
					"target":{
						"node":2,
						"path":"scale"
					}
				}
			],
			"name":"Close.002",
			"samplers":[
				{
					"input":30,
					"interpolation":"STEP",
					"output":50
				},
				{
					"input":32,
					"interpolation":"LINEAR",
					"output":51
				},
				{
					"input":30,
					"interpolation":"STEP",
					"output":52
				},
				{
					"input":30,
					"interpolation":"STEP",
					"output":53
				},
				{
					"input":30,
					"interpolation":"STEP",
					"output":54
				},
				{
					"input":30,
					"interpolation":"STEP",
					"output":55
				},
				{
					"input":30,
					"interpolation":"STEP",
					"output":56
				},
				{
					"input":30,
					"interpolation":"STEP",
					"output":57
				},
				{
					"input":30,
					"interpolation":"STEP",
					"output":58
				}
			]
		},
		{
			"channels":[
				{
					"sampler":0,
					"target":{
						"node":0,
						"path":"translation"
					}
				},
				{
					"sampler":1,
					"target":{
						"node":0,
						"path":"rotation"
					}
				},
				{
					"sampler":2,
					"target":{
						"node":0,
						"path":"scale"
					}
				},
				{
					"sampler":3,
					"target":{
						"node":1,
						"path":"translation"
					}
				},
				{
					"sampler":4,
					"target":{
						"node":1,
						"path":"rotation"
					}
				},
				{
					"sampler":5,
					"target":{
						"node":1,
						"path":"scale"
					}
				},
				{
					"sampler":6,
					"target":{
						"node":2,
						"path":"translation"
					}
				},
				{
					"sampler":7,
					"target":{
						"node":2,
						"path":"rotation"
					}
				},
				{
					"sampler":8,
					"target":{
						"node":2,
						"path":"scale"
					}
				}
			],
			"name":"Close.003",
			"samplers":[
				{
					"input":30,
					"interpolation":"STEP",
					"output":59
				},
				{
					"input":32,
					"interpolation":"LINEAR",
					"output":60
				},
				{
					"input":30,
					"interpolation":"STEP",
					"output":61
				},
				{
					"input":30,
					"interpolation":"STEP",
					"output":62
				},
				{
					"input":30,
					"interpolation":"STEP",
					"output":63
				},
				{
					"input":30,
					"interpolation":"STEP",
					"output":64
				},
				{
					"input":30,
					"interpolation":"STEP",
					"output":65
				},
				{
					"input":30,
					"interpolation":"STEP",
					"output":66
				},
				{
					"input":30,
					"interpolation":"STEP",
					"output":67
				}
			]
		},
		{
			"channels":[
				{
					"sampler":0,
					"target":{
						"node":0,
						"path":"translation"
					}
				},
				{
					"sampler":1,
					"target":{
						"node":0,
						"path":"rotation"
					}
				},
				{
					"sampler":2,
					"target":{
						"node":0,
						"path":"scale"
					}
				},
				{
					"sampler":3,
					"target":{
						"node":1,
						"path":"translation"
					}
				},
				{
					"sampler":4,
					"target":{
						"node":1,
						"path":"rotation"
					}
				},
				{
					"sampler":5,
					"target":{
						"node":1,
						"path":"scale"
					}
				},
				{
					"sampler":6,
					"target":{
						"node":2,
						"path":"translation"
					}
				},
				{
					"sampler":7,
					"target":{
						"node":2,
						"path":"rotation"
					}
				},
				{
					"sampler":8,
					"target":{
						"node":2,
						"path":"scale"
					}
				}
			],
			"name":"Open",
			"samplers":[
				{
					"input":30,
					"interpolation":"STEP",
					"output":68
				},
				{
					"input":32,
					"interpolation":"LINEAR",
					"output":69
				},
				{
					"input":30,
					"interpolation":"STEP",
					"output":70
				},
				{
					"input":30,
					"interpolation":"STEP",
					"output":71
				},
				{
					"input":30,
					"interpolation":"STEP",
					"output":72
				},
				{
					"input":30,
					"interpolation":"STEP",
					"output":73
				},
				{
					"input":30,
					"interpolation":"STEP",
					"output":74
				},
				{
					"input":30,
					"interpolation":"STEP",
					"output":75
				},
				{
					"input":30,
					"interpolation":"STEP",
					"output":76
				}
			]
		}
	],
	"meshes":[
		{
			"name":"\u7acb\u65b9\u4f53.005",
			"primitives":[
				{
					"attributes":{
						"POSITION":0,
						"NORMAL":1,
						"TEXCOORD_0":2,
						"JOINTS_0":3,
						"WEIGHTS_0":4
					},
					"indices":5
				}
			]
		},
		{
			"name":"\u7acb\u65b9\u4f53",
			"primitives":[
				{
					"attributes":{
						"POSITION":7,
						"NORMAL":8,
						"TEXCOORD_0":9,
						"JOINTS_0":10,
						"WEIGHTS_0":11
					},
					"indices":12
				}
			]
		},
		{
			"name":"\u7acb\u65b9\u4f53.001",
			"primitives":[
				{
					"attributes":{
						"POSITION":13,
						"NORMAL":14,
						"TEXCOORD_0":15,
						"JOINTS_0":16,
						"WEIGHTS_0":17
					},
					"indices":5
				}
			]
		},
		{
			"name":"\u7acb\u65b9\u4f53.002",
			"primitives":[
				{
					"attributes":{
						"POSITION":18,
						"NORMAL":19,
						"TEXCOORD_0":20,
						"JOINTS_0":21,
						"WEIGHTS_0":22
					},
					"indices":12
				}
			]
		},
		{
			"name":"\u7acb\u65b9\u4f53.003",
			"primitives":[
				{
					"attributes":{
						"POSITION":23,
						"NORMAL":24,
						"TEXCOORD_0":25
					},
					"indices":26
				}
			]
		},
		{
			"name":"\u7acb\u65b9\u4f53.004",
			"primitives":[
				{
					"attributes":{
						"POSITION":27,
						"NORMAL":28,
						"TEXCOORD_0":29
					},
					"indices":26
				}
			]
		}
	],
	"skins":[
		{
			"inverseBindMatrices":6,
			"joints":[
				0,
				1,
				2
			],
			"name":"\u30a2\u30fc\u30de\u30c1\u30e5\u30a2"
		}
	],
	"accessors":[
		{
			"bufferView":0,
			"componentType":5126,
			"count":32,
			"max":[
				13.947700500488281,
				14.378900527954102,
				1.0000005960464478
			],
			"min":[
				-1,
				-1,
				-1
			],
			"type":"VEC3"
		},
		{
			"bufferView":1,
			"componentType":5126,
			"count":32,
			"type":"VEC3"
		},
		{
			"bufferView":2,
			"componentType":5126,
			"count":32,
			"type":"VEC2"
		},
		{
			"bufferView":3,
			"componentType":5121,
			"count":32,
			"type":"VEC4"
		},
		{
			"bufferView":4,
			"componentType":5126,
			"count":32,
			"type":"VEC4"
		},
		{
			"bufferView":5,
			"componentType":5123,
			"count":60,
			"type":"SCALAR"
		},
		{
			"bufferView":6,
			"componentType":5126,
			"count":3,
			"type":"MAT4"
		},
		{
			"bufferView":7,
			"componentType":5126,
			"count":32,
			"max":[
				-0.987571656703949,
				14.378900527954102,
				1.0000005960464478
			],
			"min":[
				-33.838417053222656,
				-1,
				-1
			],
			"type":"VEC3"
		},
		{
			"bufferView":8,
			"componentType":5126,
			"count":32,
			"type":"VEC3"
		},
		{
			"bufferView":9,
			"componentType":5126,
			"count":32,
			"type":"VEC2"
		},
		{
			"bufferView":10,
			"componentType":5121,
			"count":32,
			"type":"VEC4"
		},
		{
			"bufferView":11,
			"componentType":5126,
			"count":32,
			"type":"VEC4"
		},
		{
			"bufferView":12,
			"componentType":5123,
			"count":60,
			"type":"SCALAR"
		},
		{
			"bufferView":13,
			"componentType":5126,
			"count":32,
			"max":[
				13.947700500488281,
				14.378900527954102,
				1.0000005960464478
			],
			"min":[
				-1,
				-1,
				-1
			],
			"type":"VEC3"
		},
		{
			"bufferView":14,
			"componentType":5126,
			"count":32,
			"type":"VEC3"
		},
		{
			"bufferView":15,
			"componentType":5126,
			"count":32,
			"type":"VEC2"
		},
		{
			"bufferView":16,
			"componentType":5121,
			"count":32,
			"type":"VEC4"
		},
		{
			"bufferView":17,
			"componentType":5126,
			"count":32,
			"type":"VEC4"
		},
		{
			"bufferView":18,
			"componentType":5126,
			"count":32,
			"max":[
				46.89248275756836,
				14.378900527954102,
				1.0000005960464478
			],
			"min":[
				14.04163932800293,
				-1,
				-1
			],
			"type":"VEC3"
		},
		{
			"bufferView":19,
			"componentType":5126,
			"count":32,
			"type":"VEC3"
		},
		{
			"bufferView":20,
			"componentType":5126,
			"count":32,
			"type":"VEC2"
		},
		{
			"bufferView":21,
			"componentType":5121,
			"count":32,
			"type":"VEC4"
		},
		{
			"bufferView":22,
			"componentType":5126,
			"count":32,
			"type":"VEC4"
		},
		{
			"bufferView":23,
			"componentType":5126,
			"count":32,
			"max":[
				1,
				14.378900527954102,
				18.90314292907715
			],
			"min":[
				-1.0000008344650269,
				-1,
				-13.947700500488281
			],
			"type":"VEC3"
		},
		{
			"bufferView":24,
			"componentType":5126,
			"count":32,
			"type":"VEC3"
		},
		{
			"bufferView":25,
			"componentType":5126,
			"count":32,
			"type":"VEC2"
		},
		{
			"bufferView":26,
			"componentType":5123,
			"count":60,
			"type":"SCALAR"
		},
		{
			"bufferView":27,
			"componentType":5126,
			"count":32,
			"max":[
				1,
				14.378900527954102,
				18.90314292907715
			],
			"min":[
				-1.0000008344650269,
				-1,
				-13.947700500488281
			],
			"type":"VEC3"
		},
		{
			"bufferView":28,
			"componentType":5126,
			"count":32,
			"type":"VEC3"
		},
		{
			"bufferView":29,
			"componentType":5126,
			"count":32,
			"type":"VEC2"
		},
		{
			"bufferView":30,
			"componentType":5126,
			"count":2,
			"max":[
				0.4166666666666667
			],
			"min":[
				0
			],
			"type":"SCALAR"
		},
		{
			"bufferView":31,
			"componentType":5126,
			"count":2,
			"type":"VEC3"
		},
		{
			"bufferView":32,
			"componentType":5126,
			"count":11,
			"max":[
				0.4166666666666667
			],
			"min":[
				0
			],
			"type":"SCALAR"
		},
		{
			"bufferView":33,
			"componentType":5126,
			"count":11,
			"type":"VEC4"
		},
		{
			"bufferView":34,
			"componentType":5126,
			"count":2,
			"type":"VEC3"
		},
		{
			"bufferView":35,
			"componentType":5126,
			"count":2,
			"type":"VEC3"
		},
		{
			"bufferView":36,
			"componentType":5126,
			"count":2,
			"type":"VEC4"
		},
		{
			"bufferView":37,
			"componentType":5126,
			"count":2,
			"type":"VEC3"
		},
		{
			"bufferView":38,
			"componentType":5126,
			"count":2,
			"type":"VEC3"
		},
		{
			"bufferView":39,
			"componentType":5126,
			"count":2,
			"type":"VEC4"
		},
		{
			"bufferView":40,
			"componentType":5126,
			"count":2,
			"type":"VEC3"
		},
		{
			"bufferView":41,
			"componentType":5126,
			"count":2,
			"type":"VEC3"
		},
		{
			"bufferView":42,
			"componentType":5126,
			"count":11,
			"type":"VEC4"
		},
		{
			"bufferView":43,
			"componentType":5126,
			"count":2,
			"type":"VEC3"
		},
		{
			"bufferView":44,
			"componentType":5126,
			"count":2,
			"type":"VEC3"
		},
		{
			"bufferView":45,
			"componentType":5126,
			"count":2,
			"type":"VEC4"
		},
		{
			"bufferView":46,
			"componentType":5126,
			"count":2,
			"type":"VEC3"
		},
		{
			"bufferView":47,
			"componentType":5126,
			"count":2,
			"type":"VEC3"
		},
		{
			"bufferView":48,
			"componentType":5126,
			"count":2,
			"type":"VEC4"
		},
		{
			"bufferView":49,
			"componentType":5126,
			"count":2,
			"type":"VEC3"
		},
		{
			"bufferView":50,
			"componentType":5126,
			"count":2,
			"type":"VEC3"
		},
		{
			"bufferView":51,
			"componentType":5126,
			"count":11,
			"type":"VEC4"
		},
		{
			"bufferView":52,
			"componentType":5126,
			"count":2,
			"type":"VEC3"
		},
		{
			"bufferView":53,
			"componentType":5126,
			"count":2,
			"type":"VEC3"
		},
		{
			"bufferView":54,
			"componentType":5126,
			"count":2,
			"type":"VEC4"
		},
		{
			"bufferView":55,
			"componentType":5126,
			"count":2,
			"type":"VEC3"
		},
		{
			"bufferView":56,
			"componentType":5126,
			"count":2,
			"type":"VEC3"
		},
		{
			"bufferView":57,
			"componentType":5126,
			"count":2,
			"type":"VEC4"
		},
		{
			"bufferView":58,
			"componentType":5126,
			"count":2,
			"type":"VEC3"
		},
		{
			"bufferView":59,
			"componentType":5126,
			"count":2,
			"type":"VEC3"
		},
		{
			"bufferView":60,
			"componentType":5126,
			"count":11,
			"type":"VEC4"
		},
		{
			"bufferView":61,
			"componentType":5126,
			"count":2,
			"type":"VEC3"
		},
		{
			"bufferView":62,
			"componentType":5126,
			"count":2,
			"type":"VEC3"
		},
		{
			"bufferView":63,
			"componentType":5126,
			"count":2,
			"type":"VEC4"
		},
		{
			"bufferView":64,
			"componentType":5126,
			"count":2,
			"type":"VEC3"
		},
		{
			"bufferView":65,
			"componentType":5126,
			"count":2,
			"type":"VEC3"
		},
		{
			"bufferView":66,
			"componentType":5126,
			"count":2,
			"type":"VEC4"
		},
		{
			"bufferView":67,
			"componentType":5126,
			"count":2,
			"type":"VEC3"
		},
		{
			"bufferView":68,
			"componentType":5126,
			"count":2,
			"type":"VEC3"
		},
		{
			"bufferView":69,
			"componentType":5126,
			"count":11,
			"type":"VEC4"
		},
		{
			"bufferView":70,
			"componentType":5126,
			"count":2,
			"type":"VEC3"
		},
		{
			"bufferView":71,
			"componentType":5126,
			"count":2,
			"type":"VEC3"
		},
		{
			"bufferView":72,
			"componentType":5126,
			"count":2,
			"type":"VEC4"
		},
		{
			"bufferView":73,
			"componentType":5126,
			"count":2,
			"type":"VEC3"
		},
		{
			"bufferView":74,
			"componentType":5126,
			"count":2,
			"type":"VEC3"
		},
		{
			"bufferView":75,
			"componentType":5126,
			"count":2,
			"type":"VEC4"
		},
		{
			"bufferView":76,
			"componentType":5126,
			"count":2,
			"type":"VEC3"
		}
	],
	"bufferViews":[
		{
			"buffer":0,
			"byteLength":384,
			"byteOffset":0,
			"target":34962
		},
		{
			"buffer":0,
			"byteLength":384,
			"byteOffset":384,
			"target":34962
		},
		{
			"buffer":0,
			"byteLength":256,
			"byteOffset":768,
			"target":34962
		},
		{
			"buffer":0,
			"byteLength":128,
			"byteOffset":1024,
			"target":34962
		},
		{
			"buffer":0,
			"byteLength":512,
			"byteOffset":1152,
			"target":34962
		},
		{
			"buffer":0,
			"byteLength":120,
			"byteOffset":1664,
			"target":34963
		},
		{
			"buffer":0,
			"byteLength":192,
			"byteOffset":1784
		},
		{
			"buffer":0,
			"byteLength":384,
			"byteOffset":1976,
			"target":34962
		},
		{
			"buffer":0,
			"byteLength":384,
			"byteOffset":2360,
			"target":34962
		},
		{
			"buffer":0,
			"byteLength":256,
			"byteOffset":2744,
			"target":34962
		},
		{
			"buffer":0,
			"byteLength":128,
			"byteOffset":3000,
			"target":34962
		},
		{
			"buffer":0,
			"byteLength":512,
			"byteOffset":3128,
			"target":34962
		},
		{
			"buffer":0,
			"byteLength":120,
			"byteOffset":3640,
			"target":34963
		},
		{
			"buffer":0,
			"byteLength":384,
			"byteOffset":3760,
			"target":34962
		},
		{
			"buffer":0,
			"byteLength":384,
			"byteOffset":4144,
			"target":34962
		},
		{
			"buffer":0,
			"byteLength":256,
			"byteOffset":4528,
			"target":34962
		},
		{
			"buffer":0,
			"byteLength":128,
			"byteOffset":4784,
			"target":34962
		},
		{
			"buffer":0,
			"byteLength":512,
			"byteOffset":4912,
			"target":34962
		},
		{
			"buffer":0,
			"byteLength":384,
			"byteOffset":5424,
			"target":34962
		},
		{
			"buffer":0,
			"byteLength":384,
			"byteOffset":5808,
			"target":34962
		},
		{
			"buffer":0,
			"byteLength":256,
			"byteOffset":6192,
			"target":34962
		},
		{
			"buffer":0,
			"byteLength":128,
			"byteOffset":6448,
			"target":34962
		},
		{
			"buffer":0,
			"byteLength":512,
			"byteOffset":6576,
			"target":34962
		},
		{
			"buffer":0,
			"byteLength":384,
			"byteOffset":7088,
			"target":34962
		},
		{
			"buffer":0,
			"byteLength":384,
			"byteOffset":7472,
			"target":34962
		},
		{
			"buffer":0,
			"byteLength":256,
			"byteOffset":7856,
			"target":34962
		},
		{
			"buffer":0,
			"byteLength":120,
			"byteOffset":8112,
			"target":34963
		},
		{
			"buffer":0,
			"byteLength":384,
			"byteOffset":8232,
			"target":34962
		},
		{
			"buffer":0,
			"byteLength":384,
			"byteOffset":8616,
			"target":34962
		},
		{
			"buffer":0,
			"byteLength":256,
			"byteOffset":9000,
			"target":34962
		},
		{
			"buffer":0,
			"byteLength":8,
			"byteOffset":9256
		},
		{
			"buffer":0,
			"byteLength":24,
			"byteOffset":9264
		},
		{
			"buffer":0,
			"byteLength":44,
			"byteOffset":9288
		},
		{
			"buffer":0,
			"byteLength":176,
			"byteOffset":9332
		},
		{
			"buffer":0,
			"byteLength":24,
			"byteOffset":9508
		},
		{
			"buffer":0,
			"byteLength":24,
			"byteOffset":9532
		},
		{
			"buffer":0,
			"byteLength":32,
			"byteOffset":9556
		},
		{
			"buffer":0,
			"byteLength":24,
			"byteOffset":9588
		},
		{
			"buffer":0,
			"byteLength":24,
			"byteOffset":9612
		},
		{
			"buffer":0,
			"byteLength":32,
			"byteOffset":9636
		},
		{
			"buffer":0,
			"byteLength":24,
			"byteOffset":9668
		},
		{
			"buffer":0,
			"byteLength":24,
			"byteOffset":9692
		},
		{
			"buffer":0,
			"byteLength":176,
			"byteOffset":9716
		},
		{
			"buffer":0,
			"byteLength":24,
			"byteOffset":9892
		},
		{
			"buffer":0,
			"byteLength":24,
			"byteOffset":9916
		},
		{
			"buffer":0,
			"byteLength":32,
			"byteOffset":9940
		},
		{
			"buffer":0,
			"byteLength":24,
			"byteOffset":9972
		},
		{
			"buffer":0,
			"byteLength":24,
			"byteOffset":9996
		},
		{
			"buffer":0,
			"byteLength":32,
			"byteOffset":10020
		},
		{
			"buffer":0,
			"byteLength":24,
			"byteOffset":10052
		},
		{
			"buffer":0,
			"byteLength":24,
			"byteOffset":10076
		},
		{
			"buffer":0,
			"byteLength":176,
			"byteOffset":10100
		},
		{
			"buffer":0,
			"byteLength":24,
			"byteOffset":10276
		},
		{
			"buffer":0,
			"byteLength":24,
			"byteOffset":10300
		},
		{
			"buffer":0,
			"byteLength":32,
			"byteOffset":10324
		},
		{
			"buffer":0,
			"byteLength":24,
			"byteOffset":10356
		},
		{
			"buffer":0,
			"byteLength":24,
			"byteOffset":10380
		},
		{
			"buffer":0,
			"byteLength":32,
			"byteOffset":10404
		},
		{
			"buffer":0,
			"byteLength":24,
			"byteOffset":10436
		},
		{
			"buffer":0,
			"byteLength":24,
			"byteOffset":10460
		},
		{
			"buffer":0,
			"byteLength":176,
			"byteOffset":10484
		},
		{
			"buffer":0,
			"byteLength":24,
			"byteOffset":10660
		},
		{
			"buffer":0,
			"byteLength":24,
			"byteOffset":10684
		},
		{
			"buffer":0,
			"byteLength":32,
			"byteOffset":10708
		},
		{
			"buffer":0,
			"byteLength":24,
			"byteOffset":10740
		},
		{
			"buffer":0,
			"byteLength":24,
			"byteOffset":10764
		},
		{
			"buffer":0,
			"byteLength":32,
			"byteOffset":10788
		},
		{
			"buffer":0,
			"byteLength":24,
			"byteOffset":10820
		},
		{
			"buffer":0,
			"byteLength":24,
			"byteOffset":10844
		},
		{
			"buffer":0,
			"byteLength":176,
			"byteOffset":10868
		},
		{
			"buffer":0,
			"byteLength":24,
			"byteOffset":11044
		},
		{
			"buffer":0,
			"byteLength":24,
			"byteOffset":11068
		},
		{
			"buffer":0,
			"byteLength":32,
			"byteOffset":11092
		},
		{
			"buffer":0,
			"byteLength":24,
			"byteOffset":11124
		},
		{
			"buffer":0,
			"byteLength":24,
			"byteOffset":11148
		},
		{
			"buffer":0,
			"byteLength":32,
			"byteOffset":11172
		},
		{
			"buffer":0,
			"byteLength":24,
			"byteOffset":11204
		}
	],
	"buffers":[
		{
			"byteLength":11228,
			"uri":"Door.bin"
		}
	]
}
