{
	"asset":{
		"generator":"Khronos glTF Blender I/O v4.4.56",
		"version":"2.0"
	},
	"extensionsUsed":[
		"KHR_materials_emissive_strength"
	],
	"scene":0,
	"scenes":[
		{
			"name":"Scene",
			"nodes":[
				0,
				1
			]
		}
	],
	"nodes":[
		{
			"mesh":0,
			"name":"\u5186\u67f1",
			"rotation":[
				0.6935198903083801,
				-0.13794969022274017,
				-0.13794967532157898,
				0.6935199499130249
			],
			"scale":[
				13.000000953674316,
				13,
				13.000000953674316
			]
		},
		{
			"mesh":1,
			"name":"ICO\u7403",
			"translation":[
				5.140000343322754,
				2.8164048194885254,
				7.639999866485596
			]
		}
	],
	"materials":[
		{
			"doubleSided":true,
			"emissiveFactor":[
				1,
				1,
				1
			],
			"emissiveTexture":{
				"index":0
			},
			"extensions":{
				"KHR_materials_emissive_strength":{
					"emissiveStrength":3.5999999046325684
				}
			},
			"name":"\u30de\u30c6\u30ea\u30a2\u30eb.003",
			"normalTexture":{
				"index":1
			},
			"pbrMetallicRoughness":{
				"baseColorTexture":{
					"index":2
				},
				"metallicFactor":0,
				"roughnessFactor":0.5
			}
		},
		{
			"doubleSided":true,
			"name":"\u30de\u30c6\u30ea\u30a2\u30eb.004",
			"normalTexture":{
				"index":3
			},
			"pbrMetallicRoughness":{
				"baseColorTexture":{
					"index":4
				},
				"metallicFactor":0.7613292932510376,
				"roughnessFactor":0.5
			}
		},
		{
			"doubleSided":true,
			"emissiveFactor":[
				1,
				1,
				1
			],
			"emissiveTexture":{
				"index":5
			},
			"extensions":{
				"KHR_materials_emissive_strength":{
					"emissiveStrength":11.600000381469727
				}
			},
			"name":"\u30de\u30c6\u30ea\u30a2\u30eb",
			"pbrMetallicRoughness":{
				"baseColorFactor":[
					0.800000011920929,
					0.800000011920929,
					0.800000011920929,
					1
				],
				"metallicFactor":0,
				"roughnessFactor":0.5
			}
		}
	],
	"meshes":[
		{
			"name":"\u5186\u67f1",
			"primitives":[
				{
					"attributes":{
						"POSITION":0,
						"NORMAL":1,
						"TEXCOORD_0":2
					},
					"indices":3,
					"material":0
				},
				{
					"attributes":{
						"POSITION":4,
						"NORMAL":5,
						"TEXCOORD_0":6
					},
					"indices":7,
					"material":1
				}
			]
		},
		{
			"name":"ICO\u7403",
			"primitives":[
				{
					"attributes":{
						"POSITION":8,
						"NORMAL":9,
						"TEXCOORD_0":10
					},
					"indices":11,
					"material":2
				}
			]
		}
	],
	"textures":[
		{
			"sampler":0,
			"source":0
		},
		{
			"sampler":0,
			"source":1
		},
		{
			"sampler":0,
			"source":2
		},
		{
			"sampler":0,
			"source":3
		},
		{
			"sampler":0,
			"source":4
		},
		{
			"sampler":0,
			"source":5
		}
	],
	"images":[
		{
			"mimeType":"image/png",
			"name":"Mark_Em",
			"uri":"Mark_Em.png"
		},
		{
			"mimeType":"image/png",
			"name":"Mark_Nol (1)",
			"uri":"Mark_Nol%201.png"
		},
		{
			"mimeType":"image/png",
			"name":"Mark",
			"uri":"Mark.png"
		},
		{
			"mimeType":"image/png",
			"name":"mecha_Nol",
			"uri":"mecha_Nol.png"
		},
		{
			"mimeType":"image/png",
			"name":"mecha",
			"uri":"mecha.png"
		},
		{
			"mimeType":"image/png",
			"name":"Light",
			"uri":"Light.png"
		}
	],
	"accessors":[
		{
			"bufferView":0,
			"componentType":5126,
			"count":520,
			"max":[
				0.6359494924545288,
				1.0057734251022339,
				0.1493777632713318
			],
			"min":[
				-1.092167615890503,
				-8.995637893676758,
				-1.0583159923553467
			],
			"type":"VEC3"
		},
		{
			"bufferView":1,
			"componentType":5126,
			"count":520,
			"type":"VEC3"
		},
		{
			"bufferView":2,
			"componentType":5126,
			"count":520,
			"type":"VEC2"
		},
		{
			"bufferView":3,
			"componentType":5123,
			"count":960,
			"type":"SCALAR"
		},
		{
			"bufferView":4,
			"componentType":5126,
			"count":5180,
			"max":[
				0.732893168926239,
				1.0057734251022339,
				0.17705507576465607
			],
			"min":[
				-1.182740569114685,
				-8.995637893676758,
				-1.2622812986373901
			],
			"type":"VEC3"
		},
		{
			"bufferView":5,
			"componentType":5126,
			"count":5180,
			"type":"VEC3"
		},
		{
			"bufferView":6,
			"componentType":5126,
			"count":5180,
			"type":"VEC2"
		},
		{
			"bufferView":7,
			"componentType":5123,
			"count":10080,
			"type":"SCALAR"
		},
		{
			"bufferView":8,
			"componentType":5126,
			"count":1200,
			"max":[
				0.5366550087928772,
				0.6000000238418579,
				0.5103840231895447
			],
			"min":[
				-10.816656112670898,
				-0.6000000238418579,
				-121.30806732177734
			],
			"type":"VEC3"
		},
		{
			"bufferView":9,
			"componentType":5126,
			"count":1200,
			"type":"VEC3"
		},
		{
			"bufferView":10,
			"componentType":5126,
			"count":1200,
			"type":"VEC2"
		},
		{
			"bufferView":11,
			"componentType":5123,
			"count":1200,
			"type":"SCALAR"
		}
	],
	"bufferViews":[
		{
			"buffer":0,
			"byteLength":6240,
			"byteOffset":0,
			"target":34962
		},
		{
			"buffer":0,
			"byteLength":6240,
			"byteOffset":6240,
			"target":34962
		},
		{
			"buffer":0,
			"byteLength":4160,
			"byteOffset":12480,
			"target":34962
		},
		{
			"buffer":0,
			"byteLength":1920,
			"byteOffset":16640,
			"target":34963
		},
		{
			"buffer":0,
			"byteLength":62160,
			"byteOffset":18560,
			"target":34962
		},
		{
			"buffer":0,
			"byteLength":62160,
			"byteOffset":80720,
			"target":34962
		},
		{
			"buffer":0,
			"byteLength":41440,
			"byteOffset":142880,
			"target":34962
		},
		{
			"buffer":0,
			"byteLength":20160,
			"byteOffset":184320,
			"target":34963
		},
		{
			"buffer":0,
			"byteLength":14400,
			"byteOffset":204480,
			"target":34962
		},
		{
			"buffer":0,
			"byteLength":14400,
			"byteOffset":218880,
			"target":34962
		},
		{
			"buffer":0,
			"byteLength":9600,
			"byteOffset":233280,
			"target":34962
		},
		{
			"buffer":0,
			"byteLength":2400,
			"byteOffset":242880,
			"target":34963
		}
	],
	"samplers":[
		{
			"magFilter":9729,
			"minFilter":9987
		}
	],
	"buffers":[
		{
			"byteLength":245280,
			"uri":"Catapult.bin"
		}
	]
}
