{
	"asset":{
		"generator":"Khronos glTF Blender I/O v4.4.56",
		"version":"2.0"
	},
	"scene":0,
	"scenes":[
		{
			"name":"Scene",
			"nodes":[
				0,
				1,
				2,
				3,
				4,
				5
			]
		}
	],
	"nodes":[
		{
			"mesh":0,
			"name":"Cube",
			"translation":[
				0,
				12.54061508178711,
				0
			]
		},
		{
			"mesh":1,
			"name":"\u5186\u67f1.001",
			"rotation":[
				0.5,
				-0.4999999403953552,
				-0.5,
				0.5000000596046448
			],
			"translation":[
				-3.919429063796997,
				5,
				-3.12905216217041
			]
		},
		{
			"mesh":2,
			"name":"\u5186\u67f1.002",
			"rotation":[
				0.5,
				-0.4999999403953552,
				-0.5,
				0.5000000596046448
			],
			"translation":[
				-3.919429063796997,
				5,
				21.916751861572266
			]
		},
		{
			"mesh":3,
			"name":"\u5186\u67f1.005",
			"rotation":[
				0,
				0,
				-0.7071068286895752,
				0.7071068286895752
			],
			"translation":[
				-0.4942137598991394,
				5,
				0.6630278825759888
			]
		},
		{
			"mesh":4,
			"name":"\u5186\u67f1.009",
			"rotation":[
				0,
				0,
				-0.7071068286895752,
				0.7071068286895752
			],
			"translation":[
				-0.4942137598991394,
				5,
				0.6630278825759888
			]
		},
		{
			"mesh":5,
			"name":"\u5186\u67f1.003",
			"rotation":[
				0,
				0,
				-0.7071068286895752,
				0.7071068286895752
			],
			"translation":[
				-27.336877822875977,
				20.503318786621094,
				0.6630278825759888
			]
		}
	],
	"materials":[
		{
			"doubleSided":true,
			"name":"Material",
			"normalTexture":{
				"index":0,
				"scale":0.7000001668930054
			},
			"pbrMetallicRoughness":{
				"baseColorTexture":{
					"index":1
				},
				"metallicFactor":0,
				"roughnessFactor":0.5
			}
		},
		{
			"doubleSided":true,
			"name":"\u30de\u30c6\u30ea\u30a2\u30eb.004",
			"pbrMetallicRoughness":{
				"baseColorFactor":[
					0.025925934314727783,
					0.025925934314727783,
					0.025925934314727783,
					1
				],
				"metallicFactor":0.8670886158943176,
				"roughnessFactor":0.297468364238739
			}
		},
		{
			"doubleSided":true,
			"name":"\u30de\u30c6\u30ea\u30a2\u30eb.005",
			"pbrMetallicRoughness":{
				"baseColorFactor":[
					0.025925934314727783,
					0.025925934314727783,
					0.025925934314727783,
					1
				],
				"metallicFactor":0.8670886158943176,
				"roughnessFactor":0.297468364238739
			}
		},
		{
			"doubleSided":true,
			"name":"\u30de\u30c6\u30ea\u30a2\u30eb.003",
			"pbrMetallicRoughness":{
				"baseColorFactor":[
					0.025925934314727783,
					0.025925934314727783,
					0.025925934314727783,
					1
				],
				"metallicFactor":0.8670886158943176,
				"roughnessFactor":0.297468364238739
			}
		},
		{
			"doubleSided":true,
			"name":"\u30de\u30c6\u30ea\u30a2\u30eb.006",
			"pbrMetallicRoughness":{
				"baseColorFactor":[
					0.025925934314727783,
					0.025925934314727783,
					0.025925934314727783,
					1
				],
				"metallicFactor":0.8670886158943176,
				"roughnessFactor":0.297468364238739
			}
		},
		{
			"doubleSided":true,
			"name":"\u30de\u30c6\u30ea\u30a2\u30eb.007",
			"pbrMetallicRoughness":{
				"baseColorFactor":[
					0.025925934314727783,
					0.025925934314727783,
					0.025925934314727783,
					1
				],
				"metallicFactor":0.8670886158943176,
				"roughnessFactor":0.297468364238739
			}
		}
	],
	"meshes":[
		{
			"name":"Cube",
			"primitives":[
				{
					"attributes":{
						"POSITION":0,
						"NORMAL":1,
						"TEXCOORD_0":2
					},
					"indices":3,
					"material":0
				}
			]
		},
		{
			"name":"\u5186\u67f1.001",
			"primitives":[
				{
					"attributes":{
						"POSITION":4,
						"NORMAL":5,
						"TEXCOORD_0":6
					},
					"indices":7,
					"material":1
				}
			]
		},
		{
			"name":"\u5186\u67f1.002",
			"primitives":[
				{
					"attributes":{
						"POSITION":8,
						"NORMAL":9,
						"TEXCOORD_0":10
					},
					"indices":11,
					"material":2
				}
			]
		},
		{
			"name":"\u5186\u67f1.006",
			"primitives":[
				{
					"attributes":{
						"POSITION":12,
						"NORMAL":13,
						"TEXCOORD_0":14
					},
					"indices":15,
					"material":3
				}
			]
		},
		{
			"name":"\u5186\u67f1.010",
			"primitives":[
				{
					"attributes":{
						"POSITION":16,
						"NORMAL":17,
						"TEXCOORD_0":18
					},
					"indices":19,
					"material":4
				}
			]
		},
		{
			"name":"\u5186\u67f1.011",
			"primitives":[
				{
					"attributes":{
						"POSITION":20,
						"NORMAL":21,
						"TEXCOORD_0":22
					},
					"indices":23,
					"material":5
				}
			]
		}
	],
	"textures":[
		{
			"sampler":0,
			"source":0
		},
		{
			"sampler":0,
			"source":1
		}
	],
	"images":[
		{
			"mimeType":"image/png",
			"name":"hangar_sci-fi01_Nol",
			"uri":"hangar_sci-fi01_Nol.png"
		},
		{
			"mimeType":"image/png",
			"name":"hangar_sci-fi01",
			"uri":"hangar_sci-fi01.png"
		}
	],
	"accessors":[
		{
			"bufferView":0,
			"componentType":5126,
			"count":24,
			"max":[
				23.53249740600586,
				23.53249740600586,
				23.53249740600586
			],
			"min":[
				-23.53249740600586,
				-23.53249740600586,
				-23.53249740600586
			],
			"type":"VEC3"
		},
		{
			"bufferView":1,
			"componentType":5126,
			"count":24,
			"type":"VEC3"
		},
		{
			"bufferView":2,
			"componentType":5126,
			"count":24,
			"type":"VEC2"
		},
		{
			"bufferView":3,
			"componentType":5123,
			"count":36,
			"type":"SCALAR"
		},
		{
			"bufferView":4,
			"componentType":5126,
			"count":3584,
			"max":[
				0.8221068382263184,
				3.115000009536743,
				0.8221068382263184
			],
			"min":[
				-0.8221068382263184,
				-20.495548248291016,
				-0.8221068382263184
			],
			"type":"VEC3"
		},
		{
			"bufferView":5,
			"componentType":5126,
			"count":3584,
			"type":"VEC3"
		},
		{
			"bufferView":6,
			"componentType":5126,
			"count":3584,
			"type":"VEC2"
		},
		{
			"bufferView":7,
			"componentType":5123,
			"count":5376,
			"type":"SCALAR"
		},
		{
			"bufferView":8,
			"componentType":5126,
			"count":3200,
			"max":[
				0.8221068382263184,
				3.115000009536743,
				0.8221068382263184
			],
			"min":[
				-0.8221068382263184,
				-20.495548248291016,
				-0.8221068382263184
			],
			"type":"VEC3"
		},
		{
			"bufferView":9,
			"componentType":5126,
			"count":3200,
			"type":"VEC3"
		},
		{
			"bufferView":10,
			"componentType":5126,
			"count":3200,
			"type":"VEC2"
		},
		{
			"bufferView":11,
			"componentType":5123,
			"count":4800,
			"type":"SCALAR"
		},
		{
			"bufferView":12,
			"componentType":5126,
			"count":4608,
			"max":[
				0.8221068382263184,
				24.287635803222656,
				0.8221068382263184
			],
			"min":[
				-0.8221068382263184,
				-3.115000009536743,
				-0.8221068382263184
			],
			"type":"VEC3"
		},
		{
			"bufferView":13,
			"componentType":5126,
			"count":4608,
			"type":"VEC3"
		},
		{
			"bufferView":14,
			"componentType":5126,
			"count":4608,
			"type":"VEC2"
		},
		{
			"bufferView":15,
			"componentType":5123,
			"count":6912,
			"type":"SCALAR"
		},
		{
			"bufferView":16,
			"componentType":5126,
			"count":4608,
			"max":[
				-0.6784071922302246,
				-2.4724678993225098,
				0.8221068382263184
			],
			"min":[
				-31.265161514282227,
				-4.116683006286621,
				-0.8221068382263184
			],
			"type":"VEC3"
		},
		{
			"bufferView":17,
			"componentType":5126,
			"count":4608,
			"type":"VEC3"
		},
		{
			"bufferView":18,
			"componentType":5126,
			"count":4608,
			"type":"VEC2"
		},
		{
			"bufferView":19,
			"componentType":5123,
			"count":6912,
			"type":"SCALAR"
		},
		{
			"bufferView":20,
			"componentType":5126,
			"count":3712,
			"max":[
				0.8221068382263184,
				24.287635803222656,
				0.8221068382263184
			],
			"min":[
				-0.8221068382263184,
				3.6099836826324463,
				-0.8221068382263184
			],
			"type":"VEC3"
		},
		{
			"bufferView":21,
			"componentType":5126,
			"count":3712,
			"type":"VEC3"
		},
		{
			"bufferView":22,
			"componentType":5126,
			"count":3712,
			"type":"VEC2"
		},
		{
			"bufferView":23,
			"componentType":5123,
			"count":5568,
			"type":"SCALAR"
		}
	],
	"bufferViews":[
		{
			"buffer":0,
			"byteLength":288,
			"byteOffset":0,
			"target":34962
		},
		{
			"buffer":0,
			"byteLength":288,
			"byteOffset":288,
			"target":34962
		},
		{
			"buffer":0,
			"byteLength":192,
			"byteOffset":576,
			"target":34962
		},
		{
			"buffer":0,
			"byteLength":72,
			"byteOffset":768,
			"target":34963
		},
		{
			"buffer":0,
			"byteLength":43008,
			"byteOffset":840,
			"target":34962
		},
		{
			"buffer":0,
			"byteLength":43008,
			"byteOffset":43848,
			"target":34962
		},
		{
			"buffer":0,
			"byteLength":28672,
			"byteOffset":86856,
			"target":34962
		},
		{
			"buffer":0,
			"byteLength":10752,
			"byteOffset":115528,
			"target":34963
		},
		{
			"buffer":0,
			"byteLength":38400,
			"byteOffset":126280,
			"target":34962
		},
		{
			"buffer":0,
			"byteLength":38400,
			"byteOffset":164680,
			"target":34962
		},
		{
			"buffer":0,
			"byteLength":25600,
			"byteOffset":203080,
			"target":34962
		},
		{
			"buffer":0,
			"byteLength":9600,
			"byteOffset":228680,
			"target":34963
		},
		{
			"buffer":0,
			"byteLength":55296,
			"byteOffset":238280,
			"target":34962
		},
		{
			"buffer":0,
			"byteLength":55296,
			"byteOffset":293576,
			"target":34962
		},
		{
			"buffer":0,
			"byteLength":36864,
			"byteOffset":348872,
			"target":34962
		},
		{
			"buffer":0,
			"byteLength":13824,
			"byteOffset":385736,
			"target":34963
		},
		{
			"buffer":0,
			"byteLength":55296,
			"byteOffset":399560,
			"target":34962
		},
		{
			"buffer":0,
			"byteLength":55296,
			"byteOffset":454856,
			"target":34962
		},
		{
			"buffer":0,
			"byteLength":36864,
			"byteOffset":510152,
			"target":34962
		},
		{
			"buffer":0,
			"byteLength":13824,
			"byteOffset":547016,
			"target":34963
		},
		{
			"buffer":0,
			"byteLength":44544,
			"byteOffset":560840,
			"target":34962
		},
		{
			"buffer":0,
			"byteLength":44544,
			"byteOffset":605384,
			"target":34962
		},
		{
			"buffer":0,
			"byteLength":29696,
			"byteOffset":649928,
			"target":34962
		},
		{
			"buffer":0,
			"byteLength":11136,
			"byteOffset":679624,
			"target":34963
		}
	],
	"samplers":[
		{
			"magFilter":9729,
			"minFilter":9987
		}
	],
	"buffers":[
		{
			"byteLength":690760,
			"uri":"Lab.bin"
		}
	]
}
