{
	"asset":{
		"generator":"Khronos glTF Blender I/O v4.4.56",
		"version":"2.0"
	},
	"scene":0,
	"scenes":[
		{
			"name":"Scene",
			"nodes":[
				0
			]
		}
	],
	"nodes":[
		{
			"mesh":0,
			"name":"Cube"
		}
	],
	"materials":[
		{
			"doubleSided":true,
			"name":"\u30de\u30c6\u30ea\u30a2\u30eb.001",
			"normalTexture":{
				"index":0,
				"scale":2.999999523162842
			},
			"pbrMetallicRoughness":{
				"baseColorTexture":{
					"index":1
				},
				"metallicFactor":0.06948640197515488,
				"metallicRoughnessTexture":{
					"index":2
				}
			}
		},
		{
			"doubleSided":true,
			"name":"\u30de\u30c6\u30ea\u30a2\u30eb",
			"normalTexture":{
				"index":3,
				"scale":2.4000000953674316
			},
			"pbrMetallicRoughness":{
				"baseColorFactor":[
					0.2880912721157074,
					0.7893706560134888,
					0.800481915473938,
					1
				],
				"metallicFactor":0.4048338830471039,
				"metallicRoughnessTexture":{
					"index":4
				}
			}
		},
		{
			"doubleSided":true,
			"name":"Material.001",
			"normalTexture":{
				"index":5,
				"scale":1.1999999284744263
			},
			"pbrMetallicRoughness":{
				"baseColorFactor":[
					0.8028135299682617,
					0.6467778086662292,
					0.40538954734802246,
					1
				],
				"metallicFactor":0,
				"metallicRoughnessTexture":{
					"index":6
				}
			}
		}
	],
	"meshes":[
		{
			"name":"Cube",
			"primitives":[
				{
					"attributes":{
						"POSITION":0,
						"NORMAL":1,
						"TEXCOORD_0":2
					},
					"indices":3,
					"material":0
				},
				{
					"attributes":{
						"POSITION":4,
						"NORMAL":5,
						"TEXCOORD_0":6
					},
					"indices":7,
					"material":1
				},
				{
					"attributes":{
						"POSITION":8,
						"NORMAL":9,
						"TEXCOORD_0":10
					},
					"indices":11,
					"material":2
				}
			]
		}
	],
	"textures":[
		{
			"sampler":0,
			"source":0
		},
		{
			"sampler":0,
			"source":1
		},
		{
			"sampler":0,
			"source":2
		},
		{
			"sampler":0,
			"source":3
		},
		{
			"sampler":0,
			"source":4
		},
		{
			"sampler":0,
			"source":5
		},
		{
			"sampler":0,
			"source":2
		}
	],
	"images":[
		{
			"mimeType":"image/png",
			"name":"PavingStones084_1K-PNG_NormalGL",
			"uri":"PavingStones084_1K-PNG_NormalGL.png"
		},
		{
			"mimeType":"image/png",
			"name":"Plaster007_1K-PNG_Color",
			"uri":"Plaster007_1K-PNG_Color.png"
		},
		{
			"mimeType":"image/png",
			"name":"Rock046L_1K-PNG_Roughness",
			"uri":"Rock046L_1K-PNG_Roughness.png"
		},
		{
			"mimeType":"image/png",
			"name":"Ice003_1K-PNG_NormalGL",
			"uri":"Ice003_1K-PNG_NormalGL.png"
		},
		{
			"mimeType":"image/png",
			"name":"Ice003_1K-PNG_Roughness",
			"uri":"Ice003_1K-PNG_Roughness.png"
		},
		{
			"mimeType":"image/png",
			"name":"Plaster007_1K-PNG_NormalGL",
			"uri":"Plaster007_1K-PNG_NormalGL.png"
		}
	],
	"accessors":[
		{
			"bufferView":0,
			"componentType":5126,
			"count":690,
			"max":[
				4,
				8.058635711669922,
				5
			],
			"min":[
				-7,
				-1,
				-5.085965156555176
			],
			"type":"VEC3"
		},
		{
			"bufferView":1,
			"componentType":5126,
			"count":690,
			"type":"VEC3"
		},
		{
			"bufferView":2,
			"componentType":5126,
			"count":690,
			"type":"VEC2"
		},
		{
			"bufferView":3,
			"componentType":5123,
			"count":2064,
			"type":"SCALAR"
		},
		{
			"bufferView":4,
			"componentType":5126,
			"count":79,
			"max":[
				3.787644863128662,
				7.816244602203369,
				4.777514457702637
			],
			"min":[
				-6.587893486022949,
				0,
				-3.3333334922790527
			],
			"type":"VEC3"
		},
		{
			"bufferView":5,
			"componentType":5126,
			"count":79,
			"type":"VEC3"
		},
		{
			"bufferView":6,
			"componentType":5126,
			"count":79,
			"type":"VEC2"
		},
		{
			"bufferView":7,
			"componentType":5123,
			"count":180,
			"type":"SCALAR"
		},
		{
			"bufferView":8,
			"componentType":5126,
			"count":6,
			"max":[
				-3.3333332538604736,
				1.1999998092651367,
				-5.085965156555176
			],
			"min":[
				-5.1666669845581055,
				-1,
				-5.085965156555176
			],
			"type":"VEC3"
		},
		{
			"bufferView":9,
			"componentType":5126,
			"count":6,
			"type":"VEC3"
		},
		{
			"bufferView":10,
			"componentType":5126,
			"count":6,
			"type":"VEC2"
		},
		{
			"bufferView":11,
			"componentType":5123,
			"count":12,
			"type":"SCALAR"
		}
	],
	"bufferViews":[
		{
			"buffer":0,
			"byteLength":8280,
			"byteOffset":0,
			"target":34962
		},
		{
			"buffer":0,
			"byteLength":8280,
			"byteOffset":8280,
			"target":34962
		},
		{
			"buffer":0,
			"byteLength":5520,
			"byteOffset":16560,
			"target":34962
		},
		{
			"buffer":0,
			"byteLength":4128,
			"byteOffset":22080,
			"target":34963
		},
		{
			"buffer":0,
			"byteLength":948,
			"byteOffset":26208,
			"target":34962
		},
		{
			"buffer":0,
			"byteLength":948,
			"byteOffset":27156,
			"target":34962
		},
		{
			"buffer":0,
			"byteLength":632,
			"byteOffset":28104,
			"target":34962
		},
		{
			"buffer":0,
			"byteLength":360,
			"byteOffset":28736,
			"target":34963
		},
		{
			"buffer":0,
			"byteLength":72,
			"byteOffset":29096,
			"target":34962
		},
		{
			"buffer":0,
			"byteLength":72,
			"byteOffset":29168,
			"target":34962
		},
		{
			"buffer":0,
			"byteLength":48,
			"byteOffset":29240,
			"target":34962
		},
		{
			"buffer":0,
			"byteLength":24,
			"byteOffset":29288,
			"target":34963
		}
	],
	"samplers":[
		{
			"magFilter":9729,
			"minFilter":9987
		}
	],
	"buffers":[
		{
			"byteLength":29312,
			"uri":"House.bin"
		}
	]
}
