{
	"asset":{
		"generator":"Khronos glTF Blender I/O v4.4.56",
		"version":"2.0"
	},
	"extensionsUsed":[
		"KHR_materials_emissive_strength"
	],
	"scene":0,
	"scenes":[
		{
			"name":"Scene",
			"nodes":[
				0,
				1,
				5,
				6,
				7,
				8,
				9,
				10
			]
		}
	],
	"nodes":[
		{
			"name":"\u30d9\u30b8\u30a8\u30ab\u30fc\u30d6",
			"rotation":[
				0.5,
				0.5,
				-0.5,
				0.5
			],
			"scale":[
				26.65610122680664,
				26.65610122680664,
				26.65610122680664
			],
			"translation":[
				0,
				3.660146713256836,
				22.000621795654297
			]
		},
		{
			"name":"\u30d9\u30b8\u30a8\u5186"
		},
		{
			"mesh":0,
			"name":"Corp_0",
			"rotation":[
				0,
				0,
				-1,
				0
			],
			"translation":[
				0,
				-5.983081340789795,
				-1.5256695747375488
			]
		},
		{
			"children":[
				2
			],
			"name":"Corp",
			"translation":[
				0,
				5.996319770812988,
				1.5474400520324707
			]
		},
		{
			"children":[
				3
			],
			"name":"Root"
		},
		{
			"children":[
				4
			],
			"name":"Sketchfab_model",
			"rotation":[
				-0.70710688829422,
				0,
				0,
				0.7071066498756409
			]
		},
		{
			"name":"NURBS\u30ab\u30fc\u30d6",
			"rotation":[
				0.5,
				0.5,
				-0.5,
				0.5
			],
			"scale":[
				-17.209922790527344,
				-17.209922790527344,
				-17.209922790527344
			],
			"translation":[
				0,
				5.646126747131348,
				9.18414306640625
			]
		},
		{
			"mesh":1,
			"name":"Cylinder_1"
		},
		{
			"name":"Cylinder_0"
		},
		{
			"name":"StartPoint",
			"translation":[
				0,
				-0.11561384052038193,
				-3.182244300842285
			]
		},
		{
			"name":"EndPoint",
			"translation":[
				0,
				1.016601800918579,
				-18.82705307006836
			]
		}
	],
	"materials":[
		{
			"doubleSided":true,
			"name":"Garde.001",
			"pbrMetallicRoughness":{
				"baseColorFactor":[
					0,
					0,
					0,
					1
				],
				"metallicFactor":0.28220275044441223,
				"roughnessFactor":0.8431783318519592
			}
		},
		{
			"doubleSided":true,
			"name":"Manche.001",
			"pbrMetallicRoughness":{
				"baseColorFactor":[
					0,
					0,
					0,
					1
				],
				"metallicFactor":0.7425299882888794
			}
		},
		{
			"doubleSided":true,
			"name":"Dtails.001",
			"pbrMetallicRoughness":{
				"baseColorFactor":[
					0.9030550718307495,
					0.29554998874664307,
					0.27066779136657715,
					1
				],
				"roughnessFactor":0.06962025165557861
			}
		},
		{
			"doubleSided":true,
			"emissiveFactor":[
				1,
				0.010406499728560448,
				0
			],
			"name":"Light.001",
			"pbrMetallicRoughness":{
				"baseColorFactor":[
					1,
					0.023419439792633057,
					0.01956898532807827,
					1
				]
			}
		},
		{
			"doubleSided":true,
			"emissiveFactor":[
				0.03269904912663417,
				0.09230804144654021,
				1
			],
			"extensions":{
				"KHR_materials_emissive_strength":{
					"emissiveStrength":2.222220040857792
				}
			},
			"name":"Lame.001",
			"pbrMetallicRoughness":{
				"baseColorFactor":[
					0.0019524863455444574,
					0.017657248303294182,
					0.4366622567176819,
					1
				],
				"roughnessFactor":0.32115092873573303
			}
		}
	],
	"meshes":[
		{
			"name":"Corp_0.001",
			"primitives":[
				{
					"attributes":{
						"POSITION":0,
						"NORMAL":1,
						"TEXCOORD_0":2
					},
					"indices":3,
					"material":0
				},
				{
					"attributes":{
						"POSITION":4,
						"NORMAL":5,
						"TEXCOORD_0":6
					},
					"indices":7,
					"material":1
				},
				{
					"attributes":{
						"POSITION":8,
						"NORMAL":9,
						"TEXCOORD_0":10
					},
					"indices":11,
					"material":2
				},
				{
					"attributes":{
						"POSITION":12,
						"NORMAL":13,
						"TEXCOORD_0":14
					},
					"indices":15,
					"material":3
				},
				{
					"attributes":{
						"POSITION":16,
						"NORMAL":17,
						"TEXCOORD_0":18
					},
					"indices":19,
					"material":4
				}
			]
		},
		{
			"name":"Cylinder_1.001",
			"primitives":[
				{
					"attributes":{
						"POSITION":20,
						"NORMAL":21
					},
					"indices":22,
					"material":3
				}
			]
		}
	],
	"accessors":[
		{
			"bufferView":0,
			"componentType":5126,
			"count":3602,
			"max":[
				0.20879040658473969,
				2.6353116035461426,
				1.357184648513794
			],
			"min":[
				-0.20876967906951904,
				-19.12938117980957,
				-0.9377850294113159
			],
			"type":"VEC3"
		},
		{
			"bufferView":1,
			"componentType":5126,
			"count":3602,
			"type":"VEC3"
		},
		{
			"bufferView":2,
			"componentType":5126,
			"count":3602,
			"type":"VEC2"
		},
		{
			"bufferView":3,
			"componentType":5123,
			"count":5334,
			"type":"SCALAR"
		},
		{
			"bufferView":4,
			"componentType":5126,
			"count":187,
			"max":[
				0.16560061275959015,
				1.909124732017517,
				0.23036745190620422
			],
			"min":[
				-0.1655793935060501,
				-2.064995765686035,
				-0.24226251244544983
			],
			"type":"VEC3"
		},
		{
			"bufferView":5,
			"componentType":5126,
			"count":187,
			"type":"VEC3"
		},
		{
			"bufferView":6,
			"componentType":5126,
			"count":187,
			"type":"VEC2"
		},
		{
			"bufferView":7,
			"componentType":5123,
			"count":324,
			"type":"SCALAR"
		},
		{
			"bufferView":8,
			"componentType":5126,
			"count":784,
			"max":[
				0.11887061595916748,
				-2.154775619506836,
				0.3616374433040619
			],
			"min":[
				-0.11884938180446625,
				-2.924675464630127,
				-0.45516255497932434
			],
			"type":"VEC3"
		},
		{
			"bufferView":9,
			"componentType":5126,
			"count":784,
			"type":"VEC3"
		},
		{
			"bufferView":10,
			"componentType":5126,
			"count":784,
			"type":"VEC2"
		},
		{
			"bufferView":11,
			"componentType":5123,
			"count":1308,
			"type":"SCALAR"
		},
		{
			"bufferView":12,
			"componentType":5126,
			"count":852,
			"max":[
				0.2020503729581833,
				2.618068218231201,
				1.3062783479690552
			],
			"min":[
				-0.20202966034412384,
				-19.06110191345215,
				-0.39799371361732483
			],
			"type":"VEC3"
		},
		{
			"bufferView":13,
			"componentType":5126,
			"count":852,
			"type":"VEC3"
		},
		{
			"bufferView":14,
			"componentType":5126,
			"count":852,
			"type":"VEC2"
		},
		{
			"bufferView":15,
			"componentType":5123,
			"count":1398,
			"type":"SCALAR"
		},
		{
			"bufferView":16,
			"componentType":5126,
			"count":838,
			"max":[
				0.031200377270579338,
				-2.0695571899414062,
				1.3038126230239868
			],
			"min":[
				-0.03117983043193817,
				-19.110151290893555,
				-0.6658445000648499
			],
			"type":"VEC3"
		},
		{
			"bufferView":17,
			"componentType":5126,
			"count":838,
			"type":"VEC3"
		},
		{
			"bufferView":18,
			"componentType":5126,
			"count":838,
			"type":"VEC2"
		},
		{
			"bufferView":19,
			"componentType":5123,
			"count":1896,
			"type":"SCALAR"
		},
		{
			"bufferView":20,
			"componentType":5126,
			"count":64,
			"max":[
				0.08107999712228775,
				0.03468000143766403,
				0.03468000143766403
			],
			"min":[
				-0.08107999712228775,
				-0.03468000143766403,
				-0.03468000143766403
			],
			"type":"VEC3"
		},
		{
			"bufferView":21,
			"componentType":5126,
			"count":64,
			"type":"VEC3"
		},
		{
			"bufferView":22,
			"componentType":5123,
			"count":180,
			"type":"SCALAR"
		}
	],
	"bufferViews":[
		{
			"buffer":0,
			"byteLength":43224,
			"byteOffset":0,
			"target":34962
		},
		{
			"buffer":0,
			"byteLength":43224,
			"byteOffset":43224,
			"target":34962
		},
		{
			"buffer":0,
			"byteLength":28816,
			"byteOffset":86448,
			"target":34962
		},
		{
			"buffer":0,
			"byteLength":10668,
			"byteOffset":115264,
			"target":34963
		},
		{
			"buffer":0,
			"byteLength":2244,
			"byteOffset":125932,
			"target":34962
		},
		{
			"buffer":0,
			"byteLength":2244,
			"byteOffset":128176,
			"target":34962
		},
		{
			"buffer":0,
			"byteLength":1496,
			"byteOffset":130420,
			"target":34962
		},
		{
			"buffer":0,
			"byteLength":648,
			"byteOffset":131916,
			"target":34963
		},
		{
			"buffer":0,
			"byteLength":9408,
			"byteOffset":132564,
			"target":34962
		},
		{
			"buffer":0,
			"byteLength":9408,
			"byteOffset":141972,
			"target":34962
		},
		{
			"buffer":0,
			"byteLength":6272,
			"byteOffset":151380,
			"target":34962
		},
		{
			"buffer":0,
			"byteLength":2616,
			"byteOffset":157652,
			"target":34963
		},
		{
			"buffer":0,
			"byteLength":10224,
			"byteOffset":160268,
			"target":34962
		},
		{
			"buffer":0,
			"byteLength":10224,
			"byteOffset":170492,
			"target":34962
		},
		{
			"buffer":0,
			"byteLength":6816,
			"byteOffset":180716,
			"target":34962
		},
		{
			"buffer":0,
			"byteLength":2796,
			"byteOffset":187532,
			"target":34963
		},
		{
			"buffer":0,
			"byteLength":10056,
			"byteOffset":190328,
			"target":34962
		},
		{
			"buffer":0,
			"byteLength":10056,
			"byteOffset":200384,
			"target":34962
		},
		{
			"buffer":0,
			"byteLength":6704,
			"byteOffset":210440,
			"target":34962
		},
		{
			"buffer":0,
			"byteLength":3792,
			"byteOffset":217144,
			"target":34963
		},
		{
			"buffer":0,
			"byteLength":768,
			"byteOffset":220936,
			"target":34962
		},
		{
			"buffer":0,
			"byteLength":768,
			"byteOffset":221704,
			"target":34962
		},
		{
			"buffer":0,
			"byteLength":360,
			"byteOffset":222472,
			"target":34963
		}
	],
	"buffers":[
		{
			"byteLength":222832,
			"uri":"Sowrd.bin"
		}
	]
}
