{
	"asset":{
		"generator":"Khronos glTF Blender I/O v4.4.56",
		"version":"2.0"
	},
	"scene":0,
	"scenes":[
		{
			"name":"Scene",
			"nodes":[
				0,
				1,
				2,
				3,
				4,
				5
			]
		}
	],
	"nodes":[
		{
			"mesh":0,
			"name":"COL.002",
			"rotation":[
				0,
				-0.7071068286895752,
				0,
				0.7071068286895752
			]
		},
		{
			"mesh":1,
			"name":"\u7acb\u65b9\u4f53",
			"rotation":[
				0,
				0.7071068286895752,
				0,
				0.7071068286895752
			],
			"translation":[
				-19.890714645385742,
				0,
				0
			]
		},
		{
			"mesh":2,
			"name":"\u7acb\u65b9\u4f53.001",
			"rotation":[
				0,
				-0.7071068286895752,
				0,
				0.7071068286895752
			]
		},
		{
			"mesh":3,
			"name":"\u7acb\u65b9\u4f53.002",
			"rotation":[
				0,
				0.7071068286895752,
				0,
				0.7071068286895752
			],
			"translation":[
				27.98933982849121,
				0,
				0
			]
		},
		{
			"mesh":4,
			"name":"COL",
			"rotation":[
				0,
				0.7071068286895752,
				0,
				0.7071068286895752
			],
			"translation":[
				-19.890714645385742,
				0,
				0
			]
		},
		{
			"mesh":5,
			"name":"COL.001",
			"rotation":[
				0,
				0.7071068286895752,
				0,
				0.7071068286895752
			],
			"translation":[
				27.98933982849121,
				0,
				0
			]
		}
	],
	"animations":[
		{
			"channels":[
				{
					"sampler":0,
					"target":{
						"node":0,
						"path":"translation"
					}
				},
				{
					"sampler":1,
					"target":{
						"node":0,
						"path":"rotation"
					}
				},
				{
					"sampler":2,
					"target":{
						"node":0,
						"path":"scale"
					}
				},
				{
					"sampler":3,
					"target":{
						"node":2,
						"path":"translation"
					}
				},
				{
					"sampler":4,
					"target":{
						"node":2,
						"path":"rotation"
					}
				},
				{
					"sampler":5,
					"target":{
						"node":2,
						"path":"scale"
					}
				}
			],
			"name":"Open",
			"samplers":[
				{
					"input":19,
					"interpolation":"STEP",
					"output":20
				},
				{
					"input":21,
					"interpolation":"LINEAR",
					"output":22
				},
				{
					"input":19,
					"interpolation":"STEP",
					"output":23
				},
				{
					"input":19,
					"interpolation":"STEP",
					"output":24
				},
				{
					"input":21,
					"interpolation":"LINEAR",
					"output":25
				},
				{
					"input":19,
					"interpolation":"STEP",
					"output":26
				}
			]
		}
	],
	"materials":[
		{
			"doubleSided":true,
			"name":"\u30de\u30c6\u30ea\u30a2\u30eb",
			"pbrMetallicRoughness":{
				"baseColorFactor":[
					0.0619569793343544,
					0.14993232488632202,
					0.8003076910972595,
					1
				],
				"metallicFactor":0,
				"roughnessFactor":0.5
			}
		},
		{
			"doubleSided":true,
			"name":"\u30de\u30c6\u30ea\u30a2\u30eb.001",
			"pbrMetallicRoughness":{
				"baseColorFactor":[
					0.8003851175308228,
					0.03569195419549942,
					0.023179899901151657,
					1
				],
				"metallicFactor":0,
				"roughnessFactor":0.5
			}
		}
	],
	"meshes":[
		{
			"name":"\u7acb\u65b9\u4f53.005",
			"primitives":[
				{
					"attributes":{
						"POSITION":0,
						"NORMAL":1,
						"TEXCOORD_0":2
					},
					"indices":3,
					"material":0
				}
			]
		},
		{
			"name":"\u7acb\u65b9\u4f53",
			"primitives":[
				{
					"attributes":{
						"POSITION":4,
						"NORMAL":5,
						"TEXCOORD_0":6
					},
					"indices":3,
					"material":1
				}
			]
		},
		{
			"name":"\u7acb\u65b9\u4f53.001",
			"primitives":[
				{
					"attributes":{
						"POSITION":7,
						"NORMAL":8,
						"TEXCOORD_0":9
					},
					"indices":3,
					"material":1
				}
			]
		},
		{
			"name":"\u7acb\u65b9\u4f53.002",
			"primitives":[
				{
					"attributes":{
						"POSITION":10,
						"NORMAL":11,
						"TEXCOORD_0":12
					},
					"indices":3,
					"material":1
				}
			]
		},
		{
			"name":"\u7acb\u65b9\u4f53.003",
			"primitives":[
				{
					"attributes":{
						"POSITION":13,
						"NORMAL":14,
						"TEXCOORD_0":15
					},
					"indices":3,
					"material":0
				}
			]
		},
		{
			"name":"\u7acb\u65b9\u4f53.004",
			"primitives":[
				{
					"attributes":{
						"POSITION":16,
						"NORMAL":17,
						"TEXCOORD_0":18
					},
					"indices":3,
					"material":0
				}
			]
		}
	],
	"accessors":[
		{
			"bufferView":0,
			"componentType":5126,
			"count":32,
			"max":[
				1,
				14.378900527954102,
				1
			],
			"min":[
				-1,
				-1,
				-13.947700500488281
			],
			"type":"VEC3"
		},
		{
			"bufferView":1,
			"componentType":5126,
			"count":32,
			"type":"VEC3"
		},
		{
			"bufferView":2,
			"componentType":5126,
			"count":32,
			"type":"VEC2"
		},
		{
			"bufferView":3,
			"componentType":5123,
			"count":60,
			"type":"SCALAR"
		},
		{
			"bufferView":4,
			"componentType":5126,
			"count":32,
			"max":[
				1,
				14.378900527954102,
				18.90314292907715
			],
			"min":[
				-1.0000008344650269,
				-1,
				-13.947700500488281
			],
			"type":"VEC3"
		},
		{
			"bufferView":5,
			"componentType":5126,
			"count":32,
			"type":"VEC3"
		},
		{
			"bufferView":6,
			"componentType":5126,
			"count":32,
			"type":"VEC2"
		},
		{
			"bufferView":7,
			"componentType":5126,
			"count":32,
			"max":[
				1,
				14.378900527954102,
				1
			],
			"min":[
				-1,
				-1,
				-13.947700500488281
			],
			"type":"VEC3"
		},
		{
			"bufferView":8,
			"componentType":5126,
			"count":32,
			"type":"VEC3"
		},
		{
			"bufferView":9,
			"componentType":5126,
			"count":32,
			"type":"VEC2"
		},
		{
			"bufferView":10,
			"componentType":5126,
			"count":32,
			"max":[
				1,
				14.378900527954102,
				18.90314292907715
			],
			"min":[
				-1.0000008344650269,
				-1,
				-13.947700500488281
			],
			"type":"VEC3"
		},
		{
			"bufferView":11,
			"componentType":5126,
			"count":32,
			"type":"VEC3"
		},
		{
			"bufferView":12,
			"componentType":5126,
			"count":32,
			"type":"VEC2"
		},
		{
			"bufferView":13,
			"componentType":5126,
			"count":32,
			"max":[
				1,
				14.378900527954102,
				18.90314292907715
			],
			"min":[
				-1.0000008344650269,
				-1,
				-13.947700500488281
			],
			"type":"VEC3"
		},
		{
			"bufferView":14,
			"componentType":5126,
			"count":32,
			"type":"VEC3"
		},
		{
			"bufferView":15,
			"componentType":5126,
			"count":32,
			"type":"VEC2"
		},
		{
			"bufferView":16,
			"componentType":5126,
			"count":32,
			"max":[
				1,
				14.378900527954102,
				18.90314292907715
			],
			"min":[
				-1.0000008344650269,
				-1,
				-13.947700500488281
			],
			"type":"VEC3"
		},
		{
			"bufferView":17,
			"componentType":5126,
			"count":32,
			"type":"VEC3"
		},
		{
			"bufferView":18,
			"componentType":5126,
			"count":32,
			"type":"VEC2"
		},
		{
			"bufferView":19,
			"componentType":5126,
			"count":2,
			"max":[
				0.4166666666666667
			],
			"min":[
				0
			],
			"type":"SCALAR"
		},
		{
			"bufferView":20,
			"componentType":5126,
			"count":2,
			"type":"VEC3"
		},
		{
			"bufferView":21,
			"componentType":5126,
			"count":11,
			"max":[
				0.4166666666666667
			],
			"min":[
				0
			],
			"type":"SCALAR"
		},
		{
			"bufferView":22,
			"componentType":5126,
			"count":11,
			"type":"VEC4"
		},
		{
			"bufferView":23,
			"componentType":5126,
			"count":2,
			"type":"VEC3"
		},
		{
			"bufferView":24,
			"componentType":5126,
			"count":2,
			"type":"VEC3"
		},
		{
			"bufferView":25,
			"componentType":5126,
			"count":11,
			"type":"VEC4"
		},
		{
			"bufferView":26,
			"componentType":5126,
			"count":2,
			"type":"VEC3"
		}
	],
	"bufferViews":[
		{
			"buffer":0,
			"byteLength":384,
			"byteOffset":0,
			"target":34962
		},
		{
			"buffer":0,
			"byteLength":384,
			"byteOffset":384,
			"target":34962
		},
		{
			"buffer":0,
			"byteLength":256,
			"byteOffset":768,
			"target":34962
		},
		{
			"buffer":0,
			"byteLength":120,
			"byteOffset":1024,
			"target":34963
		},
		{
			"buffer":0,
			"byteLength":384,
			"byteOffset":1144,
			"target":34962
		},
		{
			"buffer":0,
			"byteLength":384,
			"byteOffset":1528,
			"target":34962
		},
		{
			"buffer":0,
			"byteLength":256,
			"byteOffset":1912,
			"target":34962
		},
		{
			"buffer":0,
			"byteLength":384,
			"byteOffset":2168,
			"target":34962
		},
		{
			"buffer":0,
			"byteLength":384,
			"byteOffset":2552,
			"target":34962
		},
		{
			"buffer":0,
			"byteLength":256,
			"byteOffset":2936,
			"target":34962
		},
		{
			"buffer":0,
			"byteLength":384,
			"byteOffset":3192,
			"target":34962
		},
		{
			"buffer":0,
			"byteLength":384,
			"byteOffset":3576,
			"target":34962
		},
		{
			"buffer":0,
			"byteLength":256,
			"byteOffset":3960,
			"target":34962
		},
		{
			"buffer":0,
			"byteLength":384,
			"byteOffset":4216,
			"target":34962
		},
		{
			"buffer":0,
			"byteLength":384,
			"byteOffset":4600,
			"target":34962
		},
		{
			"buffer":0,
			"byteLength":256,
			"byteOffset":4984,
			"target":34962
		},
		{
			"buffer":0,
			"byteLength":384,
			"byteOffset":5240,
			"target":34962
		},
		{
			"buffer":0,
			"byteLength":384,
			"byteOffset":5624,
			"target":34962
		},
		{
			"buffer":0,
			"byteLength":256,
			"byteOffset":6008,
			"target":34962
		},
		{
			"buffer":0,
			"byteLength":8,
			"byteOffset":6264
		},
		{
			"buffer":0,
			"byteLength":24,
			"byteOffset":6272
		},
		{
			"buffer":0,
			"byteLength":44,
			"byteOffset":6296
		},
		{
			"buffer":0,
			"byteLength":176,
			"byteOffset":6340
		},
		{
			"buffer":0,
			"byteLength":24,
			"byteOffset":6516
		},
		{
			"buffer":0,
			"byteLength":24,
			"byteOffset":6540
		},
		{
			"buffer":0,
			"byteLength":176,
			"byteOffset":6564
		},
		{
			"buffer":0,
			"byteLength":24,
			"byteOffset":6740
		}
	],
	"buffers":[
		{
			"byteLength":6764,
			"uri":"Door.bin"
		}
	]
}
