{
	"asset":{
		"generator":"Khronos glTF Blender I/O v4.4.56",
		"version":"2.0"
	},
	"extensionsUsed":[
		"KHR_materials_emissive_strength"
	],
	"scene":0,
	"scenes":[
		{
			"name":"Scene",
			"nodes":[
				0,
				5
			]
		}
	],
	"nodes":[
		{
			"name":"SP",
			"translation":[
				-0.05399102717638016,
				0.5930327773094177,
				-5.040566921234131
			]
		},
		{
			"name":"\u30dc\u30fc\u30f3",
			"rotation":[
				-0.005931984633207321,
				-0.7070820331573486,
				0.005931986961513758,
				0.7070817947387695
			],
			"scale":[
				0.9999999403953552,
				0.9999998211860657,
				1
			],
			"translation":[
				0.08336770534515381,
				-2.198381185531616,
				0.11780372262001038
			]
		},
		{
			"children":[
				1
			],
			"name":"Gun",
			"rotation":[
				-0.7011500000953674,
				0,
				0,
				0.7130138278007507
			],
			"scale":[
				1,
				0.9999999403953552,
				1
			],
			"translation":[
				0,
				0.42068564891815186,
				-0.16535791754722595
			]
		},
		{
			"mesh":0,
			"name":"Cube",
			"skin":0
		},
		{
			"mesh":1,
			"name":"\u5186\u67f1",
			"skin":0
		},
		{
			"children":[
				3,
				4,
				2
			],
			"name":"\u30a2\u30fc\u30de\u30c1\u30e5\u30a2",
			"translation":[
				-0.10600471496582031,
				0.11577796936035156,
				0.11339282989501953
			]
		}
	],
	"animations":[
		{
			"channels":[
				{
					"sampler":0,
					"target":{
						"node":2,
						"path":"translation"
					}
				},
				{
					"sampler":1,
					"target":{
						"node":2,
						"path":"rotation"
					}
				},
				{
					"sampler":2,
					"target":{
						"node":2,
						"path":"scale"
					}
				},
				{
					"sampler":3,
					"target":{
						"node":1,
						"path":"translation"
					}
				},
				{
					"sampler":4,
					"target":{
						"node":1,
						"path":"rotation"
					}
				},
				{
					"sampler":5,
					"target":{
						"node":1,
						"path":"scale"
					}
				}
			],
			"name":"Close",
			"samplers":[
				{
					"input":27,
					"interpolation":"STEP",
					"output":28
				},
				{
					"input":27,
					"interpolation":"STEP",
					"output":29
				},
				{
					"input":27,
					"interpolation":"STEP",
					"output":30
				},
				{
					"input":31,
					"interpolation":"LINEAR",
					"output":32
				},
				{
					"input":31,
					"interpolation":"LINEAR",
					"output":33
				},
				{
					"input":27,
					"interpolation":"STEP",
					"output":34
				}
			]
		},
		{
			"channels":[
				{
					"sampler":0,
					"target":{
						"node":2,
						"path":"translation"
					}
				},
				{
					"sampler":1,
					"target":{
						"node":2,
						"path":"rotation"
					}
				},
				{
					"sampler":2,
					"target":{
						"node":2,
						"path":"scale"
					}
				},
				{
					"sampler":3,
					"target":{
						"node":1,
						"path":"translation"
					}
				},
				{
					"sampler":4,
					"target":{
						"node":1,
						"path":"rotation"
					}
				},
				{
					"sampler":5,
					"target":{
						"node":1,
						"path":"scale"
					}
				}
			],
			"name":"None",
			"samplers":[
				{
					"input":35,
					"interpolation":"STEP",
					"output":36
				},
				{
					"input":35,
					"interpolation":"STEP",
					"output":37
				},
				{
					"input":35,
					"interpolation":"STEP",
					"output":38
				},
				{
					"input":35,
					"interpolation":"LINEAR",
					"output":39
				},
				{
					"input":35,
					"interpolation":"STEP",
					"output":40
				},
				{
					"input":35,
					"interpolation":"LINEAR",
					"output":41
				}
			]
		},
		{
			"channels":[
				{
					"sampler":0,
					"target":{
						"node":2,
						"path":"translation"
					}
				},
				{
					"sampler":1,
					"target":{
						"node":2,
						"path":"rotation"
					}
				},
				{
					"sampler":2,
					"target":{
						"node":2,
						"path":"scale"
					}
				},
				{
					"sampler":3,
					"target":{
						"node":1,
						"path":"translation"
					}
				},
				{
					"sampler":4,
					"target":{
						"node":1,
						"path":"rotation"
					}
				},
				{
					"sampler":5,
					"target":{
						"node":1,
						"path":"scale"
					}
				}
			],
			"name":"Open",
			"samplers":[
				{
					"input":27,
					"interpolation":"STEP",
					"output":42
				},
				{
					"input":27,
					"interpolation":"STEP",
					"output":43
				},
				{
					"input":27,
					"interpolation":"STEP",
					"output":44
				},
				{
					"input":31,
					"interpolation":"LINEAR",
					"output":45
				},
				{
					"input":31,
					"interpolation":"LINEAR",
					"output":46
				},
				{
					"input":27,
					"interpolation":"STEP",
					"output":47
				}
			]
		}
	],
	"materials":[
		{
			"doubleSided":true,
			"name":"\u30de\u30c6\u30ea\u30a2\u30eb",
			"normalTexture":{
				"index":0,
				"scale":10
			},
			"pbrMetallicRoughness":{
				"baseColorTexture":{
					"index":1
				},
				"metallicFactor":0.9154078364372253,
				"roughnessFactor":0.2371601164340973
			}
		},
		{
			"doubleSided":true,
			"emissiveFactor":[
				1,
				0.0007767065544612706,
				0.0011480452958494425
			],
			"extensions":{
				"KHR_materials_emissive_strength":{
					"emissiveStrength":50.29999542236328
				}
			},
			"name":"\u767a\u5149",
			"pbrMetallicRoughness":{
				"baseColorTexture":{
					"index":2
				},
				"metallicFactor":0.8991930484771729,
				"roughnessFactor":0.24169184267520905
			}
		},
		{
			"doubleSided":true,
			"emissiveFactor":[
				1,
				0.005446430295705795,
				0.00320130935870111
			],
			"name":"\u767a\u51492",
			"pbrMetallicRoughness":{
				"baseColorFactor":[
					0.8011330962181091,
					0.02552684210240841,
					0.02552684210240841,
					1
				],
				"metallicFactor":0.9556641578674316,
				"roughnessFactor":0.15901437401771545
			}
		}
	],
	"meshes":[
		{
			"name":"Cube",
			"primitives":[
				{
					"attributes":{
						"POSITION":0,
						"NORMAL":1,
						"TEXCOORD_0":2,
						"TEXCOORD_1":3,
						"JOINTS_0":4,
						"WEIGHTS_0":5
					},
					"indices":6,
					"material":0
				},
				{
					"attributes":{
						"POSITION":7,
						"NORMAL":8,
						"TEXCOORD_0":9,
						"TEXCOORD_1":10,
						"JOINTS_0":11,
						"WEIGHTS_0":12
					},
					"indices":13,
					"material":1
				}
			]
		},
		{
			"name":"\u5186\u67f1.015",
			"primitives":[
				{
					"attributes":{
						"POSITION":15,
						"NORMAL":16,
						"TEXCOORD_0":17,
						"JOINTS_0":18,
						"WEIGHTS_0":19
					},
					"indices":20,
					"material":0
				},
				{
					"attributes":{
						"POSITION":21,
						"NORMAL":22,
						"TEXCOORD_0":23,
						"JOINTS_0":24,
						"WEIGHTS_0":25
					},
					"indices":26,
					"material":2
				}
			]
		}
	],
	"textures":[
		{
			"sampler":0,
			"source":0
		},
		{
			"sampler":0,
			"source":1
		},
		{
			"sampler":0,
			"source":2
		}
	],
	"images":[
		{
			"mimeType":"image/png",
			"name":"rubber_tiles_nor_gl_4k",
			"uri":"rubber_tiles_nor_gl_4k.png"
		},
		{
			"mimeType":"image/jpeg",
			"name":"rubber_tiles_diff_short",
			"uri":"rubber_tiles_diff_short.jpg"
		},
		{
			"mimeType":"image/png",
			"name":"emissive",
			"uri":"emissive.png"
		}
	],
	"skins":[
		{
			"inverseBindMatrices":14,
			"joints":[
				2,
				1
			],
			"name":"\u30a2\u30fc\u30de\u30c1\u30e5\u30a2"
		}
	],
	"accessors":[
		{
			"bufferView":0,
			"componentType":5126,
			"count":787,
			"max":[
				0.4213121235370636,
				1.1811059713363647,
				0.2907371520996094
			],
			"min":[
				-0.33578625321388245,
				-0.1825665831565857,
				-5.471844673156738
			],
			"type":"VEC3"
		},
		{
			"bufferView":1,
			"componentType":5126,
			"count":787,
			"type":"VEC3"
		},
		{
			"bufferView":2,
			"componentType":5126,
			"count":787,
			"type":"VEC2"
		},
		{
			"bufferView":3,
			"componentType":5126,
			"count":787,
			"type":"VEC2"
		},
		{
			"bufferView":4,
			"componentType":5121,
			"count":787,
			"type":"VEC4"
		},
		{
			"bufferView":5,
			"componentType":5126,
			"count":787,
			"type":"VEC4"
		},
		{
			"bufferView":6,
			"componentType":5123,
			"count":1491,
			"type":"SCALAR"
		},
		{
			"bufferView":7,
			"componentType":5126,
			"count":28,
			"max":[
				0.07874640822410583,
				0.7926279306411743,
				-2.2035951614379883
			],
			"min":[
				-0.1682099997997284,
				0.4554683566093445,
				-5.116024017333984
			],
			"type":"VEC3"
		},
		{
			"bufferView":8,
			"componentType":5126,
			"count":28,
			"type":"VEC3"
		},
		{
			"bufferView":9,
			"componentType":5126,
			"count":28,
			"type":"VEC2"
		},
		{
			"bufferView":10,
			"componentType":5126,
			"count":28,
			"type":"VEC2"
		},
		{
			"bufferView":11,
			"componentType":5121,
			"count":28,
			"type":"VEC4"
		},
		{
			"bufferView":12,
			"componentType":5126,
			"count":28,
			"type":"VEC4"
		},
		{
			"bufferView":13,
			"componentType":5123,
			"count":42,
			"type":"SCALAR"
		},
		{
			"bufferView":14,
			"componentType":5126,
			"count":2,
			"type":"MAT4"
		},
		{
			"bufferView":15,
			"componentType":5126,
			"count":544,
			"max":[
				0.13333433866500854,
				0.7744061946868896,
				2.2753055095672607
			],
			"min":[
				-0.17252719402313232,
				0.46854454278945923,
				-0.08818281441926956
			],
			"type":"VEC3"
		},
		{
			"bufferView":16,
			"componentType":5126,
			"count":544,
			"type":"VEC3"
		},
		{
			"bufferView":17,
			"componentType":5126,
			"count":544,
			"type":"VEC2"
		},
		{
			"bufferView":18,
			"componentType":5121,
			"count":544,
			"type":"VEC4"
		},
		{
			"bufferView":19,
			"componentType":5126,
			"count":544,
			"type":"VEC4"
		},
		{
			"bufferView":20,
			"componentType":5123,
			"count":1296,
			"type":"SCALAR"
		},
		{
			"bufferView":21,
			"componentType":5126,
			"count":128,
			"max":[
				0.07586996257305145,
				0.7169416546821594,
				2.132326126098633
			],
			"min":[
				-0.11506279557943344,
				0.5260089635848999,
				0.21001768112182617
			],
			"type":"VEC3"
		},
		{
			"bufferView":22,
			"componentType":5126,
			"count":128,
			"type":"VEC3"
		},
		{
			"bufferView":23,
			"componentType":5126,
			"count":128,
			"type":"VEC2"
		},
		{
			"bufferView":24,
			"componentType":5121,
			"count":128,
			"type":"VEC4"
		},
		{
			"bufferView":25,
			"componentType":5126,
			"count":128,
			"type":"VEC4"
		},
		{
			"bufferView":26,
			"componentType":5123,
			"count":192,
			"type":"SCALAR"
		},
		{
			"bufferView":27,
			"componentType":5126,
			"count":2,
			"max":[
				0.8333333333333334
			],
			"min":[
				0
			],
			"type":"SCALAR"
		},
		{
			"bufferView":28,
			"componentType":5126,
			"count":2,
			"type":"VEC3"
		},
		{
			"bufferView":29,
			"componentType":5126,
			"count":2,
			"type":"VEC4"
		},
		{
			"bufferView":30,
			"componentType":5126,
			"count":2,
			"type":"VEC3"
		},
		{
			"bufferView":31,
			"componentType":5126,
			"count":21,
			"max":[
				0.8333333333333334
			],
			"min":[
				0
			],
			"type":"SCALAR"
		},
		{
			"bufferView":32,
			"componentType":5126,
			"count":21,
			"type":"VEC3"
		},
		{
			"bufferView":33,
			"componentType":5126,
			"count":21,
			"type":"VEC4"
		},
		{
			"bufferView":34,
			"componentType":5126,
			"count":2,
			"type":"VEC3"
		},
		{
			"bufferView":35,
			"componentType":5126,
			"count":1,
			"max":[
				0
			],
			"min":[
				0
			],
			"type":"SCALAR"
		},
		{
			"bufferView":36,
			"componentType":5126,
			"count":1,
			"type":"VEC3"
		},
		{
			"bufferView":37,
			"componentType":5126,
			"count":1,
			"type":"VEC4"
		},
		{
			"bufferView":38,
			"componentType":5126,
			"count":1,
			"type":"VEC3"
		},
		{
			"bufferView":39,
			"componentType":5126,
			"count":1,
			"type":"VEC3"
		},
		{
			"bufferView":40,
			"componentType":5126,
			"count":1,
			"type":"VEC4"
		},
		{
			"bufferView":41,
			"componentType":5126,
			"count":1,
			"type":"VEC3"
		},
		{
			"bufferView":42,
			"componentType":5126,
			"count":2,
			"type":"VEC3"
		},
		{
			"bufferView":43,
			"componentType":5126,
			"count":2,
			"type":"VEC4"
		},
		{
			"bufferView":44,
			"componentType":5126,
			"count":2,
			"type":"VEC3"
		},
		{
			"bufferView":45,
			"componentType":5126,
			"count":21,
			"type":"VEC3"
		},
		{
			"bufferView":46,
			"componentType":5126,
			"count":21,
			"type":"VEC4"
		},
		{
			"bufferView":47,
			"componentType":5126,
			"count":2,
			"type":"VEC3"
		}
	],
	"bufferViews":[
		{
			"buffer":0,
			"byteLength":9444,
			"byteOffset":0,
			"target":34962
		},
		{
			"buffer":0,
			"byteLength":9444,
			"byteOffset":9444,
			"target":34962
		},
		{
			"buffer":0,
			"byteLength":6296,
			"byteOffset":18888,
			"target":34962
		},
		{
			"buffer":0,
			"byteLength":6296,
			"byteOffset":25184,
			"target":34962
		},
		{
			"buffer":0,
			"byteLength":3148,
			"byteOffset":31480,
			"target":34962
		},
		{
			"buffer":0,
			"byteLength":12592,
			"byteOffset":34628,
			"target":34962
		},
		{
			"buffer":0,
			"byteLength":2982,
			"byteOffset":47220,
			"target":34963
		},
		{
			"buffer":0,
			"byteLength":336,
			"byteOffset":50204,
			"target":34962
		},
		{
			"buffer":0,
			"byteLength":336,
			"byteOffset":50540,
			"target":34962
		},
		{
			"buffer":0,
			"byteLength":224,
			"byteOffset":50876,
			"target":34962
		},
		{
			"buffer":0,
			"byteLength":224,
			"byteOffset":51100,
			"target":34962
		},
		{
			"buffer":0,
			"byteLength":112,
			"byteOffset":51324,
			"target":34962
		},
		{
			"buffer":0,
			"byteLength":448,
			"byteOffset":51436,
			"target":34962
		},
		{
			"buffer":0,
			"byteLength":84,
			"byteOffset":51884,
			"target":34963
		},
		{
			"buffer":0,
			"byteLength":128,
			"byteOffset":51968
		},
		{
			"buffer":0,
			"byteLength":6528,
			"byteOffset":52096,
			"target":34962
		},
		{
			"buffer":0,
			"byteLength":6528,
			"byteOffset":58624,
			"target":34962
		},
		{
			"buffer":0,
			"byteLength":4352,
			"byteOffset":65152,
			"target":34962
		},
		{
			"buffer":0,
			"byteLength":2176,
			"byteOffset":69504,
			"target":34962
		},
		{
			"buffer":0,
			"byteLength":8704,
			"byteOffset":71680,
			"target":34962
		},
		{
			"buffer":0,
			"byteLength":2592,
			"byteOffset":80384,
			"target":34963
		},
		{
			"buffer":0,
			"byteLength":1536,
			"byteOffset":82976,
			"target":34962
		},
		{
			"buffer":0,
			"byteLength":1536,
			"byteOffset":84512,
			"target":34962
		},
		{
			"buffer":0,
			"byteLength":1024,
			"byteOffset":86048,
			"target":34962
		},
		{
			"buffer":0,
			"byteLength":512,
			"byteOffset":87072,
			"target":34962
		},
		{
			"buffer":0,
			"byteLength":2048,
			"byteOffset":87584,
			"target":34962
		},
		{
			"buffer":0,
			"byteLength":384,
			"byteOffset":89632,
			"target":34963
		},
		{
			"buffer":0,
			"byteLength":8,
			"byteOffset":90016
		},
		{
			"buffer":0,
			"byteLength":24,
			"byteOffset":90024
		},
		{
			"buffer":0,
			"byteLength":32,
			"byteOffset":90048
		},
		{
			"buffer":0,
			"byteLength":24,
			"byteOffset":90080
		},
		{
			"buffer":0,
			"byteLength":84,
			"byteOffset":90104
		},
		{
			"buffer":0,
			"byteLength":252,
			"byteOffset":90188
		},
		{
			"buffer":0,
			"byteLength":336,
			"byteOffset":90440
		},
		{
			"buffer":0,
			"byteLength":24,
			"byteOffset":90776
		},
		{
			"buffer":0,
			"byteLength":4,
			"byteOffset":90800
		},
		{
			"buffer":0,
			"byteLength":12,
			"byteOffset":90804
		},
		{
			"buffer":0,
			"byteLength":16,
			"byteOffset":90816
		},
		{
			"buffer":0,
			"byteLength":12,
			"byteOffset":90832
		},
		{
			"buffer":0,
			"byteLength":12,
			"byteOffset":90844
		},
		{
			"buffer":0,
			"byteLength":16,
			"byteOffset":90856
		},
		{
			"buffer":0,
			"byteLength":12,
			"byteOffset":90872
		},
		{
			"buffer":0,
			"byteLength":24,
			"byteOffset":90884
		},
		{
			"buffer":0,
			"byteLength":32,
			"byteOffset":90908
		},
		{
			"buffer":0,
			"byteLength":24,
			"byteOffset":90940
		},
		{
			"buffer":0,
			"byteLength":252,
			"byteOffset":90964
		},
		{
			"buffer":0,
			"byteLength":336,
			"byteOffset":91216
		},
		{
			"buffer":0,
			"byteLength":24,
			"byteOffset":91552
		}
	],
	"samplers":[
		{
			"magFilter":9729,
			"minFilter":9987
		}
	],
	"buffers":[
		{
			"byteLength":91576,
			"uri":"RaserCannon.bin"
		}
	]
}
