{
	"asset":{
		"generator":"Khronos glTF Blender I/O v4.4.56",
		"version":"2.0"
	},
	"scene":0,
	"scenes":[
		{
			"name":"Scene",
			"nodes":[
				0,
				10,
				11,
				12,
				13
			]
		}
	],
	"nodes":[
		{
			"mesh":0,
			"name":"\u30df\u30e9\u30fc",
			"scale":[
				0.5634169578552246,
				0.5634169578552246,
				0.5634169578552246
			],
			"translation":[
				1.21517014503479,
				2.0298306941986084,
				1.0715534687042236
			]
		},
		{
			"name":"Middle",
			"rotation":[
				-0.8764213919639587,
				0.010923563502728939,
				0.020703943446278572,
				0.4809756278991699
			],
			"scale":[
				0.9999999403953552,
				1,
				0.9999999403953552
			],
			"translation":[
				-6.612390279769897e-08,
				1.3084796667099,
				-4.842877388000488e-08
			]
		},
		{
			"name":"Right",
			"rotation":[
				-0.7926870584487915,
				-0.1878628432750702,
				0.37528538703918457,
				0.44217148423194885
			],
			"scale":[
				1,
				1,
				1.0000001192092896
			],
			"translation":[
				-0.60243159532547,
				1.3028392791748047,
				0.022521231323480606
			]
		},
		{
			"name":"Left",
			"rotation":[
				-0.8204190731048584,
				0.18266178667545319,
				-0.30251699686050415,
				0.44947826862335205
			],
			"scale":[
				0.9999999403953552,
				0.9999999403953552,
				0.9999998211860657
			],
			"translation":[
				0.5600447058677673,
				1.3137233257293701,
				-0.020936522632837296
			]
		},
		{
			"children":[
				1,
				2,
				3
			],
			"name":"Connect",
			"rotation":[
				-0.5167898535728455,
				-0.015958398580551147,
				0.0015861308202147484,
				0.8559620976448059
			],
			"scale":[
				1,
				1,
				0.9999999403953552
			],
			"translation":[
				1.5121419494334987e-07,
				1.0000449419021606,
				-6.161376120417117e-08
			]
		},
		{
			"children":[
				4
			],
			"name":"Root",
			"rotation":[
				-4.056392444162782e-10,
				-2.5057008912199308e-08,
				0.004746634513139725,
				0.9999887347221375
			],
			"translation":[
				1.226900577545166,
				0.8401192426681519,
				1.0803849697113037
			]
		},
		{
			"mesh":1,
			"name":"\u5186\u67f1",
			"skin":0
		},
		{
			"mesh":2,
			"name":"\u5186\u67f1.001",
			"skin":0
		},
		{
			"mesh":3,
			"name":"\u5186\u67f1.002",
			"skin":0
		},
		{
			"mesh":4,
			"name":"\u5186\u67f1.003",
			"skin":0
		},
		{
			"children":[
				6,
				7,
				8,
				9,
				5
			],
			"name":"\u30a2\u30fc\u30de\u30c1\u30e5\u30a2"
		},
		{
			"name":"SP1",
			"rotation":[
				0.1276738941669464,
				-0.2061329036951065,
				0.027137914672493935,
				0.9697794318199158
			],
			"translation":[
				1.7795875072479248,
				1.9318121671676636,
				0.12551277875900269
			]
		},
		{
			"name":"SP2",
			"rotation":[
				0.13052619993686676,
				0,
				0,
				0.9914448857307434
			],
			"translation":[
				1.2008382081985474,
				1.9242936372756958,
				0.09449218958616257
			]
		},
		{
			"name":"SP3",
			"rotation":[
				0.12767387926578522,
				0.20613297820091248,
				-0.02713792212307453,
				0.9697794318199158
			],
			"translation":[
				0.6397908329963684,
				1.9267964363098145,
				0.09449218958616257
			]
		}
	],
	"animations":[
		{
			"channels":[
				{
					"sampler":0,
					"target":{
						"node":5,
						"path":"translation"
					}
				},
				{
					"sampler":1,
					"target":{
						"node":5,
						"path":"rotation"
					}
				},
				{
					"sampler":2,
					"target":{
						"node":5,
						"path":"scale"
					}
				},
				{
					"sampler":3,
					"target":{
						"node":4,
						"path":"translation"
					}
				},
				{
					"sampler":4,
					"target":{
						"node":4,
						"path":"rotation"
					}
				},
				{
					"sampler":5,
					"target":{
						"node":4,
						"path":"scale"
					}
				},
				{
					"sampler":6,
					"target":{
						"node":1,
						"path":"translation"
					}
				},
				{
					"sampler":7,
					"target":{
						"node":1,
						"path":"rotation"
					}
				},
				{
					"sampler":8,
					"target":{
						"node":1,
						"path":"scale"
					}
				},
				{
					"sampler":9,
					"target":{
						"node":2,
						"path":"translation"
					}
				},
				{
					"sampler":10,
					"target":{
						"node":2,
						"path":"rotation"
					}
				},
				{
					"sampler":11,
					"target":{
						"node":2,
						"path":"scale"
					}
				},
				{
					"sampler":12,
					"target":{
						"node":3,
						"path":"translation"
					}
				},
				{
					"sampler":13,
					"target":{
						"node":3,
						"path":"rotation"
					}
				},
				{
					"sampler":14,
					"target":{
						"node":3,
						"path":"scale"
					}
				}
			],
			"name":"Close",
			"samplers":[
				{
					"input":36,
					"interpolation":"STEP",
					"output":37
				},
				{
					"input":36,
					"interpolation":"STEP",
					"output":38
				},
				{
					"input":36,
					"interpolation":"STEP",
					"output":39
				},
				{
					"input":36,
					"interpolation":"STEP",
					"output":40
				},
				{
					"input":36,
					"interpolation":"STEP",
					"output":41
				},
				{
					"input":36,
					"interpolation":"STEP",
					"output":42
				},
				{
					"input":36,
					"interpolation":"STEP",
					"output":43
				},
				{
					"input":44,
					"interpolation":"LINEAR",
					"output":45
				},
				{
					"input":36,
					"interpolation":"LINEAR",
					"output":46
				},
				{
					"input":36,
					"interpolation":"STEP",
					"output":47
				},
				{
					"input":44,
					"interpolation":"LINEAR",
					"output":48
				},
				{
					"input":36,
					"interpolation":"LINEAR",
					"output":49
				},
				{
					"input":36,
					"interpolation":"STEP",
					"output":50
				},
				{
					"input":44,
					"interpolation":"LINEAR",
					"output":51
				},
				{
					"input":36,
					"interpolation":"STEP",
					"output":52
				}
			]
		},
		{
			"channels":[
				{
					"sampler":0,
					"target":{
						"node":5,
						"path":"translation"
					}
				},
				{
					"sampler":1,
					"target":{
						"node":5,
						"path":"rotation"
					}
				},
				{
					"sampler":2,
					"target":{
						"node":5,
						"path":"scale"
					}
				},
				{
					"sampler":3,
					"target":{
						"node":4,
						"path":"translation"
					}
				},
				{
					"sampler":4,
					"target":{
						"node":4,
						"path":"rotation"
					}
				},
				{
					"sampler":5,
					"target":{
						"node":4,
						"path":"scale"
					}
				},
				{
					"sampler":6,
					"target":{
						"node":1,
						"path":"translation"
					}
				},
				{
					"sampler":7,
					"target":{
						"node":1,
						"path":"rotation"
					}
				},
				{
					"sampler":8,
					"target":{
						"node":1,
						"path":"scale"
					}
				},
				{
					"sampler":9,
					"target":{
						"node":2,
						"path":"translation"
					}
				},
				{
					"sampler":10,
					"target":{
						"node":2,
						"path":"rotation"
					}
				},
				{
					"sampler":11,
					"target":{
						"node":2,
						"path":"scale"
					}
				},
				{
					"sampler":12,
					"target":{
						"node":3,
						"path":"translation"
					}
				},
				{
					"sampler":13,
					"target":{
						"node":3,
						"path":"rotation"
					}
				},
				{
					"sampler":14,
					"target":{
						"node":3,
						"path":"scale"
					}
				}
			],
			"name":"None",
			"samplers":[
				{
					"input":53,
					"interpolation":"LINEAR",
					"output":54
				},
				{
					"input":53,
					"interpolation":"LINEAR",
					"output":55
				},
				{
					"input":53,
					"interpolation":"LINEAR",
					"output":56
				},
				{
					"input":53,
					"interpolation":"LINEAR",
					"output":57
				},
				{
					"input":53,
					"interpolation":"LINEAR",
					"output":58
				},
				{
					"input":53,
					"interpolation":"LINEAR",
					"output":59
				},
				{
					"input":53,
					"interpolation":"LINEAR",
					"output":60
				},
				{
					"input":53,
					"interpolation":"LINEAR",
					"output":61
				},
				{
					"input":53,
					"interpolation":"LINEAR",
					"output":62
				},
				{
					"input":53,
					"interpolation":"LINEAR",
					"output":63
				},
				{
					"input":53,
					"interpolation":"LINEAR",
					"output":64
				},
				{
					"input":53,
					"interpolation":"LINEAR",
					"output":65
				},
				{
					"input":53,
					"interpolation":"LINEAR",
					"output":66
				},
				{
					"input":53,
					"interpolation":"LINEAR",
					"output":67
				},
				{
					"input":53,
					"interpolation":"LINEAR",
					"output":68
				}
			]
		},
		{
			"channels":[
				{
					"sampler":0,
					"target":{
						"node":5,
						"path":"translation"
					}
				},
				{
					"sampler":1,
					"target":{
						"node":5,
						"path":"rotation"
					}
				},
				{
					"sampler":2,
					"target":{
						"node":5,
						"path":"scale"
					}
				},
				{
					"sampler":3,
					"target":{
						"node":4,
						"path":"translation"
					}
				},
				{
					"sampler":4,
					"target":{
						"node":4,
						"path":"rotation"
					}
				},
				{
					"sampler":5,
					"target":{
						"node":4,
						"path":"scale"
					}
				},
				{
					"sampler":6,
					"target":{
						"node":1,
						"path":"translation"
					}
				},
				{
					"sampler":7,
					"target":{
						"node":1,
						"path":"rotation"
					}
				},
				{
					"sampler":8,
					"target":{
						"node":1,
						"path":"scale"
					}
				},
				{
					"sampler":9,
					"target":{
						"node":2,
						"path":"translation"
					}
				},
				{
					"sampler":10,
					"target":{
						"node":2,
						"path":"rotation"
					}
				},
				{
					"sampler":11,
					"target":{
						"node":2,
						"path":"scale"
					}
				},
				{
					"sampler":12,
					"target":{
						"node":3,
						"path":"translation"
					}
				},
				{
					"sampler":13,
					"target":{
						"node":3,
						"path":"rotation"
					}
				},
				{
					"sampler":14,
					"target":{
						"node":3,
						"path":"scale"
					}
				}
			],
			"name":"Open",
			"samplers":[
				{
					"input":36,
					"interpolation":"STEP",
					"output":69
				},
				{
					"input":36,
					"interpolation":"STEP",
					"output":70
				},
				{
					"input":36,
					"interpolation":"STEP",
					"output":71
				},
				{
					"input":36,
					"interpolation":"STEP",
					"output":72
				},
				{
					"input":36,
					"interpolation":"STEP",
					"output":73
				},
				{
					"input":36,
					"interpolation":"STEP",
					"output":74
				},
				{
					"input":36,
					"interpolation":"STEP",
					"output":75
				},
				{
					"input":44,
					"interpolation":"LINEAR",
					"output":76
				},
				{
					"input":36,
					"interpolation":"LINEAR",
					"output":77
				},
				{
					"input":36,
					"interpolation":"LINEAR",
					"output":78
				},
				{
					"input":44,
					"interpolation":"LINEAR",
					"output":79
				},
				{
					"input":36,
					"interpolation":"LINEAR",
					"output":80
				},
				{
					"input":36,
					"interpolation":"LINEAR",
					"output":81
				},
				{
					"input":44,
					"interpolation":"LINEAR",
					"output":82
				},
				{
					"input":36,
					"interpolation":"STEP",
					"output":83
				}
			]
		}
	],
	"materials":[
		{
			"doubleSided":true,
			"name":"Material",
			"normalTexture":{
				"index":0
			},
			"pbrMetallicRoughness":{
				"baseColorFactor":[
					0.8015542030334473,
					0.5803020596504211,
					0.37888750433921814,
					1
				],
				"metallicFactor":0,
				"roughnessFactor":0.5
			}
		},
		{
			"doubleSided":true,
			"name":"\u30de\u30c6\u30ea\u30a2\u30eb",
			"pbrMetallicRoughness":{
				"baseColorFactor":[
					0.2782905697822571,
					0.2073563039302826,
					0.15088801085948944,
					1
				],
				"metallicFactor":0,
				"roughnessFactor":0.5
			}
		}
	],
	"meshes":[
		{
			"name":"\u7403",
			"primitives":[
				{
					"attributes":{
						"POSITION":0,
						"NORMAL":1,
						"TEXCOORD_0":2
					},
					"indices":3
				}
			]
		},
		{
			"name":"\u5186\u67f1",
			"primitives":[
				{
					"attributes":{
						"POSITION":4,
						"NORMAL":5,
						"TEXCOORD_0":6,
						"TEXCOORD_1":7,
						"JOINTS_0":8,
						"WEIGHTS_0":9
					},
					"indices":10,
					"material":0
				},
				{
					"attributes":{
						"POSITION":11,
						"NORMAL":12,
						"TEXCOORD_0":13,
						"TEXCOORD_1":14,
						"JOINTS_0":15,
						"WEIGHTS_0":16
					},
					"indices":17,
					"material":1
				}
			]
		},
		{
			"name":"\u5186\u67f1.006",
			"primitives":[
				{
					"attributes":{
						"POSITION":19,
						"NORMAL":20,
						"TEXCOORD_0":21,
						"JOINTS_0":22,
						"WEIGHTS_0":23
					},
					"indices":24,
					"material":1
				}
			]
		},
		{
			"name":"\u5186\u67f1.007",
			"primitives":[
				{
					"attributes":{
						"POSITION":25,
						"NORMAL":26,
						"TEXCOORD_0":27,
						"JOINTS_0":28,
						"WEIGHTS_0":29
					},
					"indices":24,
					"material":1
				}
			]
		},
		{
			"name":"\u5186\u67f1.005",
			"primitives":[
				{
					"attributes":{
						"POSITION":30,
						"NORMAL":31,
						"TEXCOORD_0":32,
						"JOINTS_0":33,
						"WEIGHTS_0":34
					},
					"indices":35,
					"material":1
				}
			]
		}
	],
	"textures":[
		{
			"sampler":0,
			"source":0
		}
	],
	"images":[
		{
			"mimeType":"image/png",
			"name":"Tiles086_1K-PNG_NormalGL",
			"uri":"Tiles086_1K-PNG_NormalGL.png"
		}
	],
	"skins":[
		{
			"inverseBindMatrices":18,
			"joints":[
				5,
				4,
				1,
				2,
				3
			],
			"name":"\u30a2\u30fc\u30de\u30c1\u30e5\u30a2"
		}
	],
	"accessors":[
		{
			"bufferView":0,
			"componentType":5126,
			"count":30,
			"max":[
				0.75,
				0.9999996423721313,
				0.4330127537250519
			],
			"min":[
				-0.7500001192092896,
				-1,
				-0.866025447845459
			],
			"type":"VEC3"
		},
		{
			"bufferView":1,
			"componentType":5126,
			"count":30,
			"type":"VEC3"
		},
		{
			"bufferView":2,
			"componentType":5126,
			"count":30,
			"type":"VEC2"
		},
		{
			"bufferView":3,
			"componentType":5123,
			"count":36,
			"type":"SCALAR"
		},
		{
			"bufferView":4,
			"componentType":5126,
			"count":972,
			"max":[
				2.4532582759857178,
				2.962200164794922,
				2.383822441101074
			],
			"min":[
				-0.022918105125427246,
				1.5330333709716797,
				-0.3927558660507202
			],
			"type":"VEC3"
		},
		{
			"bufferView":5,
			"componentType":5126,
			"count":972,
			"type":"VEC3"
		},
		{
			"bufferView":6,
			"componentType":5126,
			"count":972,
			"type":"VEC2"
		},
		{
			"bufferView":7,
			"componentType":5126,
			"count":972,
			"type":"VEC2"
		},
		{
			"bufferView":8,
			"componentType":5121,
			"count":972,
			"type":"VEC4"
		},
		{
			"bufferView":9,
			"componentType":5126,
			"count":972,
			"type":"VEC4"
		},
		{
			"bufferView":10,
			"componentType":5123,
			"count":1752,
			"type":"SCALAR"
		},
		{
			"bufferView":11,
			"componentType":5126,
			"count":150,
			"max":[
				1.6142008304595947,
				1.5647931098937988,
				1.4084196090698242
			],
			"min":[
				0.026240110397338867,
				-0.20804834365844727,
				-0.2210707664489746
			],
			"type":"VEC3"
		},
		{
			"bufferView":12,
			"componentType":5126,
			"count":150,
			"type":"VEC3"
		},
		{
			"bufferView":13,
			"componentType":5126,
			"count":150,
			"type":"VEC2"
		},
		{
			"bufferView":14,
			"componentType":5126,
			"count":150,
			"type":"VEC2"
		},
		{
			"bufferView":15,
			"componentType":5121,
			"count":150,
			"type":"VEC4"
		},
		{
			"bufferView":16,
			"componentType":5126,
			"count":150,
			"type":"VEC4"
		},
		{
			"bufferView":17,
			"componentType":5123,
			"count":312,
			"type":"SCALAR"
		},
		{
			"bufferView":18,
			"componentType":5126,
			"count":5,
			"type":"MAT4"
		},
		{
			"bufferView":19,
			"componentType":5126,
			"count":80,
			"max":[
				1.4930121898651123,
				2.733642101287842,
				0.10621592402458191
			],
			"min":[
				0.9288283586502075,
				1.5837761163711548,
				-0.260593980550766
			],
			"type":"VEC3"
		},
		{
			"bufferView":20,
			"componentType":5126,
			"count":80,
			"type":"VEC3"
		},
		{
			"bufferView":21,
			"componentType":5126,
			"count":80,
			"type":"VEC2"
		},
		{
			"bufferView":22,
			"componentType":5121,
			"count":80,
			"type":"VEC4"
		},
		{
			"bufferView":23,
			"componentType":5126,
			"count":80,
			"type":"VEC4"
		},
		{
			"bufferView":24,
			"componentType":5123,
			"count":132,
			"type":"SCALAR"
		},
		{
			"bufferView":25,
			"componentType":5126,
			"count":80,
			"max":[
				0.9231866002082825,
				2.733642101287842,
				0.10621592402458191
			],
			"min":[
				0.35900264978408813,
				1.5837759971618652,
				-0.260593980550766
			],
			"type":"VEC3"
		},
		{
			"bufferView":26,
			"componentType":5126,
			"count":80,
			"type":"VEC3"
		},
		{
			"bufferView":27,
			"componentType":5126,
			"count":80,
			"type":"VEC2"
		},
		{
			"bufferView":28,
			"componentType":5121,
			"count":80,
			"type":"VEC4"
		},
		{
			"bufferView":29,
			"componentType":5126,
			"count":80,
			"type":"VEC4"
		},
		{
			"bufferView":30,
			"componentType":5126,
			"count":80,
			"max":[
				2.062838077545166,
				2.733642101287842,
				0.10621592402458191
			],
			"min":[
				1.4986540079116821,
				1.5837761163711548,
				-0.260593980550766
			],
			"type":"VEC3"
		},
		{
			"bufferView":31,
			"componentType":5126,
			"count":80,
			"type":"VEC3"
		},
		{
			"bufferView":32,
			"componentType":5126,
			"count":80,
			"type":"VEC2"
		},
		{
			"bufferView":33,
			"componentType":5121,
			"count":80,
			"type":"VEC4"
		},
		{
			"bufferView":34,
			"componentType":5126,
			"count":80,
			"type":"VEC4"
		},
		{
			"bufferView":35,
			"componentType":5123,
			"count":132,
			"type":"SCALAR"
		},
		{
			"bufferView":36,
			"componentType":5126,
			"count":2,
			"max":[
				0.5
			],
			"min":[
				0
			],
			"type":"SCALAR"
		},
		{
			"bufferView":37,
			"componentType":5126,
			"count":2,
			"type":"VEC3"
		},
		{
			"bufferView":38,
			"componentType":5126,
			"count":2,
			"type":"VEC4"
		},
		{
			"bufferView":39,
			"componentType":5126,
			"count":2,
			"type":"VEC3"
		},
		{
			"bufferView":40,
			"componentType":5126,
			"count":2,
			"type":"VEC3"
		},
		{
			"bufferView":41,
			"componentType":5126,
			"count":2,
			"type":"VEC4"
		},
		{
			"bufferView":42,
			"componentType":5126,
			"count":2,
			"type":"VEC3"
		},
		{
			"bufferView":43,
			"componentType":5126,
			"count":2,
			"type":"VEC3"
		},
		{
			"bufferView":44,
			"componentType":5126,
			"count":13,
			"max":[
				0.5
			],
			"min":[
				0
			],
			"type":"SCALAR"
		},
		{
			"bufferView":45,
			"componentType":5126,
			"count":13,
			"type":"VEC4"
		},
		{
			"bufferView":46,
			"componentType":5126,
			"count":2,
			"type":"VEC3"
		},
		{
			"bufferView":47,
			"componentType":5126,
			"count":2,
			"type":"VEC3"
		},
		{
			"bufferView":48,
			"componentType":5126,
			"count":13,
			"type":"VEC4"
		},
		{
			"bufferView":49,
			"componentType":5126,
			"count":2,
			"type":"VEC3"
		},
		{
			"bufferView":50,
			"componentType":5126,
			"count":2,
			"type":"VEC3"
		},
		{
			"bufferView":51,
			"componentType":5126,
			"count":13,
			"type":"VEC4"
		},
		{
			"bufferView":52,
			"componentType":5126,
			"count":2,
			"type":"VEC3"
		},
		{
			"bufferView":53,
			"componentType":5126,
			"count":1,
			"max":[
				0
			],
			"min":[
				0
			],
			"type":"SCALAR"
		},
		{
			"bufferView":54,
			"componentType":5126,
			"count":1,
			"type":"VEC3"
		},
		{
			"bufferView":55,
			"componentType":5126,
			"count":1,
			"type":"VEC4"
		},
		{
			"bufferView":56,
			"componentType":5126,
			"count":1,
			"type":"VEC3"
		},
		{
			"bufferView":57,
			"componentType":5126,
			"count":1,
			"type":"VEC3"
		},
		{
			"bufferView":58,
			"componentType":5126,
			"count":1,
			"type":"VEC4"
		},
		{
			"bufferView":59,
			"componentType":5126,
			"count":1,
			"type":"VEC3"
		},
		{
			"bufferView":60,
			"componentType":5126,
			"count":1,
			"type":"VEC3"
		},
		{
			"bufferView":61,
			"componentType":5126,
			"count":1,
			"type":"VEC4"
		},
		{
			"bufferView":62,
			"componentType":5126,
			"count":1,
			"type":"VEC3"
		},
		{
			"bufferView":63,
			"componentType":5126,
			"count":1,
			"type":"VEC3"
		},
		{
			"bufferView":64,
			"componentType":5126,
			"count":1,
			"type":"VEC4"
		},
		{
			"bufferView":65,
			"componentType":5126,
			"count":1,
			"type":"VEC3"
		},
		{
			"bufferView":66,
			"componentType":5126,
			"count":1,
			"type":"VEC3"
		},
		{
			"bufferView":67,
			"componentType":5126,
			"count":1,
			"type":"VEC4"
		},
		{
			"bufferView":68,
			"componentType":5126,
			"count":1,
			"type":"VEC3"
		},
		{
			"bufferView":69,
			"componentType":5126,
			"count":2,
			"type":"VEC3"
		},
		{
			"bufferView":70,
			"componentType":5126,
			"count":2,
			"type":"VEC4"
		},
		{
			"bufferView":71,
			"componentType":5126,
			"count":2,
			"type":"VEC3"
		},
		{
			"bufferView":72,
			"componentType":5126,
			"count":2,
			"type":"VEC3"
		},
		{
			"bufferView":73,
			"componentType":5126,
			"count":2,
			"type":"VEC4"
		},
		{
			"bufferView":74,
			"componentType":5126,
			"count":2,
			"type":"VEC3"
		},
		{
			"bufferView":75,
			"componentType":5126,
			"count":2,
			"type":"VEC3"
		},
		{
			"bufferView":76,
			"componentType":5126,
			"count":13,
			"type":"VEC4"
		},
		{
			"bufferView":77,
			"componentType":5126,
			"count":2,
			"type":"VEC3"
		},
		{
			"bufferView":78,
			"componentType":5126,
			"count":2,
			"type":"VEC3"
		},
		{
			"bufferView":79,
			"componentType":5126,
			"count":13,
			"type":"VEC4"
		},
		{
			"bufferView":80,
			"componentType":5126,
			"count":2,
			"type":"VEC3"
		},
		{
			"bufferView":81,
			"componentType":5126,
			"count":2,
			"type":"VEC3"
		},
		{
			"bufferView":82,
			"componentType":5126,
			"count":13,
			"type":"VEC4"
		},
		{
			"bufferView":83,
			"componentType":5126,
			"count":2,
			"type":"VEC3"
		}
	],
	"bufferViews":[
		{
			"buffer":0,
			"byteLength":360,
			"byteOffset":0,
			"target":34962
		},
		{
			"buffer":0,
			"byteLength":360,
			"byteOffset":360,
			"target":34962
		},
		{
			"buffer":0,
			"byteLength":240,
			"byteOffset":720,
			"target":34962
		},
		{
			"buffer":0,
			"byteLength":72,
			"byteOffset":960,
			"target":34963
		},
		{
			"buffer":0,
			"byteLength":11664,
			"byteOffset":1032,
			"target":34962
		},
		{
			"buffer":0,
			"byteLength":11664,
			"byteOffset":12696,
			"target":34962
		},
		{
			"buffer":0,
			"byteLength":7776,
			"byteOffset":24360,
			"target":34962
		},
		{
			"buffer":0,
			"byteLength":7776,
			"byteOffset":32136,
			"target":34962
		},
		{
			"buffer":0,
			"byteLength":3888,
			"byteOffset":39912,
			"target":34962
		},
		{
			"buffer":0,
			"byteLength":15552,
			"byteOffset":43800,
			"target":34962
		},
		{
			"buffer":0,
			"byteLength":3504,
			"byteOffset":59352,
			"target":34963
		},
		{
			"buffer":0,
			"byteLength":1800,
			"byteOffset":62856,
			"target":34962
		},
		{
			"buffer":0,
			"byteLength":1800,
			"byteOffset":64656,
			"target":34962
		},
		{
			"buffer":0,
			"byteLength":1200,
			"byteOffset":66456,
			"target":34962
		},
		{
			"buffer":0,
			"byteLength":1200,
			"byteOffset":67656,
			"target":34962
		},
		{
			"buffer":0,
			"byteLength":600,
			"byteOffset":68856,
			"target":34962
		},
		{
			"buffer":0,
			"byteLength":2400,
			"byteOffset":69456,
			"target":34962
		},
		{
			"buffer":0,
			"byteLength":624,
			"byteOffset":71856,
			"target":34963
		},
		{
			"buffer":0,
			"byteLength":320,
			"byteOffset":72480
		},
		{
			"buffer":0,
			"byteLength":960,
			"byteOffset":72800,
			"target":34962
		},
		{
			"buffer":0,
			"byteLength":960,
			"byteOffset":73760,
			"target":34962
		},
		{
			"buffer":0,
			"byteLength":640,
			"byteOffset":74720,
			"target":34962
		},
		{
			"buffer":0,
			"byteLength":320,
			"byteOffset":75360,
			"target":34962
		},
		{
			"buffer":0,
			"byteLength":1280,
			"byteOffset":75680,
			"target":34962
		},
		{
			"buffer":0,
			"byteLength":264,
			"byteOffset":76960,
			"target":34963
		},
		{
			"buffer":0,
			"byteLength":960,
			"byteOffset":77224,
			"target":34962
		},
		{
			"buffer":0,
			"byteLength":960,
			"byteOffset":78184,
			"target":34962
		},
		{
			"buffer":0,
			"byteLength":640,
			"byteOffset":79144,
			"target":34962
		},
		{
			"buffer":0,
			"byteLength":320,
			"byteOffset":79784,
			"target":34962
		},
		{
			"buffer":0,
			"byteLength":1280,
			"byteOffset":80104,
			"target":34962
		},
		{
			"buffer":0,
			"byteLength":960,
			"byteOffset":81384,
			"target":34962
		},
		{
			"buffer":0,
			"byteLength":960,
			"byteOffset":82344,
			"target":34962
		},
		{
			"buffer":0,
			"byteLength":640,
			"byteOffset":83304,
			"target":34962
		},
		{
			"buffer":0,
			"byteLength":320,
			"byteOffset":83944,
			"target":34962
		},
		{
			"buffer":0,
			"byteLength":1280,
			"byteOffset":84264,
			"target":34962
		},
		{
			"buffer":0,
			"byteLength":264,
			"byteOffset":85544,
			"target":34963
		},
		{
			"buffer":0,
			"byteLength":8,
			"byteOffset":85808
		},
		{
			"buffer":0,
			"byteLength":24,
			"byteOffset":85816
		},
		{
			"buffer":0,
			"byteLength":32,
			"byteOffset":85840
		},
		{
			"buffer":0,
			"byteLength":24,
			"byteOffset":85872
		},
		{
			"buffer":0,
			"byteLength":24,
			"byteOffset":85896
		},
		{
			"buffer":0,
			"byteLength":32,
			"byteOffset":85920
		},
		{
			"buffer":0,
			"byteLength":24,
			"byteOffset":85952
		},
		{
			"buffer":0,
			"byteLength":24,
			"byteOffset":85976
		},
		{
			"buffer":0,
			"byteLength":52,
			"byteOffset":86000
		},
		{
			"buffer":0,
			"byteLength":208,
			"byteOffset":86052
		},
		{
			"buffer":0,
			"byteLength":24,
			"byteOffset":86260
		},
		{
			"buffer":0,
			"byteLength":24,
			"byteOffset":86284
		},
		{
			"buffer":0,
			"byteLength":208,
			"byteOffset":86308
		},
		{
			"buffer":0,
			"byteLength":24,
			"byteOffset":86516
		},
		{
			"buffer":0,
			"byteLength":24,
			"byteOffset":86540
		},
		{
			"buffer":0,
			"byteLength":208,
			"byteOffset":86564
		},
		{
			"buffer":0,
			"byteLength":24,
			"byteOffset":86772
		},
		{
			"buffer":0,
			"byteLength":4,
			"byteOffset":86796
		},
		{
			"buffer":0,
			"byteLength":12,
			"byteOffset":86800
		},
		{
			"buffer":0,
			"byteLength":16,
			"byteOffset":86812
		},
		{
			"buffer":0,
			"byteLength":12,
			"byteOffset":86828
		},
		{
			"buffer":0,
			"byteLength":12,
			"byteOffset":86840
		},
		{
			"buffer":0,
			"byteLength":16,
			"byteOffset":86852
		},
		{
			"buffer":0,
			"byteLength":12,
			"byteOffset":86868
		},
		{
			"buffer":0,
			"byteLength":12,
			"byteOffset":86880
		},
		{
			"buffer":0,
			"byteLength":16,
			"byteOffset":86892
		},
		{
			"buffer":0,
			"byteLength":12,
			"byteOffset":86908
		},
		{
			"buffer":0,
			"byteLength":12,
			"byteOffset":86920
		},
		{
			"buffer":0,
			"byteLength":16,
			"byteOffset":86932
		},
		{
			"buffer":0,
			"byteLength":12,
			"byteOffset":86948
		},
		{
			"buffer":0,
			"byteLength":12,
			"byteOffset":86960
		},
		{
			"buffer":0,
			"byteLength":16,
			"byteOffset":86972
		},
		{
			"buffer":0,
			"byteLength":12,
			"byteOffset":86988
		},
		{
			"buffer":0,
			"byteLength":24,
			"byteOffset":87000
		},
		{
			"buffer":0,
			"byteLength":32,
			"byteOffset":87024
		},
		{
			"buffer":0,
			"byteLength":24,
			"byteOffset":87056
		},
		{
			"buffer":0,
			"byteLength":24,
			"byteOffset":87080
		},
		{
			"buffer":0,
			"byteLength":32,
			"byteOffset":87104
		},
		{
			"buffer":0,
			"byteLength":24,
			"byteOffset":87136
		},
		{
			"buffer":0,
			"byteLength":24,
			"byteOffset":87160
		},
		{
			"buffer":0,
			"byteLength":208,
			"byteOffset":87184
		},
		{
			"buffer":0,
			"byteLength":24,
			"byteOffset":87392
		},
		{
			"buffer":0,
			"byteLength":24,
			"byteOffset":87416
		},
		{
			"buffer":0,
			"byteLength":208,
			"byteOffset":87440
		},
		{
			"buffer":0,
			"byteLength":24,
			"byteOffset":87648
		},
		{
			"buffer":0,
			"byteLength":24,
			"byteOffset":87672
		},
		{
			"buffer":0,
			"byteLength":208,
			"byteOffset":87696
		},
		{
			"buffer":0,
			"byteLength":24,
			"byteOffset":87904
		}
	],
	"samplers":[
		{
			"magFilter":9729,
			"minFilter":9987
		}
	],
	"buffers":[
		{
			"byteLength":87928,
			"uri":"3LineMissile.bin"
		}
	]
}
