{
	"asset":{
		"generator":"Khronos glTF Blender I/O v4.4.56",
		"version":"2.0"
	},
	"scene":0,
	"scenes":[
		{
			"name":"Scene",
			"nodes":[
				0,
				1
			]
		}
	],
	"nodes":[
		{
			"name":"SP",
			"translation":[
				1.7331997156143188,
				-0.08997821807861328,
				0
			]
		},
		{
			"mesh":0,
			"name":"mp5",
			"scale":[
				8,
				8,
				8
			]
		}
	],
	"materials":[
		{
			"doubleSided":true,
			"name":"metal_dark",
			"pbrMetallicRoughness":{
				"baseColorFactor":[
					0.11999999731779099,
					0.14412850141525269,
					0.16202940046787262,
					1
				],
				"metallicFactor":0,
				"roughnessFactor":0.5
			}
		},
		{
			"doubleSided":true,
			"name":"metal_light",
			"pbrMetallicRoughness":{
				"baseColorFactor":[
					0.503000020980835,
					0.6239604353904724,
					0.6724432706832886,
					1
				],
				"metallicFactor":0,
				"roughnessFactor":0.5
			}
		},
		{
			"doubleSided":true,
			"name":"metal",
			"pbrMetallicRoughness":{
				"baseColorFactor":[
					0.22322800755500793,
					0.2746773064136505,
					0.30054378509521484,
					1
				],
				"metallicFactor":0,
				"roughnessFactor":0.5
			}
		}
	],
	"meshes":[
		{
			"name":"Cube.001",
			"primitives":[
				{
					"attributes":{
						"POSITION":0,
						"NORMAL":1
					},
					"indices":2,
					"material":0
				},
				{
					"attributes":{
						"POSITION":3,
						"NORMAL":4
					},
					"indices":5,
					"material":1
				},
				{
					"attributes":{
						"POSITION":6,
						"NORMAL":7
					},
					"indices":8,
					"material":2
				}
			]
		}
	],
	"accessors":[
		{
			"bufferView":0,
			"componentType":5126,
			"count":324,
			"max":[
				0.23408426344394684,
				0.17562627792358398,
				0.02127133309841156
			],
			"min":[
				-0.36229953169822693,
				-0.045740216970443726,
				-0.02100071683526039
			],
			"type":"VEC3"
		},
		{
			"bufferView":1,
			"componentType":5126,
			"count":324,
			"type":"VEC3"
		},
		{
			"bufferView":2,
			"componentType":5123,
			"count":528,
			"type":"SCALAR"
		},
		{
			"bufferView":3,
			"componentType":5126,
			"count":88,
			"max":[
				0.23408426344394684,
				0.0429980605840683,
				0.018559614196419716
			],
			"min":[
				-0.18973658978939056,
				-0.03036881983280182,
				-0.0196834709495306
			],
			"type":"VEC3"
		},
		{
			"bufferView":4,
			"componentType":5126,
			"count":88,
			"type":"VEC3"
		},
		{
			"bufferView":5,
			"componentType":5123,
			"count":168,
			"type":"SCALAR"
		},
		{
			"bufferView":6,
			"componentType":5126,
			"count":264,
			"max":[
				0.1485375612974167,
				0.00853477418422699,
				0.02532164566218853
			],
			"min":[
				-0.24261191487312317,
				-0.1343008279800415,
				-0.025051100179553032
			],
			"type":"VEC3"
		},
		{
			"bufferView":7,
			"componentType":5126,
			"count":264,
			"type":"VEC3"
		},
		{
			"bufferView":8,
			"componentType":5123,
			"count":474,
			"type":"SCALAR"
		}
	],
	"bufferViews":[
		{
			"buffer":0,
			"byteLength":3888,
			"byteOffset":0,
			"target":34962
		},
		{
			"buffer":0,
			"byteLength":3888,
			"byteOffset":3888,
			"target":34962
		},
		{
			"buffer":0,
			"byteLength":1056,
			"byteOffset":7776,
			"target":34963
		},
		{
			"buffer":0,
			"byteLength":1056,
			"byteOffset":8832,
			"target":34962
		},
		{
			"buffer":0,
			"byteLength":1056,
			"byteOffset":9888,
			"target":34962
		},
		{
			"buffer":0,
			"byteLength":336,
			"byteOffset":10944,
			"target":34963
		},
		{
			"buffer":0,
			"byteLength":3168,
			"byteOffset":11280,
			"target":34962
		},
		{
			"buffer":0,
			"byteLength":3168,
			"byteOffset":14448,
			"target":34962
		},
		{
			"buffer":0,
			"byteLength":948,
			"byteOffset":17616,
			"target":34963
		}
	],
	"buffers":[
		{
			"byteLength":18564,
			"uri":"MP5.bin"
		}
	]
}
