{
	"asset":{
		"generator":"Khronos glTF Blender I/O v4.4.56",
		"version":"2.0"
	},
	"scene":0,
	"scenes":[
		{
			"name":"Scene",
			"nodes":[
				50
			]
		}
	],
	"nodes":[
		{
			"name":"SPB2.R",
			"rotation":[
				-0.8232364058494568,
				0.03645292669534683,
				0.09609507024288177,
				0.5583177208900452
			],
			"scale":[
				1.0000001192092896,
				1.0000001192092896,
				1.000000238418579
			],
			"translation":[
				5.364418029785156e-07,
				0.9286585450172424,
				2.384185791015625e-07
			]
		},
		{
			"name":"SP3",
			"rotation":[
				0.5591894388198853,
				0.023656735196709633,
				0.027111006900668144,
				0.828258752822876
			],
			"scale":[
				1,
				0.9999999403953552,
				1
			],
			"translation":[
				-0.05718567967414856,
				0.8008701205253601,
				-0.3117770552635193
			]
		},
		{
			"children":[
				0,
				1
			],
			"name":"SP2.R",
			"rotation":[
				0.1167774647474289,
				0.6274285912513733,
				-0.1505734920501709,
				0.7549993395805359
			],
			"scale":[
				1,
				1.0000001192092896,
				1.0000001192092896
			],
			"translation":[
				3.6450626850128174,
				0.14665436744689941,
				0.9271068572998047
			]
		},
		{
			"name":"SPB3.R",
			"rotation":[
				-0.3864808976650238,
				6.760058113286505e-08,
				0.6612884402275085,
				0.6429075598716736
			],
			"translation":[
				1.7881393432617188e-07,
				1.3619452714920044,
				-1.1920928955078125e-06
			]
		},
		{
			"name":"SP5",
			"rotation":[
				0.6734915375709534,
				0.05219903588294983,
				0.05439405515789986,
				0.7353405356407166
			],
			"scale":[
				1.0000004768371582,
				1.0000001192092896,
				1.000000238418579
			],
			"translation":[
				-0.2913212180137634,
				1.3056871891021729,
				-0.17019614577293396
			]
		},
		{
			"children":[
				3,
				4
			],
			"name":"SP3.R",
			"rotation":[
				0.014044324867427349,
				0.2596158981323242,
				-0.08632631599903107,
				0.9617432951927185
			],
			"translation":[
				3.7857422828674316,
				-0.3411085605621338,
				1.850118637084961
			]
		},
		{
			"name":"SPB1.R",
			"rotation":[
				-0.45976635813713074,
				-0.036487311124801636,
				0.6227768063545227,
				0.632006824016571
			],
			"scale":[
				1.0000001192092896,
				1,
				1.0000001192092896
			],
			"translation":[
				4.470348358154297e-07,
				1.2768908739089966,
				5.364418029785156e-07
			]
		},
		{
			"name":"SP1",
			"rotation":[
				0.6650981903076172,
				0.04693593084812164,
				0.047972410917282104,
				0.743733823299408
			],
			"scale":[
				1.000000238418579,
				1.000000238418579,
				1.000000238418579
			],
			"translation":[
				-0.2568831145763397,
				1.2060985565185547,
				-0.21361187100410461
			]
		},
		{
			"children":[
				6,
				7
			],
			"name":"SP1.R",
			"rotation":[
				0.029883364215493202,
				0.33779385685920715,
				-0.09524580836296082,
				0.9359115958213806
			],
			"translation":[
				3.732959508895874,
				-0.25144314765930176,
				0.010739326477050781
			]
		},
		{
			"name":"SPB4.R",
			"rotation":[
				0.6086581945419312,
				-4.8963972432147784e-08,
				0.4913926422595978,
				0.6229514479637146
			],
			"scale":[
				0.9999999403953552,
				1,
				1.0000001192092896
			],
			"translation":[
				0,
				1.6556864976882935,
				5.960464477539063e-08
			]
		},
		{
			"name":"SP7",
			"rotation":[
				0.7580216526985168,
				0.04131536930799484,
				0.04525971785187721,
				0.6493441462516785
			],
			"scale":[
				0.9999998807907104,
				0.9999999403953552,
				0.9999997615814209
			],
			"translation":[
				-0.20856353640556335,
				1.5811595916748047,
				0.2584131956100464
			]
		},
		{
			"children":[
				9,
				10
			],
			"name":"SP4.R",
			"rotation":[
				-0.0616191141307354,
				-0.4298684298992157,
				-0.09539058804512024,
				0.895721435546875
			],
			"translation":[
				1.5469199419021606,
				-0.6129820346832275,
				0.0469822883605957
			]
		},
		{
			"name":"SPB5.R",
			"rotation":[
				-0.07917680591344833,
				-5.516013601436498e-08,
				0.8104309439659119,
				0.5804590582847595
			],
			"scale":[
				0.9999999403953552,
				0.9999999403953552,
				0.9999999403953552
			],
			"translation":[
				-8.568167686462402e-08,
				0.8368721008300781,
				-6.258487701416016e-07
			]
		},
		{
			"name":"SP9",
			"rotation":[
				0.6862214803695679,
				0.11482634395360947,
				0.11064238846302032,
				0.7096994519233704
			],
			"scale":[
				0.9999998211860657,
				0.9999997019767761,
				0.9999997019767761
			],
			"translation":[
				-0.3223501145839691,
				0.723328709602356,
				-0.031461313366889954
			]
		},
		{
			"children":[
				12,
				13
			],
			"name":"SP5.R",
			"rotation":[
				0.017662853002548218,
				0.04961460083723068,
				-0.1646706461906433,
				0.9849416017532349
			],
			"translation":[
				1.6325205564498901,
				0.22213196754455566,
				0.8917694091796875
			]
		},
		{
			"name":"SPB2.L",
			"rotation":[
				-0.834918200969696,
				-0.03785017505288124,
				-0.09517835825681686,
				0.5407587885856628
			],
			"scale":[
				1.0000001192092896,
				1,
				0.9999999403953552
			],
			"translation":[
				-3.5762786865234375e-07,
				0.945322573184967,
				-6.556510925292969e-07
			]
		},
		{
			"name":"SP4",
			"rotation":[
				0.5498532652854919,
				-0.025944912806153297,
				-0.027586625888943672,
				0.834402322769165
			],
			"scale":[
				0.9999998211860657,
				1,
				1
			],
			"translation":[
				0.05813342332839966,
				0.9930219054222107,
				-0.3075556755065918
			]
		},
		{
			"children":[
				15,
				16
			],
			"name":"SP2.L",
			"rotation":[
				0.1325015276670456,
				-0.6245021224021912,
				0.16409409046173096,
				0.7520064115524292
			],
			"scale":[
				1,
				1.0000001192092896,
				1.0000001192092896
			],
			"translation":[
				-4.070277214050293,
				0.14665436744689941,
				0.9207525253295898
			]
		},
		{
			"name":"SPB3.L",
			"rotation":[
				-0.3864808976650238,
				-1.0140087169929757e-07,
				-0.6612884402275085,
				0.6429075598716736
			],
			"scale":[
				0.9999998807907104,
				1,
				1
			],
			"translation":[
				-3.650784492492676e-07,
				1.3619451522827148,
				-1.0728836059570312e-06
			]
		},
		{
			"name":"SP6",
			"rotation":[
				0.6765691041946411,
				-0.047746893018484116,
				-0.049754828214645386,
				0.7331432104110718
			],
			"scale":[
				1.0000003576278687,
				1.0000001192092896,
				1.0000003576278687
			],
			"translation":[
				0.2516159415245056,
				1.4841043949127197,
				-0.14348304271697998
			]
		},
		{
			"children":[
				18,
				19
			],
			"name":"SP3.L",
			"rotation":[
				0.014044324867427349,
				-0.2596158981323242,
				0.08632631599903107,
				0.9617432951927185
			],
			"translation":[
				-4.210956573486328,
				-0.3411085605621338,
				1.850118637084961
			]
		},
		{
			"name":"SPB1.L",
			"rotation":[
				-0.4546695649623871,
				0.04417559877038002,
				-0.6264784932136536,
				0.631544828414917
			],
			"scale":[
				1,
				0.9999999403953552,
				0.9999998807907104
			],
			"translation":[
				-4.470348358154297e-08,
				1.277357578277588,
				-7.450580596923828e-07
			]
		},
		{
			"name":"SP2",
			"rotation":[
				0.6689049005508423,
				-0.0417952723801136,
				-0.04498665779829025,
				0.7408074140548706
			],
			"scale":[
				0.9999998807907104,
				0.9999998807907104,
				0.9999997019767761
			],
			"translation":[
				0.2261379510164261,
				1.3866188526153564,
				-0.18334922194480896
			]
		},
		{
			"children":[
				21,
				22
			],
			"name":"SP1.L",
			"rotation":[
				0.02056679129600525,
				-0.3386964499950409,
				0.09859415143728256,
				0.9354896545410156
			],
			"translation":[
				-4.15817403793335,
				-0.25144314765930176,
				0.036158084869384766
			]
		},
		{
			"name":"SPB4.L",
			"rotation":[
				0.6086580753326416,
				7.344596753000587e-08,
				-0.4913927912712097,
				0.6229514479637146
			],
			"scale":[
				1.0000001192092896,
				1.0000001192092896,
				1.0000001192092896
			],
			"translation":[
				-2.9802322387695312e-08,
				1.6556864976882935,
				3.5762786865234375e-07
			]
		},
		{
			"name":"SP8",
			"rotation":[
				0.7641910314559937,
				-0.04673618823289871,
				-0.05119830369949341,
				0.6412539482116699
			],
			"scale":[
				0.9999999403953552,
				0.9999999403953552,
				0.9999997615814209
			],
			"translation":[
				0.12597209215164185,
				1.4428834915161133,
				0.14843744039535522
			]
		},
		{
			"children":[
				24,
				25
			],
			"name":"SP4.L",
			"rotation":[
				-0.061619121581315994,
				0.42986834049224854,
				0.09539063274860382,
				0.895721435546875
			],
			"scale":[
				0.9999999403953552,
				1.0000001192092896,
				1
			],
			"translation":[
				-1.9721344709396362,
				-0.6129820346832275,
				0.0469822883605957
			]
		},
		{
			"name":"SPB5.L",
			"rotation":[
				-0.07894967496395111,
				8.297827491787757e-08,
				-0.8081058263778687,
				0.5837225317955017
			],
			"scale":[
				1.0000001192092896,
				1,
				1
			],
			"translation":[
				2.9802322387695312e-08,
				0.8345881700515747,
				3.2782554626464844e-07
			]
		},
		{
			"name":"SP10",
			"rotation":[
				0.6844441294670105,
				-0.12154719978570938,
				-0.11710651963949203,
				0.7092592120170593
			],
			"scale":[
				1,
				1.0000001192092896,
				1.0000001192092896
			],
			"translation":[
				0.17297908663749695,
				0.6000213623046875,
				-0.013621896505355835
			]
		},
		{
			"children":[
				27,
				28
			],
			"name":"SP5.L",
			"rotation":[
				0.017476530745625496,
				-0.04960796982049942,
				0.16071557998657227,
				0.9855983257293701
			],
			"translation":[
				-2.057734966278076,
				0.22213196754455566,
				0.8917694091796875
			]
		},
		{
			"name":"SPB6.R",
			"rotation":[
				-0.4678051173686981,
				-0.06370168924331665,
				0.5820849537849426,
				0.6620253920555115
			],
			"scale":[
				0.9999999403953552,
				0.9999999403953552,
				1
			],
			"translation":[
				-1.4901161193847656e-07,
				1.6160902976989746,
				8.940696716308594e-08
			]
		},
		{
			"name":"SP11",
			"rotation":[
				0.6862172484397888,
				0.021066440269351006,
				0.020444190129637718,
				0.7268040776252747
			],
			"scale":[
				1.0000001192092896,
				1,
				1.000000238418579
			],
			"translation":[
				-0.2430366575717926,
				1.5766761302947998,
				-0.23703545331954956
			]
		},
		{
			"children":[
				30,
				31
			],
			"name":"SP6.R",
			"rotation":[
				0.02675841748714447,
				0.3765577971935272,
				-0.05147058516740799,
				0.9245750308036804
			],
			"scale":[
				0.9999999403953552,
				1.0000001192092896,
				0.9999999403953552
			],
			"translation":[
				1.649160385131836,
				-0.605212926864624,
				1.7798290252685547
			]
		},
		{
			"name":"SPB6.L",
			"rotation":[
				-0.4647422432899475,
				0.0680840015411377,
				-0.5845361351966858,
				0.661586582660675
			],
			"scale":[
				1.0000001192092896,
				1,
				1.0000001192092896
			],
			"translation":[
				-3.8743019104003906e-07,
				1.6159979104995728,
				-2.682209014892578e-07
			]
		},
		{
			"name":"SP12",
			"rotation":[
				0.675641655921936,
				-0.030788542702794075,
				-0.030881600454449654,
				0.7359393835067749
			],
			"scale":[
				0.9999998211860657,
				0.9999999403953552,
				0.9999998211860657
			],
			"translation":[
				0.1530749499797821,
				1.4129880666732788,
				-0.14997598528862
			]
		},
		{
			"children":[
				33,
				34
			],
			"name":"SP6.L",
			"rotation":[
				0.021305909380316734,
				-0.3768782317638397,
				0.053694114089012146,
				0.9244597554206848
			],
			"scale":[
				1,
				0.9999999403953552,
				1
			],
			"translation":[
				-2.0743749141693115,
				-0.605212926864624,
				1.7988929748535156
			]
		},
		{
			"children":[
				2,
				5,
				8,
				11,
				14,
				17,
				20,
				23,
				26,
				29,
				32,
				35
			],
			"name":"\u30dc\u30fc\u30f3",
			"translation":[
				0,
				2.7993290424346924,
				4.287580490112305
			]
		},
		{
			"mesh":0,
			"name":"\u5186\u67f1.001",
			"skin":0
		},
		{
			"mesh":1,
			"name":"\u5186\u67f1.002",
			"skin":0
		},
		{
			"mesh":2,
			"name":"\u5186\u67f1.003",
			"skin":0
		},
		{
			"mesh":3,
			"name":"\u5186\u67f1.004",
			"skin":0
		},
		{
			"mesh":4,
			"name":"\u5186\u67f1.005",
			"skin":0
		},
		{
			"mesh":5,
			"name":"\u5186\u67f1.006",
			"skin":0
		},
		{
			"mesh":6,
			"name":"\u5186\u67f1.007",
			"skin":0
		},
		{
			"mesh":7,
			"name":"\u5186\u67f1.008",
			"skin":0
		},
		{
			"mesh":8,
			"name":"\u5186\u67f1.009",
			"skin":0
		},
		{
			"mesh":9,
			"name":"\u5186\u67f1.010",
			"skin":0
		},
		{
			"mesh":10,
			"name":"\u5186\u67f1.011",
			"skin":0
		},
		{
			"mesh":11,
			"name":"\u5186\u67f1.012",
			"skin":0
		},
		{
			"mesh":12,
			"name":"\u7acb\u65b9\u4f53",
			"skin":0
		},
		{
			"children":[
				37,
				38,
				39,
				40,
				41,
				42,
				43,
				44,
				45,
				46,
				47,
				48,
				49,
				36
			],
			"name":"\u30a2\u30fc\u30de\u30c1\u30e5\u30a2"
		}
	],
	"animations":[
		{
			"channels":[
				{
					"sampler":0,
					"target":{
						"node":36,
						"path":"translation"
					}
				},
				{
					"sampler":1,
					"target":{
						"node":36,
						"path":"rotation"
					}
				},
				{
					"sampler":2,
					"target":{
						"node":36,
						"path":"scale"
					}
				},
				{
					"sampler":3,
					"target":{
						"node":2,
						"path":"translation"
					}
				},
				{
					"sampler":4,
					"target":{
						"node":2,
						"path":"rotation"
					}
				},
				{
					"sampler":5,
					"target":{
						"node":2,
						"path":"scale"
					}
				},
				{
					"sampler":6,
					"target":{
						"node":0,
						"path":"translation"
					}
				},
				{
					"sampler":7,
					"target":{
						"node":0,
						"path":"rotation"
					}
				},
				{
					"sampler":8,
					"target":{
						"node":0,
						"path":"scale"
					}
				},
				{
					"sampler":9,
					"target":{
						"node":5,
						"path":"translation"
					}
				},
				{
					"sampler":10,
					"target":{
						"node":5,
						"path":"rotation"
					}
				},
				{
					"sampler":11,
					"target":{
						"node":5,
						"path":"scale"
					}
				},
				{
					"sampler":12,
					"target":{
						"node":3,
						"path":"translation"
					}
				},
				{
					"sampler":13,
					"target":{
						"node":3,
						"path":"rotation"
					}
				},
				{
					"sampler":14,
					"target":{
						"node":3,
						"path":"scale"
					}
				},
				{
					"sampler":15,
					"target":{
						"node":8,
						"path":"translation"
					}
				},
				{
					"sampler":16,
					"target":{
						"node":8,
						"path":"rotation"
					}
				},
				{
					"sampler":17,
					"target":{
						"node":8,
						"path":"scale"
					}
				},
				{
					"sampler":18,
					"target":{
						"node":6,
						"path":"translation"
					}
				},
				{
					"sampler":19,
					"target":{
						"node":6,
						"path":"rotation"
					}
				},
				{
					"sampler":20,
					"target":{
						"node":6,
						"path":"scale"
					}
				},
				{
					"sampler":21,
					"target":{
						"node":11,
						"path":"translation"
					}
				},
				{
					"sampler":22,
					"target":{
						"node":11,
						"path":"rotation"
					}
				},
				{
					"sampler":23,
					"target":{
						"node":11,
						"path":"scale"
					}
				},
				{
					"sampler":24,
					"target":{
						"node":9,
						"path":"translation"
					}
				},
				{
					"sampler":25,
					"target":{
						"node":9,
						"path":"rotation"
					}
				},
				{
					"sampler":26,
					"target":{
						"node":9,
						"path":"scale"
					}
				},
				{
					"sampler":27,
					"target":{
						"node":14,
						"path":"translation"
					}
				},
				{
					"sampler":28,
					"target":{
						"node":14,
						"path":"rotation"
					}
				},
				{
					"sampler":29,
					"target":{
						"node":14,
						"path":"scale"
					}
				},
				{
					"sampler":30,
					"target":{
						"node":12,
						"path":"translation"
					}
				},
				{
					"sampler":31,
					"target":{
						"node":12,
						"path":"rotation"
					}
				},
				{
					"sampler":32,
					"target":{
						"node":12,
						"path":"scale"
					}
				},
				{
					"sampler":33,
					"target":{
						"node":17,
						"path":"translation"
					}
				},
				{
					"sampler":34,
					"target":{
						"node":17,
						"path":"rotation"
					}
				},
				{
					"sampler":35,
					"target":{
						"node":17,
						"path":"scale"
					}
				},
				{
					"sampler":36,
					"target":{
						"node":15,
						"path":"translation"
					}
				},
				{
					"sampler":37,
					"target":{
						"node":15,
						"path":"rotation"
					}
				},
				{
					"sampler":38,
					"target":{
						"node":15,
						"path":"scale"
					}
				},
				{
					"sampler":39,
					"target":{
						"node":20,
						"path":"translation"
					}
				},
				{
					"sampler":40,
					"target":{
						"node":20,
						"path":"rotation"
					}
				},
				{
					"sampler":41,
					"target":{
						"node":20,
						"path":"scale"
					}
				},
				{
					"sampler":42,
					"target":{
						"node":18,
						"path":"translation"
					}
				},
				{
					"sampler":43,
					"target":{
						"node":18,
						"path":"rotation"
					}
				},
				{
					"sampler":44,
					"target":{
						"node":18,
						"path":"scale"
					}
				},
				{
					"sampler":45,
					"target":{
						"node":23,
						"path":"translation"
					}
				},
				{
					"sampler":46,
					"target":{
						"node":23,
						"path":"rotation"
					}
				},
				{
					"sampler":47,
					"target":{
						"node":23,
						"path":"scale"
					}
				},
				{
					"sampler":48,
					"target":{
						"node":21,
						"path":"translation"
					}
				},
				{
					"sampler":49,
					"target":{
						"node":21,
						"path":"rotation"
					}
				},
				{
					"sampler":50,
					"target":{
						"node":21,
						"path":"scale"
					}
				},
				{
					"sampler":51,
					"target":{
						"node":26,
						"path":"translation"
					}
				},
				{
					"sampler":52,
					"target":{
						"node":26,
						"path":"rotation"
					}
				},
				{
					"sampler":53,
					"target":{
						"node":26,
						"path":"scale"
					}
				},
				{
					"sampler":54,
					"target":{
						"node":24,
						"path":"translation"
					}
				},
				{
					"sampler":55,
					"target":{
						"node":24,
						"path":"rotation"
					}
				},
				{
					"sampler":56,
					"target":{
						"node":24,
						"path":"scale"
					}
				},
				{
					"sampler":57,
					"target":{
						"node":29,
						"path":"translation"
					}
				},
				{
					"sampler":58,
					"target":{
						"node":29,
						"path":"rotation"
					}
				},
				{
					"sampler":59,
					"target":{
						"node":29,
						"path":"scale"
					}
				},
				{
					"sampler":60,
					"target":{
						"node":27,
						"path":"translation"
					}
				},
				{
					"sampler":61,
					"target":{
						"node":27,
						"path":"rotation"
					}
				},
				{
					"sampler":62,
					"target":{
						"node":27,
						"path":"scale"
					}
				},
				{
					"sampler":63,
					"target":{
						"node":32,
						"path":"translation"
					}
				},
				{
					"sampler":64,
					"target":{
						"node":32,
						"path":"rotation"
					}
				},
				{
					"sampler":65,
					"target":{
						"node":32,
						"path":"scale"
					}
				},
				{
					"sampler":66,
					"target":{
						"node":30,
						"path":"translation"
					}
				},
				{
					"sampler":67,
					"target":{
						"node":30,
						"path":"rotation"
					}
				},
				{
					"sampler":68,
					"target":{
						"node":30,
						"path":"scale"
					}
				},
				{
					"sampler":69,
					"target":{
						"node":35,
						"path":"translation"
					}
				},
				{
					"sampler":70,
					"target":{
						"node":35,
						"path":"rotation"
					}
				},
				{
					"sampler":71,
					"target":{
						"node":35,
						"path":"scale"
					}
				},
				{
					"sampler":72,
					"target":{
						"node":33,
						"path":"translation"
					}
				},
				{
					"sampler":73,
					"target":{
						"node":33,
						"path":"rotation"
					}
				},
				{
					"sampler":74,
					"target":{
						"node":33,
						"path":"scale"
					}
				}
			],
			"name":"Close",
			"samplers":[
				{
					"input":70,
					"interpolation":"STEP",
					"output":71
				},
				{
					"input":70,
					"interpolation":"STEP",
					"output":72
				},
				{
					"input":70,
					"interpolation":"STEP",
					"output":73
				},
				{
					"input":70,
					"interpolation":"STEP",
					"output":74
				},
				{
					"input":70,
					"interpolation":"STEP",
					"output":75
				},
				{
					"input":70,
					"interpolation":"STEP",
					"output":76
				},
				{
					"input":70,
					"interpolation":"STEP",
					"output":77
				},
				{
					"input":78,
					"interpolation":"LINEAR",
					"output":79
				},
				{
					"input":70,
					"interpolation":"LINEAR",
					"output":80
				},
				{
					"input":70,
					"interpolation":"STEP",
					"output":81
				},
				{
					"input":70,
					"interpolation":"STEP",
					"output":82
				},
				{
					"input":70,
					"interpolation":"STEP",
					"output":83
				},
				{
					"input":70,
					"interpolation":"STEP",
					"output":84
				},
				{
					"input":78,
					"interpolation":"LINEAR",
					"output":85
				},
				{
					"input":70,
					"interpolation":"LINEAR",
					"output":86
				},
				{
					"input":70,
					"interpolation":"STEP",
					"output":87
				},
				{
					"input":70,
					"interpolation":"STEP",
					"output":88
				},
				{
					"input":70,
					"interpolation":"STEP",
					"output":89
				},
				{
					"input":70,
					"interpolation":"STEP",
					"output":90
				},
				{
					"input":78,
					"interpolation":"LINEAR",
					"output":91
				},
				{
					"input":70,
					"interpolation":"LINEAR",
					"output":92
				},
				{
					"input":70,
					"interpolation":"STEP",
					"output":93
				},
				{
					"input":70,
					"interpolation":"STEP",
					"output":94
				},
				{
					"input":70,
					"interpolation":"STEP",
					"output":95
				},
				{
					"input":70,
					"interpolation":"STEP",
					"output":96
				},
				{
					"input":78,
					"interpolation":"LINEAR",
					"output":97
				},
				{
					"input":70,
					"interpolation":"STEP",
					"output":98
				},
				{
					"input":70,
					"interpolation":"STEP",
					"output":99
				},
				{
					"input":70,
					"interpolation":"STEP",
					"output":100
				},
				{
					"input":70,
					"interpolation":"STEP",
					"output":101
				},
				{
					"input":70,
					"interpolation":"STEP",
					"output":102
				},
				{
					"input":78,
					"interpolation":"LINEAR",
					"output":103
				},
				{
					"input":70,
					"interpolation":"STEP",
					"output":104
				},
				{
					"input":70,
					"interpolation":"STEP",
					"output":105
				},
				{
					"input":70,
					"interpolation":"STEP",
					"output":106
				},
				{
					"input":70,
					"interpolation":"STEP",
					"output":107
				},
				{
					"input":70,
					"interpolation":"STEP",
					"output":108
				},
				{
					"input":78,
					"interpolation":"LINEAR",
					"output":109
				},
				{
					"input":70,
					"interpolation":"LINEAR",
					"output":110
				},
				{
					"input":70,
					"interpolation":"STEP",
					"output":111
				},
				{
					"input":70,
					"interpolation":"STEP",
					"output":112
				},
				{
					"input":70,
					"interpolation":"STEP",
					"output":113
				},
				{
					"input":70,
					"interpolation":"STEP",
					"output":114
				},
				{
					"input":78,
					"interpolation":"LINEAR",
					"output":115
				},
				{
					"input":70,
					"interpolation":"LINEAR",
					"output":116
				},
				{
					"input":70,
					"interpolation":"STEP",
					"output":117
				},
				{
					"input":70,
					"interpolation":"STEP",
					"output":118
				},
				{
					"input":70,
					"interpolation":"STEP",
					"output":119
				},
				{
					"input":70,
					"interpolation":"STEP",
					"output":120
				},
				{
					"input":78,
					"interpolation":"LINEAR",
					"output":121
				},
				{
					"input":70,
					"interpolation":"LINEAR",
					"output":122
				},
				{
					"input":70,
					"interpolation":"STEP",
					"output":123
				},
				{
					"input":70,
					"interpolation":"STEP",
					"output":124
				},
				{
					"input":70,
					"interpolation":"STEP",
					"output":125
				},
				{
					"input":70,
					"interpolation":"STEP",
					"output":126
				},
				{
					"input":78,
					"interpolation":"LINEAR",
					"output":127
				},
				{
					"input":70,
					"interpolation":"LINEAR",
					"output":128
				},
				{
					"input":70,
					"interpolation":"STEP",
					"output":129
				},
				{
					"input":70,
					"interpolation":"STEP",
					"output":130
				},
				{
					"input":70,
					"interpolation":"STEP",
					"output":131
				},
				{
					"input":70,
					"interpolation":"STEP",
					"output":132
				},
				{
					"input":78,
					"interpolation":"LINEAR",
					"output":133
				},
				{
					"input":70,
					"interpolation":"LINEAR",
					"output":134
				},
				{
					"input":70,
					"interpolation":"STEP",
					"output":135
				},
				{
					"input":70,
					"interpolation":"STEP",
					"output":136
				},
				{
					"input":70,
					"interpolation":"STEP",
					"output":137
				},
				{
					"input":70,
					"interpolation":"STEP",
					"output":138
				},
				{
					"input":78,
					"interpolation":"LINEAR",
					"output":139
				},
				{
					"input":70,
					"interpolation":"LINEAR",
					"output":140
				},
				{
					"input":70,
					"interpolation":"STEP",
					"output":141
				},
				{
					"input":70,
					"interpolation":"STEP",
					"output":142
				},
				{
					"input":70,
					"interpolation":"STEP",
					"output":143
				},
				{
					"input":70,
					"interpolation":"STEP",
					"output":144
				},
				{
					"input":78,
					"interpolation":"LINEAR",
					"output":145
				},
				{
					"input":70,
					"interpolation":"LINEAR",
					"output":146
				}
			]
		},
		{
			"channels":[
				{
					"sampler":0,
					"target":{
						"node":36,
						"path":"translation"
					}
				},
				{
					"sampler":1,
					"target":{
						"node":36,
						"path":"rotation"
					}
				},
				{
					"sampler":2,
					"target":{
						"node":36,
						"path":"scale"
					}
				},
				{
					"sampler":3,
					"target":{
						"node":2,
						"path":"translation"
					}
				},
				{
					"sampler":4,
					"target":{
						"node":2,
						"path":"rotation"
					}
				},
				{
					"sampler":5,
					"target":{
						"node":2,
						"path":"scale"
					}
				},
				{
					"sampler":6,
					"target":{
						"node":0,
						"path":"translation"
					}
				},
				{
					"sampler":7,
					"target":{
						"node":0,
						"path":"rotation"
					}
				},
				{
					"sampler":8,
					"target":{
						"node":0,
						"path":"scale"
					}
				},
				{
					"sampler":9,
					"target":{
						"node":5,
						"path":"translation"
					}
				},
				{
					"sampler":10,
					"target":{
						"node":5,
						"path":"rotation"
					}
				},
				{
					"sampler":11,
					"target":{
						"node":5,
						"path":"scale"
					}
				},
				{
					"sampler":12,
					"target":{
						"node":3,
						"path":"translation"
					}
				},
				{
					"sampler":13,
					"target":{
						"node":3,
						"path":"rotation"
					}
				},
				{
					"sampler":14,
					"target":{
						"node":3,
						"path":"scale"
					}
				},
				{
					"sampler":15,
					"target":{
						"node":8,
						"path":"translation"
					}
				},
				{
					"sampler":16,
					"target":{
						"node":8,
						"path":"rotation"
					}
				},
				{
					"sampler":17,
					"target":{
						"node":8,
						"path":"scale"
					}
				},
				{
					"sampler":18,
					"target":{
						"node":6,
						"path":"translation"
					}
				},
				{
					"sampler":19,
					"target":{
						"node":6,
						"path":"rotation"
					}
				},
				{
					"sampler":20,
					"target":{
						"node":6,
						"path":"scale"
					}
				},
				{
					"sampler":21,
					"target":{
						"node":11,
						"path":"translation"
					}
				},
				{
					"sampler":22,
					"target":{
						"node":11,
						"path":"rotation"
					}
				},
				{
					"sampler":23,
					"target":{
						"node":11,
						"path":"scale"
					}
				},
				{
					"sampler":24,
					"target":{
						"node":9,
						"path":"translation"
					}
				},
				{
					"sampler":25,
					"target":{
						"node":9,
						"path":"rotation"
					}
				},
				{
					"sampler":26,
					"target":{
						"node":9,
						"path":"scale"
					}
				},
				{
					"sampler":27,
					"target":{
						"node":14,
						"path":"translation"
					}
				},
				{
					"sampler":28,
					"target":{
						"node":14,
						"path":"rotation"
					}
				},
				{
					"sampler":29,
					"target":{
						"node":14,
						"path":"scale"
					}
				},
				{
					"sampler":30,
					"target":{
						"node":12,
						"path":"translation"
					}
				},
				{
					"sampler":31,
					"target":{
						"node":12,
						"path":"rotation"
					}
				},
				{
					"sampler":32,
					"target":{
						"node":12,
						"path":"scale"
					}
				},
				{
					"sampler":33,
					"target":{
						"node":17,
						"path":"translation"
					}
				},
				{
					"sampler":34,
					"target":{
						"node":17,
						"path":"rotation"
					}
				},
				{
					"sampler":35,
					"target":{
						"node":17,
						"path":"scale"
					}
				},
				{
					"sampler":36,
					"target":{
						"node":15,
						"path":"translation"
					}
				},
				{
					"sampler":37,
					"target":{
						"node":15,
						"path":"rotation"
					}
				},
				{
					"sampler":38,
					"target":{
						"node":15,
						"path":"scale"
					}
				},
				{
					"sampler":39,
					"target":{
						"node":20,
						"path":"translation"
					}
				},
				{
					"sampler":40,
					"target":{
						"node":20,
						"path":"rotation"
					}
				},
				{
					"sampler":41,
					"target":{
						"node":20,
						"path":"scale"
					}
				},
				{
					"sampler":42,
					"target":{
						"node":18,
						"path":"translation"
					}
				},
				{
					"sampler":43,
					"target":{
						"node":18,
						"path":"rotation"
					}
				},
				{
					"sampler":44,
					"target":{
						"node":18,
						"path":"scale"
					}
				},
				{
					"sampler":45,
					"target":{
						"node":23,
						"path":"translation"
					}
				},
				{
					"sampler":46,
					"target":{
						"node":23,
						"path":"rotation"
					}
				},
				{
					"sampler":47,
					"target":{
						"node":23,
						"path":"scale"
					}
				},
				{
					"sampler":48,
					"target":{
						"node":21,
						"path":"translation"
					}
				},
				{
					"sampler":49,
					"target":{
						"node":21,
						"path":"rotation"
					}
				},
				{
					"sampler":50,
					"target":{
						"node":21,
						"path":"scale"
					}
				},
				{
					"sampler":51,
					"target":{
						"node":26,
						"path":"translation"
					}
				},
				{
					"sampler":52,
					"target":{
						"node":26,
						"path":"rotation"
					}
				},
				{
					"sampler":53,
					"target":{
						"node":26,
						"path":"scale"
					}
				},
				{
					"sampler":54,
					"target":{
						"node":24,
						"path":"translation"
					}
				},
				{
					"sampler":55,
					"target":{
						"node":24,
						"path":"rotation"
					}
				},
				{
					"sampler":56,
					"target":{
						"node":24,
						"path":"scale"
					}
				},
				{
					"sampler":57,
					"target":{
						"node":29,
						"path":"translation"
					}
				},
				{
					"sampler":58,
					"target":{
						"node":29,
						"path":"rotation"
					}
				},
				{
					"sampler":59,
					"target":{
						"node":29,
						"path":"scale"
					}
				},
				{
					"sampler":60,
					"target":{
						"node":27,
						"path":"translation"
					}
				},
				{
					"sampler":61,
					"target":{
						"node":27,
						"path":"rotation"
					}
				},
				{
					"sampler":62,
					"target":{
						"node":27,
						"path":"scale"
					}
				},
				{
					"sampler":63,
					"target":{
						"node":32,
						"path":"translation"
					}
				},
				{
					"sampler":64,
					"target":{
						"node":32,
						"path":"rotation"
					}
				},
				{
					"sampler":65,
					"target":{
						"node":32,
						"path":"scale"
					}
				},
				{
					"sampler":66,
					"target":{
						"node":30,
						"path":"translation"
					}
				},
				{
					"sampler":67,
					"target":{
						"node":30,
						"path":"rotation"
					}
				},
				{
					"sampler":68,
					"target":{
						"node":30,
						"path":"scale"
					}
				},
				{
					"sampler":69,
					"target":{
						"node":35,
						"path":"translation"
					}
				},
				{
					"sampler":70,
					"target":{
						"node":35,
						"path":"rotation"
					}
				},
				{
					"sampler":71,
					"target":{
						"node":35,
						"path":"scale"
					}
				},
				{
					"sampler":72,
					"target":{
						"node":33,
						"path":"translation"
					}
				},
				{
					"sampler":73,
					"target":{
						"node":33,
						"path":"rotation"
					}
				},
				{
					"sampler":74,
					"target":{
						"node":33,
						"path":"scale"
					}
				}
			],
			"name":"Open",
			"samplers":[
				{
					"input":70,
					"interpolation":"STEP",
					"output":147
				},
				{
					"input":70,
					"interpolation":"STEP",
					"output":148
				},
				{
					"input":70,
					"interpolation":"STEP",
					"output":149
				},
				{
					"input":70,
					"interpolation":"STEP",
					"output":150
				},
				{
					"input":70,
					"interpolation":"STEP",
					"output":151
				},
				{
					"input":70,
					"interpolation":"STEP",
					"output":152
				},
				{
					"input":70,
					"interpolation":"STEP",
					"output":153
				},
				{
					"input":78,
					"interpolation":"LINEAR",
					"output":154
				},
				{
					"input":70,
					"interpolation":"LINEAR",
					"output":155
				},
				{
					"input":70,
					"interpolation":"STEP",
					"output":156
				},
				{
					"input":70,
					"interpolation":"STEP",
					"output":157
				},
				{
					"input":70,
					"interpolation":"STEP",
					"output":158
				},
				{
					"input":70,
					"interpolation":"STEP",
					"output":159
				},
				{
					"input":78,
					"interpolation":"LINEAR",
					"output":160
				},
				{
					"input":70,
					"interpolation":"LINEAR",
					"output":161
				},
				{
					"input":70,
					"interpolation":"STEP",
					"output":162
				},
				{
					"input":70,
					"interpolation":"STEP",
					"output":163
				},
				{
					"input":70,
					"interpolation":"STEP",
					"output":164
				},
				{
					"input":70,
					"interpolation":"STEP",
					"output":165
				},
				{
					"input":78,
					"interpolation":"LINEAR",
					"output":166
				},
				{
					"input":70,
					"interpolation":"LINEAR",
					"output":167
				},
				{
					"input":70,
					"interpolation":"STEP",
					"output":168
				},
				{
					"input":70,
					"interpolation":"STEP",
					"output":169
				},
				{
					"input":70,
					"interpolation":"STEP",
					"output":170
				},
				{
					"input":70,
					"interpolation":"STEP",
					"output":171
				},
				{
					"input":78,
					"interpolation":"LINEAR",
					"output":172
				},
				{
					"input":70,
					"interpolation":"STEP",
					"output":173
				},
				{
					"input":70,
					"interpolation":"STEP",
					"output":174
				},
				{
					"input":70,
					"interpolation":"STEP",
					"output":175
				},
				{
					"input":70,
					"interpolation":"STEP",
					"output":176
				},
				{
					"input":70,
					"interpolation":"STEP",
					"output":177
				},
				{
					"input":78,
					"interpolation":"LINEAR",
					"output":178
				},
				{
					"input":70,
					"interpolation":"STEP",
					"output":179
				},
				{
					"input":70,
					"interpolation":"STEP",
					"output":180
				},
				{
					"input":70,
					"interpolation":"STEP",
					"output":181
				},
				{
					"input":70,
					"interpolation":"STEP",
					"output":182
				},
				{
					"input":70,
					"interpolation":"STEP",
					"output":183
				},
				{
					"input":78,
					"interpolation":"LINEAR",
					"output":184
				},
				{
					"input":70,
					"interpolation":"LINEAR",
					"output":185
				},
				{
					"input":70,
					"interpolation":"STEP",
					"output":186
				},
				{
					"input":70,
					"interpolation":"STEP",
					"output":187
				},
				{
					"input":70,
					"interpolation":"STEP",
					"output":188
				},
				{
					"input":70,
					"interpolation":"STEP",
					"output":189
				},
				{
					"input":78,
					"interpolation":"LINEAR",
					"output":190
				},
				{
					"input":70,
					"interpolation":"LINEAR",
					"output":191
				},
				{
					"input":70,
					"interpolation":"STEP",
					"output":192
				},
				{
					"input":70,
					"interpolation":"STEP",
					"output":193
				},
				{
					"input":70,
					"interpolation":"STEP",
					"output":194
				},
				{
					"input":70,
					"interpolation":"STEP",
					"output":195
				},
				{
					"input":78,
					"interpolation":"LINEAR",
					"output":196
				},
				{
					"input":70,
					"interpolation":"LINEAR",
					"output":197
				},
				{
					"input":70,
					"interpolation":"STEP",
					"output":198
				},
				{
					"input":70,
					"interpolation":"STEP",
					"output":199
				},
				{
					"input":70,
					"interpolation":"STEP",
					"output":200
				},
				{
					"input":70,
					"interpolation":"STEP",
					"output":201
				},
				{
					"input":78,
					"interpolation":"LINEAR",
					"output":202
				},
				{
					"input":70,
					"interpolation":"LINEAR",
					"output":203
				},
				{
					"input":70,
					"interpolation":"STEP",
					"output":204
				},
				{
					"input":70,
					"interpolation":"STEP",
					"output":205
				},
				{
					"input":70,
					"interpolation":"STEP",
					"output":206
				},
				{
					"input":70,
					"interpolation":"STEP",
					"output":207
				},
				{
					"input":78,
					"interpolation":"LINEAR",
					"output":208
				},
				{
					"input":70,
					"interpolation":"LINEAR",
					"output":209
				},
				{
					"input":70,
					"interpolation":"STEP",
					"output":210
				},
				{
					"input":70,
					"interpolation":"STEP",
					"output":211
				},
				{
					"input":70,
					"interpolation":"STEP",
					"output":212
				},
				{
					"input":70,
					"interpolation":"STEP",
					"output":213
				},
				{
					"input":78,
					"interpolation":"LINEAR",
					"output":214
				},
				{
					"input":70,
					"interpolation":"LINEAR",
					"output":215
				},
				{
					"input":70,
					"interpolation":"STEP",
					"output":216
				},
				{
					"input":70,
					"interpolation":"STEP",
					"output":217
				},
				{
					"input":70,
					"interpolation":"STEP",
					"output":218
				},
				{
					"input":70,
					"interpolation":"STEP",
					"output":219
				},
				{
					"input":78,
					"interpolation":"LINEAR",
					"output":220
				},
				{
					"input":70,
					"interpolation":"LINEAR",
					"output":221
				}
			]
		}
	],
	"materials":[
		{
			"doubleSided":true,
			"name":"\u30de\u30c6\u30ea\u30a2\u30eb.001",
			"normalTexture":{
				"index":0,
				"scale":9.800000190734863
			},
			"pbrMetallicRoughness":{
				"baseColorFactor":[
					0.2532200515270233,
					0.2532200515270233,
					0.2532200515270233,
					1
				],
				"metallicFactor":0.882716715335846,
				"metallicRoughnessTexture":{
					"index":1
				}
			}
		}
	],
	"meshes":[
		{
			"name":"\u5186\u67f1.001",
			"primitives":[
				{
					"attributes":{
						"POSITION":0,
						"NORMAL":1,
						"TEXCOORD_0":2,
						"JOINTS_0":3,
						"WEIGHTS_0":4
					},
					"indices":5,
					"material":0
				}
			]
		},
		{
			"name":"\u5186\u67f1.002",
			"primitives":[
				{
					"attributes":{
						"POSITION":7,
						"NORMAL":8,
						"TEXCOORD_0":9,
						"JOINTS_0":10,
						"WEIGHTS_0":11
					},
					"indices":12,
					"material":0
				}
			]
		},
		{
			"name":"\u5186\u67f1.003",
			"primitives":[
				{
					"attributes":{
						"POSITION":13,
						"NORMAL":14,
						"TEXCOORD_0":15,
						"JOINTS_0":16,
						"WEIGHTS_0":17
					},
					"indices":12,
					"material":0
				}
			]
		},
		{
			"name":"\u5186\u67f1.004",
			"primitives":[
				{
					"attributes":{
						"POSITION":18,
						"NORMAL":19,
						"TEXCOORD_0":20,
						"JOINTS_0":21,
						"WEIGHTS_0":22
					},
					"indices":12,
					"material":0
				}
			]
		},
		{
			"name":"\u5186\u67f1.005",
			"primitives":[
				{
					"attributes":{
						"POSITION":23,
						"NORMAL":24,
						"TEXCOORD_0":25,
						"JOINTS_0":26,
						"WEIGHTS_0":27
					},
					"indices":12,
					"material":0
				}
			]
		},
		{
			"name":"\u5186\u67f1.006",
			"primitives":[
				{
					"attributes":{
						"POSITION":28,
						"NORMAL":29,
						"TEXCOORD_0":30,
						"JOINTS_0":31,
						"WEIGHTS_0":32
					},
					"indices":12,
					"material":0
				}
			]
		},
		{
			"name":"\u5186\u67f1.007",
			"primitives":[
				{
					"attributes":{
						"POSITION":33,
						"NORMAL":34,
						"TEXCOORD_0":35,
						"JOINTS_0":36,
						"WEIGHTS_0":37
					},
					"indices":38,
					"material":0
				}
			]
		},
		{
			"name":"\u5186\u67f1.008",
			"primitives":[
				{
					"attributes":{
						"POSITION":39,
						"NORMAL":40,
						"TEXCOORD_0":41,
						"JOINTS_0":42,
						"WEIGHTS_0":43
					},
					"indices":38,
					"material":0
				}
			]
		},
		{
			"name":"\u5186\u67f1.009",
			"primitives":[
				{
					"attributes":{
						"POSITION":44,
						"NORMAL":45,
						"TEXCOORD_0":46,
						"JOINTS_0":47,
						"WEIGHTS_0":48
					},
					"indices":38,
					"material":0
				}
			]
		},
		{
			"name":"\u5186\u67f1.010",
			"primitives":[
				{
					"attributes":{
						"POSITION":49,
						"NORMAL":50,
						"TEXCOORD_0":51,
						"JOINTS_0":52,
						"WEIGHTS_0":53
					},
					"indices":38,
					"material":0
				}
			]
		},
		{
			"name":"\u5186\u67f1.011",
			"primitives":[
				{
					"attributes":{
						"POSITION":54,
						"NORMAL":55,
						"TEXCOORD_0":56,
						"JOINTS_0":57,
						"WEIGHTS_0":58
					},
					"indices":38,
					"material":0
				}
			]
		},
		{
			"name":"\u5186\u67f1.012",
			"primitives":[
				{
					"attributes":{
						"POSITION":59,
						"NORMAL":60,
						"TEXCOORD_0":61,
						"JOINTS_0":62,
						"WEIGHTS_0":63
					},
					"indices":38,
					"material":0
				}
			]
		},
		{
			"name":"\u7acb\u65b9\u4f53.002",
			"primitives":[
				{
					"attributes":{
						"POSITION":64,
						"NORMAL":65,
						"TEXCOORD_0":66,
						"JOINTS_0":67,
						"WEIGHTS_0":68
					},
					"indices":69,
					"material":0
				}
			]
		}
	],
	"textures":[
		{
			"sampler":0,
			"source":0
		},
		{
			"sampler":0,
			"source":1
		}
	],
	"images":[
		{
			"mimeType":"image/png",
			"name":"blue_metal_plate_nor_gl",
			"uri":"blue_metal_plate_nor_gl.png"
		},
		{
			"mimeType":"image/png",
			"name":"Image",
			"uri":"Image.png"
		}
	],
	"skins":[
		{
			"inverseBindMatrices":6,
			"joints":[
				36,
				2,
				0,
				5,
				3,
				8,
				6,
				11,
				9,
				14,
				12,
				17,
				15,
				20,
				18,
				23,
				21,
				26,
				24,
				29,
				27,
				32,
				30,
				35,
				33
			],
			"name":"\u30a2\u30fc\u30de\u30c1\u30e5\u30a2"
		}
	],
	"accessors":[
		{
			"bufferView":0,
			"componentType":5126,
			"count":304,
			"max":[
				4.019999980926514,
				3.970047950744629,
				4.570000171661377
			],
			"min":[
				3.419999837875366,
				3.790048122406006,
				3.9700000286102295
			],
			"type":"VEC3"
		},
		{
			"bufferView":1,
			"componentType":5126,
			"count":304,
			"type":"VEC3"
		},
		{
			"bufferView":2,
			"componentType":5126,
			"count":304,
			"type":"VEC2"
		},
		{
			"bufferView":3,
			"componentType":5121,
			"count":304,
			"type":"VEC4"
		},
		{
			"bufferView":4,
			"componentType":5126,
			"count":304,
			"type":"VEC4"
		},
		{
			"bufferView":5,
			"componentType":5123,
			"count":660,
			"type":"SCALAR"
		},
		{
			"bufferView":6,
			"componentType":5126,
			"count":25,
			"type":"MAT4"
		},
		{
			"bufferView":7,
			"componentType":5126,
			"count":304,
			"max":[
				4.019999980926514,
				3.970047950744629,
				5.470000267028809
			],
			"min":[
				3.419999837875366,
				3.790048122406006,
				4.869999885559082
			],
			"type":"VEC3"
		},
		{
			"bufferView":8,
			"componentType":5126,
			"count":304,
			"type":"VEC3"
		},
		{
			"bufferView":9,
			"componentType":5126,
			"count":304,
			"type":"VEC2"
		},
		{
			"bufferView":10,
			"componentType":5121,
			"count":304,
			"type":"VEC4"
		},
		{
			"bufferView":11,
			"componentType":5126,
			"count":304,
			"type":"VEC4"
		},
		{
			"bufferView":12,
			"componentType":5123,
			"count":660,
			"type":"SCALAR"
		},
		{
			"bufferView":13,
			"componentType":5126,
			"count":304,
			"max":[
				4.019999980926514,
				3.970047950744629,
				6.369999885559082
			],
			"min":[
				3.419999837875366,
				3.790048122406006,
				5.769999980926514
			],
			"type":"VEC3"
		},
		{
			"bufferView":14,
			"componentType":5126,
			"count":304,
			"type":"VEC3"
		},
		{
			"bufferView":15,
			"componentType":5126,
			"count":304,
			"type":"VEC2"
		},
		{
			"bufferView":16,
			"componentType":5121,
			"count":304,
			"type":"VEC4"
		},
		{
			"bufferView":17,
			"componentType":5126,
			"count":304,
			"type":"VEC4"
		},
		{
			"bufferView":18,
			"componentType":5126,
			"count":304,
			"max":[
				1.9199998378753662,
				3.970047950744629,
				4.570000171661377
			],
			"min":[
				1.3199999332427979,
				3.790048122406006,
				3.9700000286102295
			],
			"type":"VEC3"
		},
		{
			"bufferView":19,
			"componentType":5126,
			"count":304,
			"type":"VEC3"
		},
		{
			"bufferView":20,
			"componentType":5126,
			"count":304,
			"type":"VEC2"
		},
		{
			"bufferView":21,
			"componentType":5121,
			"count":304,
			"type":"VEC4"
		},
		{
			"bufferView":22,
			"componentType":5126,
			"count":304,
			"type":"VEC4"
		},
		{
			"bufferView":23,
			"componentType":5126,
			"count":304,
			"max":[
				1.9199998378753662,
				3.970047950744629,
				5.470000267028809
			],
			"min":[
				1.3199999332427979,
				3.790048122406006,
				4.869999885559082
			],
			"type":"VEC3"
		},
		{
			"bufferView":24,
			"componentType":5126,
			"count":304,
			"type":"VEC3"
		},
		{
			"bufferView":25,
			"componentType":5126,
			"count":304,
			"type":"VEC2"
		},
		{
			"bufferView":26,
			"componentType":5121,
			"count":304,
			"type":"VEC4"
		},
		{
			"bufferView":27,
			"componentType":5126,
			"count":304,
			"type":"VEC4"
		},
		{
			"bufferView":28,
			"componentType":5126,
			"count":304,
			"max":[
				1.9199998378753662,
				3.970047950744629,
				6.369999885559082
			],
			"min":[
				1.3199999332427979,
				3.790048122406006,
				5.769999980926514
			],
			"type":"VEC3"
		},
		{
			"bufferView":29,
			"componentType":5126,
			"count":304,
			"type":"VEC3"
		},
		{
			"bufferView":30,
			"componentType":5126,
			"count":304,
			"type":"VEC2"
		},
		{
			"bufferView":31,
			"componentType":5121,
			"count":304,
			"type":"VEC4"
		},
		{
			"bufferView":32,
			"componentType":5126,
			"count":304,
			"type":"VEC4"
		},
		{
			"bufferView":33,
			"componentType":5126,
			"count":304,
			"max":[
				-3.8723530769348145,
				3.970047950744629,
				4.570000171661377
			],
			"min":[
				-4.472353458404541,
				3.790048122406006,
				3.9700000286102295
			],
			"type":"VEC3"
		},
		{
			"bufferView":34,
			"componentType":5126,
			"count":304,
			"type":"VEC3"
		},
		{
			"bufferView":35,
			"componentType":5126,
			"count":304,
			"type":"VEC2"
		},
		{
			"bufferView":36,
			"componentType":5121,
			"count":304,
			"type":"VEC4"
		},
		{
			"bufferView":37,
			"componentType":5126,
			"count":304,
			"type":"VEC4"
		},
		{
			"bufferView":38,
			"componentType":5123,
			"count":660,
			"type":"SCALAR"
		},
		{
			"bufferView":39,
			"componentType":5126,
			"count":304,
			"max":[
				-3.8723530769348145,
				3.970047950744629,
				5.470000267028809
			],
			"min":[
				-4.472353458404541,
				3.790048122406006,
				4.869999885559082
			],
			"type":"VEC3"
		},
		{
			"bufferView":40,
			"componentType":5126,
			"count":304,
			"type":"VEC3"
		},
		{
			"bufferView":41,
			"componentType":5126,
			"count":304,
			"type":"VEC2"
		},
		{
			"bufferView":42,
			"componentType":5121,
			"count":304,
			"type":"VEC4"
		},
		{
			"bufferView":43,
			"componentType":5126,
			"count":304,
			"type":"VEC4"
		},
		{
			"bufferView":44,
			"componentType":5126,
			"count":304,
			"max":[
				-3.8723530769348145,
				3.970047950744629,
				6.369999885559082
			],
			"min":[
				-4.472353458404541,
				3.790048122406006,
				5.769999980926514
			],
			"type":"VEC3"
		},
		{
			"bufferView":45,
			"componentType":5126,
			"count":304,
			"type":"VEC3"
		},
		{
			"bufferView":46,
			"componentType":5126,
			"count":304,
			"type":"VEC2"
		},
		{
			"bufferView":47,
			"componentType":5121,
			"count":304,
			"type":"VEC4"
		},
		{
			"bufferView":48,
			"componentType":5126,
			"count":304,
			"type":"VEC4"
		},
		{
			"bufferView":49,
			"componentType":5126,
			"count":304,
			"max":[
				-1.7723536491394043,
				3.970047950744629,
				4.570000171661377
			],
			"min":[
				-2.3723530769348145,
				3.790048122406006,
				3.9700000286102295
			],
			"type":"VEC3"
		},
		{
			"bufferView":50,
			"componentType":5126,
			"count":304,
			"type":"VEC3"
		},
		{
			"bufferView":51,
			"componentType":5126,
			"count":304,
			"type":"VEC2"
		},
		{
			"bufferView":52,
			"componentType":5121,
			"count":304,
			"type":"VEC4"
		},
		{
			"bufferView":53,
			"componentType":5126,
			"count":304,
			"type":"VEC4"
		},
		{
			"bufferView":54,
			"componentType":5126,
			"count":304,
			"max":[
				-1.7723536491394043,
				3.970047950744629,
				5.470000267028809
			],
			"min":[
				-2.3723530769348145,
				3.790048122406006,
				4.869999885559082
			],
			"type":"VEC3"
		},
		{
			"bufferView":55,
			"componentType":5126,
			"count":304,
			"type":"VEC3"
		},
		{
			"bufferView":56,
			"componentType":5126,
			"count":304,
			"type":"VEC2"
		},
		{
			"bufferView":57,
			"componentType":5121,
			"count":304,
			"type":"VEC4"
		},
		{
			"bufferView":58,
			"componentType":5126,
			"count":304,
			"type":"VEC4"
		},
		{
			"bufferView":59,
			"componentType":5126,
			"count":304,
			"max":[
				-1.7723536491394043,
				3.970047950744629,
				6.369999885559082
			],
			"min":[
				-2.3723530769348145,
				3.790048122406006,
				5.769999980926514
			],
			"type":"VEC3"
		},
		{
			"bufferView":60,
			"componentType":5126,
			"count":304,
			"type":"VEC3"
		},
		{
			"bufferView":61,
			"componentType":5126,
			"count":304,
			"type":"VEC2"
		},
		{
			"bufferView":62,
			"componentType":5121,
			"count":304,
			"type":"VEC4"
		},
		{
			"bufferView":63,
			"componentType":5126,
			"count":304,
			"type":"VEC4"
		},
		{
			"bufferView":64,
			"componentType":5126,
			"count":3124,
			"max":[
				4.795549392700195,
				3.8067851066589355,
				6.881857872009277
			],
			"min":[
				-5.103133201599121,
				-1.8230581283569336,
				0.062175750732421875
			],
			"type":"VEC3"
		},
		{
			"bufferView":65,
			"componentType":5126,
			"count":3124,
			"type":"VEC3"
		},
		{
			"bufferView":66,
			"componentType":5126,
			"count":3124,
			"type":"VEC2"
		},
		{
			"bufferView":67,
			"componentType":5121,
			"count":3124,
			"type":"VEC4"
		},
		{
			"bufferView":68,
			"componentType":5126,
			"count":3124,
			"type":"VEC4"
		},
		{
			"bufferView":69,
			"componentType":5123,
			"count":6276,
			"type":"SCALAR"
		},
		{
			"bufferView":70,
			"componentType":5126,
			"count":2,
			"max":[
				0.6666666666666666
			],
			"min":[
				0
			],
			"type":"SCALAR"
		},
		{
			"bufferView":71,
			"componentType":5126,
			"count":2,
			"type":"VEC3"
		},
		{
			"bufferView":72,
			"componentType":5126,
			"count":2,
			"type":"VEC4"
		},
		{
			"bufferView":73,
			"componentType":5126,
			"count":2,
			"type":"VEC3"
		},
		{
			"bufferView":74,
			"componentType":5126,
			"count":2,
			"type":"VEC3"
		},
		{
			"bufferView":75,
			"componentType":5126,
			"count":2,
			"type":"VEC4"
		},
		{
			"bufferView":76,
			"componentType":5126,
			"count":2,
			"type":"VEC3"
		},
		{
			"bufferView":77,
			"componentType":5126,
			"count":2,
			"type":"VEC3"
		},
		{
			"bufferView":78,
			"componentType":5126,
			"count":17,
			"max":[
				0.6666666666666666
			],
			"min":[
				0
			],
			"type":"SCALAR"
		},
		{
			"bufferView":79,
			"componentType":5126,
			"count":17,
			"type":"VEC4"
		},
		{
			"bufferView":80,
			"componentType":5126,
			"count":2,
			"type":"VEC3"
		},
		{
			"bufferView":81,
			"componentType":5126,
			"count":2,
			"type":"VEC3"
		},
		{
			"bufferView":82,
			"componentType":5126,
			"count":2,
			"type":"VEC4"
		},
		{
			"bufferView":83,
			"componentType":5126,
			"count":2,
			"type":"VEC3"
		},
		{
			"bufferView":84,
			"componentType":5126,
			"count":2,
			"type":"VEC3"
		},
		{
			"bufferView":85,
			"componentType":5126,
			"count":17,
			"type":"VEC4"
		},
		{
			"bufferView":86,
			"componentType":5126,
			"count":2,
			"type":"VEC3"
		},
		{
			"bufferView":87,
			"componentType":5126,
			"count":2,
			"type":"VEC3"
		},
		{
			"bufferView":88,
			"componentType":5126,
			"count":2,
			"type":"VEC4"
		},
		{
			"bufferView":89,
			"componentType":5126,
			"count":2,
			"type":"VEC3"
		},
		{
			"bufferView":90,
			"componentType":5126,
			"count":2,
			"type":"VEC3"
		},
		{
			"bufferView":91,
			"componentType":5126,
			"count":17,
			"type":"VEC4"
		},
		{
			"bufferView":92,
			"componentType":5126,
			"count":2,
			"type":"VEC3"
		},
		{
			"bufferView":93,
			"componentType":5126,
			"count":2,
			"type":"VEC3"
		},
		{
			"bufferView":94,
			"componentType":5126,
			"count":2,
			"type":"VEC4"
		},
		{
			"bufferView":95,
			"componentType":5126,
			"count":2,
			"type":"VEC3"
		},
		{
			"bufferView":96,
			"componentType":5126,
			"count":2,
			"type":"VEC3"
		},
		{
			"bufferView":97,
			"componentType":5126,
			"count":17,
			"type":"VEC4"
		},
		{
			"bufferView":98,
			"componentType":5126,
			"count":2,
			"type":"VEC3"
		},
		{
			"bufferView":99,
			"componentType":5126,
			"count":2,
			"type":"VEC3"
		},
		{
			"bufferView":100,
			"componentType":5126,
			"count":2,
			"type":"VEC4"
		},
		{
			"bufferView":101,
			"componentType":5126,
			"count":2,
			"type":"VEC3"
		},
		{
			"bufferView":102,
			"componentType":5126,
			"count":2,
			"type":"VEC3"
		},
		{
			"bufferView":103,
			"componentType":5126,
			"count":17,
			"type":"VEC4"
		},
		{
			"bufferView":104,
			"componentType":5126,
			"count":2,
			"type":"VEC3"
		},
		{
			"bufferView":105,
			"componentType":5126,
			"count":2,
			"type":"VEC3"
		},
		{
			"bufferView":106,
			"componentType":5126,
			"count":2,
			"type":"VEC4"
		},
		{
			"bufferView":107,
			"componentType":5126,
			"count":2,
			"type":"VEC3"
		},
		{
			"bufferView":108,
			"componentType":5126,
			"count":2,
			"type":"VEC3"
		},
		{
			"bufferView":109,
			"componentType":5126,
			"count":17,
			"type":"VEC4"
		},
		{
			"bufferView":110,
			"componentType":5126,
			"count":2,
			"type":"VEC3"
		},
		{
			"bufferView":111,
			"componentType":5126,
			"count":2,
			"type":"VEC3"
		},
		{
			"bufferView":112,
			"componentType":5126,
			"count":2,
			"type":"VEC4"
		},
		{
			"bufferView":113,
			"componentType":5126,
			"count":2,
			"type":"VEC3"
		},
		{
			"bufferView":114,
			"componentType":5126,
			"count":2,
			"type":"VEC3"
		},
		{
			"bufferView":115,
			"componentType":5126,
			"count":17,
			"type":"VEC4"
		},
		{
			"bufferView":116,
			"componentType":5126,
			"count":2,
			"type":"VEC3"
		},
		{
			"bufferView":117,
			"componentType":5126,
			"count":2,
			"type":"VEC3"
		},
		{
			"bufferView":118,
			"componentType":5126,
			"count":2,
			"type":"VEC4"
		},
		{
			"bufferView":119,
			"componentType":5126,
			"count":2,
			"type":"VEC3"
		},
		{
			"bufferView":120,
			"componentType":5126,
			"count":2,
			"type":"VEC3"
		},
		{
			"bufferView":121,
			"componentType":5126,
			"count":17,
			"type":"VEC4"
		},
		{
			"bufferView":122,
			"componentType":5126,
			"count":2,
			"type":"VEC3"
		},
		{
			"bufferView":123,
			"componentType":5126,
			"count":2,
			"type":"VEC3"
		},
		{
			"bufferView":124,
			"componentType":5126,
			"count":2,
			"type":"VEC4"
		},
		{
			"bufferView":125,
			"componentType":5126,
			"count":2,
			"type":"VEC3"
		},
		{
			"bufferView":126,
			"componentType":5126,
			"count":2,
			"type":"VEC3"
		},
		{
			"bufferView":127,
			"componentType":5126,
			"count":17,
			"type":"VEC4"
		},
		{
			"bufferView":128,
			"componentType":5126,
			"count":2,
			"type":"VEC3"
		},
		{
			"bufferView":129,
			"componentType":5126,
			"count":2,
			"type":"VEC3"
		},
		{
			"bufferView":130,
			"componentType":5126,
			"count":2,
			"type":"VEC4"
		},
		{
			"bufferView":131,
			"componentType":5126,
			"count":2,
			"type":"VEC3"
		},
		{
			"bufferView":132,
			"componentType":5126,
			"count":2,
			"type":"VEC3"
		},
		{
			"bufferView":133,
			"componentType":5126,
			"count":17,
			"type":"VEC4"
		},
		{
			"bufferView":134,
			"componentType":5126,
			"count":2,
			"type":"VEC3"
		},
		{
			"bufferView":135,
			"componentType":5126,
			"count":2,
			"type":"VEC3"
		},
		{
			"bufferView":136,
			"componentType":5126,
			"count":2,
			"type":"VEC4"
		},
		{
			"bufferView":137,
			"componentType":5126,
			"count":2,
			"type":"VEC3"
		},
		{
			"bufferView":138,
			"componentType":5126,
			"count":2,
			"type":"VEC3"
		},
		{
			"bufferView":139,
			"componentType":5126,
			"count":17,
			"type":"VEC4"
		},
		{
			"bufferView":140,
			"componentType":5126,
			"count":2,
			"type":"VEC3"
		},
		{
			"bufferView":141,
			"componentType":5126,
			"count":2,
			"type":"VEC3"
		},
		{
			"bufferView":142,
			"componentType":5126,
			"count":2,
			"type":"VEC4"
		},
		{
			"bufferView":143,
			"componentType":5126,
			"count":2,
			"type":"VEC3"
		},
		{
			"bufferView":144,
			"componentType":5126,
			"count":2,
			"type":"VEC3"
		},
		{
			"bufferView":145,
			"componentType":5126,
			"count":17,
			"type":"VEC4"
		},
		{
			"bufferView":146,
			"componentType":5126,
			"count":2,
			"type":"VEC3"
		},
		{
			"bufferView":147,
			"componentType":5126,
			"count":2,
			"type":"VEC3"
		},
		{
			"bufferView":148,
			"componentType":5126,
			"count":2,
			"type":"VEC4"
		},
		{
			"bufferView":149,
			"componentType":5126,
			"count":2,
			"type":"VEC3"
		},
		{
			"bufferView":150,
			"componentType":5126,
			"count":2,
			"type":"VEC3"
		},
		{
			"bufferView":151,
			"componentType":5126,
			"count":2,
			"type":"VEC4"
		},
		{
			"bufferView":152,
			"componentType":5126,
			"count":2,
			"type":"VEC3"
		},
		{
			"bufferView":153,
			"componentType":5126,
			"count":2,
			"type":"VEC3"
		},
		{
			"bufferView":154,
			"componentType":5126,
			"count":17,
			"type":"VEC4"
		},
		{
			"bufferView":155,
			"componentType":5126,
			"count":2,
			"type":"VEC3"
		},
		{
			"bufferView":156,
			"componentType":5126,
			"count":2,
			"type":"VEC3"
		},
		{
			"bufferView":157,
			"componentType":5126,
			"count":2,
			"type":"VEC4"
		},
		{
			"bufferView":158,
			"componentType":5126,
			"count":2,
			"type":"VEC3"
		},
		{
			"bufferView":159,
			"componentType":5126,
			"count":2,
			"type":"VEC3"
		},
		{
			"bufferView":160,
			"componentType":5126,
			"count":17,
			"type":"VEC4"
		},
		{
			"bufferView":161,
			"componentType":5126,
			"count":2,
			"type":"VEC3"
		},
		{
			"bufferView":162,
			"componentType":5126,
			"count":2,
			"type":"VEC3"
		},
		{
			"bufferView":163,
			"componentType":5126,
			"count":2,
			"type":"VEC4"
		},
		{
			"bufferView":164,
			"componentType":5126,
			"count":2,
			"type":"VEC3"
		},
		{
			"bufferView":165,
			"componentType":5126,
			"count":2,
			"type":"VEC3"
		},
		{
			"bufferView":166,
			"componentType":5126,
			"count":17,
			"type":"VEC4"
		},
		{
			"bufferView":167,
			"componentType":5126,
			"count":2,
			"type":"VEC3"
		},
		{
			"bufferView":168,
			"componentType":5126,
			"count":2,
			"type":"VEC3"
		},
		{
			"bufferView":169,
			"componentType":5126,
			"count":2,
			"type":"VEC4"
		},
		{
			"bufferView":170,
			"componentType":5126,
			"count":2,
			"type":"VEC3"
		},
		{
			"bufferView":171,
			"componentType":5126,
			"count":2,
			"type":"VEC3"
		},
		{
			"bufferView":172,
			"componentType":5126,
			"count":17,
			"type":"VEC4"
		},
		{
			"bufferView":173,
			"componentType":5126,
			"count":2,
			"type":"VEC3"
		},
		{
			"bufferView":174,
			"componentType":5126,
			"count":2,
			"type":"VEC3"
		},
		{
			"bufferView":175,
			"componentType":5126,
			"count":2,
			"type":"VEC4"
		},
		{
			"bufferView":176,
			"componentType":5126,
			"count":2,
			"type":"VEC3"
		},
		{
			"bufferView":177,
			"componentType":5126,
			"count":2,
			"type":"VEC3"
		},
		{
			"bufferView":178,
			"componentType":5126,
			"count":17,
			"type":"VEC4"
		},
		{
			"bufferView":179,
			"componentType":5126,
			"count":2,
			"type":"VEC3"
		},
		{
			"bufferView":180,
			"componentType":5126,
			"count":2,
			"type":"VEC3"
		},
		{
			"bufferView":181,
			"componentType":5126,
			"count":2,
			"type":"VEC4"
		},
		{
			"bufferView":182,
			"componentType":5126,
			"count":2,
			"type":"VEC3"
		},
		{
			"bufferView":183,
			"componentType":5126,
			"count":2,
			"type":"VEC3"
		},
		{
			"bufferView":184,
			"componentType":5126,
			"count":17,
			"type":"VEC4"
		},
		{
			"bufferView":185,
			"componentType":5126,
			"count":2,
			"type":"VEC3"
		},
		{
			"bufferView":186,
			"componentType":5126,
			"count":2,
			"type":"VEC3"
		},
		{
			"bufferView":187,
			"componentType":5126,
			"count":2,
			"type":"VEC4"
		},
		{
			"bufferView":188,
			"componentType":5126,
			"count":2,
			"type":"VEC3"
		},
		{
			"bufferView":189,
			"componentType":5126,
			"count":2,
			"type":"VEC3"
		},
		{
			"bufferView":190,
			"componentType":5126,
			"count":17,
			"type":"VEC4"
		},
		{
			"bufferView":191,
			"componentType":5126,
			"count":2,
			"type":"VEC3"
		},
		{
			"bufferView":192,
			"componentType":5126,
			"count":2,
			"type":"VEC3"
		},
		{
			"bufferView":193,
			"componentType":5126,
			"count":2,
			"type":"VEC4"
		},
		{
			"bufferView":194,
			"componentType":5126,
			"count":2,
			"type":"VEC3"
		},
		{
			"bufferView":195,
			"componentType":5126,
			"count":2,
			"type":"VEC3"
		},
		{
			"bufferView":196,
			"componentType":5126,
			"count":17,
			"type":"VEC4"
		},
		{
			"bufferView":197,
			"componentType":5126,
			"count":2,
			"type":"VEC3"
		},
		{
			"bufferView":198,
			"componentType":5126,
			"count":2,
			"type":"VEC3"
		},
		{
			"bufferView":199,
			"componentType":5126,
			"count":2,
			"type":"VEC4"
		},
		{
			"bufferView":200,
			"componentType":5126,
			"count":2,
			"type":"VEC3"
		},
		{
			"bufferView":201,
			"componentType":5126,
			"count":2,
			"type":"VEC3"
		},
		{
			"bufferView":202,
			"componentType":5126,
			"count":17,
			"type":"VEC4"
		},
		{
			"bufferView":203,
			"componentType":5126,
			"count":2,
			"type":"VEC3"
		},
		{
			"bufferView":204,
			"componentType":5126,
			"count":2,
			"type":"VEC3"
		},
		{
			"bufferView":205,
			"componentType":5126,
			"count":2,
			"type":"VEC4"
		},
		{
			"bufferView":206,
			"componentType":5126,
			"count":2,
			"type":"VEC3"
		},
		{
			"bufferView":207,
			"componentType":5126,
			"count":2,
			"type":"VEC3"
		},
		{
			"bufferView":208,
			"componentType":5126,
			"count":17,
			"type":"VEC4"
		},
		{
			"bufferView":209,
			"componentType":5126,
			"count":2,
			"type":"VEC3"
		},
		{
			"bufferView":210,
			"componentType":5126,
			"count":2,
			"type":"VEC3"
		},
		{
			"bufferView":211,
			"componentType":5126,
			"count":2,
			"type":"VEC4"
		},
		{
			"bufferView":212,
			"componentType":5126,
			"count":2,
			"type":"VEC3"
		},
		{
			"bufferView":213,
			"componentType":5126,
			"count":2,
			"type":"VEC3"
		},
		{
			"bufferView":214,
			"componentType":5126,
			"count":17,
			"type":"VEC4"
		},
		{
			"bufferView":215,
			"componentType":5126,
			"count":2,
			"type":"VEC3"
		},
		{
			"bufferView":216,
			"componentType":5126,
			"count":2,
			"type":"VEC3"
		},
		{
			"bufferView":217,
			"componentType":5126,
			"count":2,
			"type":"VEC4"
		},
		{
			"bufferView":218,
			"componentType":5126,
			"count":2,
			"type":"VEC3"
		},
		{
			"bufferView":219,
			"componentType":5126,
			"count":2,
			"type":"VEC3"
		},
		{
			"bufferView":220,
			"componentType":5126,
			"count":17,
			"type":"VEC4"
		},
		{
			"bufferView":221,
			"componentType":5126,
			"count":2,
			"type":"VEC3"
		}
	],
	"bufferViews":[
		{
			"buffer":0,
			"byteLength":3648,
			"byteOffset":0,
			"target":34962
		},
		{
			"buffer":0,
			"byteLength":3648,
			"byteOffset":3648,
			"target":34962
		},
		{
			"buffer":0,
			"byteLength":2432,
			"byteOffset":7296,
			"target":34962
		},
		{
			"buffer":0,
			"byteLength":1216,
			"byteOffset":9728,
			"target":34962
		},
		{
			"buffer":0,
			"byteLength":4864,
			"byteOffset":10944,
			"target":34962
		},
		{
			"buffer":0,
			"byteLength":1320,
			"byteOffset":15808,
			"target":34963
		},
		{
			"buffer":0,
			"byteLength":1600,
			"byteOffset":17128
		},
		{
			"buffer":0,
			"byteLength":3648,
			"byteOffset":18728,
			"target":34962
		},
		{
			"buffer":0,
			"byteLength":3648,
			"byteOffset":22376,
			"target":34962
		},
		{
			"buffer":0,
			"byteLength":2432,
			"byteOffset":26024,
			"target":34962
		},
		{
			"buffer":0,
			"byteLength":1216,
			"byteOffset":28456,
			"target":34962
		},
		{
			"buffer":0,
			"byteLength":4864,
			"byteOffset":29672,
			"target":34962
		},
		{
			"buffer":0,
			"byteLength":1320,
			"byteOffset":34536,
			"target":34963
		},
		{
			"buffer":0,
			"byteLength":3648,
			"byteOffset":35856,
			"target":34962
		},
		{
			"buffer":0,
			"byteLength":3648,
			"byteOffset":39504,
			"target":34962
		},
		{
			"buffer":0,
			"byteLength":2432,
			"byteOffset":43152,
			"target":34962
		},
		{
			"buffer":0,
			"byteLength":1216,
			"byteOffset":45584,
			"target":34962
		},
		{
			"buffer":0,
			"byteLength":4864,
			"byteOffset":46800,
			"target":34962
		},
		{
			"buffer":0,
			"byteLength":3648,
			"byteOffset":51664,
			"target":34962
		},
		{
			"buffer":0,
			"byteLength":3648,
			"byteOffset":55312,
			"target":34962
		},
		{
			"buffer":0,
			"byteLength":2432,
			"byteOffset":58960,
			"target":34962
		},
		{
			"buffer":0,
			"byteLength":1216,
			"byteOffset":61392,
			"target":34962
		},
		{
			"buffer":0,
			"byteLength":4864,
			"byteOffset":62608,
			"target":34962
		},
		{
			"buffer":0,
			"byteLength":3648,
			"byteOffset":67472,
			"target":34962
		},
		{
			"buffer":0,
			"byteLength":3648,
			"byteOffset":71120,
			"target":34962
		},
		{
			"buffer":0,
			"byteLength":2432,
			"byteOffset":74768,
			"target":34962
		},
		{
			"buffer":0,
			"byteLength":1216,
			"byteOffset":77200,
			"target":34962
		},
		{
			"buffer":0,
			"byteLength":4864,
			"byteOffset":78416,
			"target":34962
		},
		{
			"buffer":0,
			"byteLength":3648,
			"byteOffset":83280,
			"target":34962
		},
		{
			"buffer":0,
			"byteLength":3648,
			"byteOffset":86928,
			"target":34962
		},
		{
			"buffer":0,
			"byteLength":2432,
			"byteOffset":90576,
			"target":34962
		},
		{
			"buffer":0,
			"byteLength":1216,
			"byteOffset":93008,
			"target":34962
		},
		{
			"buffer":0,
			"byteLength":4864,
			"byteOffset":94224,
			"target":34962
		},
		{
			"buffer":0,
			"byteLength":3648,
			"byteOffset":99088,
			"target":34962
		},
		{
			"buffer":0,
			"byteLength":3648,
			"byteOffset":102736,
			"target":34962
		},
		{
			"buffer":0,
			"byteLength":2432,
			"byteOffset":106384,
			"target":34962
		},
		{
			"buffer":0,
			"byteLength":1216,
			"byteOffset":108816,
			"target":34962
		},
		{
			"buffer":0,
			"byteLength":4864,
			"byteOffset":110032,
			"target":34962
		},
		{
			"buffer":0,
			"byteLength":1320,
			"byteOffset":114896,
			"target":34963
		},
		{
			"buffer":0,
			"byteLength":3648,
			"byteOffset":116216,
			"target":34962
		},
		{
			"buffer":0,
			"byteLength":3648,
			"byteOffset":119864,
			"target":34962
		},
		{
			"buffer":0,
			"byteLength":2432,
			"byteOffset":123512,
			"target":34962
		},
		{
			"buffer":0,
			"byteLength":1216,
			"byteOffset":125944,
			"target":34962
		},
		{
			"buffer":0,
			"byteLength":4864,
			"byteOffset":127160,
			"target":34962
		},
		{
			"buffer":0,
			"byteLength":3648,
			"byteOffset":132024,
			"target":34962
		},
		{
			"buffer":0,
			"byteLength":3648,
			"byteOffset":135672,
			"target":34962
		},
		{
			"buffer":0,
			"byteLength":2432,
			"byteOffset":139320,
			"target":34962
		},
		{
			"buffer":0,
			"byteLength":1216,
			"byteOffset":141752,
			"target":34962
		},
		{
			"buffer":0,
			"byteLength":4864,
			"byteOffset":142968,
			"target":34962
		},
		{
			"buffer":0,
			"byteLength":3648,
			"byteOffset":147832,
			"target":34962
		},
		{
			"buffer":0,
			"byteLength":3648,
			"byteOffset":151480,
			"target":34962
		},
		{
			"buffer":0,
			"byteLength":2432,
			"byteOffset":155128,
			"target":34962
		},
		{
			"buffer":0,
			"byteLength":1216,
			"byteOffset":157560,
			"target":34962
		},
		{
			"buffer":0,
			"byteLength":4864,
			"byteOffset":158776,
			"target":34962
		},
		{
			"buffer":0,
			"byteLength":3648,
			"byteOffset":163640,
			"target":34962
		},
		{
			"buffer":0,
			"byteLength":3648,
			"byteOffset":167288,
			"target":34962
		},
		{
			"buffer":0,
			"byteLength":2432,
			"byteOffset":170936,
			"target":34962
		},
		{
			"buffer":0,
			"byteLength":1216,
			"byteOffset":173368,
			"target":34962
		},
		{
			"buffer":0,
			"byteLength":4864,
			"byteOffset":174584,
			"target":34962
		},
		{
			"buffer":0,
			"byteLength":3648,
			"byteOffset":179448,
			"target":34962
		},
		{
			"buffer":0,
			"byteLength":3648,
			"byteOffset":183096,
			"target":34962
		},
		{
			"buffer":0,
			"byteLength":2432,
			"byteOffset":186744,
			"target":34962
		},
		{
			"buffer":0,
			"byteLength":1216,
			"byteOffset":189176,
			"target":34962
		},
		{
			"buffer":0,
			"byteLength":4864,
			"byteOffset":190392,
			"target":34962
		},
		{
			"buffer":0,
			"byteLength":37488,
			"byteOffset":195256,
			"target":34962
		},
		{
			"buffer":0,
			"byteLength":37488,
			"byteOffset":232744,
			"target":34962
		},
		{
			"buffer":0,
			"byteLength":24992,
			"byteOffset":270232,
			"target":34962
		},
		{
			"buffer":0,
			"byteLength":12496,
			"byteOffset":295224,
			"target":34962
		},
		{
			"buffer":0,
			"byteLength":49984,
			"byteOffset":307720,
			"target":34962
		},
		{
			"buffer":0,
			"byteLength":12552,
			"byteOffset":357704,
			"target":34963
		},
		{
			"buffer":0,
			"byteLength":8,
			"byteOffset":370256
		},
		{
			"buffer":0,
			"byteLength":24,
			"byteOffset":370264
		},
		{
			"buffer":0,
			"byteLength":32,
			"byteOffset":370288
		},
		{
			"buffer":0,
			"byteLength":24,
			"byteOffset":370320
		},
		{
			"buffer":0,
			"byteLength":24,
			"byteOffset":370344
		},
		{
			"buffer":0,
			"byteLength":32,
			"byteOffset":370368
		},
		{
			"buffer":0,
			"byteLength":24,
			"byteOffset":370400
		},
		{
			"buffer":0,
			"byteLength":24,
			"byteOffset":370424
		},
		{
			"buffer":0,
			"byteLength":68,
			"byteOffset":370448
		},
		{
			"buffer":0,
			"byteLength":272,
			"byteOffset":370516
		},
		{
			"buffer":0,
			"byteLength":24,
			"byteOffset":370788
		},
		{
			"buffer":0,
			"byteLength":24,
			"byteOffset":370812
		},
		{
			"buffer":0,
			"byteLength":32,
			"byteOffset":370836
		},
		{
			"buffer":0,
			"byteLength":24,
			"byteOffset":370868
		},
		{
			"buffer":0,
			"byteLength":24,
			"byteOffset":370892
		},
		{
			"buffer":0,
			"byteLength":272,
			"byteOffset":370916
		},
		{
			"buffer":0,
			"byteLength":24,
			"byteOffset":371188
		},
		{
			"buffer":0,
			"byteLength":24,
			"byteOffset":371212
		},
		{
			"buffer":0,
			"byteLength":32,
			"byteOffset":371236
		},
		{
			"buffer":0,
			"byteLength":24,
			"byteOffset":371268
		},
		{
			"buffer":0,
			"byteLength":24,
			"byteOffset":371292
		},
		{
			"buffer":0,
			"byteLength":272,
			"byteOffset":371316
		},
		{
			"buffer":0,
			"byteLength":24,
			"byteOffset":371588
		},
		{
			"buffer":0,
			"byteLength":24,
			"byteOffset":371612
		},
		{
			"buffer":0,
			"byteLength":32,
			"byteOffset":371636
		},
		{
			"buffer":0,
			"byteLength":24,
			"byteOffset":371668
		},
		{
			"buffer":0,
			"byteLength":24,
			"byteOffset":371692
		},
		{
			"buffer":0,
			"byteLength":272,
			"byteOffset":371716
		},
		{
			"buffer":0,
			"byteLength":24,
			"byteOffset":371988
		},
		{
			"buffer":0,
			"byteLength":24,
			"byteOffset":372012
		},
		{
			"buffer":0,
			"byteLength":32,
			"byteOffset":372036
		},
		{
			"buffer":0,
			"byteLength":24,
			"byteOffset":372068
		},
		{
			"buffer":0,
			"byteLength":24,
			"byteOffset":372092
		},
		{
			"buffer":0,
			"byteLength":272,
			"byteOffset":372116
		},
		{
			"buffer":0,
			"byteLength":24,
			"byteOffset":372388
		},
		{
			"buffer":0,
			"byteLength":24,
			"byteOffset":372412
		},
		{
			"buffer":0,
			"byteLength":32,
			"byteOffset":372436
		},
		{
			"buffer":0,
			"byteLength":24,
			"byteOffset":372468
		},
		{
			"buffer":0,
			"byteLength":24,
			"byteOffset":372492
		},
		{
			"buffer":0,
			"byteLength":272,
			"byteOffset":372516
		},
		{
			"buffer":0,
			"byteLength":24,
			"byteOffset":372788
		},
		{
			"buffer":0,
			"byteLength":24,
			"byteOffset":372812
		},
		{
			"buffer":0,
			"byteLength":32,
			"byteOffset":372836
		},
		{
			"buffer":0,
			"byteLength":24,
			"byteOffset":372868
		},
		{
			"buffer":0,
			"byteLength":24,
			"byteOffset":372892
		},
		{
			"buffer":0,
			"byteLength":272,
			"byteOffset":372916
		},
		{
			"buffer":0,
			"byteLength":24,
			"byteOffset":373188
		},
		{
			"buffer":0,
			"byteLength":24,
			"byteOffset":373212
		},
		{
			"buffer":0,
			"byteLength":32,
			"byteOffset":373236
		},
		{
			"buffer":0,
			"byteLength":24,
			"byteOffset":373268
		},
		{
			"buffer":0,
			"byteLength":24,
			"byteOffset":373292
		},
		{
			"buffer":0,
			"byteLength":272,
			"byteOffset":373316
		},
		{
			"buffer":0,
			"byteLength":24,
			"byteOffset":373588
		},
		{
			"buffer":0,
			"byteLength":24,
			"byteOffset":373612
		},
		{
			"buffer":0,
			"byteLength":32,
			"byteOffset":373636
		},
		{
			"buffer":0,
			"byteLength":24,
			"byteOffset":373668
		},
		{
			"buffer":0,
			"byteLength":24,
			"byteOffset":373692
		},
		{
			"buffer":0,
			"byteLength":272,
			"byteOffset":373716
		},
		{
			"buffer":0,
			"byteLength":24,
			"byteOffset":373988
		},
		{
			"buffer":0,
			"byteLength":24,
			"byteOffset":374012
		},
		{
			"buffer":0,
			"byteLength":32,
			"byteOffset":374036
		},
		{
			"buffer":0,
			"byteLength":24,
			"byteOffset":374068
		},
		{
			"buffer":0,
			"byteLength":24,
			"byteOffset":374092
		},
		{
			"buffer":0,
			"byteLength":272,
			"byteOffset":374116
		},
		{
			"buffer":0,
			"byteLength":24,
			"byteOffset":374388
		},
		{
			"buffer":0,
			"byteLength":24,
			"byteOffset":374412
		},
		{
			"buffer":0,
			"byteLength":32,
			"byteOffset":374436
		},
		{
			"buffer":0,
			"byteLength":24,
			"byteOffset":374468
		},
		{
			"buffer":0,
			"byteLength":24,
			"byteOffset":374492
		},
		{
			"buffer":0,
			"byteLength":272,
			"byteOffset":374516
		},
		{
			"buffer":0,
			"byteLength":24,
			"byteOffset":374788
		},
		{
			"buffer":0,
			"byteLength":24,
			"byteOffset":374812
		},
		{
			"buffer":0,
			"byteLength":32,
			"byteOffset":374836
		},
		{
			"buffer":0,
			"byteLength":24,
			"byteOffset":374868
		},
		{
			"buffer":0,
			"byteLength":24,
			"byteOffset":374892
		},
		{
			"buffer":0,
			"byteLength":272,
			"byteOffset":374916
		},
		{
			"buffer":0,
			"byteLength":24,
			"byteOffset":375188
		},
		{
			"buffer":0,
			"byteLength":24,
			"byteOffset":375212
		},
		{
			"buffer":0,
			"byteLength":32,
			"byteOffset":375236
		},
		{
			"buffer":0,
			"byteLength":24,
			"byteOffset":375268
		},
		{
			"buffer":0,
			"byteLength":24,
			"byteOffset":375292
		},
		{
			"buffer":0,
			"byteLength":32,
			"byteOffset":375316
		},
		{
			"buffer":0,
			"byteLength":24,
			"byteOffset":375348
		},
		{
			"buffer":0,
			"byteLength":24,
			"byteOffset":375372
		},
		{
			"buffer":0,
			"byteLength":272,
			"byteOffset":375396
		},
		{
			"buffer":0,
			"byteLength":24,
			"byteOffset":375668
		},
		{
			"buffer":0,
			"byteLength":24,
			"byteOffset":375692
		},
		{
			"buffer":0,
			"byteLength":32,
			"byteOffset":375716
		},
		{
			"buffer":0,
			"byteLength":24,
			"byteOffset":375748
		},
		{
			"buffer":0,
			"byteLength":24,
			"byteOffset":375772
		},
		{
			"buffer":0,
			"byteLength":272,
			"byteOffset":375796
		},
		{
			"buffer":0,
			"byteLength":24,
			"byteOffset":376068
		},
		{
			"buffer":0,
			"byteLength":24,
			"byteOffset":376092
		},
		{
			"buffer":0,
			"byteLength":32,
			"byteOffset":376116
		},
		{
			"buffer":0,
			"byteLength":24,
			"byteOffset":376148
		},
		{
			"buffer":0,
			"byteLength":24,
			"byteOffset":376172
		},
		{
			"buffer":0,
			"byteLength":272,
			"byteOffset":376196
		},
		{
			"buffer":0,
			"byteLength":24,
			"byteOffset":376468
		},
		{
			"buffer":0,
			"byteLength":24,
			"byteOffset":376492
		},
		{
			"buffer":0,
			"byteLength":32,
			"byteOffset":376516
		},
		{
			"buffer":0,
			"byteLength":24,
			"byteOffset":376548
		},
		{
			"buffer":0,
			"byteLength":24,
			"byteOffset":376572
		},
		{
			"buffer":0,
			"byteLength":272,
			"byteOffset":376596
		},
		{
			"buffer":0,
			"byteLength":24,
			"byteOffset":376868
		},
		{
			"buffer":0,
			"byteLength":24,
			"byteOffset":376892
		},
		{
			"buffer":0,
			"byteLength":32,
			"byteOffset":376916
		},
		{
			"buffer":0,
			"byteLength":24,
			"byteOffset":376948
		},
		{
			"buffer":0,
			"byteLength":24,
			"byteOffset":376972
		},
		{
			"buffer":0,
			"byteLength":272,
			"byteOffset":376996
		},
		{
			"buffer":0,
			"byteLength":24,
			"byteOffset":377268
		},
		{
			"buffer":0,
			"byteLength":24,
			"byteOffset":377292
		},
		{
			"buffer":0,
			"byteLength":32,
			"byteOffset":377316
		},
		{
			"buffer":0,
			"byteLength":24,
			"byteOffset":377348
		},
		{
			"buffer":0,
			"byteLength":24,
			"byteOffset":377372
		},
		{
			"buffer":0,
			"byteLength":272,
			"byteOffset":377396
		},
		{
			"buffer":0,
			"byteLength":24,
			"byteOffset":377668
		},
		{
			"buffer":0,
			"byteLength":24,
			"byteOffset":377692
		},
		{
			"buffer":0,
			"byteLength":32,
			"byteOffset":377716
		},
		{
			"buffer":0,
			"byteLength":24,
			"byteOffset":377748
		},
		{
			"buffer":0,
			"byteLength":24,
			"byteOffset":377772
		},
		{
			"buffer":0,
			"byteLength":272,
			"byteOffset":377796
		},
		{
			"buffer":0,
			"byteLength":24,
			"byteOffset":378068
		},
		{
			"buffer":0,
			"byteLength":24,
			"byteOffset":378092
		},
		{
			"buffer":0,
			"byteLength":32,
			"byteOffset":378116
		},
		{
			"buffer":0,
			"byteLength":24,
			"byteOffset":378148
		},
		{
			"buffer":0,
			"byteLength":24,
			"byteOffset":378172
		},
		{
			"buffer":0,
			"byteLength":272,
			"byteOffset":378196
		},
		{
			"buffer":0,
			"byteLength":24,
			"byteOffset":378468
		},
		{
			"buffer":0,
			"byteLength":24,
			"byteOffset":378492
		},
		{
			"buffer":0,
			"byteLength":32,
			"byteOffset":378516
		},
		{
			"buffer":0,
			"byteLength":24,
			"byteOffset":378548
		},
		{
			"buffer":0,
			"byteLength":24,
			"byteOffset":378572
		},
		{
			"buffer":0,
			"byteLength":272,
			"byteOffset":378596
		},
		{
			"buffer":0,
			"byteLength":24,
			"byteOffset":378868
		},
		{
			"buffer":0,
			"byteLength":24,
			"byteOffset":378892
		},
		{
			"buffer":0,
			"byteLength":32,
			"byteOffset":378916
		},
		{
			"buffer":0,
			"byteLength":24,
			"byteOffset":378948
		},
		{
			"buffer":0,
			"byteLength":24,
			"byteOffset":378972
		},
		{
			"buffer":0,
			"byteLength":272,
			"byteOffset":378996
		},
		{
			"buffer":0,
			"byteLength":24,
			"byteOffset":379268
		},
		{
			"buffer":0,
			"byteLength":24,
			"byteOffset":379292
		},
		{
			"buffer":0,
			"byteLength":32,
			"byteOffset":379316
		},
		{
			"buffer":0,
			"byteLength":24,
			"byteOffset":379348
		},
		{
			"buffer":0,
			"byteLength":24,
			"byteOffset":379372
		},
		{
			"buffer":0,
			"byteLength":272,
			"byteOffset":379396
		},
		{
			"buffer":0,
			"byteLength":24,
			"byteOffset":379668
		},
		{
			"buffer":0,
			"byteLength":24,
			"byteOffset":379692
		},
		{
			"buffer":0,
			"byteLength":32,
			"byteOffset":379716
		},
		{
			"buffer":0,
			"byteLength":24,
			"byteOffset":379748
		},
		{
			"buffer":0,
			"byteLength":24,
			"byteOffset":379772
		},
		{
			"buffer":0,
			"byteLength":272,
			"byteOffset":379796
		},
		{
			"buffer":0,
			"byteLength":24,
			"byteOffset":380068
		}
	],
	"samplers":[
		{
			"magFilter":9729,
			"minFilter":9987
		}
	],
	"buffers":[
		{
			"byteLength":380092,
			"uri":"VerticalMissile.bin"
		}
	]
}
