{
	"asset":{
		"generator":"Khronos glTF Blender I/O v4.1.63",
		"version":"2.0"
	},
	"scene":0,
	"scenes":[
		{
			"name":"Scene",
			"nodes":[
				11,
				12
			]
		}
	],
	"nodes":[
		{
			"name":"InBlade",
			"rotation":[
				9.386683785805872e-08,
				-7.517178346461151e-08,
				0.6914111375808716,
				0.7224615812301636
			],
			"translation":[
				-0.030733339488506317,
				0.5268967151641846,
				-0.33361878991127014
			]
		},
		{
			"name":"OutBlade",
			"rotation":[
				9.393376387833996e-08,
				-7.510773514241009e-08,
				0.6914111375808716,
				0.7224615216255188
			],
			"scale":[
				1.0000001192092896,
				1.0000001192092896,
				1
			],
			"translation":[
				-0.030733317136764526,
				0.5268967151641846,
				0.3008038401603699
			]
		},
		{
			"name":"InTail",
			"rotation":[
				-3.0054664534873154e-07,
				-2.6642021566658514e-07,
				-0.7224615812301636,
				0.6914111375808716
			],
			"translation":[
				0.3415313959121704,
				0.5269612669944763,
				-0.278927206993103
			]
		},
		{
			"name":"OutTail",
			"rotation":[
				-3.0056298783165403e-07,
				-2.664031626409269e-07,
				-0.7224615812301636,
				0.6914111375808716
			],
			"scale":[
				0.9999999403953552,
				0.9999999403953552,
				1
			],
			"translation":[
				0.3415314555168152,
				0.5269612669944763,
				0.28986549377441406
			]
		},
		{
			"children":[
				0,
				1,
				2,
				3
			],
			"name":"Core",
			"rotation":[
				-1.1601867910826513e-08,
				-1.031277196972269e-08,
				-0.6914111375808716,
				0.7224615812301636
			],
			"scale":[
				0.9999999403953552,
				0.9999999403953552,
				1
			]
		},
		{
			"name":"neutral_bone",
			"rotation":[
				-0.7071067690849304,
				0,
				0,
				0.7071067690849304
			]
		},
		{
			"mesh":0,
			"name":"Blade",
			"skin":0
		},
		{
			"mesh":1,
			"name":"Blade.001",
			"skin":0
		},
		{
			"mesh":2,
			"name":"Blade.002",
			"skin":0
		},
		{
			"mesh":3,
			"name":"Blade.003",
			"skin":0
		},
		{
			"mesh":4,
			"name":"Core",
			"skin":0
		},
		{
			"children":[
				6,
				7,
				8,
				9,
				10,
				4,
				5
			],
			"name":"Armature",
			"translation":[
				-0.6525536775588989,
				0.08664907515048981,
				-0.006525177508592606
			]
		},
		{
			"name":"\u30a8\u30f3\u30d7\u30c6\u30a3",
			"translation":[
				0,
				-0.7484474182128906,
				0
			]
		}
	],
	"animations":[
		{
			"channels":[
				{
					"sampler":0,
					"target":{
						"node":4,
						"path":"translation"
					}
				},
				{
					"sampler":1,
					"target":{
						"node":4,
						"path":"rotation"
					}
				},
				{
					"sampler":2,
					"target":{
						"node":4,
						"path":"scale"
					}
				},
				{
					"sampler":3,
					"target":{
						"node":0,
						"path":"translation"
					}
				},
				{
					"sampler":4,
					"target":{
						"node":0,
						"path":"rotation"
					}
				},
				{
					"sampler":5,
					"target":{
						"node":0,
						"path":"scale"
					}
				},
				{
					"sampler":6,
					"target":{
						"node":1,
						"path":"translation"
					}
				},
				{
					"sampler":7,
					"target":{
						"node":1,
						"path":"rotation"
					}
				},
				{
					"sampler":8,
					"target":{
						"node":1,
						"path":"scale"
					}
				},
				{
					"sampler":9,
					"target":{
						"node":2,
						"path":"translation"
					}
				},
				{
					"sampler":10,
					"target":{
						"node":2,
						"path":"rotation"
					}
				},
				{
					"sampler":11,
					"target":{
						"node":2,
						"path":"scale"
					}
				},
				{
					"sampler":12,
					"target":{
						"node":3,
						"path":"translation"
					}
				},
				{
					"sampler":13,
					"target":{
						"node":3,
						"path":"rotation"
					}
				},
				{
					"sampler":14,
					"target":{
						"node":3,
						"path":"scale"
					}
				}
			],
			"name":"Normal",
			"samplers":[
				{
					"input":43,
					"interpolation":"STEP",
					"output":44
				},
				{
					"input":43,
					"interpolation":"STEP",
					"output":45
				},
				{
					"input":43,
					"interpolation":"STEP",
					"output":46
				},
				{
					"input":43,
					"interpolation":"STEP",
					"output":47
				},
				{
					"input":43,
					"interpolation":"STEP",
					"output":48
				},
				{
					"input":43,
					"interpolation":"STEP",
					"output":49
				},
				{
					"input":43,
					"interpolation":"STEP",
					"output":50
				},
				{
					"input":43,
					"interpolation":"STEP",
					"output":51
				},
				{
					"input":43,
					"interpolation":"STEP",
					"output":52
				},
				{
					"input":43,
					"interpolation":"STEP",
					"output":53
				},
				{
					"input":43,
					"interpolation":"STEP",
					"output":54
				},
				{
					"input":43,
					"interpolation":"STEP",
					"output":55
				},
				{
					"input":43,
					"interpolation":"STEP",
					"output":56
				},
				{
					"input":43,
					"interpolation":"STEP",
					"output":57
				},
				{
					"input":43,
					"interpolation":"STEP",
					"output":58
				}
			]
		},
		{
			"channels":[
				{
					"sampler":0,
					"target":{
						"node":4,
						"path":"translation"
					}
				},
				{
					"sampler":1,
					"target":{
						"node":4,
						"path":"rotation"
					}
				},
				{
					"sampler":2,
					"target":{
						"node":4,
						"path":"scale"
					}
				},
				{
					"sampler":3,
					"target":{
						"node":0,
						"path":"translation"
					}
				},
				{
					"sampler":4,
					"target":{
						"node":0,
						"path":"rotation"
					}
				},
				{
					"sampler":5,
					"target":{
						"node":0,
						"path":"scale"
					}
				},
				{
					"sampler":6,
					"target":{
						"node":1,
						"path":"translation"
					}
				},
				{
					"sampler":7,
					"target":{
						"node":1,
						"path":"rotation"
					}
				},
				{
					"sampler":8,
					"target":{
						"node":1,
						"path":"scale"
					}
				},
				{
					"sampler":9,
					"target":{
						"node":2,
						"path":"translation"
					}
				},
				{
					"sampler":10,
					"target":{
						"node":2,
						"path":"rotation"
					}
				},
				{
					"sampler":11,
					"target":{
						"node":2,
						"path":"scale"
					}
				},
				{
					"sampler":12,
					"target":{
						"node":3,
						"path":"translation"
					}
				},
				{
					"sampler":13,
					"target":{
						"node":3,
						"path":"rotation"
					}
				},
				{
					"sampler":14,
					"target":{
						"node":3,
						"path":"scale"
					}
				}
			],
			"name":"Open",
			"samplers":[
				{
					"input":59,
					"interpolation":"STEP",
					"output":60
				},
				{
					"input":59,
					"interpolation":"STEP",
					"output":61
				},
				{
					"input":59,
					"interpolation":"STEP",
					"output":62
				},
				{
					"input":63,
					"interpolation":"LINEAR",
					"output":64
				},
				{
					"input":63,
					"interpolation":"LINEAR",
					"output":65
				},
				{
					"input":59,
					"interpolation":"STEP",
					"output":66
				},
				{
					"input":63,
					"interpolation":"LINEAR",
					"output":67
				},
				{
					"input":63,
					"interpolation":"LINEAR",
					"output":68
				},
				{
					"input":59,
					"interpolation":"STEP",
					"output":69
				},
				{
					"input":63,
					"interpolation":"LINEAR",
					"output":70
				},
				{
					"input":59,
					"interpolation":"STEP",
					"output":71
				},
				{
					"input":59,
					"interpolation":"STEP",
					"output":72
				},
				{
					"input":63,
					"interpolation":"LINEAR",
					"output":73
				},
				{
					"input":59,
					"interpolation":"STEP",
					"output":74
				},
				{
					"input":59,
					"interpolation":"STEP",
					"output":75
				}
			]
		}
	],
	"materials":[
		{
			"doubleSided":true,
			"name":"blue_metal_plate",
			"normalTexture":{
				"index":0
			},
			"pbrMetallicRoughness":{
				"baseColorTexture":{
					"index":1
				},
				"metallicFactor":0,
				"metallicRoughnessTexture":{
					"index":2
				}
			}
		}
	],
	"meshes":[
		{
			"name":"Circle.003",
			"primitives":[
				{
					"attributes":{
						"POSITION":0,
						"NORMAL":1,
						"TEXCOORD_0":2,
						"JOINTS_0":3,
						"WEIGHTS_0":4
					},
					"indices":5,
					"material":0
				}
			]
		},
		{
			"name":"Circle.001",
			"primitives":[
				{
					"attributes":{
						"POSITION":7,
						"NORMAL":8,
						"TEXCOORD_0":9,
						"JOINTS_0":10,
						"WEIGHTS_0":11
					},
					"indices":12,
					"material":0
				},
				{
					"attributes":{
						"POSITION":13,
						"NORMAL":14,
						"TEXCOORD_0":15,
						"JOINTS_0":16,
						"WEIGHTS_0":17
					},
					"indices":18,
					"material":0
				}
			]
		},
		{
			"name":"Circle.004",
			"primitives":[
				{
					"attributes":{
						"POSITION":19,
						"NORMAL":20,
						"TEXCOORD_0":21,
						"JOINTS_0":22,
						"WEIGHTS_0":23
					},
					"indices":24,
					"material":0
				},
				{
					"attributes":{
						"POSITION":25,
						"NORMAL":26,
						"TEXCOORD_0":27,
						"JOINTS_0":28,
						"WEIGHTS_0":29
					},
					"indices":30,
					"material":0
				}
			]
		},
		{
			"name":"Circle.002",
			"primitives":[
				{
					"attributes":{
						"POSITION":31,
						"NORMAL":32,
						"TEXCOORD_0":33,
						"JOINTS_0":34,
						"WEIGHTS_0":35
					},
					"indices":36,
					"material":0
				}
			]
		},
		{
			"name":"core",
			"primitives":[
				{
					"attributes":{
						"POSITION":37,
						"NORMAL":38,
						"TEXCOORD_0":39,
						"JOINTS_0":40,
						"WEIGHTS_0":41
					},
					"indices":42,
					"material":0
				}
			]
		}
	],
	"textures":[
		{
			"sampler":0,
			"source":0
		},
		{
			"sampler":0,
			"source":1
		},
		{
			"sampler":0,
			"source":2
		}
	],
	"images":[
		{
			"mimeType":"image/png",
			"name":"blue_metal_plate_nor_gl_4k",
			"uri":"blue_metal_plate_nor_gl_4k.png"
		},
		{
			"mimeType":"image/png",
			"name":"Cast_Iron_Damaged_baseColor",
			"uri":"Cast_Iron_Damaged_baseColor.png"
		},
		{
			"mimeType":"image/png",
			"name":"blue_metal_plate_rough_4k",
			"uri":"blue_metal_plate_rough_4k.png"
		}
	],
	"skins":[
		{
			"inverseBindMatrices":6,
			"joints":[
				4,
				0,
				1,
				2,
				3,
				5
			],
			"name":"Armature"
		}
	],
	"accessors":[
		{
			"bufferView":0,
			"componentType":5126,
			"count":79,
			"max":[
				0.6418325304985046,
				1.2904423475265503,
				0.398116797208786
			],
			"min":[
				-1.7924952507019043,
				0.04196292161941528,
				0.25992289185523987
			],
			"type":"VEC3"
		},
		{
			"bufferView":1,
			"componentType":5126,
			"count":79,
			"type":"VEC3"
		},
		{
			"bufferView":2,
			"componentType":5126,
			"count":79,
			"type":"VEC2"
		},
		{
			"bufferView":3,
			"componentType":5121,
			"count":79,
			"type":"VEC4"
		},
		{
			"bufferView":4,
			"componentType":5126,
			"count":79,
			"type":"VEC4"
		},
		{
			"bufferView":5,
			"componentType":5123,
			"count":129,
			"type":"SCALAR"
		},
		{
			"bufferView":6,
			"componentType":5126,
			"count":6,
			"type":"MAT4"
		},
		{
			"bufferView":7,
			"componentType":5126,
			"count":17,
			"max":[
				0.6400238871574402,
				1.2900874614715576,
				-0.28372496366500854
			],
			"min":[
				-1.7943038940429688,
				0.04160809516906738,
				-0.2910371720790863
			],
			"type":"VEC3"
		},
		{
			"bufferView":8,
			"componentType":5126,
			"count":17,
			"type":"VEC3"
		},
		{
			"bufferView":9,
			"componentType":5126,
			"count":17,
			"type":"VEC2"
		},
		{
			"bufferView":10,
			"componentType":5121,
			"count":17,
			"type":"VEC4"
		},
		{
			"bufferView":11,
			"componentType":5126,
			"count":17,
			"type":"VEC4"
		},
		{
			"bufferView":12,
			"componentType":5123,
			"count":45,
			"type":"SCALAR"
		},
		{
			"bufferView":13,
			"componentType":5126,
			"count":70,
			"max":[
				0.6401322484016418,
				1.2900874614715576,
				-0.28372496366500854
			],
			"min":[
				-1.7943038940429688,
				0.039917707443237305,
				-0.3950423002243042
			],
			"type":"VEC3"
		},
		{
			"bufferView":14,
			"componentType":5126,
			"count":70,
			"type":"VEC3"
		},
		{
			"bufferView":15,
			"componentType":5126,
			"count":70,
			"type":"VEC2"
		},
		{
			"bufferView":16,
			"componentType":5121,
			"count":70,
			"type":"VEC4"
		},
		{
			"bufferView":17,
			"componentType":5126,
			"count":70,
			"type":"VEC4"
		},
		{
			"bufferView":18,
			"componentType":5123,
			"count":90,
			"type":"SCALAR"
		},
		{
			"bufferView":19,
			"componentType":5126,
			"count":5,
			"max":[
				-0.40716102719306946,
				-1.0085036754608154,
				0.23398709297180176
			],
			"min":[
				-1.7298591136932373,
				-1.5320823192596436,
				0.2298499047756195
			],
			"type":"VEC3"
		},
		{
			"bufferView":20,
			"componentType":5126,
			"count":5,
			"type":"VEC3"
		},
		{
			"bufferView":21,
			"componentType":5126,
			"count":5,
			"type":"VEC2"
		},
		{
			"bufferView":22,
			"componentType":5121,
			"count":5,
			"type":"VEC4"
		},
		{
			"bufferView":23,
			"componentType":5126,
			"count":5,
			"type":"VEC4"
		},
		{
			"bufferView":24,
			"componentType":5123,
			"count":9,
			"type":"SCALAR"
		},
		{
			"bufferView":25,
			"componentType":5126,
			"count":80,
			"max":[
				0.9479290246963501,
				-0.164356529712677,
				0.3491966426372528
			],
			"min":[
				-1.7298591136932373,
				-1.5320823192596436,
				0.22698768973350525
			],
			"type":"VEC3"
		},
		{
			"bufferView":26,
			"componentType":5126,
			"count":80,
			"type":"VEC3"
		},
		{
			"bufferView":27,
			"componentType":5126,
			"count":80,
			"type":"VEC2"
		},
		{
			"bufferView":28,
			"componentType":5121,
			"count":80,
			"type":"VEC4"
		},
		{
			"bufferView":29,
			"componentType":5126,
			"count":80,
			"type":"VEC4"
		},
		{
			"bufferView":30,
			"componentType":5123,
			"count":114,
			"type":"SCALAR"
		},
		{
			"bufferView":31,
			"componentType":5126,
			"count":75,
			"max":[
				0.9351702928543091,
				-0.21182626485824585,
				-0.21992188692092896
			],
			"min":[
				-1.7331522703170776,
				-1.579552173614502,
				-0.3351316750049591
			],
			"type":"VEC3"
		},
		{
			"bufferView":32,
			"componentType":5126,
			"count":75,
			"type":"VEC3"
		},
		{
			"bufferView":33,
			"componentType":5126,
			"count":75,
			"type":"VEC2"
		},
		{
			"bufferView":34,
			"componentType":5121,
			"count":75,
			"type":"VEC4"
		},
		{
			"bufferView":35,
			"componentType":5126,
			"count":75,
			"type":"VEC4"
		},
		{
			"bufferView":36,
			"componentType":5123,
			"count":111,
			"type":"SCALAR"
		},
		{
			"bufferView":37,
			"componentType":5126,
			"count":457,
			"max":[
				1.5328108072280884,
				0.4508800208568573,
				0.49504151940345764
			],
			"min":[
				-1.3236562013626099,
				-0.3364792466163635,
				-0.5049596428871155
			],
			"type":"VEC3"
		},
		{
			"bufferView":38,
			"componentType":5126,
			"count":457,
			"type":"VEC3"
		},
		{
			"bufferView":39,
			"componentType":5126,
			"count":457,
			"type":"VEC2"
		},
		{
			"bufferView":40,
			"componentType":5121,
			"count":457,
			"type":"VEC4"
		},
		{
			"bufferView":41,
			"componentType":5126,
			"count":457,
			"type":"VEC4"
		},
		{
			"bufferView":42,
			"componentType":5123,
			"count":738,
			"type":"SCALAR"
		},
		{
			"bufferView":43,
			"componentType":5126,
			"count":2,
			"max":[
				0.041666666666666664
			],
			"min":[
				0
			],
			"type":"SCALAR"
		},
		{
			"bufferView":44,
			"componentType":5126,
			"count":2,
			"type":"VEC3"
		},
		{
			"bufferView":45,
			"componentType":5126,
			"count":2,
			"type":"VEC4"
		},
		{
			"bufferView":46,
			"componentType":5126,
			"count":2,
			"type":"VEC3"
		},
		{
			"bufferView":47,
			"componentType":5126,
			"count":2,
			"type":"VEC3"
		},
		{
			"bufferView":48,
			"componentType":5126,
			"count":2,
			"type":"VEC4"
		},
		{
			"bufferView":49,
			"componentType":5126,
			"count":2,
			"type":"VEC3"
		},
		{
			"bufferView":50,
			"componentType":5126,
			"count":2,
			"type":"VEC3"
		},
		{
			"bufferView":51,
			"componentType":5126,
			"count":2,
			"type":"VEC4"
		},
		{
			"bufferView":52,
			"componentType":5126,
			"count":2,
			"type":"VEC3"
		},
		{
			"bufferView":53,
			"componentType":5126,
			"count":2,
			"type":"VEC3"
		},
		{
			"bufferView":54,
			"componentType":5126,
			"count":2,
			"type":"VEC4"
		},
		{
			"bufferView":55,
			"componentType":5126,
			"count":2,
			"type":"VEC3"
		},
		{
			"bufferView":56,
			"componentType":5126,
			"count":2,
			"type":"VEC3"
		},
		{
			"bufferView":57,
			"componentType":5126,
			"count":2,
			"type":"VEC4"
		},
		{
			"bufferView":58,
			"componentType":5126,
			"count":2,
			"type":"VEC3"
		},
		{
			"bufferView":59,
			"componentType":5126,
			"count":2,
			"max":[
				0.9166666666666666
			],
			"min":[
				0
			],
			"type":"SCALAR"
		},
		{
			"bufferView":60,
			"componentType":5126,
			"count":2,
			"type":"VEC3"
		},
		{
			"bufferView":61,
			"componentType":5126,
			"count":2,
			"type":"VEC4"
		},
		{
			"bufferView":62,
			"componentType":5126,
			"count":2,
			"type":"VEC3"
		},
		{
			"bufferView":63,
			"componentType":5126,
			"count":23,
			"max":[
				0.9166666666666666
			],
			"min":[
				0
			],
			"type":"SCALAR"
		},
		{
			"bufferView":64,
			"componentType":5126,
			"count":23,
			"type":"VEC3"
		},
		{
			"bufferView":65,
			"componentType":5126,
			"count":23,
			"type":"VEC4"
		},
		{
			"bufferView":66,
			"componentType":5126,
			"count":2,
			"type":"VEC3"
		},
		{
			"bufferView":67,
			"componentType":5126,
			"count":23,
			"type":"VEC3"
		},
		{
			"bufferView":68,
			"componentType":5126,
			"count":23,
			"type":"VEC4"
		},
		{
			"bufferView":69,
			"componentType":5126,
			"count":2,
			"type":"VEC3"
		},
		{
			"bufferView":70,
			"componentType":5126,
			"count":23,
			"type":"VEC3"
		},
		{
			"bufferView":71,
			"componentType":5126,
			"count":2,
			"type":"VEC4"
		},
		{
			"bufferView":72,
			"componentType":5126,
			"count":2,
			"type":"VEC3"
		},
		{
			"bufferView":73,
			"componentType":5126,
			"count":23,
			"type":"VEC3"
		},
		{
			"bufferView":74,
			"componentType":5126,
			"count":2,
			"type":"VEC4"
		},
		{
			"bufferView":75,
			"componentType":5126,
			"count":2,
			"type":"VEC3"
		}
	],
	"bufferViews":[
		{
			"buffer":0,
			"byteLength":948,
			"byteOffset":0,
			"target":34962
		},
		{
			"buffer":0,
			"byteLength":948,
			"byteOffset":948,
			"target":34962
		},
		{
			"buffer":0,
			"byteLength":632,
			"byteOffset":1896,
			"target":34962
		},
		{
			"buffer":0,
			"byteLength":316,
			"byteOffset":2528,
			"target":34962
		},
		{
			"buffer":0,
			"byteLength":1264,
			"byteOffset":2844,
			"target":34962
		},
		{
			"buffer":0,
			"byteLength":258,
			"byteOffset":4108,
			"target":34963
		},
		{
			"buffer":0,
			"byteLength":384,
			"byteOffset":4368
		},
		{
			"buffer":0,
			"byteLength":204,
			"byteOffset":4752,
			"target":34962
		},
		{
			"buffer":0,
			"byteLength":204,
			"byteOffset":4956,
			"target":34962
		},
		{
			"buffer":0,
			"byteLength":136,
			"byteOffset":5160,
			"target":34962
		},
		{
			"buffer":0,
			"byteLength":68,
			"byteOffset":5296,
			"target":34962
		},
		{
			"buffer":0,
			"byteLength":272,
			"byteOffset":5364,
			"target":34962
		},
		{
			"buffer":0,
			"byteLength":90,
			"byteOffset":5636,
			"target":34963
		},
		{
			"buffer":0,
			"byteLength":840,
			"byteOffset":5728,
			"target":34962
		},
		{
			"buffer":0,
			"byteLength":840,
			"byteOffset":6568,
			"target":34962
		},
		{
			"buffer":0,
			"byteLength":560,
			"byteOffset":7408,
			"target":34962
		},
		{
			"buffer":0,
			"byteLength":280,
			"byteOffset":7968,
			"target":34962
		},
		{
			"buffer":0,
			"byteLength":1120,
			"byteOffset":8248,
			"target":34962
		},
		{
			"buffer":0,
			"byteLength":180,
			"byteOffset":9368,
			"target":34963
		},
		{
			"buffer":0,
			"byteLength":60,
			"byteOffset":9548,
			"target":34962
		},
		{
			"buffer":0,
			"byteLength":60,
			"byteOffset":9608,
			"target":34962
		},
		{
			"buffer":0,
			"byteLength":40,
			"byteOffset":9668,
			"target":34962
		},
		{
			"buffer":0,
			"byteLength":20,
			"byteOffset":9708,
			"target":34962
		},
		{
			"buffer":0,
			"byteLength":80,
			"byteOffset":9728,
			"target":34962
		},
		{
			"buffer":0,
			"byteLength":18,
			"byteOffset":9808,
			"target":34963
		},
		{
			"buffer":0,
			"byteLength":960,
			"byteOffset":9828,
			"target":34962
		},
		{
			"buffer":0,
			"byteLength":960,
			"byteOffset":10788,
			"target":34962
		},
		{
			"buffer":0,
			"byteLength":640,
			"byteOffset":11748,
			"target":34962
		},
		{
			"buffer":0,
			"byteLength":320,
			"byteOffset":12388,
			"target":34962
		},
		{
			"buffer":0,
			"byteLength":1280,
			"byteOffset":12708,
			"target":34962
		},
		{
			"buffer":0,
			"byteLength":228,
			"byteOffset":13988,
			"target":34963
		},
		{
			"buffer":0,
			"byteLength":900,
			"byteOffset":14216,
			"target":34962
		},
		{
			"buffer":0,
			"byteLength":900,
			"byteOffset":15116,
			"target":34962
		},
		{
			"buffer":0,
			"byteLength":600,
			"byteOffset":16016,
			"target":34962
		},
		{
			"buffer":0,
			"byteLength":300,
			"byteOffset":16616,
			"target":34962
		},
		{
			"buffer":0,
			"byteLength":1200,
			"byteOffset":16916,
			"target":34962
		},
		{
			"buffer":0,
			"byteLength":222,
			"byteOffset":18116,
			"target":34963
		},
		{
			"buffer":0,
			"byteLength":5484,
			"byteOffset":18340,
			"target":34962
		},
		{
			"buffer":0,
			"byteLength":5484,
			"byteOffset":23824,
			"target":34962
		},
		{
			"buffer":0,
			"byteLength":3656,
			"byteOffset":29308,
			"target":34962
		},
		{
			"buffer":0,
			"byteLength":1828,
			"byteOffset":32964,
			"target":34962
		},
		{
			"buffer":0,
			"byteLength":7312,
			"byteOffset":34792,
			"target":34962
		},
		{
			"buffer":0,
			"byteLength":1476,
			"byteOffset":42104,
			"target":34963
		},
		{
			"buffer":0,
			"byteLength":8,
			"byteOffset":43580
		},
		{
			"buffer":0,
			"byteLength":24,
			"byteOffset":43588
		},
		{
			"buffer":0,
			"byteLength":32,
			"byteOffset":43612
		},
		{
			"buffer":0,
			"byteLength":24,
			"byteOffset":43644
		},
		{
			"buffer":0,
			"byteLength":24,
			"byteOffset":43668
		},
		{
			"buffer":0,
			"byteLength":32,
			"byteOffset":43692
		},
		{
			"buffer":0,
			"byteLength":24,
			"byteOffset":43724
		},
		{
			"buffer":0,
			"byteLength":24,
			"byteOffset":43748
		},
		{
			"buffer":0,
			"byteLength":32,
			"byteOffset":43772
		},
		{
			"buffer":0,
			"byteLength":24,
			"byteOffset":43804
		},
		{
			"buffer":0,
			"byteLength":24,
			"byteOffset":43828
		},
		{
			"buffer":0,
			"byteLength":32,
			"byteOffset":43852
		},
		{
			"buffer":0,
			"byteLength":24,
			"byteOffset":43884
		},
		{
			"buffer":0,
			"byteLength":24,
			"byteOffset":43908
		},
		{
			"buffer":0,
			"byteLength":32,
			"byteOffset":43932
		},
		{
			"buffer":0,
			"byteLength":24,
			"byteOffset":43964
		},
		{
			"buffer":0,
			"byteLength":8,
			"byteOffset":43988
		},
		{
			"buffer":0,
			"byteLength":24,
			"byteOffset":43996
		},
		{
			"buffer":0,
			"byteLength":32,
			"byteOffset":44020
		},
		{
			"buffer":0,
			"byteLength":24,
			"byteOffset":44052
		},
		{
			"buffer":0,
			"byteLength":92,
			"byteOffset":44076
		},
		{
			"buffer":0,
			"byteLength":276,
			"byteOffset":44168
		},
		{
			"buffer":0,
			"byteLength":368,
			"byteOffset":44444
		},
		{
			"buffer":0,
			"byteLength":24,
			"byteOffset":44812
		},
		{
			"buffer":0,
			"byteLength":276,
			"byteOffset":44836
		},
		{
			"buffer":0,
			"byteLength":368,
			"byteOffset":45112
		},
		{
			"buffer":0,
			"byteLength":24,
			"byteOffset":45480
		},
		{
			"buffer":0,
			"byteLength":276,
			"byteOffset":45504
		},
		{
			"buffer":0,
			"byteLength":32,
			"byteOffset":45780
		},
		{
			"buffer":0,
			"byteLength":24,
			"byteOffset":45812
		},
		{
			"buffer":0,
			"byteLength":276,
			"byteOffset":45836
		},
		{
			"buffer":0,
			"byteLength":32,
			"byteOffset":46112
		},
		{
			"buffer":0,
			"byteLength":24,
			"byteOffset":46144
		}
	],
	"samplers":[
		{
			"magFilter":9729,
			"minFilter":9987
		}
	],
	"buffers":[
		{
			"byteLength":46168,
			"uri":"Blade.bin"
		}
	]
}
