{
	"asset":{
		"generator":"Khronos glTF Blender I/O v4.4.56",
		"version":"2.0"
	},
	"scene":0,
	"scenes":[
		{
			"name":"Scene",
			"nodes":[
				0,
				1,
				2,
				3,
				4,
				5,
				6,
				7
			]
		}
	],
	"nodes":[
		{
			"mesh":0,
			"name":"Cube",
			"translation":[
				-1.1299999952316284,
				0,
				0
			]
		},
		{
			"mesh":1,
			"name":"\u7acb\u65b9\u4f53",
			"translation":[
				0.738865852355957,
				1.6538231372833252,
				0
			]
		},
		{
			"mesh":2,
			"name":"\u5186\u67f1",
			"rotation":[
				0,
				0.7071068286895752,
				0,
				0.7071068286895752
			],
			"scale":[
				0.7997568845748901,
				1,
				0.5600000023841858
			],
			"translation":[
				0,
				1.8822178840637207,
				0
			]
		},
		{
			"mesh":3,
			"name":"\u7acb\u65b9\u4f53.001",
			"translation":[
				0.7985475063323975,
				4.480066776275635,
				1.7646435499191284
			]
		},
		{
			"mesh":4,
			"name":"\u5186\u67f1.001",
			"rotation":[
				0,
				0,
				-0.7071068286895752,
				0.7071068286895752
			],
			"translation":[
				0,
				4.031683921813965,
				1.4244712591171265
			]
		},
		{
			"mesh":5,
			"name":"\u5186\u67f1.002",
			"rotation":[
				0.7071068286895752,
				0,
				0,
				0.7071068286895752
			],
			"translation":[
				-0.8100000023841858,
				3.999999761581421,
				0
			]
		},
		{
			"name":"LeftHand",
			"translation":[
				0,
				3.478592872619629,
				1.008902907371521
			]
		},
		{
			"name":"SP",
			"translation":[
				-0.8003127574920654,
				3.980583667755127,
				-5.461855411529541
			]
		}
	],
	"materials":[
		{
			"doubleSided":true,
			"name":"Material",
			"pbrMetallicRoughness":{
				"baseColorFactor":[
					0.800000011920929,
					0.800000011920929,
					0.800000011920929,
					1
				],
				"metallicFactor":0,
				"roughnessFactor":0.5
			}
		}
	],
	"meshes":[
		{
			"name":"Cube",
			"primitives":[
				{
					"attributes":{
						"POSITION":0,
						"NORMAL":1,
						"TEXCOORD_0":2
					},
					"indices":3,
					"material":0
				}
			]
		},
		{
			"name":"\u7acb\u65b9\u4f53",
			"primitives":[
				{
					"attributes":{
						"POSITION":4,
						"NORMAL":5,
						"TEXCOORD_0":6
					},
					"indices":7
				}
			]
		},
		{
			"name":"\u5186\u67f1",
			"primitives":[
				{
					"attributes":{
						"POSITION":8,
						"NORMAL":9,
						"TEXCOORD_0":10
					},
					"indices":11
				}
			]
		},
		{
			"name":"\u7acb\u65b9\u4f53.001",
			"primitives":[
				{
					"attributes":{
						"POSITION":12,
						"NORMAL":13,
						"TEXCOORD_0":14
					},
					"indices":7
				}
			]
		},
		{
			"name":"\u5186\u67f1.001",
			"primitives":[
				{
					"attributes":{
						"POSITION":15,
						"NORMAL":16,
						"TEXCOORD_0":17
					},
					"indices":18
				}
			]
		},
		{
			"name":"\u5186\u67f1.002",
			"primitives":[
				{
					"attributes":{
						"POSITION":19,
						"NORMAL":20,
						"TEXCOORD_0":21
					},
					"indices":22
				}
			]
		}
	],
	"accessors":[
		{
			"bufferView":0,
			"componentType":5126,
			"count":144,
			"max":[
				2.6600000858306885,
				1.6279102563858032,
				2.5
			],
			"min":[
				-0.3999999761581421,
				0.0049797650426626205,
				-2.5
			],
			"type":"VEC3"
		},
		{
			"bufferView":1,
			"componentType":5126,
			"count":144,
			"type":"VEC3"
		},
		{
			"bufferView":2,
			"componentType":5126,
			"count":144,
			"type":"VEC2"
		},
		{
			"bufferView":3,
			"componentType":5123,
			"count":264,
			"type":"SCALAR"
		},
		{
			"bufferView":4,
			"componentType":5126,
			"count":48,
			"max":[
				0.23886609077453613,
				0.15382301807403564,
				0.699999988079071
			],
			"min":[
				-1.7165977954864502,
				-0.1538231372833252,
				-0.699999988079071
			],
			"type":"VEC3"
		},
		{
			"bufferView":5,
			"componentType":5126,
			"count":48,
			"type":"VEC3"
		},
		{
			"bufferView":6,
			"componentType":5126,
			"count":48,
			"type":"VEC2"
		},
		{
			"bufferView":7,
			"componentType":5123,
			"count":72,
			"type":"SCALAR"
		},
		{
			"bufferView":8,
			"componentType":5126,
			"count":145,
			"max":[
				2.86923885345459,
				1.6113899946212769,
				2.7857143878936768
			],
			"min":[
				-3.094834327697754,
				-0.414644718170166,
				-2.7857143878936768
			],
			"type":"VEC3"
		},
		{
			"bufferView":9,
			"componentType":5126,
			"count":145,
			"type":"VEC3"
		},
		{
			"bufferView":10,
			"componentType":5126,
			"count":145,
			"type":"VEC2"
		},
		{
			"bufferView":11,
			"componentType":5123,
			"count":264,
			"type":"SCALAR"
		},
		{
			"bufferView":12,
			"componentType":5126,
			"count":48,
			"max":[
				0.5,
				1,
				1
			],
			"min":[
				-2.097095012664795,
				-1,
				-1
			],
			"type":"VEC3"
		},
		{
			"bufferView":13,
			"componentType":5126,
			"count":48,
			"type":"VEC3"
		},
		{
			"bufferView":14,
			"componentType":5126,
			"count":48,
			"type":"VEC2"
		},
		{
			"bufferView":15,
			"componentType":5126,
			"count":30,
			"max":[
				0.5877852439880371,
				0.34544333815574646,
				0.80901700258255
			],
			"min":[
				-0.9510565400123596,
				-0.30092915892601013,
				-0.8936280608177185
			],
			"type":"VEC3"
		},
		{
			"bufferView":16,
			"componentType":5126,
			"count":30,
			"type":"VEC3"
		},
		{
			"bufferView":17,
			"componentType":5126,
			"count":30,
			"type":"VEC2"
		},
		{
			"bufferView":18,
			"componentType":5123,
			"count":48,
			"type":"SCALAR"
		},
		{
			"bufferView":19,
			"componentType":5126,
			"count":288,
			"max":[
				0.44999998807907104,
				0.75,
				0.44999998807907104
			],
			"min":[
				-0.44999998807907104,
				-5.75,
				-0.44999998807907104
			],
			"type":"VEC3"
		},
		{
			"bufferView":20,
			"componentType":5126,
			"count":288,
			"type":"VEC3"
		},
		{
			"bufferView":21,
			"componentType":5126,
			"count":288,
			"type":"VEC2"
		},
		{
			"bufferView":22,
			"componentType":5123,
			"count":564,
			"type":"SCALAR"
		}
	],
	"bufferViews":[
		{
			"buffer":0,
			"byteLength":1728,
			"byteOffset":0,
			"target":34962
		},
		{
			"buffer":0,
			"byteLength":1728,
			"byteOffset":1728,
			"target":34962
		},
		{
			"buffer":0,
			"byteLength":1152,
			"byteOffset":3456,
			"target":34962
		},
		{
			"buffer":0,
			"byteLength":528,
			"byteOffset":4608,
			"target":34963
		},
		{
			"buffer":0,
			"byteLength":576,
			"byteOffset":5136,
			"target":34962
		},
		{
			"buffer":0,
			"byteLength":576,
			"byteOffset":5712,
			"target":34962
		},
		{
			"buffer":0,
			"byteLength":384,
			"byteOffset":6288,
			"target":34962
		},
		{
			"buffer":0,
			"byteLength":144,
			"byteOffset":6672,
			"target":34963
		},
		{
			"buffer":0,
			"byteLength":1740,
			"byteOffset":6816,
			"target":34962
		},
		{
			"buffer":0,
			"byteLength":1740,
			"byteOffset":8556,
			"target":34962
		},
		{
			"buffer":0,
			"byteLength":1160,
			"byteOffset":10296,
			"target":34962
		},
		{
			"buffer":0,
			"byteLength":528,
			"byteOffset":11456,
			"target":34963
		},
		{
			"buffer":0,
			"byteLength":576,
			"byteOffset":11984,
			"target":34962
		},
		{
			"buffer":0,
			"byteLength":576,
			"byteOffset":12560,
			"target":34962
		},
		{
			"buffer":0,
			"byteLength":384,
			"byteOffset":13136,
			"target":34962
		},
		{
			"buffer":0,
			"byteLength":360,
			"byteOffset":13520,
			"target":34962
		},
		{
			"buffer":0,
			"byteLength":360,
			"byteOffset":13880,
			"target":34962
		},
		{
			"buffer":0,
			"byteLength":240,
			"byteOffset":14240,
			"target":34962
		},
		{
			"buffer":0,
			"byteLength":96,
			"byteOffset":14480,
			"target":34963
		},
		{
			"buffer":0,
			"byteLength":3456,
			"byteOffset":14576,
			"target":34962
		},
		{
			"buffer":0,
			"byteLength":3456,
			"byteOffset":18032,
			"target":34962
		},
		{
			"buffer":0,
			"byteLength":2304,
			"byteOffset":21488,
			"target":34962
		},
		{
			"buffer":0,
			"byteLength":1128,
			"byteOffset":23792,
			"target":34963
		}
	],
	"buffers":[
		{
			"byteLength":24920,
			"uri":"WindMT.bin"
		}
	]
}
