{
	"asset":{
		"generator":"Khronos glTF Blender I/O v4.4.56",
		"version":"2.0"
	},
	"scene":0,
	"scenes":[
		{
			"name":"Scene",
			"nodes":[
				0,
				1,
				2
			]
		}
	],
	"nodes":[
		{
			"mesh":0,
			"name":"Body"
		},
		{
			"name":"RightWeapon",
			"translation":[
				1.6929115056991577,
				8.499826431274414,
				0
			]
		},
		{
			"name":"LeftWeapon",
			"translation":[
				-1.6929115056991577,
				8.499826431274414,
				0
			]
		}
	],
	"meshes":[
		{
			"name":"\u7acb\u65b9\u4f53.006",
			"primitives":[
				{
					"attributes":{
						"POSITION":0,
						"NORMAL":1,
						"TEXCOORD_0":2
					},
					"indices":3
				}
			]
		}
	],
	"accessors":[
		{
			"bufferView":0,
			"componentType":5126,
			"count":2436,
			"max":[
				6.4197163581848145,
				10.188850402832031,
				3.999999761581421
			],
			"min":[
				-6.523524761199951,
				-0.01280975341796875,
				-1.3909809589385986
			],
			"type":"VEC3"
		},
		{
			"bufferView":1,
			"componentType":5126,
			"count":2436,
			"type":"VEC3"
		},
		{
			"bufferView":2,
			"componentType":5126,
			"count":2436,
			"type":"VEC2"
		},
		{
			"bufferView":3,
			"componentType":5123,
			"count":4422,
			"type":"SCALAR"
		}
	],
	"bufferViews":[
		{
			"buffer":0,
			"byteLength":29232,
			"byteOffset":0,
			"target":34962
		},
		{
			"buffer":0,
			"byteLength":29232,
			"byteOffset":29232,
			"target":34962
		},
		{
			"buffer":0,
			"byteLength":19488,
			"byteOffset":58464,
			"target":34962
		},
		{
			"buffer":0,
			"byteLength":8844,
			"byteOffset":77952,
			"target":34963
		}
	],
	"buffers":[
		{
			"byteLength":86796,
			"uri":"5LegMT.bin"
		}
	]
}
