{
	"asset":{
		"generator":"Khronos glTF Blender I/O v4.4.56",
		"version":"2.0"
	},
	"scene":0,
	"scenes":[
		{
			"name":"Scene",
			"nodes":[
				0,
				1
			]
		}
	],
	"nodes":[
		{
			"mesh":0,
			"name":"\u5e73\u9762",
			"scale":[
				100,
				100,
				100
			]
		},
		{
			"mesh":1,
			"name":"Landscape"
		}
	],
	"materials":[
		{
			"doubleSided":true,
			"name":"Material",
			"normalTexture":{
				"index":0
			},
			"pbrMetallicRoughness":{
				"baseColorTexture":{
					"index":1
				},
				"metallicFactor":0.012084588408470154
			}
		}
	],
	"meshes":[
		{
			"name":"\u5e73\u9762",
			"primitives":[
				{
					"attributes":{
						"POSITION":0,
						"NORMAL":1,
						"TEXCOORD_0":2
					},
					"indices":3
				}
			]
		},
		{
			"name":"Landscape",
			"primitives":[
				{
					"attributes":{
						"POSITION":4,
						"NORMAL":5
					},
					"indices":6,
					"material":0
				}
			]
		}
	],
	"textures":[
		{
			"sampler":0,
			"source":0
		},
		{
			"sampler":0,
			"source":1
		}
	],
	"images":[
		{
			"mimeType":"image/png",
			"name":"gravelly_sand_nor_gl_4k",
			"uri":"gravelly_sand_nor_gl_4k.png"
		},
		{
			"mimeType":"image/jpeg",
			"name":"gravelly_sand_diff_4k",
			"uri":"gravelly_sand_diff_4k.jpg"
		}
	],
	"accessors":[
		{
			"bufferView":0,
			"componentType":5126,
			"count":1089,
			"max":[
				1,
				0,
				1
			],
			"min":[
				-1,
				0,
				-1
			],
			"type":"VEC3"
		},
		{
			"bufferView":1,
			"componentType":5126,
			"count":1089,
			"type":"VEC3"
		},
		{
			"bufferView":2,
			"componentType":5126,
			"count":1089,
			"type":"VEC2"
		},
		{
			"bufferView":3,
			"componentType":5123,
			"count":6144,
			"type":"SCALAR"
		},
		{
			"bufferView":4,
			"componentType":5126,
			"count":7500,
			"max":[
				750,
				1,
				750
			],
			"min":[
				-750,
				-1,
				-750
			],
			"type":"VEC3"
		},
		{
			"bufferView":5,
			"componentType":5126,
			"count":7500,
			"type":"VEC3"
		},
		{
			"bufferView":6,
			"componentType":5123,
			"count":43956,
			"type":"SCALAR"
		}
	],
	"bufferViews":[
		{
			"buffer":0,
			"byteLength":13068,
			"byteOffset":0,
			"target":34962
		},
		{
			"buffer":0,
			"byteLength":13068,
			"byteOffset":13068,
			"target":34962
		},
		{
			"buffer":0,
			"byteLength":8712,
			"byteOffset":26136,
			"target":34962
		},
		{
			"buffer":0,
			"byteLength":12288,
			"byteOffset":34848,
			"target":34963
		},
		{
			"buffer":0,
			"byteLength":90000,
			"byteOffset":47136,
			"target":34962
		},
		{
			"buffer":0,
			"byteLength":90000,
			"byteOffset":137136,
			"target":34962
		},
		{
			"buffer":0,
			"byteLength":87912,
			"byteOffset":227136,
			"target":34963
		}
	],
	"samplers":[
		{
			"magFilter":9729,
			"minFilter":9987
		}
	],
	"buffers":[
		{
			"byteLength":315048,
			"uri":"StageTail.bin"
		}
	]
}
