{
	"asset":{
		"generator":"Khronos glTF Blender I/O v4.4.56",
		"version":"2.0"
	},
	"extensionsUsed":[
		"KHR_texture_transform"
	],
	"extensionsRequired":[
		"KHR_texture_transform"
	],
	"scene":0,
	"scenes":[
		{
			"name":"Scene",
			"nodes":[
				0
			]
		}
	],
	"nodes":[
		{
			"mesh":0,
			"name":"\u5186\u67f1"
		}
	],
	"materials":[
		{
			"doubleSided":true,
			"name":"\u30de\u30c6\u30ea\u30a2\u30eb.004",
			"pbrMetallicRoughness":{
				"baseColorTexture":{
					"extensions":{
						"KHR_texture_transform":{
							"offset":[
								0,
								-1.0000007152557373
							],
							"scale":[
								1.5000001192092896,
								2.0000007152557373
							]
						}
					},
					"index":0
				},
				"metallicFactor":0.9806905388832092,
				"roughnessFactor":0.21052411198616028
			}
		},
		{
			"doubleSided":true,
			"name":"\u30de\u30c6\u30ea\u30a2\u30eb.009",
			"pbrMetallicRoughness":{
				"baseColorFactor":[
					1,
					0.04763283208012581,
					0.02900673635303974,
					1
				],
				"metallicFactor":0.8397622108459473,
				"metallicRoughnessTexture":{
					"extensions":{
						"KHR_texture_transform":{
							"offset":[
								0,
								-1.0000007152557373
							],
							"scale":[
								1.5000001192092896,
								2.0000007152557373
							]
						}
					},
					"index":1
				}
			}
		}
	],
	"meshes":[
		{
			"name":"\u5186\u67f1",
			"primitives":[
				{
					"attributes":{
						"POSITION":0,
						"NORMAL":1,
						"TEXCOORD_0":2,
						"TEXCOORD_1":3
					},
					"indices":4,
					"material":0
				},
				{
					"attributes":{
						"POSITION":5,
						"NORMAL":6,
						"TEXCOORD_0":7,
						"TEXCOORD_1":8
					},
					"indices":9,
					"material":1
				}
			]
		}
	],
	"textures":[
		{
			"sampler":0,
			"source":0
		},
		{
			"sampler":0,
			"source":1
		}
	],
	"images":[
		{
			"mimeType":"image/jpeg",
			"name":"rubber_tiles_diff_short",
			"uri":"rubber_tiles_diff_short.jpg"
		},
		{
			"mimeType":"image/png",
			"name":"Image",
			"uri":"Image.png"
		}
	],
	"accessors":[
		{
			"bufferView":0,
			"componentType":5126,
			"count":718,
			"max":[
				0.0383150577545166,
				1.1431329250335693,
				1.689768671989441
			],
			"min":[
				-0.3140503168106079,
				-1.125783920288086,
				-1.7285408973693848
			],
			"type":"VEC3"
		},
		{
			"bufferView":1,
			"componentType":5126,
			"count":718,
			"type":"VEC3"
		},
		{
			"bufferView":2,
			"componentType":5126,
			"count":718,
			"type":"VEC2"
		},
		{
			"bufferView":3,
			"componentType":5126,
			"count":718,
			"type":"VEC2"
		},
		{
			"bufferView":4,
			"componentType":5123,
			"count":1188,
			"type":"SCALAR"
		},
		{
			"bufferView":5,
			"componentType":5126,
			"count":96,
			"max":[
				-0.14037597179412842,
				0.13279050588607788,
				0.6797192692756653
			],
			"min":[
				-0.1794337034225464,
				-0.09684758633375168,
				-0.7713872194290161
			],
			"type":"VEC3"
		},
		{
			"bufferView":6,
			"componentType":5126,
			"count":96,
			"type":"VEC3"
		},
		{
			"bufferView":7,
			"componentType":5126,
			"count":96,
			"type":"VEC2"
		},
		{
			"bufferView":8,
			"componentType":5126,
			"count":96,
			"type":"VEC2"
		},
		{
			"bufferView":9,
			"componentType":5123,
			"count":180,
			"type":"SCALAR"
		}
	],
	"bufferViews":[
		{
			"buffer":0,
			"byteLength":8616,
			"byteOffset":0,
			"target":34962
		},
		{
			"buffer":0,
			"byteLength":8616,
			"byteOffset":8616,
			"target":34962
		},
		{
			"buffer":0,
			"byteLength":5744,
			"byteOffset":17232,
			"target":34962
		},
		{
			"buffer":0,
			"byteLength":5744,
			"byteOffset":22976,
			"target":34962
		},
		{
			"buffer":0,
			"byteLength":2376,
			"byteOffset":28720,
			"target":34963
		},
		{
			"buffer":0,
			"byteLength":1152,
			"byteOffset":31096,
			"target":34962
		},
		{
			"buffer":0,
			"byteLength":1152,
			"byteOffset":32248,
			"target":34962
		},
		{
			"buffer":0,
			"byteLength":768,
			"byteOffset":33400,
			"target":34962
		},
		{
			"buffer":0,
			"byteLength":768,
			"byteOffset":34168,
			"target":34962
		},
		{
			"buffer":0,
			"byteLength":360,
			"byteOffset":34936,
			"target":34963
		}
	],
	"samplers":[
		{
			"magFilter":9729,
			"minFilter":9987
		}
	],
	"buffers":[
		{
			"byteLength":35296,
			"uri":"Shield.bin"
		}
	]
}
