{
	"asset":{
		"generator":"Khronos glTF Blender I/O v4.4.56",
		"version":"2.0"
	},
	"extensionsUsed":[
		"KHR_materials_emissive_strength",
		"KHR_materials_specular"
	],
	"scene":0,
	"scenes":[
		{
			"name":"Scene",
			"nodes":[
				0,
				1,
				2
			]
		}
	],
	"nodes":[
		{
			"mesh":0,
			"name":"Cube",
			"translation":[
				-0.08523499965667725,
				0.6788862943649292,
				-2.5093936920166016
			]
		},
		{
			"mesh":1,
			"name":"\u5186\u67f1",
			"rotation":[
				0.7071068286895752,
				0,
				0,
				0.7071068286895752
			],
			"scale":[
				0.6117228865623474,
				1.00600004196167,
				0.6117228865623474
			],
			"translation":[
				-0.019596457481384277,
				0.6214753985404968,
				0.9510045051574707
			]
		},
		{
			"name":"SP",
			"translation":[
				0.0022171735763549805,
				0.6635362505912781,
				-5.040566921234131
			]
		}
	],
	"materials":[
		{
			"doubleSided":true,
			"extensions":{
				"KHR_materials_specular":{
					"specularColorTexture":{
						"index":0
					}
				}
			},
			"name":"\u30de\u30c6\u30ea\u30a2\u30eb",
			"normalTexture":{
				"index":1,
				"scale":10
			},
			"pbrMetallicRoughness":{
				"baseColorTexture":{
					"index":2
				},
				"metallicFactor":0.9154078364372253,
				"metallicRoughnessTexture":{
					"index":3
				}
			}
		},
		{
			"doubleSided":true,
			"emissiveFactor":[
				1,
				0.0007767065544612706,
				0.0011480452958494425
			],
			"extensions":{
				"KHR_materials_emissive_strength":{
					"emissiveStrength":50.29999542236328
				}
			},
			"name":"\u767a\u5149",
			"pbrMetallicRoughness":{
				"baseColorTexture":{
					"index":4
				},
				"metallicFactor":0.42487284541130066,
				"roughnessFactor":0
			}
		},
		{
			"doubleSided":true,
			"name":"\u767a\u51492",
			"pbrMetallicRoughness":{
				"baseColorFactor":[
					0.8011330962181091,
					0.02552684210240841,
					0.02552684210240841,
					1
				],
				"metallicFactor":0.9556641578674316,
				"roughnessFactor":0.15901437401771545
			}
		}
	],
	"meshes":[
		{
			"name":"Cube",
			"primitives":[
				{
					"attributes":{
						"POSITION":0,
						"NORMAL":1,
						"TEXCOORD_0":2
					},
					"indices":3,
					"material":0
				},
				{
					"attributes":{
						"POSITION":4,
						"NORMAL":5,
						"TEXCOORD_0":6
					},
					"indices":7,
					"material":1
				}
			]
		},
		{
			"name":"\u5186\u67f1.015",
			"primitives":[
				{
					"attributes":{
						"POSITION":8,
						"NORMAL":9,
						"TEXCOORD_0":10
					},
					"indices":11,
					"material":0
				},
				{
					"attributes":{
						"POSITION":12,
						"NORMAL":13,
						"TEXCOORD_0":14
					},
					"indices":15,
					"material":2
				}
			]
		}
	],
	"textures":[
		{
			"sampler":0,
			"source":0
		},
		{
			"sampler":0,
			"source":1
		},
		{
			"sampler":0,
			"source":2
		},
		{
			"sampler":0,
			"source":3
		},
		{
			"sampler":0,
			"source":4
		}
	],
	"images":[
		{
			"mimeType":"image/png",
			"name":"rubber_tiles_specular",
			"uri":"rubber_tiles_specular.png"
		},
		{
			"mimeType":"image/png",
			"name":"rubber_tiles_nor_gl_4k",
			"uri":"rubber_tiles_nor_gl_4k.png"
		},
		{
			"mimeType":"image/jpeg",
			"name":"rubber_tiles_diff_short",
			"uri":"rubber_tiles_diff_short.jpg"
		},
		{
			"mimeType":"image/png",
			"name":"rubber_tiles_rough_4k",
			"uri":"rubber_tiles_rough_4k.png"
		},
		{
			"mimeType":"image/png",
			"name":"emissive",
			"uri":"emissive.png"
		}
	],
	"accessors":[
		{
			"bufferView":0,
			"componentType":5126,
			"count":746,
			"max":[
				0.3637453317642212,
				0.5022196769714355,
				2.6524863243103027
			],
			"min":[
				-0.39335304498672485,
				-0.8614528775215149,
				-3.110095500946045
			],
			"type":"VEC3"
		},
		{
			"bufferView":1,
			"componentType":5126,
			"count":746,
			"type":"VEC3"
		},
		{
			"bufferView":2,
			"componentType":5126,
			"count":746,
			"type":"VEC2"
		},
		{
			"bufferView":3,
			"componentType":5123,
			"count":1368,
			"type":"SCALAR"
		},
		{
			"bufferView":4,
			"componentType":5126,
			"count":4,
			"max":[
				0.14674212038516998,
				0.11374161392450333,
				-1.256974697113037
			],
			"min":[
				-0.0013603568077087402,
				-0.22341793775558472,
				-1.4461703300476074
			],
			"type":"VEC3"
		},
		{
			"bufferView":5,
			"componentType":5126,
			"count":4,
			"type":"VEC3"
		},
		{
			"bufferView":6,
			"componentType":5126,
			"count":4,
			"type":"VEC2"
		},
		{
			"bufferView":7,
			"componentType":5123,
			"count":6,
			"type":"SCALAR"
		},
		{
			"bufferView":8,
			"componentType":5126,
			"count":544,
			"max":[
				0.25000011920928955,
				1.3493919372558594,
				0.25000014901161194
			],
			"min":[
				-0.2500000298023224,
				-1,
				-0.2500000298023224
			],
			"type":"VEC3"
		},
		{
			"bufferView":9,
			"componentType":5126,
			"count":544,
			"type":"VEC3"
		},
		{
			"bufferView":10,
			"componentType":5126,
			"count":544,
			"type":"VEC2"
		},
		{
			"bufferView":11,
			"componentType":5123,
			"count":1296,
			"type":"SCALAR"
		},
		{
			"bufferView":12,
			"componentType":5126,
			"count":128,
			"max":[
				0.1560615450143814,
				1.2072651386260986,
				0.15606153011322021
			],
			"min":[
				-0.15606141090393066,
				-0.7035780549049377,
				-0.15606126189231873
			],
			"type":"VEC3"
		},
		{
			"bufferView":13,
			"componentType":5126,
			"count":128,
			"type":"VEC3"
		},
		{
			"bufferView":14,
			"componentType":5126,
			"count":128,
			"type":"VEC2"
		},
		{
			"bufferView":15,
			"componentType":5123,
			"count":192,
			"type":"SCALAR"
		}
	],
	"bufferViews":[
		{
			"buffer":0,
			"byteLength":8952,
			"byteOffset":0,
			"target":34962
		},
		{
			"buffer":0,
			"byteLength":8952,
			"byteOffset":8952,
			"target":34962
		},
		{
			"buffer":0,
			"byteLength":5968,
			"byteOffset":17904,
			"target":34962
		},
		{
			"buffer":0,
			"byteLength":2736,
			"byteOffset":23872,
			"target":34963
		},
		{
			"buffer":0,
			"byteLength":48,
			"byteOffset":26608,
			"target":34962
		},
		{
			"buffer":0,
			"byteLength":48,
			"byteOffset":26656,
			"target":34962
		},
		{
			"buffer":0,
			"byteLength":32,
			"byteOffset":26704,
			"target":34962
		},
		{
			"buffer":0,
			"byteLength":12,
			"byteOffset":26736,
			"target":34963
		},
		{
			"buffer":0,
			"byteLength":6528,
			"byteOffset":26748,
			"target":34962
		},
		{
			"buffer":0,
			"byteLength":6528,
			"byteOffset":33276,
			"target":34962
		},
		{
			"buffer":0,
			"byteLength":4352,
			"byteOffset":39804,
			"target":34962
		},
		{
			"buffer":0,
			"byteLength":2592,
			"byteOffset":44156,
			"target":34963
		},
		{
			"buffer":0,
			"byteLength":1536,
			"byteOffset":46748,
			"target":34962
		},
		{
			"buffer":0,
			"byteLength":1536,
			"byteOffset":48284,
			"target":34962
		},
		{
			"buffer":0,
			"byteLength":1024,
			"byteOffset":49820,
			"target":34962
		},
		{
			"buffer":0,
			"byteLength":384,
			"byteOffset":50844,
			"target":34963
		}
	],
	"samplers":[
		{
			"magFilter":9729,
			"minFilter":9987
		}
	],
	"buffers":[
		{
			"byteLength":51228,
			"uri":"RaserCannon.bin"
		}
	]
}
