{
	"asset":{
		"generator":"Khronos glTF Blender I/O v4.4.56",
		"version":"2.0"
	},
	"scene":0,
	"scenes":[
		{
			"name":"Scene",
			"nodes":[
				1
			]
		}
	],
	"nodes":[
		{
			"name":"SP",
			"translation":[
				0,
				0.7239309549331665,
				-5.224887847900391
			]
		},
		{
			"children":[
				0
			],
			"mesh":0,
			"name":"Riner"
		}
	],
	"materials":[
		{
			"doubleSided":true,
			"name":"\u30de\u30c6\u30ea\u30a2\u30eb.001",
			"normalTexture":{
				"index":0,
				"scale":7.5
			},
			"pbrMetallicRoughness":{
				"baseColorTexture":{
					"index":1
				},
				"metallicFactor":0.8519637584686279,
				"metallicRoughnessTexture":{
					"index":2
				}
			}
		},
		{
			"doubleSided":true,
			"name":"\u30de\u30c6\u30ea\u30a2\u30eb",
			"pbrMetallicRoughness":{
				"baseColorFactor":[
					0.800614058971405,
					0.6632397174835205,
					0.0500028133392334,
					1
				],
				"roughnessFactor":0.1139240562915802
			}
		}
	],
	"meshes":[
		{
			"name":"\u5186\u67f1.004",
			"primitives":[
				{
					"attributes":{
						"POSITION":0,
						"NORMAL":1,
						"TEXCOORD_0":2
					},
					"indices":3,
					"material":0
				},
				{
					"attributes":{
						"POSITION":4,
						"NORMAL":5,
						"TEXCOORD_0":6
					},
					"indices":7,
					"material":1
				}
			]
		}
	],
	"textures":[
		{
			"sampler":0,
			"source":0
		},
		{
			"sampler":0,
			"source":1
		},
		{
			"sampler":0,
			"source":2
		}
	],
	"images":[
		{
			"mimeType":"image/png",
			"name":"rubber_tiles_nor_gl_4k",
			"uri":"rubber_tiles_nor_gl_4k.png"
		},
		{
			"mimeType":"image/png",
			"name":"miniature",
			"uri":"miniature.png"
		},
		{
			"mimeType":"image/png",
			"name":"blue_metal_plate_rough_4k",
			"uri":"blue_metal_plate_rough_4k.png"
		}
	],
	"accessors":[
		{
			"bufferView":0,
			"componentType":5126,
			"count":508,
			"max":[
				0.184658020734787,
				1.3914823532104492,
				0.6850708723068237
			],
			"min":[
				-0.18187394738197327,
				-0.29272228479385376,
				-5.300172805786133
			],
			"type":"VEC3"
		},
		{
			"bufferView":1,
			"componentType":5126,
			"count":508,
			"type":"VEC3"
		},
		{
			"bufferView":2,
			"componentType":5126,
			"count":508,
			"type":"VEC2"
		},
		{
			"bufferView":3,
			"componentType":5123,
			"count":984,
			"type":"SCALAR"
		},
		{
			"bufferView":4,
			"componentType":5126,
			"count":4,
			"max":[
				0.060105323791503906,
				1.3914823532104492,
				0.16463959217071533
			],
			"min":[
				-0.060910921543836594,
				1.2278871536254883,
				0.12873470783233643
			],
			"type":"VEC3"
		},
		{
			"bufferView":5,
			"componentType":5126,
			"count":4,
			"type":"VEC3"
		},
		{
			"bufferView":6,
			"componentType":5126,
			"count":4,
			"type":"VEC2"
		},
		{
			"bufferView":7,
			"componentType":5123,
			"count":6,
			"type":"SCALAR"
		}
	],
	"bufferViews":[
		{
			"buffer":0,
			"byteLength":6096,
			"byteOffset":0,
			"target":34962
		},
		{
			"buffer":0,
			"byteLength":6096,
			"byteOffset":6096,
			"target":34962
		},
		{
			"buffer":0,
			"byteLength":4064,
			"byteOffset":12192,
			"target":34962
		},
		{
			"buffer":0,
			"byteLength":1968,
			"byteOffset":16256,
			"target":34963
		},
		{
			"buffer":0,
			"byteLength":48,
			"byteOffset":18224,
			"target":34962
		},
		{
			"buffer":0,
			"byteLength":48,
			"byteOffset":18272,
			"target":34962
		},
		{
			"buffer":0,
			"byteLength":32,
			"byteOffset":18320,
			"target":34962
		},
		{
			"buffer":0,
			"byteLength":12,
			"byteOffset":18352,
			"target":34963
		}
	],
	"samplers":[
		{
			"magFilter":9729,
			"minFilter":9987
		}
	],
	"buffers":[
		{
			"byteLength":18364,
			"uri":"LinearRifle.bin"
		}
	]
}
