{
	"asset":{
		"generator":"Khronos glTF Blender I/O v4.4.56",
		"version":"2.0"
	},
	"scene":0,
	"scenes":[
		{
			"name":"Scene",
			"nodes":[
				0,
				1,
				2,
				3,
				4,
				5,
				6,
				7,
				8,
				9,
				10,
				11
			]
		}
	],
	"nodes":[
		{
			"mesh":0,
			"name":"\u5186\u67f1.007",
			"scale":[
				0.622714638710022,
				0.622714638710022,
				0.622714638710022
			],
			"translation":[
				0.6285219192504883,
				0.6425243020057678,
				4.7377519607543945
			]
		},
		{
			"mesh":1,
			"name":"\u5186\u67f1.006",
			"scale":[
				0.622714638710022,
				0.622714638710022,
				0.622714638710022
			],
			"translation":[
				0.6285219192504883,
				0.6425243020057678,
				4.7377519607543945
			]
		},
		{
			"mesh":2,
			"name":"\u5186\u67f1.005",
			"scale":[
				0.622714638710022,
				0.622714638710022,
				0.622714638710022
			],
			"translation":[
				0.6285219192504883,
				0.6425243020057678,
				4.7377519607543945
			]
		},
		{
			"mesh":3,
			"name":"\u5186\u67f1.004",
			"scale":[
				0.622714638710022,
				0.622714638710022,
				0.622714638710022
			],
			"translation":[
				0.6285219192504883,
				0.6425243020057678,
				4.7377519607543945
			]
		},
		{
			"mesh":4,
			"name":"\u5186\u67f1.003",
			"scale":[
				0.622714638710022,
				0.622714638710022,
				0.622714638710022
			],
			"translation":[
				0.6285219192504883,
				0.6425243020057678,
				4.25911808013916
			]
		},
		{
			"mesh":5,
			"name":"\u5186\u67f1.001",
			"scale":[
				0.622714638710022,
				0.622714638710022,
				0.622714638710022
			],
			"translation":[
				0.6285219192504883,
				0.6425243020057678,
				4.25911808013916
			]
		},
		{
			"name":"SP4",
			"translation":[
				0.8507604598999023,
				-0.24838536977767944,
				-3.11171817779541
			]
		},
		{
			"name":"SP3",
			"translation":[
				0.4490933418273926,
				-0.26935189962387085,
				-3.11171817779541
			]
		},
		{
			"name":"SP2",
			"translation":[
				0.4329901337623596,
				0.1407705545425415,
				-3.11171817779541
			]
		},
		{
			"name":"SP1",
			"translation":[
				0.8593447804450989,
				0.1407705545425415,
				-3.11171817779541
			]
		},
		{
			"mesh":6,
			"name":"\u5186\u9310",
			"rotation":[
				-0.7071068286895752,
				0,
				0,
				0.7071068286895752
			],
			"translation":[
				0.6285219192504883,
				0,
				0
			]
		},
		{
			"mesh":7,
			"name":"\u5e73\u9762.001",
			"translation":[
				-0.8774394989013672,
				0,
				0
			]
		}
	],
	"materials":[
		{
			"doubleSided":true,
			"name":"\u30de\u30c6\u30ea\u30a2\u30eb.003",
			"normalTexture":{
				"index":0
			},
			"pbrMetallicRoughness":{
				"baseColorFactor":[
					0.029629647731781006,
					0.029629647731781006,
					0.029629647731781006,
					1
				],
				"metallicFactor":0.9778576493263245,
				"roughnessFactor":0.18698608875274658
			}
		},
		{
			"doubleSided":true,
			"name":"Material",
			"normalTexture":{
				"index":1
			},
			"pbrMetallicRoughness":{
				"baseColorFactor":[
					0.029629647731781006,
					0.029629647731781006,
					0.029629647731781006,
					1
				],
				"metallicFactor":0.9778576493263245,
				"roughnessFactor":0.18698608875274658
			}
		}
	],
	"meshes":[
		{
			"name":"\u5186\u67f1.006",
			"primitives":[
				{
					"attributes":{
						"POSITION":0,
						"NORMAL":1,
						"TEXCOORD_0":2
					},
					"indices":3,
					"material":0
				}
			]
		},
		{
			"name":"\u5186\u67f1.005",
			"primitives":[
				{
					"attributes":{
						"POSITION":4,
						"NORMAL":5,
						"TEXCOORD_0":6
					},
					"indices":7,
					"material":0
				}
			]
		},
		{
			"name":"\u5186\u67f1.004",
			"primitives":[
				{
					"attributes":{
						"POSITION":8,
						"NORMAL":9,
						"TEXCOORD_0":10
					},
					"indices":11,
					"material":0
				}
			]
		},
		{
			"name":"\u5186\u67f1.003",
			"primitives":[
				{
					"attributes":{
						"POSITION":12,
						"NORMAL":13,
						"TEXCOORD_0":14
					},
					"indices":15,
					"material":0
				}
			]
		},
		{
			"name":"\u5186\u67f1.002",
			"primitives":[
				{
					"attributes":{
						"POSITION":16,
						"NORMAL":17,
						"TEXCOORD_0":18
					},
					"indices":19,
					"material":0
				}
			]
		},
		{
			"name":"\u5186\u67f1.001",
			"primitives":[
				{
					"attributes":{
						"POSITION":20,
						"NORMAL":21,
						"TEXCOORD_0":22
					},
					"indices":23,
					"material":0
				}
			]
		},
		{
			"name":"\u5186\u9310",
			"primitives":[
				{
					"attributes":{
						"POSITION":24,
						"NORMAL":25,
						"TEXCOORD_0":26
					},
					"indices":27,
					"material":1
				}
			]
		},
		{
			"name":"\u5e73\u9762.001",
			"primitives":[
				{
					"attributes":{
						"POSITION":28,
						"NORMAL":29,
						"TEXCOORD_0":30
					},
					"indices":31,
					"material":0
				}
			]
		}
	],
	"textures":[
		{
			"sampler":0,
			"source":0
		},
		{
			"sampler":0,
			"source":1
		}
	],
	"images":[
		{
			"mimeType":"image/png",
			"name":"Mecha2",
			"uri":"Mecha2.png"
		},
		{
			"mimeType":"image/png",
			"name":"rubber_tiles_nor_gl_4k",
			"uri":"rubber_tiles_nor_gl_4k.png"
		}
	],
	"accessors":[
		{
			"bufferView":0,
			"componentType":5126,
			"count":234,
			"max":[
				-0.1708446741104126,
				-0.6398661732673645,
				-10.431341171264648
			],
			"min":[
				-0.4617539644241333,
				-0.9307754635810852,
				-12.665262222290039
			],
			"type":"VEC3"
		},
		{
			"bufferView":1,
			"componentType":5126,
			"count":234,
			"type":"VEC3"
		},
		{
			"bufferView":2,
			"componentType":5126,
			"count":234,
			"type":"VEC2"
		},
		{
			"bufferView":3,
			"componentType":5123,
			"count":1140,
			"type":"SCALAR"
		},
		{
			"bufferView":4,
			"componentType":5126,
			"count":234,
			"max":[
				0.5020531415939331,
				-0.6398661732673645,
				-10.431341171264648
			],
			"min":[
				0.2111438512802124,
				-0.9307754635810852,
				-12.665262222290039
			],
			"type":"VEC3"
		},
		{
			"bufferView":5,
			"componentType":5126,
			"count":234,
			"type":"VEC3"
		},
		{
			"bufferView":6,
			"componentType":5126,
			"count":234,
			"type":"VEC2"
		},
		{
			"bufferView":7,
			"componentType":5123,
			"count":1140,
			"type":"SCALAR"
		},
		{
			"bufferView":8,
			"componentType":5126,
			"count":234,
			"max":[
				-0.1529484987258911,
				-1.302026391029358,
				-10.431341171264648
			],
			"min":[
				-0.4438577890396118,
				-1.5929356813430786,
				-12.665262222290039
			],
			"type":"VEC3"
		},
		{
			"bufferView":9,
			"componentType":5126,
			"count":234,
			"type":"VEC3"
		},
		{
			"bufferView":10,
			"componentType":5126,
			"count":234,
			"type":"VEC2"
		},
		{
			"bufferView":11,
			"componentType":5123,
			"count":1140,
			"type":"SCALAR"
		},
		{
			"bufferView":12,
			"componentType":5126,
			"count":234,
			"max":[
				0.49847376346588135,
				-1.2698131799697876,
				-10.431341171264648
			],
			"min":[
				0.2075645923614502,
				-1.5607224702835083,
				-12.665262222290039
			],
			"type":"VEC3"
		},
		{
			"bufferView":13,
			"componentType":5126,
			"count":234,
			"type":"VEC3"
		},
		{
			"bufferView":14,
			"componentType":5126,
			"count":234,
			"type":"VEC2"
		},
		{
			"bufferView":15,
			"componentType":5123,
			"count":1140,
			"type":"SCALAR"
		},
		{
			"bufferView":16,
			"componentType":5126,
			"count":242,
			"max":[
				0.8698717355728149,
				-0.26200541853904724,
				-9.691886901855469
			],
			"min":[
				-0.8517056703567505,
				-1.9583796262741089,
				-10.571708679199219
			],
			"type":"VEC3"
		},
		{
			"bufferView":17,
			"componentType":5126,
			"count":242,
			"type":"VEC3"
		},
		{
			"bufferView":18,
			"componentType":5126,
			"count":242,
			"type":"VEC2"
		},
		{
			"bufferView":19,
			"componentType":5123,
			"count":990,
			"type":"SCALAR"
		},
		{
			"bufferView":20,
			"componentType":5126,
			"count":350,
			"max":[
				0.9036544561386108,
				-0.2512904107570648,
				-7.195979118347168
			],
			"min":[
				-0.8345381021499634,
				-1.9881505966186523,
				-9.778800964355469
			],
			"type":"VEC3"
		},
		{
			"bufferView":21,
			"componentType":5126,
			"count":350,
			"type":"VEC3"
		},
		{
			"bufferView":22,
			"componentType":5126,
			"count":350,
			"type":"VEC2"
		},
		{
			"bufferView":23,
			"componentType":5123,
			"count":648,
			"type":"SCALAR"
		},
		{
			"bufferView":24,
			"componentType":5126,
			"count":34,
			"max":[
				0.5559508800506592,
				0.7250314354896545,
				0.8618605136871338
			],
			"min":[
				-0.5559508800506592,
				-0.7000000476837158,
				-0.8999999761581421
			],
			"type":"VEC3"
		},
		{
			"bufferView":25,
			"componentType":5126,
			"count":34,
			"type":"VEC3"
		},
		{
			"bufferView":26,
			"componentType":5126,
			"count":34,
			"type":"VEC2"
		},
		{
			"bufferView":27,
			"componentType":5123,
			"count":156,
			"type":"SCALAR"
		},
		{
			"bufferView":28,
			"componentType":5126,
			"count":192,
			"max":[
				1.1645526885986328,
				0.265929639339447,
				0.6334658861160278
			],
			"min":[
				0.7432588338851929,
				-0.3622896075248718,
				-0.5374832153320312
			],
			"type":"VEC3"
		},
		{
			"bufferView":29,
			"componentType":5126,
			"count":192,
			"type":"VEC3"
		},
		{
			"bufferView":30,
			"componentType":5126,
			"count":192,
			"type":"VEC2"
		},
		{
			"bufferView":31,
			"componentType":5123,
			"count":288,
			"type":"SCALAR"
		}
	],
	"bufferViews":[
		{
			"buffer":0,
			"byteLength":2808,
			"byteOffset":0,
			"target":34962
		},
		{
			"buffer":0,
			"byteLength":2808,
			"byteOffset":2808,
			"target":34962
		},
		{
			"buffer":0,
			"byteLength":1872,
			"byteOffset":5616,
			"target":34962
		},
		{
			"buffer":0,
			"byteLength":2280,
			"byteOffset":7488,
			"target":34963
		},
		{
			"buffer":0,
			"byteLength":2808,
			"byteOffset":9768,
			"target":34962
		},
		{
			"buffer":0,
			"byteLength":2808,
			"byteOffset":12576,
			"target":34962
		},
		{
			"buffer":0,
			"byteLength":1872,
			"byteOffset":15384,
			"target":34962
		},
		{
			"buffer":0,
			"byteLength":2280,
			"byteOffset":17256,
			"target":34963
		},
		{
			"buffer":0,
			"byteLength":2808,
			"byteOffset":19536,
			"target":34962
		},
		{
			"buffer":0,
			"byteLength":2808,
			"byteOffset":22344,
			"target":34962
		},
		{
			"buffer":0,
			"byteLength":1872,
			"byteOffset":25152,
			"target":34962
		},
		{
			"buffer":0,
			"byteLength":2280,
			"byteOffset":27024,
			"target":34963
		},
		{
			"buffer":0,
			"byteLength":2808,
			"byteOffset":29304,
			"target":34962
		},
		{
			"buffer":0,
			"byteLength":2808,
			"byteOffset":32112,
			"target":34962
		},
		{
			"buffer":0,
			"byteLength":1872,
			"byteOffset":34920,
			"target":34962
		},
		{
			"buffer":0,
			"byteLength":2280,
			"byteOffset":36792,
			"target":34963
		},
		{
			"buffer":0,
			"byteLength":2904,
			"byteOffset":39072,
			"target":34962
		},
		{
			"buffer":0,
			"byteLength":2904,
			"byteOffset":41976,
			"target":34962
		},
		{
			"buffer":0,
			"byteLength":1936,
			"byteOffset":44880,
			"target":34962
		},
		{
			"buffer":0,
			"byteLength":1980,
			"byteOffset":46816,
			"target":34963
		},
		{
			"buffer":0,
			"byteLength":4200,
			"byteOffset":48796,
			"target":34962
		},
		{
			"buffer":0,
			"byteLength":4200,
			"byteOffset":52996,
			"target":34962
		},
		{
			"buffer":0,
			"byteLength":2800,
			"byteOffset":57196,
			"target":34962
		},
		{
			"buffer":0,
			"byteLength":1296,
			"byteOffset":59996,
			"target":34963
		},
		{
			"buffer":0,
			"byteLength":408,
			"byteOffset":61292,
			"target":34962
		},
		{
			"buffer":0,
			"byteLength":408,
			"byteOffset":61700,
			"target":34962
		},
		{
			"buffer":0,
			"byteLength":272,
			"byteOffset":62108,
			"target":34962
		},
		{
			"buffer":0,
			"byteLength":312,
			"byteOffset":62380,
			"target":34963
		},
		{
			"buffer":0,
			"byteLength":2304,
			"byteOffset":62692,
			"target":34962
		},
		{
			"buffer":0,
			"byteLength":2304,
			"byteOffset":64996,
			"target":34962
		},
		{
			"buffer":0,
			"byteLength":1536,
			"byteOffset":67300,
			"target":34962
		},
		{
			"buffer":0,
			"byteLength":576,
			"byteOffset":68836,
			"target":34963
		}
	],
	"samplers":[
		{
			"magFilter":9729,
			"minFilter":9987
		}
	],
	"buffers":[
		{
			"byteLength":69412,
			"uri":"ChainGun.bin"
		}
	]
}
