{
	"asset":{
		"generator":"Khronos glTF Blender I/O v4.4.56",
		"version":"2.0"
	},
	"scene":0,
	"scenes":[
		{
			"name":"Scene",
			"nodes":[
				0,
				1
			]
		}
	],
	"nodes":[
		{
			"mesh":0,
			"name":"\u7acb\u65b9\u4f53_cell"
		},
		{
			"mesh":1,
			"name":"COL",
			"rotation":[
				0,
				0.3826834559440613,
				0,
				0.9238795638084412
			],
			"translation":[
				0,
				11.6899995803833,
				0
			]
		}
	],
	"materials":[
		{
			"doubleSided":true,
			"name":"\u30de\u30c6\u30ea\u30a2\u30eb.001",
			"normalTexture":{
				"index":0,
				"scale":2.999999523162842
			},
			"pbrMetallicRoughness":{
				"baseColorTexture":{
					"index":1
				},
				"metallicFactor":0.08157099783420563,
				"metallicRoughnessTexture":{
					"index":2
				}
			}
		}
	],
	"meshes":[
		{
			"name":"\u7acb\u65b9\u4f53_cell.026",
			"primitives":[
				{
					"attributes":{
						"POSITION":0,
						"NORMAL":1,
						"TEXCOORD_0":2
					},
					"indices":3,
					"material":0
				}
			]
		},
		{
			"name":"\u5186\u9310.001",
			"primitives":[
				{
					"attributes":{
						"POSITION":4,
						"NORMAL":5,
						"TEXCOORD_0":6
					},
					"indices":7
				}
			]
		}
	],
	"textures":[
		{
			"sampler":0,
			"source":0
		},
		{
			"sampler":0,
			"source":1
		},
		{
			"sampler":0,
			"source":2
		}
	],
	"images":[
		{
			"mimeType":"image/png",
			"name":"PavingStones084_1K-PNG_NormalGL",
			"uri":"PavingStones084_1K-PNG_NormalGL.png"
		},
		{
			"mimeType":"image/png",
			"name":"cracked_concrete_wall_diff_4k",
			"uri":"cracked_concrete_wall_diff_4k.png"
		},
		{
			"mimeType":"image/png",
			"name":"Rock046L_1K-PNG_Roughness",
			"uri":"Rock046L_1K-PNG_Roughness.png"
		}
	],
	"accessors":[
		{
			"bufferView":0,
			"componentType":5126,
			"count":1236,
			"max":[
				33.67015838623047,
				20.65260124206543,
				24.265342712402344
			],
			"min":[
				-30.00086784362793,
				0.4408130645751953,
				-29.876178741455078
			],
			"type":"VEC3"
		},
		{
			"bufferView":1,
			"componentType":5126,
			"count":1236,
			"type":"VEC3"
		},
		{
			"bufferView":2,
			"componentType":5126,
			"count":1236,
			"type":"VEC2"
		},
		{
			"bufferView":3,
			"componentType":5123,
			"count":2058,
			"type":"SCALAR"
		},
		{
			"bufferView":4,
			"componentType":5126,
			"count":24,
			"max":[
				51.040000915527344,
				11.369999885559082,
				51.040000915527344
			],
			"min":[
				-51.040000915527344,
				-11.369999885559082,
				-51.040000915527344
			],
			"type":"VEC3"
		},
		{
			"bufferView":5,
			"componentType":5126,
			"count":24,
			"type":"VEC3"
		},
		{
			"bufferView":6,
			"componentType":5126,
			"count":24,
			"type":"VEC2"
		},
		{
			"bufferView":7,
			"componentType":5123,
			"count":36,
			"type":"SCALAR"
		}
	],
	"bufferViews":[
		{
			"buffer":0,
			"byteLength":14832,
			"byteOffset":0,
			"target":34962
		},
		{
			"buffer":0,
			"byteLength":14832,
			"byteOffset":14832,
			"target":34962
		},
		{
			"buffer":0,
			"byteLength":9888,
			"byteOffset":29664,
			"target":34962
		},
		{
			"buffer":0,
			"byteLength":4116,
			"byteOffset":39552,
			"target":34963
		},
		{
			"buffer":0,
			"byteLength":288,
			"byteOffset":43668,
			"target":34962
		},
		{
			"buffer":0,
			"byteLength":288,
			"byteOffset":43956,
			"target":34962
		},
		{
			"buffer":0,
			"byteLength":192,
			"byteOffset":44244,
			"target":34962
		},
		{
			"buffer":0,
			"byteLength":72,
			"byteOffset":44436,
			"target":34963
		}
	],
	"samplers":[
		{
			"magFilter":9729,
			"minFilter":9987
		}
	],
	"buffers":[
		{
			"byteLength":44508,
			"uri":"Rubble2.bin"
		}
	]
}
